<svg width="14" height="14" viewBox="0 0 14 14" fill="none" xmlns="http://www.w3.org/2000/svg">
<path d="M8.99414 7.50604L5.99414 8.04604L6.49414 5.00604L11.2241 0.296042C11.3171 0.202314 11.4277 0.12792 11.5496 0.0771511C11.6714 0.0263824 11.8021 0.000244141 11.9341 0.000244141C12.0662 0.000244141 12.1969 0.0263824 12.3187 0.0771511C12.4406 0.12792 12.5512 0.202314 12.6441 0.296042L13.7041 1.35604C13.7979 1.44901 13.8723 1.55961 13.923 1.68147C13.9738 1.80333 13.9999 1.93403 13.9999 2.06604C13.9999 2.19805 13.9738 2.32876 13.923 2.45062C13.8723 2.57248 13.7979 2.68308 13.7041 2.77604L8.99414 7.50604Z" fill="#8FBFFA"/>
<path fill-rule="evenodd" clip-rule="evenodd" d="M9.21563 8.736C9.46735 8.69067 9.69911 8.5692 9.87963 8.388L13.9996 4.25V11.5C13.9996 11.8978 13.8416 12.2794 13.5603 12.5607C13.279 12.842 12.8975 13 12.4996 13H4.56163L0.621627 13.985C0.534698 14.0068 0.443509 14.0048 0.3576 13.9793C0.271691 13.9538 0.194222 13.9056 0.133299 13.8399C0.0723755 13.7742 0.0302381 13.6933 0.0112959 13.6057C-0.00764619 13.5181 -0.00269663 13.427 0.0256267 13.342L0.999627 10.419V1.5C0.999627 1.10218 1.15766 0.720644 1.43897 0.43934C1.72027 0.158035 2.1018 0 2.49963 0L9.74963 0L5.61163 4.12C5.42586 4.3052 5.30307 4.54414 5.26063 4.803L4.76063 7.843C4.72816 8.04046 4.74358 8.24283 4.80558 8.4331C4.86759 8.62337 4.97437 8.79596 5.11694 8.93638C5.25952 9.0768 5.43372 9.18094 5.62491 9.24004C5.8161 9.29914 6.01868 9.31147 6.21563 9.276L9.21563 8.736Z" fill="white"/>
</svg>
