<svg width="14" height="14" viewBox="0 0 14 14" fill="none" xmlns="http://www.w3.org/2000/svg">
<g clip-path="url(#clip0_740_473)">
<path d="M0.5 13.5L4.5 12.5H12.5C12.7652 12.5 13.0196 12.3946 13.2071 12.2071C13.3946 12.0196 13.5 11.7652 13.5 11.5V1.5C13.5 1.23478 13.3946 0.98043 13.2071 0.792893C13.0196 0.605357 12.7652 0.5 12.5 0.5H2.5C2.23478 0.5 1.98043 0.605357 1.79289 0.792893C1.60536 0.98043 1.5 1.23478 1.5 1.5V10.5L0.5 13.5Z" fill="#D7E0FF"/>
<path d="M8.36328 8.13702L5.36328 8.67702L5.86328 5.63702L10.5933 0.927024C10.6862 0.833295 10.7968 0.758901 10.9187 0.708133C11.0406 0.657364 11.1713 0.631226 11.3033 0.631226C11.4353 0.631226 11.566 0.657364 11.6879 0.708133C11.8097 0.758901 11.9203 0.833295 12.0133 0.927024L13.0733 1.98702C13.167 2.07999 13.2414 2.19059 13.2922 2.31245C13.3429 2.43431 13.3691 2.56501 13.3691 2.69702C13.3691 2.82904 13.3429 2.95974 13.2922 3.0816C13.2414 3.20346 13.167 3.31406 13.0733 3.40702L8.36328 8.13702Z" fill="white"/>
<path d="M7.5 0.5H2.5C2.23478 0.5 1.98043 0.605357 1.79289 0.792893C1.60536 0.98043 1.5 1.23478 1.5 1.5V10.5L0.5 13.5L4.5 12.5H12.5C12.7652 12.5 13.0196 12.3946 13.2071 12.2071C13.3946 12.0196 13.5 11.7652 13.5 11.5V6.5" stroke="#4147D5" stroke-linecap="round" stroke-linejoin="round"/>
<path d="M8.36328 8.13702L5.36328 8.67702L5.86328 5.63702L10.5933 0.927024C10.6862 0.833295 10.7968 0.758901 10.9187 0.708133C11.0406 0.657364 11.1713 0.631226 11.3033 0.631226C11.4353 0.631226 11.566 0.657364 11.6879 0.708133C11.8097 0.758901 11.9203 0.833295 12.0133 0.927024L13.0733 1.98702C13.167 2.07999 13.2414 2.19059 13.2922 2.31245C13.3429 2.43431 13.3691 2.56501 13.3691 2.69702C13.3691 2.82904 13.3429 2.95974 13.2922 3.0816C13.2414 3.20346 13.167 3.31406 13.0733 3.40702L8.36328 8.13702Z" stroke="#4147D5" stroke-linecap="round" stroke-linejoin="round"/>
</g>
<defs>
<clipPath id="clip0_740_473">
<rect width="14" height="14" fill="white"/>
</clipPath>
</defs>
</svg>
