<svg width="14" height="14" viewBox="0 0 14 14" fill="none" xmlns="http://www.w3.org/2000/svg">
<g clip-path="url(#clip0_740_638)">
<path d="M9.793 13.207C9.60551 13.3945 9.3512 13.4999 9.086 13.5H4.914C4.64881 13.4999 4.39449 13.3945 4.207 13.207L0.793 9.793C0.605451 9.60551 0.500057 9.3512 0.5 9.086V4.914C0.500057 4.64881 0.605451 4.39449 0.793 4.207L4.207 0.793C4.39449 0.605451 4.64881 0.500057 4.914 0.5H9.086C9.3512 0.500057 9.60551 0.605451 9.793 0.793L13.207 4.207C13.3945 4.39449 13.4999 4.64881 13.5 4.914V9.086C13.4999 9.3512 13.3945 9.60551 13.207 9.793L9.793 13.207Z" fill="#D7E0FF"/>
<path d="M7 4V7.25M9.793 13.207C9.60551 13.3945 9.3512 13.4999 9.086 13.5H4.914C4.64881 13.4999 4.39449 13.3945 4.207 13.207L0.793 9.793C0.605451 9.60551 0.500057 9.3512 0.5 9.086V4.914C0.500057 4.64881 0.605451 4.39449 0.793 4.207L4.207 0.793C4.39449 0.605451 4.64881 0.500057 4.914 0.5H9.086C9.3512 0.500057 9.60551 0.605451 9.793 0.793L13.207 4.207C13.3945 4.39449 13.4999 4.64881 13.5 4.914V9.086C13.4999 9.3512 13.3945 9.60551 13.207 9.793L9.793 13.207Z" stroke="#4147D5" stroke-linecap="round" stroke-linejoin="round"/>
<path d="M7 10C6.9337 10 6.87011 9.97366 6.82322 9.92678C6.77634 9.87989 6.75 9.8163 6.75 9.75C6.75 9.6837 6.77634 9.62011 6.82322 9.57322C6.87011 9.52634 6.9337 9.5 7 9.5M7 10C7.0663 10 7.12989 9.97366 7.17678 9.92678C7.22366 9.87989 7.25 9.8163 7.25 9.75C7.25 9.6837 7.22366 9.62011 7.17678 9.57322C7.12989 9.52634 7.0663 9.5 7 9.5" fill="#4147D5" stroke="#4147D5" stroke-linecap="round" stroke-linejoin="round"/>
</g>
<defs>
<clipPath id="clip0_740_638">
<rect width="14" height="14" fill="white"/>
</clipPath>
</defs>
</svg>
