<svg width="14" height="14" viewBox="0 0 14 14" fill="none" xmlns="http://www.w3.org/2000/svg">
<g clip-path="url(#clip0_740_643)">
<path fill-rule="evenodd" clip-rule="evenodd" d="M4.914 1.53971e-07C4.51631 0.000350258 4.13504 0.158615 3.854 0.44L0.439 3.853C0.299733 3.99236 0.189283 4.15778 0.113959 4.33983C0.0386344 4.52188 -8.9109e-05 4.71698 1.53971e-07 4.914V9.086C1.53971e-07 9.484 0.158 9.866 0.44 10.146L3.854 13.561C4.1352 13.842 4.51645 13.9999 4.914 14H9.086C9.48369 13.9997 9.86497 13.8414 10.146 13.56L13.561 10.146C13.842 9.8648 13.9999 9.48355 14 9.086V4.914C13.9997 4.51631 13.8414 4.13504 13.56 3.854L10.147 0.439C10.0076 0.299733 9.84222 0.189283 9.66017 0.113959C9.47812 0.0386344 9.28302 -8.9109e-05 9.086 1.53971e-07H4.914Z" fill="#8FBFFA"/>
<path fill-rule="evenodd" clip-rule="evenodd" d="M7.75 3.875C7.75 3.67609 7.67098 3.48532 7.53033 3.34467C7.38968 3.20402 7.19891 3.125 7 3.125C6.80109 3.125 6.61032 3.20402 6.46967 3.34467C6.32902 3.48532 6.25 3.67609 6.25 3.875V7.125C6.25 7.32391 6.32902 7.51468 6.46967 7.65533C6.61032 7.79598 6.80109 7.875 7 7.875C7.19891 7.875 7.38968 7.79598 7.53033 7.65533C7.67098 7.51468 7.75 7.32391 7.75 7.125V3.875ZM7 10.875C7.26522 10.875 7.51957 10.7696 7.70711 10.5821C7.89464 10.3946 8 10.1402 8 9.875C8 9.60978 7.89464 9.35543 7.70711 9.16789C7.51957 8.98036 7.26522 8.875 7 8.875C6.73478 8.875 6.48043 8.98036 6.29289 9.16789C6.10536 9.35543 6 9.60978 6 9.875C6 10.1402 6.10536 10.3946 6.29289 10.5821C6.48043 10.7696 6.73478 10.875 7 10.875Z" fill="white"/>
</g>
<defs>
<clipPath id="clip0_740_643">
<rect width="14" height="14" fill="white"/>
</clipPath>
</defs>
</svg>
