<svg width="28" height="28" viewBox="0 0 28 28" fill="none" xmlns="http://www.w3.org/2000/svg">
<path fill-rule="evenodd" clip-rule="evenodd" d="M5.4425 26.2502C4.46425 26.2502 3.535 25.8617 2.835 25.1704C2.135 24.4792 1.75525 23.5412 1.75525 22.5629V5.43041C1.75525 4.45216 2.14375 3.52291 2.835 2.82291C3.52625 2.12291 4.46425 1.74316 5.4425 1.74316H22.575C23.5532 1.74316 24.4825 2.13166 25.1825 2.82291C25.8825 3.51416 26.2622 4.45216 26.2622 5.43041V22.5629C26.2622 23.5412 25.8737 24.4704 25.1825 25.1704C24.4912 25.8704 23.5532 26.2502 22.575 26.2502H5.4425ZM20.405 15.9077H17.815V24.4652H22.575C22.825 24.4659 23.0727 24.4171 23.3038 24.3218C23.5349 24.2264 23.7449 24.0863 23.9216 23.9096C24.0984 23.7328 24.2385 23.5228 24.3339 23.2917C24.4292 23.0606 24.4779 22.8129 24.4772 22.5629V5.43041C24.4775 5.18054 24.4284 4.93308 24.3329 4.70218C24.2374 4.47129 24.0973 4.26149 23.9206 4.08481C23.7439 3.90812 23.5341 3.76801 23.3032 3.6725C23.0723 3.57698 22.8249 3.52793 22.575 3.52816H5.4425C4.93842 3.52955 4.45538 3.73041 4.09894 4.08685C3.74249 4.44329 3.54163 4.92633 3.54025 5.43041V22.5629C3.54163 23.067 3.74249 23.55 4.09894 23.9065C4.45538 24.2629 4.93842 24.4638 5.4425 24.4652H14.9625V15.9077H12.11V13.0552H14.9625V11.5222C14.9625 8.61716 16.3765 7.33966 18.795 7.33966C19.9272 7.33966 20.5362 7.42191 20.825 7.46216L20.8425 7.46391V10.1939H19.1975C18.368 10.1939 17.976 10.5492 17.857 11.2649C17.8284 11.4514 17.815 11.6398 17.8167 11.8284V13.0482H20.8092L20.4015 15.9007L20.405 15.9077Z" fill="white"/>
</svg>
