<svg width="28" height="28" viewBox="0 0 28 28" fill="none" xmlns="http://www.w3.org/2000/svg">
<path d="M18.6666 8.16667C18.6666 7.85725 18.7895 7.5605 19.0083 7.34171C19.2271 7.12292 19.5239 7 19.8333 7C20.1427 7 20.4395 7.12292 20.6583 7.34171C20.877 7.5605 21 7.85725 21 8.16667C21 8.47609 20.877 8.77283 20.6583 8.99162C20.4395 9.21042 20.1427 9.33333 19.8333 9.33333C19.5239 9.33333 19.2271 9.21042 19.0083 8.99162C18.7895 8.77283 18.6666 8.47609 18.6666 8.16667Z" fill="white"/>
<path fill-rule="evenodd" clip-rule="evenodd" d="M14 8.4585C12.5303 8.4585 11.1208 9.04235 10.0815 10.0816C9.04223 11.1209 8.45837 12.5304 8.45837 14.0002C8.45837 15.4699 9.04223 16.8794 10.0815 17.9187C11.1208 18.958 12.5303 19.5418 14 19.5418C15.4698 19.5418 16.8793 18.958 17.9186 17.9187C18.9579 16.8794 19.5417 15.4699 19.5417 14.0002C19.5417 12.5304 18.9579 11.1209 17.9186 10.0816C16.8793 9.04235 15.4698 8.4585 14 8.4585ZM10.2084 14.0002C10.2084 12.9946 10.6079 12.0301 11.3189 11.319C12.03 10.608 12.9944 10.2085 14 10.2085C15.0057 10.2085 15.9701 10.608 16.6812 11.319C17.3922 12.0301 17.7917 12.9946 17.7917 14.0002C17.7917 15.0058 17.3922 15.9702 16.6812 16.6813C15.9701 17.3924 15.0057 17.7918 14 17.7918C12.9944 17.7918 12.03 17.3924 11.3189 16.6813C10.6079 15.9702 10.2084 15.0058 10.2084 14.0002Z" fill="white"/>
<path fill-rule="evenodd" clip-rule="evenodd" d="M20.1343 3.30495C16.0573 2.85278 11.9427 2.85278 7.86564 3.30495C5.51831 3.56745 3.62247 5.41662 3.34714 7.77562C2.86427 11.911 2.86427 16.0886 3.34714 20.2239C3.62247 22.5829 5.51714 24.4321 7.86564 24.6946C11.9428 25.1458 16.0572 25.1458 20.1343 24.6946C22.4816 24.4321 24.3775 22.5829 24.6528 20.2239C25.1357 16.0886 25.1357 11.911 24.6528 7.77562C24.3775 5.41662 22.4828 3.56745 20.1343 3.30495ZM8.05931 5.04328C12.0077 4.60544 15.9923 4.60544 19.9406 5.04328C21.4923 5.21828 22.7348 6.44212 22.9156 7.97978C23.3836 11.9795 23.3836 16.0201 22.9156 20.0198C22.8221 20.7723 22.4776 21.4714 21.9378 22.004C21.398 22.5366 20.6944 22.8717 19.9406 22.9551C15.9923 23.393 12.0077 23.393 8.05931 22.9551C7.30557 22.8717 6.60197 22.5366 6.06215 22.004C5.52234 21.4714 5.17784 20.7723 5.08431 20.0198C4.61631 16.0201 4.61631 11.9795 5.08431 7.97978C5.17784 7.22723 5.52234 6.52819 6.06215 5.99558C6.60197 5.46296 7.30557 5.12671 8.05931 5.04328Z" fill="white"/>
</svg>
