<svg width="33" height="33" viewBox="0 0 33 33" fill="none" xmlns="http://www.w3.org/2000/svg">
<path d="M24.75 4.125C25.844 4.125 26.8932 4.5596 27.6668 5.33318C28.4404 6.10677 28.875 7.15598 28.875 8.25V24.75C28.875 25.844 28.4404 26.8932 27.6668 27.6668C26.8932 28.4404 25.844 28.875 24.75 28.875H8.25C7.15598 28.875 6.10677 28.4404 5.33318 27.6668C4.5596 26.8932 4.125 25.844 4.125 24.75V8.25C4.125 7.15598 4.5596 6.10677 5.33318 5.33318C6.10677 4.5596 7.15598 4.125 8.25 4.125H24.75ZM24.75 6.875H8.25C7.88533 6.875 7.53559 7.01987 7.27773 7.27773C7.01987 7.53559 6.875 7.88533 6.875 8.25V24.75C6.875 25.1147 7.01987 25.4644 7.27773 25.7223C7.53559 25.9801 7.88533 26.125 8.25 26.125H24.75C25.1147 26.125 25.4644 25.9801 25.7223 25.7223C25.9801 25.4644 26.125 25.1147 26.125 24.75V8.25C26.125 7.88533 25.9801 7.53559 25.7223 7.27773C25.4644 7.01987 25.1147 6.875 24.75 6.875ZM11 13.75C11.3368 13.75 11.6618 13.8737 11.9135 14.0975C12.1652 14.3213 12.326 14.6297 12.3654 14.9641L12.375 15.125V22C12.3746 22.3505 12.2404 22.6875 11.9998 22.9424C11.7593 23.1972 11.4304 23.3506 11.0806 23.3711C10.7307 23.3916 10.3862 23.2778 10.1175 23.0529C9.84873 22.8279 9.67602 22.5089 9.63462 22.1609L9.625 22V15.125C9.625 14.7603 9.76987 14.4106 10.0277 14.1527C10.2856 13.8949 10.6353 13.75 11 13.75ZM15.125 12.375C15.447 12.375 15.7588 12.4879 16.0061 12.6942C16.2534 12.9005 16.4204 13.1871 16.478 13.5039C16.755 13.3439 17.041 13.2002 17.3346 13.0735C18.2518 12.6816 19.6254 12.4657 20.8656 12.8549C21.516 13.0611 22.1691 13.4461 22.6531 14.102C23.0863 14.6864 23.32 15.3973 23.3667 16.1961L23.375 16.5V22C23.3746 22.3505 23.2404 22.6875 22.9998 22.9424C22.7593 23.1972 22.4304 23.3506 22.0806 23.3711C21.7307 23.3916 21.3862 23.2778 21.1175 23.0529C20.8487 22.8279 20.676 22.5089 20.6346 22.1609L20.625 22V16.5C20.625 16.0462 20.515 15.8345 20.4435 15.7369C20.3407 15.6094 20.1994 15.5186 20.0406 15.4784C19.5621 15.3271 18.8732 15.4069 18.4154 15.6021C17.7279 15.8964 17.0981 16.3584 16.6691 16.786L16.5 16.9675V22C16.4996 22.3505 16.3654 22.6875 16.1248 22.9424C15.8843 23.1972 15.5554 23.3506 15.2056 23.3711C14.8557 23.3916 14.5112 23.2778 14.2425 23.0529C13.9737 22.8279 13.801 22.5089 13.7596 22.1609L13.75 22V13.75C13.75 13.3853 13.8949 13.0356 14.1527 12.7777C14.4106 12.5199 14.7603 12.375 15.125 12.375ZM11 9.625C11.3647 9.625 11.7144 9.76987 11.9723 10.0277C12.2301 10.2856 12.375 10.6353 12.375 11C12.375 11.3647 12.2301 11.7144 11.9723 11.9723C11.7144 12.2301 11.3647 12.375 11 12.375C10.6353 12.375 10.2856 12.2301 10.0277 11.9723C9.76987 11.7144 9.625 11.3647 9.625 11C9.625 10.6353 9.76987 10.2856 10.0277 10.0277C10.2856 9.76987 10.6353 9.625 11 9.625Z" fill="white"/>
</svg>
