<svg width="15" height="13" viewBox="0 0 15 13" fill="none" xmlns="http://www.w3.org/2000/svg">
<path d="M5.5 6C6.29565 6 7.05871 5.68393 7.62132 5.12132C8.18393 4.55871 8.5 3.79565 8.5 3C8.5 2.20435 8.18393 1.44129 7.62132 0.87868C7.05871 0.316071 6.29565 0 5.5 0C4.70435 0 3.94129 0.316071 3.37868 0.87868C2.81607 1.44129 2.5 2.20435 2.5 3C2.5 3.79565 2.81607 4.55871 3.37868 5.12132C3.94129 5.68393 4.70435 6 5.5 6ZM0.5 12C0.5 10.6739 1.02678 9.40215 1.96447 8.46447C2.90215 7.52678 4.17392 7 5.5 7C6.82608 7 8.09785 7.52678 9.03553 8.46447C9.97322 9.40215 10.5 10.6739 10.5 12C10.5 12.1326 10.4473 12.2598 10.3536 12.3536C10.2598 12.4473 10.1326 12.5 10 12.5H1C0.867392 12.5 0.740215 12.4473 0.646447 12.3536C0.552678 12.2598 0.5 12.1326 0.5 12Z" fill="white"/>
<path fill-rule="evenodd" clip-rule="evenodd" d="M11.6788 12.5H14.0008C14.1334 12.5 14.2606 12.4473 14.3544 12.3535C14.4481 12.2598 14.5008 12.1326 14.5008 12C14.5008 11.323 14.3633 10.6531 14.0967 10.0308C13.83 9.40858 13.4398 8.84696 12.9497 8.38C12.4595 7.91304 11.8797 7.55048 11.2452 7.3143C10.6108 7.07811 9.93499 6.97322 9.25881 7.00599C10.0333 7.58785 10.6617 8.34204 11.0943 9.20885C11.5268 10.0757 11.7516 11.0313 11.7508 12C11.7508 12.1747 11.7268 12.3413 11.6788 12.5ZM8.63281 5.87299C9.08089 6.00797 9.55433 6.03625 10.0153 5.95557C10.4762 5.8749 10.9119 5.68751 11.2875 5.40838C11.6631 5.12925 11.9682 4.76613 12.1784 4.34803C12.3886 3.92993 12.4981 3.46845 12.4981 3.00049C12.4981 2.53252 12.3886 2.07105 12.1784 1.65295C11.9682 1.23485 11.6631 0.871725 11.2875 0.592595C10.9119 0.313466 10.4762 0.126075 10.0153 0.0454027C9.55433 -0.0352701 9.08089 -0.00698797 8.63281 0.127988C9.35253 0.911197 9.75158 1.93631 9.75081 2.99999C9.75184 4.06401 9.35277 5.08953 8.63281 5.87299Z" fill="#8FBFFA"/>
</svg>
