<svg width="14" height="14" viewBox="0 0 14 14" fill="none" xmlns="http://www.w3.org/2000/svg">
<path d="M5 6C5.66304 6 6.29893 5.73661 6.76777 5.26777C7.23661 4.79893 7.5 4.16304 7.5 3.5C7.5 2.83696 7.23661 2.20107 6.76777 1.73223C6.29893 1.26339 5.66304 1 5 1C4.33696 1 3.70107 1.26339 3.23223 1.73223C2.76339 2.20107 2.5 2.83696 2.5 3.5C2.5 4.16304 2.76339 4.79893 3.23223 5.26777C3.70107 5.73661 4.33696 6 5 6ZM0.5 13H9.5V12.458C9.49359 11.8534 9.36569 11.2563 9.12391 10.7022C8.88212 10.1481 8.53139 9.6482 8.09256 9.23232C7.65373 8.81644 7.13576 8.49303 6.56944 8.28133C6.00313 8.06963 5.40003 7.97396 4.796 8C3.64628 8.05455 2.56093 8.54663 1.76224 9.37543C0.963556 10.2042 0.511978 11.3071 0.5 12.458V13Z" fill="#D7E0FF"/>
<path fill-rule="evenodd" clip-rule="evenodd" d="M7 5C7.314 4.582 7.5 4.063 7.5 3.5C7.5 2.937 7.314 2.418 7 2C7.31482 1.58024 7.75374 1.27017 8.25458 1.11372C8.75542 0.957266 9.29279 0.962365 9.79057 1.12829C10.2883 1.29422 10.7213 1.61256 11.0281 2.03822C11.3349 2.46389 11.5 2.97529 11.5 3.5C11.5 4.02471 11.3349 4.53611 11.0281 4.96178C10.7213 5.38744 10.2883 5.70578 9.79057 5.87171C9.29279 6.03764 8.75542 6.04273 8.25458 5.88628C7.75374 5.72983 7.31482 5.41976 7 5ZM9.5 13H13.5V12.458C13.4936 11.8534 13.3657 11.2563 13.1239 10.7022C12.8821 10.1481 12.5314 9.6482 12.0926 9.23232C11.6537 8.81644 11.1358 8.49303 10.5694 8.28133C10.0031 8.06963 9.40003 7.97396 8.796 8C8.17132 8.02951 7.55964 8.1889 7 8.468C7.74381 8.83825 8.37088 9.40678 8.81203 10.1109C9.25318 10.8149 9.49126 11.6272 9.5 12.458V13Z" fill="white"/>
<path d="M9 6C9.66304 6 10.2989 5.73661 10.7678 5.26777C11.2366 4.79893 11.5 4.16304 11.5 3.5C11.5 2.83696 11.2366 2.20107 10.7678 1.73223C10.2989 1.26339 9.66304 1 9 1M11.5 13H13.5V12.458C13.4896 11.4454 13.1386 10.4658 12.5037 9.6769C11.8689 8.888 10.9869 8.33572 10 8.109M5 6C5.66304 6 6.29893 5.73661 6.76777 5.26777C7.23661 4.79893 7.5 4.16304 7.5 3.5C7.5 2.83696 7.23661 2.20107 6.76777 1.73223C6.29893 1.26339 5.66304 1 5 1C4.33696 1 3.70107 1.26339 3.23223 1.73223C2.76339 2.20107 2.5 2.83696 2.5 3.5C2.5 4.16304 2.76339 4.79893 3.23223 5.26777C3.70107 5.73661 4.33696 6 5 6ZM0.5 13H9.5V12.458C9.49359 11.8534 9.36569 11.2563 9.12391 10.7022C8.88212 10.1481 8.53139 9.6482 8.09256 9.23232C7.65373 8.81644 7.13576 8.49303 6.56944 8.28133C6.00313 8.06963 5.40003 7.97396 4.796 8C3.64628 8.05455 2.56093 8.54663 1.76224 9.37543C0.963556 10.2042 0.511978 11.3071 0.5 12.458V13Z" stroke="#4147D5" stroke-linecap="round" stroke-linejoin="round"/>
</svg>
