<svg width="14" height="14" viewBox="0 0 14 14" fill="none" xmlns="http://www.w3.org/2000/svg">
<g clip-path="url(#clip0_740_468)">
<path d="M13.25 2.25C13.25 1.85218 13.092 1.47064 12.8107 1.18934C12.5294 0.908035 12.1478 0.75 11.75 0.75H3.75C3.35218 0.75 2.97064 0.908035 2.68934 1.18934C2.40804 1.47064 2.25 1.85218 2.25 2.25V10.25C2.25 10.6478 2.40804 11.0294 2.68934 11.3107C2.97064 11.592 3.35218 11.75 3.75 11.75H11.75C12.1478 11.75 12.5294 11.592 12.8107 11.3107C13.092 11.0294 13.25 10.6478 13.25 10.25V2.25Z" fill="white"/>
<path d="M11 4.5C11 4.10218 10.842 3.72064 10.5607 3.43934C10.2794 3.15804 9.89782 3 9.5 3H1.5C1.10218 3 0.720644 3.15804 0.43934 3.43934C0.158035 3.72064 0 4.10218 0 4.5L0 12.5C0 12.8978 0.158035 13.2794 0.43934 13.5607C0.720644 13.842 1.10218 14 1.5 14H9.5C9.89782 14 10.2794 13.842 10.5607 13.5607C10.842 13.2794 11 12.8978 11 12.5V4.5Z" fill="#8FBFFA"/>
<path fill-rule="evenodd" clip-rule="evenodd" d="M6.25 6C6.25 5.80109 6.17098 5.61032 6.03033 5.46967C5.88968 5.32902 5.69891 5.25 5.5 5.25C5.30109 5.25 5.11032 5.32902 4.96967 5.46967C4.82902 5.61032 4.75 5.80109 4.75 6V7.75H3C2.80109 7.75 2.61032 7.82902 2.46967 7.96967C2.32902 8.11032 2.25 8.30109 2.25 8.5C2.25 8.69891 2.32902 8.88968 2.46967 9.03033C2.61032 9.17098 2.80109 9.25 3 9.25H4.75V11C4.75 11.1989 4.82902 11.3897 4.96967 11.5303C5.11032 11.671 5.30109 11.75 5.5 11.75C5.69891 11.75 5.88968 11.671 6.03033 11.5303C6.17098 11.3897 6.25 11.1989 6.25 11V9.25H8C8.19891 9.25 8.38968 9.17098 8.53033 9.03033C8.67098 8.88968 8.75 8.69891 8.75 8.5C8.75 8.30109 8.67098 8.11032 8.53033 7.96967C8.38968 7.82902 8.19891 7.75 8 7.75H6.25V6Z" fill="white"/>
</g>
<defs>
<clipPath id="clip0_740_468">
<rect width="14" height="14" fill="white"/>
</clipPath>
</defs>
</svg>
