<svg width="14" height="14" viewBox="0 0 14 14" fill="none" xmlns="http://www.w3.org/2000/svg">
<g clip-path="url(#clip0_740_463)">
<path d="M9.5 3.5H1.5C1.23478 3.5 0.98043 3.60536 0.792893 3.79289C0.605357 3.98043 0.5 4.23478 0.5 4.5V12.5C0.5 12.7652 0.605357 13.0196 0.792893 13.2071C0.98043 13.3946 1.23478 13.5 1.5 13.5H9.5C9.76522 13.5 10.0196 13.3946 10.2071 13.2071C10.3946 13.0196 10.5 12.7652 10.5 12.5V4.5C10.5 4.23478 10.3946 3.98043 10.2071 3.79289C10.0196 3.60536 9.76522 3.5 9.5 3.5Z" fill="#D7E0FF"/>
<path d="M9.5 3.5H1.5C1.23478 3.5 0.98043 3.60536 0.792893 3.79289C0.605357 3.98043 0.5 4.23478 0.5 4.5V12.5C0.5 12.7652 0.605357 13.0196 0.792893 13.2071C0.98043 13.3946 1.23478 13.5 1.5 13.5H9.5C9.76522 13.5 10.0196 13.3946 10.2071 13.2071C10.3946 13.0196 10.5 12.7652 10.5 12.5V4.5C10.5 4.23478 10.3946 3.98043 10.2071 3.79289C10.0196 3.60536 9.76522 3.5 9.5 3.5Z" stroke="#4147D5" stroke-linecap="round" stroke-linejoin="round"/>
<path d="M3.5 0.5H12.5C12.7652 0.5 13.0196 0.605357 13.2071 0.792893C13.3946 0.98043 13.5 1.23478 13.5 1.5V10.5M5.5 6V11M8 8.5H3" stroke="#4147D5" stroke-linecap="round" stroke-linejoin="round"/>
</g>
<defs>
<clipPath id="clip0_740_463">
<rect width="14" height="14" fill="white"/>
</clipPath>
</defs>
</svg>
