<svg width="250" height="250" viewBox="0 0 250 250" fill="none" xmlns="http://www.w3.org/2000/svg">
<path d="M166.987 25.6472L40.1274 69.4098L97.2275 234.932L224.087 191.169L166.987 25.6472Z" fill="#0C0077"/>
<path d="M223.65 190.1L211 194.45L180.65 204.9L143.95 217.55L112.45 228.5L102 232.1C100.4 232.65 98.6001 233.1 97.0501 233.8C97.0001 233.85 96.9001 233.85 96.8501 233.85L98.4501 234.6L96.9001 230.2L92.7501 218.15L86.6001 200.35L79.1001 178.65L70.9001 154.85L62.6001 130.85L54.8501 108.4L48.3001 89.4499L43.6001 75.8499C42.8501 73.7499 42.3001 71.4499 41.4001 69.3999C41.3501 69.2999 41.3501 69.1999 41.3001 69.0999L40.5501 70.4499L53.2001 66.0999L83.5501 55.6499L120.25 42.9999L151.8 32.0999L162.25 28.4999C163.85 27.9499 165.65 27.4999 167.2 26.7999C167.25 26.7499 167.35 26.7499 167.4 26.6999L165.8 25.9499L167.3 30.3499L171.45 42.3999L177.6 60.1999L185.1 81.8999L193.3 105.7L201.6 129.7L209.35 152.1L215.9 171.05L220.6 184.65C221.35 186.8 222 189 222.85 191.1C222.9 191.2 222.9 191.3 222.95 191.4C223.4 192.7 225.8 192.25 225.3 190.8L223.8 186.4L219.65 174.35L213.5 156.55L206 134.8L197.8 111L189.5 86.9999L181.75 64.5999L175.2 45.6499L170.5 32.0499C169.75 29.8999 169.1 27.6999 168.25 25.5999C168.2 25.4999 168.2 25.3999 168.15 25.2999C167.85 24.6999 167.2 24.3999 166.55 24.5499L153.9 28.8999L123.55 39.3499L86.8501 51.9999L55.3001 62.8999C50.1501 64.6499 45.0001 66.3999 39.9001 68.1999L39.7001 68.2499C39.1501 68.3499 38.8001 68.8999 38.9001 69.4499C38.9001 69.4999 38.9501 69.5499 38.9501 69.5999L40.4501 73.9999L44.6001 86.0499L50.7501 103.85L58.2501 125.55L66.5001 149.5L74.8001 173.5L82.5001 195.9L89.0501 214.85L93.7501 228.45C94.5001 230.6 95.1501 232.8 96.0001 234.9C96.0501 235 96.0501 235.1 96.1001 235.2C96.4001 235.8 97.0501 236.1 97.7001 235.95L110.35 231.6L140.7 221.15L177.4 208.5L208.95 197.6C214.1 195.85 219.25 194.1 224.35 192.3L224.55 192.25C226.05 191.65 225 189.65 223.65 190.1Z" fill="#0C0077"/>
<path d="M149.683 23.1451L22.8237 66.9077L79.9238 232.43L206.783 188.667L149.683 23.1451Z" fill="white"/>
<path d="M206.05 187.95L193.4 192.3L163.05 202.75L126.35 215.4L94.8 226.3L84.35 229.9C82.7 230.45 80.95 230.9 79.4 231.6C79.35 231.65 79.25 231.65 79.2 231.65L81.15 232.45L79.6 228.05L75.45 216L69.3 198.2L61.8 176.45L53.6 152.65L45.3 128.6L37.55 106.2L31 87.25L26.3 73.65L24.85 69.4C24.65 68.65 24.4 67.9 24.1 67.2C24.05 67.1 24.05 67 24 66.9L23.5 67.45L36.15 63.1L66.5 52.65L103.2 40L134.75 29.1L145.2 25.5C146.8 24.95 148.6 24.5 150.15 23.8C150.2 23.75 150.3 23.75 150.35 23.75L148.4 22.95L149.95 27.4L154.1 39.45L160.25 57.25L167.75 78.95L175.95 102.7L184.25 126.75L191.95 149.15L198.5 168.1L203.2 181.7C203.95 183.85 204.65 186 205.45 188.15C205.5 188.25 205.5 188.35 205.55 188.4C205.85 189.25 208.3 189.55 208 188.65L206.5 184.25L202.35 172.2L196.15 154.5L188.65 132.75L180.45 109L172.15 84.95L164.4 62.55L157.85 43.6L153.2 30C152.45 27.85 151.75 25.7 150.95 23.55C150.9 23.45 150.9 23.35 150.85 23.25C150.6 22.6 149.55 22.2 148.9 22.45L136.25 26.8L105.9 37.25L69.2 49.9L37.65 60.8C32.5 62.6 27.35 64.3 22.25 66.1L22.05 66.15C21.8 66.2 21.45 66.4 21.55 66.7L23.1 71.1L27.25 83.15L33.4 100.95L40.9 122.65L49.1 146.45L57.4 170.45L65.15 192.85L71.7 211.8L76.4 225.4C77.15 227.55 77.85 229.7 78.65 231.85C78.7 231.95 78.7 232.05 78.75 232.15C79 232.8 80.05 233.2 80.7 232.95L93.35 228.6L123.7 218.15L160.4 205.5L191.95 194.6C197.1 192.85 202.25 191.1 207.35 189.3L207.55 189.25C208.9 188.9 206.9 187.65 206.05 187.95Z" fill="#000005"/>
<path d="M100.526 185.609L87.1978 190.207L95.0731 213.036L108.402 208.438L100.526 185.609Z" fill="#0C0077"/>
<path d="M107.65 207.5L96 211.55L94.35 212.1L96 213.65L93.35 205.95L89.1 193.65L88.1 190.8L88 191.1L99.7 187.05L101.35 186.5L99.7 184.95L102.35 192.65L106.6 204.95L107.6 207.8C107.85 208.35 108.2 208.8 108.7 209.1C108.85 209.2 109.55 209.6 109.35 209.1L106.7 201.4L102.45 189.1L101.45 186.25C101.3 185.85 101 185.5 100.7 185.25C100.55 185.1 100.05 184.6 99.8 184.7L88.1 188.75L86.45 189.3C86.3 189.35 86.3 189.45 86.35 189.6L89 197.25L93.25 209.55L94.25 212.4C94.4 212.8 94.65 213.15 95 213.4C95.15 213.55 95.65 214.05 95.9 213.95L107.6 209.9L109.25 209.35C109.7 209.2 108.2 207.3 107.65 207.5Z" fill="#0C0077"/>
<path d="M119.858 158.42L106.529 163.018L120.649 203.949L133.978 199.351L119.858 158.42Z" fill="#0C0077"/>
<path d="M134.4 198.85L122.7 202.9L121.05 203.45L121.7 203.35L120.3 199.3L116.9 189.5L112.8 177.65L109.25 167.4L108.1 164.05C107.95 163.5 107.75 162.95 107.55 162.45C107.55 162.45 107.55 162.4 107.5 162.4L106 163.55L117.7 159.5L119.35 158.95L118.7 159.05L120.1 163.1L123.45 172.9L127.55 184.75L131.1 195L132.25 198.35L132.6 199.4C132.65 199.6 132.7 199.8 132.8 199.95V200C132.9 200.3 135.15 199.3 135 198.75L133.6 194.7L130.2 184.9L126.1 173.05L122.55 162.8L121.4 159.5L121.05 158.45C121 158.25 120.95 158.05 120.85 157.9C120.85 157.9 120.85 157.85 120.8 157.85C120.75 157.65 120.2 157.9 120.15 157.95L108.45 162L106.8 162.55C106.55 162.65 105.15 163.25 105.3 163.7L106.7 167.75L110.05 177.55L114.15 189.4L117.7 199.65L118.85 203L119.2 204.05C119.25 204.25 119.3 204.4 119.35 204.55C119.35 204.55 119.35 204.6 119.4 204.6C119.45 204.8 120 204.55 120.05 204.55L131.75 200.5L133.4 199.95C133.85 199.8 134.65 199.45 134.85 199C135.05 198.55 134.65 198.75 134.4 198.85Z" fill="#0C0077"/>
<path d="M149.596 160.456L136.268 165.054L146.589 194.973L159.917 190.375L149.596 160.456Z" fill="#0C0077"/>
<path d="M159.3 189.55L147.6 193.6L145.95 194.15L147.75 194.9L144.25 184.75L138.7 168.7L137.4 164.95L136.9 165.9L148.6 161.85L150.25 161.3L148.45 160.55L151.95 170.7L157.5 186.75L158.8 190.5C159.15 191.55 161.6 191.6 161.1 190.3L157.6 180.15L152.05 164.1L150.75 160.35C150.5 159.7 149.5 159.4 148.95 159.6L137.25 163.65L135.6 164.2C135.2 164.3 135 164.7 135.05 165.05C135.05 165.1 135.05 165.1 135.1 165.15L138.6 175.3L144.15 191.35L145.45 195.05C145.7 195.7 146.7 196 147.25 195.8L158.95 191.75L160.6 191.2C161 191.1 161.2 190.7 161.1 190.3C161.05 190.2 161 190.1 160.95 190C160.55 189.6 159.9 189.4 159.3 189.55Z" fill="#0C0077"/>
<path d="M167.075 134.229L153.746 138.827L170.214 186.565L183.543 181.967L167.075 134.229Z" fill="#0C0077"/>
<path d="M182.8 181.1L171.1 185.15L169.45 185.7L171.35 186.7L169.7 181.95L165.75 170.55L161 156.75L156.9 144.8L155.55 140.9C155.4 140.25 155.15 139.65 154.9 139.05C154.9 139 154.9 139 154.85 138.95L154.45 139.7L166.15 135.65L167.8 135.1L165.9 134.1L167.55 138.85L171.5 150.25L176.25 164.05L180.35 176C181 177.95 181.65 179.85 182.35 181.8L182.4 181.9C182.65 182.5 183.15 182.9 183.8 182.95C184.25 183 184.9 182.75 184.7 182.15L183.05 177.4L179.1 166L174.35 152.2L170.25 140.25C169.6 138.3 168.95 136.4 168.25 134.45C168.25 134.4 168.25 134.4 168.25 134.35C167.95 133.55 167.15 133.15 166.35 133.35L154.65 137.4L153 137.95C152.7 138.05 152.55 138.4 152.6 138.7L154.25 143.45L158.2 154.85L162.95 168.65L167.05 180.6C167.7 182.55 168.35 184.45 169.05 186.4L169.1 186.5C169.4 187.3 170.2 187.7 171 187.5L182.7 183.45L184.35 182.9C184.9 182.7 184.8 182.05 184.45 181.7C184.1 181.15 183.45 180.95 182.8 181.1Z" fill="#0C0077"/>
<path d="M97.05 196.35C97.9 194.1 98.9499 191.75 99.9499 189.7C102.25 184.8 105 180.15 108.15 175.75C109.8 173.45 111.65 171.3 113.7 169.3C114.6 168.4 115.55 167.6 116.6 166.9C117.05 166.6 117.55 166.3 118.05 166.05C118.2 166 118.05 166.05 118 166.05C118.05 166 118.1 166 118.15 166L118.45 165.85C118.7 165.75 118.9 165.65 119.15 165.6C119.4 165.55 119.6 165.45 119.85 165.4L120 165.35H119.95C120.05 165.35 120.2 165.3 120.3 165.3C120.75 165.25 121.2 165.2 121.65 165.2H121.95C122.15 165.2 121.85 165.2 122.05 165.2C122.25 165.2 122.5 165.25 122.75 165.25C123.2 165.3 123.65 165.4 124.1 165.5C125.9 165.95 127.7 166.55 129.4 167.3C133.95 169.05 138.55 170.5 143.5 170.3C148.05 170.1 152.8 168.95 156 165.55C158.65 162.75 160.15 159.05 161.05 155.35C161.95 151.35 162.4 147.25 162.35 143.1C162.35 139.4 162.1 135.75 161.65 132.05C161.4 130.05 161.15 128.1 160.75 126.1C160.75 126 160.7 125.9 160.7 125.8C160.4 124.4 158.1 125.25 158.35 126.55C158.6 127.85 158.85 129.3 159 130.65C159.45 133.9 159.75 137.15 159.85 140.4C160.05 144.45 159.8 148.5 159.2 152.5C158.9 154.4 158.45 156.25 157.8 158.05C157.65 158.5 157.45 158.95 157.3 159.4C157.2 159.6 157.1 159.8 157.05 160L157 160.1L156.85 160.45C156.45 161.25 156 162 155.45 162.75C155.35 162.9 155.2 163.1 155.1 163.25C155.05 163.3 154.9 163.5 155.05 163.3L154.8 163.6C154.5 163.9 154.25 164.2 153.9 164.5C153.75 164.65 153.6 164.8 153.45 164.9L153.2 165.1L153.1 165.2C152.9 165.35 153.2 165.1 153.1 165.2C152.75 165.45 152.4 165.7 152.05 165.9C151.85 166 151.7 166.1 151.5 166.2L151.25 166.35L151.1 166.4C150.9 166.5 151.4 166.3 151.05 166.4C150.65 166.6 150.25 166.75 149.8 166.9C148.5 167.3 147.15 167.6 145.8 167.75C140.85 168.35 136.3 167.25 131.75 165.55C128.2 164.15 124.4 162.4 120.45 162.95C115.35 163.65 111.45 167.8 108.35 171.55C104.75 175.95 101.7 180.75 99.0999 185.8C97.4999 188.9 96.0499 192.05 94.7499 195.3L94.55 195.8C94.35 196.3 94.6499 196.85 95.1499 197.05C95.1999 197.05 95.2499 197.1 95.3499 197.1C96.1999 197.35 96.8 196.95 97.05 196.35Z" fill="#000005"/>
<path d="M157 129.4L160.7 125.8L160.35 125.55L163.25 129.05C163.3 129.1 163.5 129.35 163.6 129.3C163.7 129.25 163.65 128.95 163.6 128.9C163.45 128.3 163.2 127.8 162.8 127.35L159.9 123.85C159.9 123.85 159.65 123.55 159.55 123.6L155.85 127.2C155.6 127.45 156.05 128.2 156.15 128.45C156.2 128.5 156.8 129.6 157 129.4Z" fill="#000005"/>
<path d="M73.2458 138.136L68.1885 139.88L69.5255 143.756L74.5829 142.011L73.2458 138.136Z" fill="#000005"/>
<path d="M74.1499 140.95L69.0999 142.7L70.6999 143.2L69.3499 139.35L68.6999 140.9L73.7499 139.15L72.1499 138.65L73.4999 142.5C73.6999 143.1 74.5999 143.25 75.0999 143C75.6999 142.75 75.9999 142.05 75.7499 141.45L74.3999 137.6C74.1999 136.95 73.3499 136.9 72.7999 137.1L67.7499 138.85C67.1499 139.1 66.8499 139.8 67.0999 140.4L68.4499 144.25C68.6499 144.9 69.4999 144.95 70.0499 144.75L75.0999 143C75.6999 142.75 75.9999 142.05 75.7499 141.45C75.3999 140.9 74.6999 140.7 74.1499 140.95Z" fill="#000005"/>
<path d="M81.2001 139.7C83.3501 139.05 84.7501 137 84.5501 134.75C84.5001 134.25 83.4001 133 82.8501 133.25C81.4501 133.85 81.8501 135.55 82.6501 136.5C83.6501 137.7 85.2501 138.3 86.7001 137.55C88.0501 136.85 88.9501 135.35 89.5001 134C90.1001 132.5 90.3001 130.85 90.1001 129.2C90.0001 128.55 89.0501 127.65 88.4001 127.7C86.6001 127.8 86.9001 130.15 87.0001 131.35C87.1501 133.1 88.0501 134.75 89.5001 135.75C90.1001 136.2 90.8501 136.45 91.6001 136.4C92.3001 136.25 92.9501 135.9 93.4501 135.35C94.5501 134.3 95.7001 133.1 95.8501 131.55C95.9001 130.9 94.9001 130 94.3001 129.9C93.6501 129.75 93.0501 130.2 92.9501 130.8C92.8001 131.6 93.4501 132.45 94.0001 132.95C95.3501 134.2 96.9501 134.05 98.5501 133.35C99.7501 132.85 100.95 132.05 101.5 130.85C101.8 130.25 101.85 129.55 101.6 128.9C101.3 128.2 100.35 127.15 99.5001 127.35C99.4001 127.35 99.3501 127.45 99.3001 127.55C98.8001 129.1 100.3 130.7 101.5 131.4C102.95 132.2 104.55 131.8 105.8 130.85C106.25 130.5 104.6 128.65 104 129.1C103.3 129.65 102.45 130 101.55 129.95C101.4 129.9 101.2 129.85 101.05 129.85C100.9 129.85 101.2 130 101.2 130C101.2 130 101.1 129.75 101.1 129.7C101.1 129.5 101.1 129.25 101.2 129.1L101 129.3L101.15 129.25L100.75 129.2L100.85 129.25L100.1 128.75C99.5001 128.2 99.7501 128.1 99.7001 128.55C99.7001 128.75 99.6501 128.95 99.6001 129.1C99.5001 129.4 99.3001 129.7 99.1001 130C98.6501 130.55 98.1001 131.05 97.4501 131.35C96.8001 131.7 96.0501 132 95.3001 132.15C95.0501 132.2 94.8501 132.25 94.6001 132.2C94.5001 132.2 94.3501 132.15 94.2501 132.15L94.7001 132.6C94.7501 132.4 94.8501 132.25 94.9501 132.1C95.0501 131.95 95.2501 131.85 95.4501 131.9L93.9001 130.25C93.8001 131.35 93.1001 132.25 92.4001 133C91.7501 133.7 90.8501 134.8 89.7501 134.7C89.7001 134.7 89.3001 134.55 89.4001 134.65C89.5001 134.75 89.4001 134.6 89.3501 134.6C89.3001 134.5 89.2501 134.4 89.2001 134.25C89.0001 133.7 88.9001 133.15 88.8501 132.6C88.7501 131.65 88.5001 129.8 89.9001 129.75L88.2001 128.25C88.5001 130.5 87.8501 132.8 86.5001 134.6C85.9001 135.35 85.1001 136.2 84.0501 136.2C83.8501 136.15 83.7001 136.15 83.5001 136.15C83.5001 136.15 83.8501 136.55 83.9001 136.55C83.9001 136.45 83.9001 136.4 83.9001 136.3C83.9001 135.9 84.1501 135.5 84.5001 135.3L82.8001 133.8C82.8501 135.75 81.6001 137.45 79.7501 138C79.0501 138.05 80.5501 139.9 81.2001 139.7Z" fill="#000005"/>
<path d="M78.6145 151.076L73.5137 152.847L74.8589 156.72L79.9597 154.948L78.6145 151.076Z" fill="#000005"/>
<path d="M78.55 153.55L73.5 155.3L75.1 155.8L73.75 151.95L73.1 153.5L78.15 151.75L76.55 151.25L77.9 155.1C78.1 155.7 79 155.85 79.5 155.6C80.1 155.35 80.4 154.65 80.15 154.05L78.8 150.2C78.6 149.55 77.75 149.5 77.2 149.7L72.15 151.45C71.55 151.7 71.25 152.4 71.5 153L72.85 156.85C73.05 157.5 73.9 157.55 74.45 157.35L79.5 155.6C80.1 155.35 80.4 154.65 80.15 154.05C79.8 153.45 79.1 153.25 78.55 153.55Z" fill="#000005"/>
<path d="M85.3001 148.9C85.7001 148.5 86.3001 148.4 86.8001 148.65C87.5501 148.9 88.1501 149.5 88.5001 150.2C88.6501 150.55 88.7501 150.9 88.7501 151.25C88.7501 151.65 88.4501 151.75 89.1501 151.3C89.8501 150.85 89.4501 151.1 89.2001 150.65C88.8501 149.9 89.4501 148.65 89.7501 147.95C89.9501 147.35 90.4001 146.85 90.9501 146.6C91.5501 146.4 92.2001 146.35 92.8501 146.5C93.6001 146.65 94.3001 147.1 94.7501 147.75C94.8501 147.9 94.8501 148.2 94.9001 148.3C94.9001 148.3 95.8001 148 95.8001 147.9C95.8001 147.8 95.6501 147.85 95.6501 147.75C95.6001 147.4 95.6001 147 95.7501 146.65C96.4001 144.9 98.4001 145.05 99.7001 146C100.35 146.5 102.35 145 101.5 144.4C98.7001 142.35 94.6501 144.25 93.6001 147.3C93.4001 147.9 93.2501 148.7 93.6501 149.2C94.2001 149.95 95.3001 149.6 95.9501 149.2C96.6001 148.85 97.0501 148.2 97.2001 147.45C97.2501 146.6 96.6501 145.95 96.0001 145.5C93.4001 143.6 89.6501 145.15 88.1501 147.65C87.7501 148.3 87.4501 149 87.2501 149.75C87.0001 150.55 86.7501 151.55 87.3001 152.25C88.4501 153.65 90.7501 152.1 90.9501 150.65C91.2001 149.1 90.0001 147.45 88.5501 147C86.8001 146.4 84.7501 147.25 83.6501 148.7C83.4001 149.05 83.2001 149.55 83.7501 149.7C84.3001 149.85 85.0001 149.35 85.3001 148.9Z" fill="#000005"/>
<path d="M96.45 198.05C97.6375 198.05 98.6 197.087 98.6 195.9C98.6 194.713 97.6375 193.75 96.45 193.75C95.2626 193.75 94.3 194.713 94.3 195.9C94.3 197.087 95.2626 198.05 96.45 198.05Z" fill="#000005"/>
<path d="M97.35 195C97.35 195 97.4 195.2 97.35 195.05C97.3 194.9 97.35 195.05 97.35 195.1C97.35 195.2 97.4 195.3 97.4 195.35C97.4 195.5 97.4 195.7 97.35 195.85L97.4 195.7C97.35 196.1 97.15 196.45 96.9 196.75L97 196.65C96.85 196.8 96.7 196.95 96.55 197.05C96.45 197.1 96.35 197.15 96.3 197.2C96.45 197.15 96.3 197.2 96.25 197.2L96.1 197.25L95.95 197.3C95.8 197.35 96.15 197.3 95.95 197.3H95.8C95.75 197.3 95.55 197.3 95.75 197.3C95.5 197.25 95.8 197.35 95.85 197.3C95.9 197.25 95.7 197.25 95.7 197.25C96.05 197.35 95.95 197.35 95.8 197.3C95.65 197.25 95.6 197.15 95.9 197.35C95.85 197.3 95.85 197.3 95.8 197.3C95.75 197.3 96.05 197.5 95.85 197.35C95.8 197.3 95.8 197.3 95.75 197.25C95.85 197.4 95.9 197.4 95.8 197.3L95.75 197.25C95.7 197.2 95.7 197.15 95.65 197.1C95.55 196.95 95.75 197.3 95.65 197.1L95.55 196.95C95.5 196.85 95.5 196.75 95.45 196.65C95.4 196.55 95.45 196.8 95.45 196.65L95.4 196.5C95.35 196.3 95.35 196.05 95.4 195.85L95.35 196C95.4 195.6 95.6 195.25 95.85 194.95L95.75 195.05C95.85 194.95 96 194.8 96.1 194.75L96.3 194.6L96.4 194.55C96.45 194.55 96.5 194.5 96.4 194.55C96.55 194.5 96.75 194.5 96.9 194.45C96.7 194.5 96.8 194.45 96.85 194.45H97C97.05 194.45 97.05 194.45 97.1 194.45C97.05 194.45 96.85 194.4 97 194.45H97.1C97.2 194.45 96.8 194.35 97 194.4C97.05 194.4 97.05 194.45 97.1 194.45C97.1 194.45 96.75 194.3 96.95 194.4L97.05 194.45C97.2 194.5 96.75 194.25 96.9 194.4L97 194.45C97 194.45 96.75 194.25 96.9 194.4L97 194.45C97.1 194.5 96.85 194.25 96.95 194.4C97.05 194.55 97.05 194.55 97.1 194.6C97.15 194.65 97 194.45 97.05 194.55C97.1 194.6 97.1 194.65 97.1 194.65C97.15 194.75 97.15 194.8 97.2 194.9C97.35 195.15 97.5 195.35 97.75 195.45C98 195.65 98.3 195.75 98.65 195.8C99.05 195.85 99.6 195.8 99.4 195.25C98.9 193.8 97.3 192.95 95.85 192.85C94.7 192.75 93.65 193.4 93.15 194.4C92.75 195.55 93.15 196.85 94.1 197.55C95.2 198.5 96.9 199 98.25 198.3C98.75 198.05 99.15 197.6 99.4 197.05C99.6 196.45 99.6 195.8 99.4 195.2C99.3 194.95 99.1 194.75 98.85 194.65C98.6 194.45 98.3 194.35 97.95 194.3C97.7 194.4 97.2 194.45 97.35 195Z" fill="#000005"/>
<path d="M115.1 168.85C116.287 168.85 117.25 167.887 117.25 166.7C117.25 165.513 116.287 164.55 115.1 164.55C113.913 164.55 112.95 165.513 112.95 166.7C112.95 167.887 113.913 168.85 115.1 168.85Z" fill="#000005"/>
<path d="M115.95 166.2C116.1 167 115.75 167.85 115.1 168.35L115.15 168.3C115 168.4 114.8 168.5 114.6 168.6C114.5 168.65 114.4 168.65 114.3 168.7H114.2C114.45 168.7 114.65 168.7 114.9 168.75C115.1 168.75 115.25 168.75 115.45 168.8L115.6 168.85L115.5 168.8C115.4 168.75 115.35 168.75 115.25 168.7C115.05 168.6 114.9 168.5 114.75 168.35L114.8 168.4C113.95 167.55 114 166.15 114.85 165.35C114.9 165.3 115 165.2 115.05 165.15L115 165.2C115.15 165.1 115.35 165 115.55 164.9C115.65 164.85 115.75 164.85 115.85 164.85H115.95C115.7 164.85 115.5 164.85 115.25 164.8C115.05 164.8 114.9 164.8 114.7 164.75L114.55 164.7L114.65 164.75C114.75 164.8 114.8 164.8 114.9 164.85C115.1 164.95 115.25 165.05 115.4 165.2L115.35 165.15C115.65 165.4 115.85 165.8 115.95 166.2C115.95 166.3 116.3 166.35 116.3 166.35C116.6 166.4 116.9 166.45 117.2 166.45C117.3 166.45 118.5 166.5 118.45 166.4C118.35 165.9 118.1 165.5 117.7 165.15C117.2 164.8 116.65 164.55 116.05 164.5C115.4 164.4 114.7 164.35 114 164.4C113.7 164.4 113.4 164.45 113.15 164.55C112.7 164.7 112.3 165.05 112.05 165.45C111.5 166.3 111.65 167.4 112.35 168.1C112.75 168.5 113.25 168.75 113.8 168.8C114.45 168.95 115.1 169 115.75 169C116.15 169 116.5 169 116.9 168.9C118 168.6 118.7 167.5 118.5 166.4C118.5 166.3 118.15 166.25 118.15 166.25C117.85 166.2 117.55 166.15 117.25 166.15C117.1 166.15 115.95 166.1 115.95 166.2Z" fill="#000005"/>
<path d="M144.9 171.05C146.087 171.05 147.05 170.087 147.05 168.9C147.05 167.713 146.087 166.75 144.9 166.75C143.713 166.75 142.75 167.713 142.75 168.9C142.75 170.087 143.713 171.05 144.9 171.05Z" fill="#000005"/>
<path d="M145.7 168.1C145.95 168.8 145.8 169.55 145.35 170.15L145.4 170.1C145.2 170.35 144.95 170.55 144.7 170.7L144.6 170.75C144.6 170.75 144.5 170.8 144.55 170.75C144.45 170.8 144.4 170.8 144.3 170.8C144.25 170.8 144.15 170.8 144.25 170.8C144.35 170.8 144.1 170.8 144.3 170.8C144.5 170.8 144.1 170.8 144.4 170.8C144.45 170.8 144.55 170.8 144.6 170.8C144.75 170.8 144.75 170.8 144.65 170.8C144.8 170.8 144.95 170.85 145.05 170.85C144.55 170.9 144.15 171.3 144.15 171.8C144.15 172.3 144.6 172.7 145.1 172.7C145.6 172.65 146 172.25 146 171.75C146 171.3 145.6 170.9 145.1 170.85C145.1 170.85 145 170.85 145 170.8C145 170.75 145.15 170.85 145.05 170.8C144.95 170.75 144.9 170.75 144.85 170.7C144.8 170.65 144.9 170.75 144.85 170.7L144.75 170.65C144.5 170.45 144.3 170.2 144.15 169.95L144.2 170C143.8 169.25 143.9 168.3 144.4 167.65L144.35 167.7C144.55 167.45 144.8 167.25 145.05 167.15L145.15 167.1C145.25 167.05 145.3 167.05 145.4 167.05C145.45 167.05 145.55 167.05 145.45 167.05C145.35 167.05 145.6 167.05 145.4 167.05C145.2 167.05 145.6 167.05 145.3 167.05C145.25 167.05 145.15 167.05 145.1 167.05C144.95 167.05 144.95 167.05 145.05 167.05C144.9 167.05 144.8 167 144.65 167C145 167 145.25 166.65 145.25 166.3C145.25 165.95 144.9 165.7 144.55 165.7C144.2 165.7 143.95 166.05 143.95 166.4C143.95 166.7 144.25 167 144.55 167C144.55 167 144.65 167 144.65 167.05C144.65 167.1 144.5 167 144.6 167.05C144.7 167.1 144.75 167.1 144.8 167.15L144.9 167.2C145.15 167.4 145.35 167.65 145.5 167.9L145.45 167.85C145.65 167.9 145.65 168 145.7 168.1C145.75 168.2 145.95 168.25 146.05 168.3C146.35 168.4 146.65 168.45 146.9 168.45C147.2 168.5 147.5 168.5 147.8 168.45C147.85 168.45 148.2 168.4 148.2 168.3C147.7 167 146.35 166.6 145.05 166.5C144.25 166.4 143.4 166.5 142.7 166.85C142.25 167.1 141.95 167.45 141.75 167.9C141.35 168.8 141.6 169.9 142.4 170.55C143 171 143.75 171.25 144.5 171.3C145.35 171.45 146.2 171.35 147 171.1C148.05 170.65 148.55 169.45 148.2 168.35C148.15 168.25 147.95 168.15 147.85 168.15C147.55 168.05 147.25 168 146.95 168C146.9 167.95 145.65 167.9 145.7 168.1Z" fill="#000005"/>
<path d="M161.2 142.55C162.387 142.55 163.35 141.587 163.35 140.4C163.35 139.213 162.387 138.25 161.2 138.25C160.013 138.25 159.05 139.213 159.05 140.4C159.05 141.587 160.013 142.55 161.2 142.55Z" fill="#000005"/>
<path d="M162.45 139.75C162.5 139.85 162.45 140 162.45 139.65C162.45 139.7 162.45 139.75 162.45 139.8C162.45 139.85 162.45 139.9 162.45 139.95C162.4 139.7 162.45 139.75 162.45 139.9C162.45 140.05 162.45 140.1 162.45 140.15C162.45 139.95 162.45 140 162.45 140.1C162.45 140.15 162.45 140.2 162.4 140.2C162.4 140.3 162.35 140.35 162.3 140.45C162.25 140.55 162.4 140.3 162.3 140.45C162.25 140.5 162.25 140.55 162.2 140.6C162.1 140.75 161.95 140.9 161.8 141.05L161.95 140.9C161.7 141.1 161.4 141.3 161.05 141.35L161.25 141.3C161.05 141.35 160.8 141.4 160.6 141.35H160.45C160.55 141.35 160.6 141.35 160.55 141.35H160.5C160.4 141.3 160.3 141.3 160.2 141.25L160.15 141.2L160.25 141.25C160.2 141.2 160.15 141.2 160.1 141.15L159.95 141.05C159.8 140.95 160.15 141.25 160 141.1C159.95 141.05 159.9 141.05 159.9 141C159.75 140.85 160.1 141.25 159.95 141.05L159.85 140.9C160.1 141.2 159.95 141.1 159.9 141C159.85 140.9 159.85 140.75 159.95 141.1C159.95 141.05 159.9 141 159.9 140.95C159.85 140.75 159.95 141.25 159.9 141.05L159.85 140.9C159.8 140.7 159.85 141.15 159.85 140.95C159.85 140.9 159.85 140.85 159.85 140.8C159.85 140.75 159.85 140.7 159.85 140.65C159.85 140.75 159.8 140.85 159.85 140.7C159.85 140.6 159.9 140.5 159.95 140.4V140.35C160 140.3 160 140.3 159.95 140.35C159.9 140.4 159.9 140.4 159.95 140.35L160 140.3C160.1 140.1 160.25 139.95 160.45 139.8L160.3 139.9C160.55 139.7 160.85 139.55 161.2 139.45L161 139.5C161.25 139.45 161.45 139.4 161.7 139.45H161.8C161.7 139.45 161.65 139.45 161.75 139.45L161.9 139.5L162.05 139.55C162.1 139.55 162.3 139.65 162.15 139.6C162 139.55 162.2 139.65 162.2 139.65L162.35 139.75C162.5 139.85 162.15 139.55 162.3 139.7L162.45 139.85L162.35 139.75C162.3 139.7 162.35 139.75 162.45 139.75C162.45 139.85 162.5 140.05 162.35 139.7L162.45 139.85C162.5 140 162.3 139.5 162.45 139.75C162.5 140.1 162.7 140.4 162.9 140.6C163.05 140.8 163.3 140.9 163.55 140.9C164.1 140.85 164.05 140.1 163.9 139.7C163.4 138.35 162.3 137.2 160.85 137.15C159.7 137.1 158.65 137.85 158.3 138.9C157.8 140.25 158.4 141.95 159.45 142.9C160.35 143.75 161.65 143.95 162.75 143.4C163.3 143.1 163.75 142.55 163.95 141.95C164.2 141.2 164.15 140.4 163.9 139.7C163.8 139.4 163.65 139.1 163.4 138.9C163.25 138.7 163 138.6 162.75 138.6C162.25 138.6 162.3 139.35 162.45 139.75Z" fill="#000005"/>
<path d="M52.8499 96C52.8999 96.1 52.8999 96.25 52.9499 96.35C56.3999 108.1 68.7499 114.75 80.4499 111.3C84.6999 110.05 88.4499 107.55 91.2999 104.1L74.1999 90.05L52.8499 96Z" fill="#0C0077"/>
<path d="M51.6 96.1501C53.3 102.3 57.5 107.4 63.2 110.25C69.25 113.2 76.25 113.55 82.55 111.2C86.4 109.75 89.85 107.35 92.45 104.15C92.5 104.05 92.5 103.95 92.45 103.85L86.55 99.0001L77.25 91.3501C76.6 90.8501 76 90.2501 75.35 89.8001C74.5 89.1501 73 89.8001 72.05 90.0501L61.1 93.1001C58.2 93.9001 55.2 94.6501 52.3 95.5501L52.15 95.6001C51.8 95.7001 51.35 96.0501 51.75 96.3501C52.15 96.6501 53 96.5001 53.45 96.4001L60.6 94.4001L72.1 91.2001L74.75 90.4501L72.9 90.3001L78.65 95.0001L87.9 102.6L90 104.35L89.95 104.1C85.95 108.95 79.85 111.9 73.5 111.7C64.25 111.15 56.4 104.8 53.95 95.9001C53.9 95.1501 51.45 95.5001 51.6 96.1501Z" fill="#0C0077"/>
<path d="M58.2999 74.7C52.8499 80.35 50.7499 88.45 52.8499 96L74.1999 90.05L85.8999 71.25C77.0499 65.75 65.5499 67.2 58.2999 74.7Z" fill="white"/>
<path d="M57.15 74.1C51.7 79.8 49.65 87.95 51.7 95.6C51.85 96.2 53.1 96.9 53.7 96.7L60.95 94.7L72.5 91.5C73.35 91.25 74.2 91.1 75.05 90.8C75.6 90.6 75.95 89.7 76.2 89.25L82.2 79.55L85.25 74.65C85.8 73.75 86.45 72.9 86.95 71.95C86.95 71.9 87 71.85 87.05 71.8C87.25 71.5 86.6 71.05 86.45 70.95C79.15 66.5 69.9 65.85 62.4 70.05C60.4 71.2 58.65 72.55 57.15 74.1C56.8 74.45 58.8 75.8 59.4 75.2C64.65 69.85 72.55 67.4 79.85 69.2C81.8 69.7 83.65 70.45 85.35 71.5L84.75 70.65L80.8 76.95L74.5 87.2L73.05 89.5L73.3 89.35L66.1 91.35L54.6 94.55L51.95 95.3L53.95 96.4C51.9 88.85 53.95 80.8 59.35 75.2C59.8 74.85 57.75 73.55 57.15 74.1Z" fill="#0C0077"/>
<path d="M68.9 88.25C66.85 87.1 64.95 85.8 63 84.55L57 80.7C56.45 80.35 55.75 80.4 55.25 80.75C54.9 81 54.8 81.5 55.1 81.9C55.15 82 55.25 82.05 55.3 82.1L61.3 85.95C63.25 87.2 65.2 88.5 67.2 89.65C67.75 90 68.45 89.95 68.95 89.6C69.3 89.35 69.4 88.85 69.1 88.45C69.1 88.4 69 88.3 68.9 88.25Z" fill="#0C0077"/>
<path d="M62.9499 91.7001C59.7999 90.3501 56.7999 88.7001 54.0499 86.7501C53.7499 86.5501 53.0999 86.9501 52.7999 87.1001C52.6999 87.1501 51.6499 87.8501 51.8999 88.0001C54.7499 90.0001 57.7999 91.7001 60.9999 93.0501C61.1499 93.1001 61.4999 92.9501 61.5999 92.9501C61.8999 92.8501 62.1999 92.7001 62.4499 92.5001C62.5499 92.4001 63.2999 91.8501 62.9499 91.7001Z" fill="#0C0077"/>
<path d="M75.9999 84.55L59.9999 74.1C59.5999 73.85 59.0499 73.95 58.7999 74.35C58.7499 74.4 58.6999 74.5 58.6999 74.55C58.5999 75.2 58.8999 75.8 59.4999 76.1L75.4999 86.55C75.8999 86.8 76.4499 86.7 76.6999 86.3C76.7499 86.25 76.7999 86.15 76.7999 86.1C76.8999 85.5 76.5499 84.85 75.9999 84.55Z" fill="#0C0077"/>
<path d="M79.25 79.6499C78 79.1499 76.8 78.5499 75.7 77.7999C74.5 76.9999 73.45 76.0499 72.35 75.1999C70.05 73.4999 67.6 71.9999 65.05 70.7499C64 70.1999 62.3 71.7499 63.65 72.4499C66.2 73.6999 68.6 75.1999 70.85 76.8999C71.95 77.7499 72.95 78.6499 74.15 79.4499C75.3 80.1999 76.55 80.8499 77.9 81.3499C78.5 81.5999 79.2 81.3999 79.6 80.8999C79.9 80.5499 79.85 80.0499 79.55 79.7999C79.45 79.7499 79.35 79.6999 79.25 79.6499Z" fill="#0C0077"/>
<path d="M82.9001 76.0501C79.7001 72.7501 75.2001 71.4001 71.4501 68.9001C70.9001 68.6501 70.2501 68.6501 69.7501 68.9501C69.4001 69.1001 68.9501 69.5001 69.4501 69.8001C73.0501 72.2001 77.5001 73.5501 80.6001 76.7001C81.0001 77.1001 81.7001 77.0501 82.2001 76.9001C82.3501 76.8501 83.2501 76.4501 82.9001 76.0501Z" fill="#0C0077"/>
<path d="M95.8 100.8C102.3 92.9 101.15 81.2 93.25 74.7C92.6 74.2 91.95 73.7 91.25 73.3L81.5 89L95.8 100.8Z" fill="white"/>
<path d="M96.6501 101.2C102.3 94.35 102.4 84.5 96.9001 77.55C95.5001 75.75 93.8001 74.2 91.8501 73C91.5501 72.8 90.7001 72.5 90.4501 72.9L81.9 86.7L80.7 88.65C80.5 88.95 80.7 89.15 80.95 89.35L93.5001 99.65L95.2501 101.1C95.6001 101.4 96.1001 101.45 96.5501 101.3C96.9501 101.05 96.7001 100.7 96.4501 100.5L83.9 90.2L82.1 88.75L82.35 89.45L90.9001 75.65L92.1001 73.7L90.7001 73.6C97.6501 78 100.75 86.55 98.2501 94.4C97.5501 96.55 96.4501 98.6 95.0001 100.35C94.4501 101 96.2001 101.75 96.6501 101.2Z" fill="#000005"/>
<path d="M112.05 79.45C112 75.75 112 72.1 112.15 68.45C112.2 65.75 112.65 63.05 113.45 60.5C113.85 59.3 114.5 58.15 115.25 57.1C115.6 56.65 116 56.2 116.45 55.8C116.9 55.4 117.55 54.8 118.2 54.8C118.7 54.85 119.15 55.15 119.45 55.55C120 56.2 120.5 56.9 121 57.6C121.95 58.95 122.75 60.4 123.5 61.85C124.9 64.65 126.2 67.8 126.05 71.05C126.05 71.8 125.9 72.5 125.7 73.2C125.6 73.55 125.5 73.9 125.35 74.2C125.3 74.35 125.15 74.5 125.1 74.65C125.05 74.8 124.9 74.75 125.1 74.8C124.65 74.75 124.5 73.75 124.45 73.45C124.35 72.7 124.4 72 124.6 71.3C125.05 69.8 125.75 68.35 126.65 67.05C127.45 65.75 128.45 64.5 129.8 63.7C130.9 63.1 132.45 62.75 133.6 63.45C134.75 64.1 135.5 65.5 136 66.65C136.3 67.3 136.45 67.95 136.45 68.65C136.45 69 136.35 69.4 136.2 69.7C136.15 69.85 135.8 70.15 135.8 70.25C135.8 70.35 136.05 70.25 136 70.35C135.95 70.45 135.8 70.05 135.8 70C135.7 69.65 135.65 69.25 135.65 68.85C135.7 68.05 135.9 67.25 136.3 66.5C137 65 138.1 63.75 139.55 62.9C140.65 62.3 142.3 62.15 143.1 63.3C143.4 63.85 144.1 64 144.6 63.7C145.15 63.4 145.3 62.7 145 62.2C144.95 62.1 144.9 62 144.8 61.95C143.65 60.45 141.7 59.75 139.85 60.15C137.9 60.55 136.4 61.95 135.25 63.5C134.1 65.05 133.2 67 133.3 69C133.3 70 133.7 71 134.35 71.8C135.1 72.6 136.3 72.95 137.25 72.25C138.75 71.1 138.9 68.85 138.45 67.15C137.95 65.25 136.9 63.5 135.5 62.15C134 60.8 131.9 60.35 129.95 60.95C128 61.45 126.5 62.9 125.3 64.45C124.05 66.05 123.1 67.85 122.45 69.75C121.85 71.7 121.7 74.05 122.9 75.8C123.45 76.65 124.4 77.15 125.4 77.15C126.55 77.05 127.1 76 127.5 75.05C128.2 73.15 128.45 71.15 128.15 69.15C127.65 64.95 125.6 60.95 123.35 57.45C122.3 55.85 121.15 53.85 119.4 52.9C117.55 51.9 115.7 53 114.35 54.35C111.85 56.8 110.7 60.15 110.15 63.5C109.5 67.45 109.55 71.6 109.55 75.6C109.55 76.75 109.55 77.95 109.6 79.1C109.6 79.75 110.05 80.35 110.7 80.5C111.25 80.6 111.8 80.3 111.9 79.75C112 79.6 112 79.55 112.05 79.45Z" fill="#000005"/>
<path d="M183.35 143.8C183.35 143.8 241.45 191.15 240.4 194.7C239.35 198.25 233.35 204.6 230.05 200.65C226.75 196.7 179.75 147.45 179.75 147.45L183.35 143.8Z" fill="#000005"/>
<path d="M183.7 144.3C185.65 145.9 187.6 147.5 189.55 149.1C194.2 152.95 198.85 156.8 203.45 160.65C209.1 165.35 214.65 170.15 220.2 174.95C222.6 177.05 225.25 179.4 227.8 181.65C228.95 182.7 230.1 183.7 231.2 184.75L232 185.5L232.35 185.8C232.6 186.05 232.15 185.6 232.4 185.85L232.6 186.05C233.1 186.5 233.55 186.95 234.05 187.4L235.35 188.7C235.45 188.8 235.6 188.95 235.7 189.05C235.8 189.15 236.1 189.45 235.8 189.15L236.35 189.75C236.7 190.1 237.05 190.5 237.4 190.85C237.55 191 237.25 190.65 237.45 190.9L237.65 191.15L238.1 191.65C238.15 191.7 238.25 191.8 238.3 191.85C238.35 191.9 238.15 191.65 238.35 191.9L238.7 192.35L238.85 192.55C239 192.75 238.85 192.55 238.9 192.6C238.95 192.65 239.1 192.85 239.15 192.95C239.35 193.2 239.5 193.45 239.55 193.75C239.45 194.3 239.25 194.8 238.95 195.3C238.45 196.2 237.85 197.1 237.15 197.85C235.85 199.3 234.05 200.85 232.05 201.05C231.6 201.1 231.15 201.05 230.75 200.9C230.55 200.85 230.4 200.7 230.25 200.65C229.85 200.55 231.05 201.45 230.8 201.2C230.55 200.95 230.45 200.8 230.25 200.6C229.8 200.1 229.4 199.65 228.95 199.15C225.4 195.25 221.75 191.45 218.15 187.6C213.1 182.25 208.05 176.95 202.95 171.6C198.15 166.55 193.4 161.5 188.6 156.45L180.6 148.05L180.2 147.65L180.75 148.4L184.35 144.75C184.5 144.6 182.7 142.85 182.55 143L178.95 146.65C178.85 146.75 179.5 147.35 179.5 147.4C181.45 149.45 183.4 151.5 185.35 153.55C189.9 158.3 194.45 163.1 199 167.85C204.25 173.4 209.55 178.95 214.8 184.5C217.05 186.9 219.35 189.3 221.6 191.7L224.45 194.75L225.1 195.4L225.35 195.7C225.1 195.45 225.5 195.85 225.55 195.95L226.65 197.1C227.6 198.1 228.55 199.15 229.5 200.2C229.15 199.8 229.7 200.4 229.75 200.5C230.3 201.1 230.9 201.65 231.55 202.15C232.3 202.65 233.2 202.9 234.1 202.75C236.1 202.45 237.9 200.85 239.15 199.35C239.85 198.55 240.45 197.65 240.95 196.65C241.2 196.25 241.35 195.8 241.4 195.35C241.3 194.95 241.15 194.6 240.9 194.25C239.85 192.8 238.7 191.45 237.4 190.2C233.3 185.95 228.85 182 224.4 178.1C218.8 173.15 213.1 168.3 207.4 163.45C202.3 159.1 197.15 154.8 192 150.55C189.15 148.2 186.35 145.9 183.5 143.55L183.1 143.2C182.95 143.1 182.5 142.65 182.65 143.05C182.8 143.45 183.4 144.05 183.7 144.3Z" fill="#000005"/>
<path d="M165.9 165.15C185.948 165.15 202.2 148.898 202.2 128.85C202.2 108.802 185.948 92.55 165.9 92.55C145.852 92.55 129.6 108.802 129.6 128.85C129.6 148.898 145.852 165.15 165.9 165.15Z" fill="white"/>
<path d="M137.7 153.85C141.2 157.25 145.25 160.1 149.6 162.3C153.45 164.3 157.55 165.7 161.8 166.5C169.2 167.9 176.9 167 183.8 163.95C202.3 155.65 210.55 133.9 202.2 115.4C200.7 112.1 198.75 109 196.35 106.25C193.35 102.85 189.9 99.9 186.05 97.55C182 95 177.65 93.1 173.05 91.85C165.6 89.85 157.7 90.15 150.45 92.7C131.4 99.65 121.6 120.7 128.5 139.75C129.75 143.15 131.45 146.35 133.65 149.2C134.85 150.85 136.2 152.4 137.7 153.85C138.35 154.4 139.1 154.95 139.85 155.35C140.6 155.8 141.45 156.2 142.3 156.45C142.6 156.5 143.35 156.8 143.55 156.45C143.75 156.1 143.05 155.55 142.9 155.4C142.75 155.25 142.3 154.75 142.7 155.2C142.55 155.05 142.4 154.9 142.25 154.75C141.9 154.4 141.6 154.05 141.25 153.65C140.65 152.95 140.1 152.25 139.55 151.55C139.3 151.2 139.05 150.8 138.8 150.45L138.45 149.95L138.25 149.65C138.2 149.6 138.2 149.55 138.15 149.5C137.7 148.75 137.25 148 136.85 147.2C135.2 144.05 134.05 140.7 133.4 137.2C133.05 135.25 132.85 133.25 132.8 131.2V131.45C132.55 118.2 139.5 105.8 151 99.2L150.75 99.35C154.9 97 159.45 95.45 164.15 94.85C165.35 94.7 166.55 94.6 167.75 94.55C168.8 94.5 169.85 94.55 170.95 94.6C172.15 94.7 173.35 94.85 174.55 95.05C175.1 95.15 175.6 95.25 176.15 95.35C176.3 95.4 176.45 95.4 176.6 95.45C176.05 95.3 176.4 95.4 176.5 95.45C176.85 95.55 177.15 95.6 177.5 95.7C178.05 95.85 178.6 96 179.15 96.2C179.35 96.25 180.3 96.6 179.4 96.3C179.7 96.4 180 96.5 180.3 96.65L181.1 96.95L181.5 97.1C182 97.3 181.2 96.95 181.15 96.95C181.75 97.2 182.3 97.5 182.9 97.8C183.5 98.1 182.15 97.4 182.55 97.6L182.95 97.8C183.2 97.95 183.45 98.1 183.7 98.25L184 98.45L183.45 98.1L183.75 98.3C184 98.45 184.3 98.65 184.55 98.85C184.8 99.05 185 99.15 185.2 99.3C184.2 98.65 185.1 99.25 185.35 99.4C185.6 99.55 185.85 99.75 186.05 99.95L186.5 100.3C186.95 100.65 186 99.85 186.45 100.3C187.4 101.1 188.3 101.9 189.15 102.8C188.75 102.4 189.35 103.05 189.5 103.15C189.7 103.35 189.9 103.6 190.1 103.85C190.55 104.35 190.95 104.85 191.35 105.4C192.8 107.25 194.05 109.25 195.1 111.35C197.45 116.1 198.75 121.35 198.85 126.65V126.4C199.1 139.65 192.15 152.05 180.65 158.65L180.9 158.5C175.75 161.45 169.95 163.1 164 163.3C163.65 163.3 163.3 163.3 162.95 163.3H162.35C162.25 163.3 162.1 163.3 162 163.3C161.3 163.25 160.55 163.25 159.85 163.15C158.35 163 156.9 162.8 155.45 162.45L155.2 162.4L155.4 162.45C155.35 162.4 155 162.35 154.9 162.35C154.55 162.25 154.15 162.15 153.8 162.05C153.45 161.95 153.1 161.85 152.75 161.75L152.25 161.6L152 161.5C151.65 161.4 152.6 161.7 152.25 161.6C151.55 161.35 150.85 161.05 150.15 160.75C149.8 160.6 150.6 160.95 150.55 160.95C150.5 160.9 150.4 160.85 150.3 160.85L149.8 160.65L148.8 160.15C148.3 159.9 149.65 160.6 149 160.25L148.4 159.9L147.85 159.6C147.35 159.3 148.7 160.1 148 159.7C147.65 159.5 147.3 159.25 146.95 159C146.85 158.95 146.55 158.65 146.45 158.65C146.45 158.65 147.1 159.1 146.8 158.9L146.45 158.65C146.1 158.4 145.75 158.15 145.45 157.9C145.35 157.8 144.8 157.4 145.2 157.7L144.95 157.5C144.25 156.9 143.55 156.3 142.9 155.65C142.25 155.05 141.5 154.55 140.7 154.15C139.95 153.7 139.1 153.3 138.25 153.05C137.95 153 137.2 152.7 137 153.05C136.8 153.4 137.55 153.7 137.7 153.85Z" fill="#000005"/>
<path d="M152.6 122.9C150.85 122.25 149.2 123.4 148.55 125.05C148.25 125.9 148.05 126.8 148.05 127.75C148.05 128.7 148.45 129.65 149.2 130.3C150.05 131.05 151.05 131.6 152.1 131.9C152.95 132.2 153.8 132.35 154.7 132.4C155.5 132.45 156.3 132.2 156.9 131.6C157.45 130.95 157.75 130.1 157.75 129.25C157.9 127.25 157.05 125.35 155.5 124.05C155.1 123.65 154.55 123.35 154 123.25C153.5 123.25 154 123.75 154.15 123.9C155.05 124.8 155.6 126.05 155.65 127.35C155.7 128.65 155.3 130.4 153.9 130.8C153.25 130.95 152.55 130.95 151.85 130.8C151.6 130.75 151.3 130.65 151.05 130.6C150.95 130.55 150.8 130.5 150.7 130.5L150.55 130.45L150.5 130.4H150.55C150.4 130.3 150.6 130.45 150.65 130.45C150.7 130.45 150.75 130.6 150.65 130.45C150.6 130.35 150.5 130.25 150.45 130.15C150.3 129.8 150.2 129.4 150.2 129.05C150.2 128.25 150.3 127.5 150.55 126.75C150.75 125.95 151.2 125.25 151.85 124.7C152.4 124.25 153.15 124.05 153.85 124.25C153.9 124.3 154.2 124.35 154.3 124.25C154.4 124.15 154.15 123.9 154.1 123.85C153.7 123.4 153.2 123.05 152.6 122.9Z" fill="#0C0077"/>
<path d="M165.75 115.7C162.5 123.85 160.55 132.45 160 141.2C159.95 141.7 160.5 142.2 160.8 142.55C160.9 142.65 161.75 143.3 161.75 142.85C162.3 134.1 164.2 125.5 167.5 117.35C167.75 116.8 165.95 115.15 165.75 115.7Z" fill="#0C0077"/>
<path d="M174 124.8C172.2 124.15 170.7 125.7 170.2 127.3C169.9 128.15 169.8 129.1 169.85 130C169.95 131.2 170.75 132.25 171.55 133.1C172.2 133.75 173 134.2 173.9 134.45C174.7 134.7 175.5 134.85 176.35 134.85C177.2 134.85 177.95 134.45 178.4 133.75C178.8 133 179.05 132.15 179 131.3C179 129 177.55 126.9 175.9 125.4C175.9 125.4 175.65 125.15 175.55 125.2C175.45 125.25 175.65 125.55 175.65 125.6C175.95 126.1 176.3 126.6 176.75 127L176.8 127.05C176.65 126.9 176.9 127.2 176.8 127.05C176.7 126.9 176.65 126.8 176.75 127C176.8 127.05 176.85 127.15 176.9 127.25C176.95 127.35 177.05 127.55 177.1 127.75C177.3 128.4 177.4 129.05 177.35 129.7C177.3 131.05 176.7 132.55 175.25 132.8C174.6 132.9 173.9 132.85 173.25 132.65C172.6 132.5 171.95 132.3 171.35 131.95C171.25 131.9 171.15 131.85 171.05 131.75L171.1 131.85C171.3 132.05 171.45 132.25 171.6 132.45C171.6 132.4 171.55 132.35 171.55 132.25C171.45 131.85 171.4 131.5 171.45 131.1C171.5 130.35 171.6 129.6 171.85 128.85C172.35 127.45 173.8 126.05 175.4 126.65C175.65 126.75 175.1 125.85 175.1 125.8C174.85 125.6 174.5 125 174 124.8Z" fill="#0C0077"/>
<path d="M190.5 143.1C194.15 138.65 196.45 133.3 197.15 127.65C197.25 126.9 195.2 125.6 195.1 126.35C194.4 131.9 192.1 137.15 188.55 141.5C188.1 142.05 190.05 143.65 190.5 143.1Z" fill="#000005"/>
<path d="M197.1 121.85C197.3 120.55 197.2 119.25 196.8 118C196.7 117.7 196.45 117.45 196.2 117.3C195.95 117.15 195.6 117.05 195.3 117.1C195 117.15 194.75 117.3 194.6 117.5C194.45 117.75 194.45 118.05 194.55 118.3C194.6 118.5 194.65 118.7 194.7 118.9L194.65 118.65C194.8 119.3 194.85 120 194.8 120.65V120.4C194.8 120.65 194.75 120.9 194.7 121.1C194.65 121.75 195.05 122.3 195.65 122.5C195.95 122.6 196.25 122.6 196.5 122.5C196.8 122.35 197 122.15 197.1 121.85Z" fill="#000005"/>
<path d="M192.6 159.85C194.65 158.25 196.5 156.35 198.05 154.25C198.35 153.85 197.65 154 197.45 154.05C197.15 154.15 196.85 154.25 196.55 154.45C196.3 154.55 196.1 154.7 195.95 154.9C194.45 156.9 192.75 158.65 190.8 160.2C190.75 160.25 190.5 160.45 190.55 160.55C190.6 160.65 190.9 160.6 191 160.6C191.6 160.45 192.15 160.2 192.6 159.85Z" fill="white"/>
<path d="M173.05 78.2501L203.85 45.8001L171.55 15.1001L148.05 39.8001L147.45 53.9001L173.05 78.2501Z" fill="white"/>
<path d="M174.15 78.65L177.2 75.4001L184.55 67.7L193.45 58.3L201.15 50.2001L203.7 47.5C204.15 47.1 204.55 46.6501 204.9 46.2001L204.95 46.1501C205.05 46.0501 205.05 45.85 204.95 45.75L201.75 42.7001L194 35.4501L184.7 26.6L176.6 18.9C175.3 17.65 174 16.4 172.65 15.15L172.6 15.1C172.25 14.8 171.85 14.65 171.45 14.55C171.15 14.5 170.6 14.4 170.35 14.65L159.3 26.3L151.35 34.6501C149.9 36.2001 148.35 37.7001 146.95 39.25C146.6 39.65 146.7 40.3 146.7 40.8L146.45 46.05L146.2 51.6501L146.15 53.25C146.1 53.4501 146.15 53.7001 146.25 53.9001C146.6 54.3001 147 54.7001 147.45 55.05L150.15 57.6501L158.2 65.3001L171.55 78.0501L171.8 78.25C172.25 78.65 172.8 78.85 173.4 78.85C173.65 78.85 174.4 78.7001 174 78.3001L165.45 70L151.7 56.9501L148.55 53.9501L148.65 54.25L149.1 43.85L149.2 41.2001L149.25 40.4501C149.25 40.4001 149.25 40.0501 149.25 40.2001C149.25 40.35 149.25 40.2001 149.3 40.1501C149.35 40.1001 149.45 39.9501 149.55 39.9001L150.45 38.9501L157.95 31L167.3 21.15L170.8 17.45C171.4 16.85 172.05 16.25 172.55 15.6C172.55 15.55 172.6 15.55 172.65 15.5L170.4 15.05L173.6 18.1L181.3 25.45L190.6 34.3L198.75 42L201.45 44.5L202.25 45.3C202.35 45.4 202.55 45.6501 202.7 45.7001L202.75 45.75L202.7 45.35L199.65 48.6L192.3 56.3L183.4 65.7L175.7 73.8001L173.15 76.5C172.7 76.9001 172.3 77.3 171.95 77.75L171.9 77.8001C171.4 78.3001 173.7 79.2001 174.15 78.65Z" fill="#000005"/>
<path d="M154.6 52.05L162.45 43.75L175 30.6L177.85 27.6C178.05 27.35 177 27.45 176.95 27.5C176.55 27.55 175.8 27.65 175.5 28L167.65 36.25L155.1 49.45L152.25 52.45C152.05 52.7 153.1 52.6 153.15 52.55C153.55 52.45 154.3 52.4 154.6 52.05Z" fill="#0C0077"/>
<path d="M160.8 58.4001L168.65 50.1001L181.2 36.9001L184.05 33.9001C184.45 33.5001 183.95 33.1501 183.55 33.0001C182.95 32.8001 182.35 32.9501 181.85 33.3001L174 41.6001L161.5 54.8001L158.65 57.8001C158.25 58.2001 158.75 58.5501 159.15 58.7001C159.7 58.8501 160.35 58.7501 160.8 58.4001Z" fill="#0C0077"/>
<path d="M166.95 64.8501L174.8 56.5501L187.35 43.3501L190.2 40.3501C190.25 40.3001 188.35 38.7501 188.05 39.0501L180.2 47.3001L167.7 60.5001L164.85 63.5001C164.8 63.5501 166.7 65.1001 166.95 64.8501Z" fill="#0C0077"/>
<path d="M173.75 70.3L181.6 62L194.15 48.8L197 45.8C197.25 45.55 196.15 45.65 196.1 45.65C195.7 45.7 194.95 45.75 194.6 46.1L186.75 54.35L174.2 67.55L171.35 70.55C171.1 70.8 172.2 70.7 172.25 70.7C172.7 70.65 173.45 70.6 173.75 70.3Z" fill="#0C0077"/>
<path d="M148.05 39.8L154.85 45.7001L147.45 53.9001L148.05 39.8Z" fill="#000005"/>
<path d="M146.85 39.8001L153.3 45.4501C153.35 45.5001 153.6 45.6501 153.6 45.7001C153.6 45.6001 153.5 45.7501 153.45 45.8001C153.05 46.1501 152.75 46.6001 152.4 46.9501L148.75 51.0001L146.15 53.8501L148.65 54.0001L149.2 41.6501L149.25 39.9001C149.3 39.6501 146.8 39.5001 146.85 39.8001L146.3 52.1001L146.25 53.8501C146.25 54.1501 148.5 54.2501 148.75 54.0001L155.2 46.8501L156.15 45.8001L156.1 45.7501L149.3 39.8001C149 39.5001 148.15 39.6001 147.8 39.6001C147.6 39.6001 146.7 39.6501 146.85 39.8001Z" fill="#000005"/>
<path d="M148.6 45.7001C148.9 46.1501 149.3 46.5501 149.65 46.9501C149.75 47.0501 149.9 47.2001 150.05 47.2501C150.15 47.3501 150.3 47.4001 150.45 47.4001C150.55 47.4501 150.7 47.4501 150.8 47.4001C150.9 47.4001 151 47.3501 151.1 47.2501L151.2 47.0501C151.25 46.9001 151.3 46.7001 151.25 46.5501L151.15 46.3001C151.05 46.1001 150.95 45.9001 150.8 45.7501C150.55 45.5001 150.3 45.2501 150.05 44.9501L150.25 45.2001L150.1 45.0001C150 44.8501 149.9 44.7501 149.75 44.6001C149.65 44.5001 149.5 44.4001 149.35 44.3001C149.25 44.2501 149.1 44.2001 148.95 44.2001C148.85 44.1501 148.7 44.1501 148.6 44.2001L148.5 44.5001C148.4 44.6001 148.35 44.7501 148.3 44.9001V45.1501C148.35 45.3501 148.45 45.5501 148.6 45.7001Z" fill="#0C0077"/>
<path d="M146.85 45.0501L146.75 44.9501L146.7 44.9001C146.65 44.8501 146.8 45.0501 146.8 45.0001C146.75 44.9001 146.7 44.8001 146.65 44.7001V44.6501C146.65 44.6501 146.7 44.9001 146.7 44.8001C146.7 44.7001 146.65 44.7001 146.65 44.6001C146.65 44.5001 146.65 44.3501 146.6 44.2501C146.55 44.1501 146.6 44.4001 146.6 44.3501C146.6 44.3001 146.6 44.3001 146.6 44.2501V44.1001C146.6 43.9501 146.65 43.8501 146.65 43.7001C146.65 43.6501 146.7 43.6001 146.7 43.5001C146.65 43.7001 146.75 43.3001 146.7 43.5001C146.75 43.3501 146.8 43.2501 146.9 43.1001C146.95 42.9501 147.05 42.8501 147.15 42.7001L147.25 42.5501L147.3 42.4501C147.4 42.3501 147.2 42.6001 147.25 42.5001C147.45 42.2501 147.7 42.0001 147.95 41.8001C147.8 41.9001 148.1 41.7001 147.95 41.8001L148.1 41.7001C148.15 41.6501 148.2 41.6501 148.25 41.6001C148.3 41.5501 148 41.7001 148.1 41.6501L148.2 41.6001L148.35 41.5501C148.5 41.5001 148.05 41.6001 148.2 41.6001H148.45C148.65 41.6001 148.1 41.5501 148.35 41.6001C148.45 41.6001 148.55 41.6501 148.65 41.6501L148.8 41.7001C148.75 41.7001 148.65 41.6501 148.6 41.6501C148.65 41.6501 148.65 41.6501 148.7 41.7001C148.95 41.7501 149.15 41.8501 149.4 41.9501C149.65 42.0501 149.2 41.8001 149.35 41.9001C149.4 41.9001 149.45 41.9501 149.45 42.0001C149.45 42.0001 149.25 41.8001 149.3 41.9001L149.35 41.9501C149.4 42.0001 149.5 42.1501 149.4 42.0001C149.3 41.8501 149.4 42.0001 149.4 42.0501C149.4 42.1001 149.45 42.2501 149.4 42.1001C149.35 41.9501 149.4 42.1001 149.4 42.1501C149.4 42.2001 149.4 42.2501 149.45 42.3001C149.45 42.3501 149.45 42.4001 149.45 42.4501C149.45 42.4501 149.45 42.2001 149.45 42.3001C149.45 42.3501 149.45 42.3501 149.45 42.4001C149.45 42.5001 149.4 42.6501 149.4 42.7501C149.4 42.8001 149.35 42.9001 149.35 42.9501C149.3 43.1001 149.45 42.7501 149.35 42.9501C149.3 43.1001 149.25 43.2001 149.15 43.3501C149.1 43.4501 149 43.6001 148.95 43.7001L148.85 43.8501C148.8 43.9501 148.9 43.8001 148.9 43.8001C148.85 43.8501 148.85 43.8501 148.8 43.9001C148.6 44.1001 148.4 44.3501 148.15 44.5001L148.05 44.6001C147.95 44.7001 148.25 44.5001 148.1 44.5501L147.9 44.7001C147.75 44.8001 147.65 44.8501 147.5 44.9001C147.45 44.9001 147.2 45.0001 147.4 44.9501C147.6 44.9001 147.35 44.9501 147.3 44.9501C147.15 45.0001 147.05 45.0501 146.9 45.0501C146.85 45.0501 147.2 45.0501 147.05 45.0501H146.95H146.75H146.85C146.65 45.0501 147.15 45.0501 146.95 45.0501L146.75 45.0001C146.55 44.9501 147.05 45.1001 146.85 45.0501L146.75 45.0001C146.65 44.9501 146.9 45.1001 146.9 45.1001L146.85 45.0501C146.75 45.0001 146.55 44.8001 146.85 45.0501C146.4 44.6001 145.7 44.5001 145.1 44.7501C144.85 44.8501 144.65 45.1001 144.6 45.3501C144.55 45.6001 144.65 45.9001 144.85 46.1001C145.5 46.7001 146.35 47.0001 147.25 46.9501C148 46.9501 148.8 46.7001 149.45 46.3501C150.2 45.9001 150.8 45.3501 151.3 44.6501C151.7 44.1001 152 43.4501 152.05 42.7501C152.15 42.0501 151.9 41.3001 151.4 40.8001C150.75 40.3001 150 39.9501 149.2 39.8001C148.4 39.6001 147.6 39.6501 146.85 39.9501C146.05 40.3001 145.4 40.9001 144.95 41.6501C144.05 42.9001 143.65 44.9001 144.85 46.1001C145.3 46.5501 146 46.7001 146.6 46.4001C147 46.2001 147.2 45.7001 147 45.3001C147 45.2001 146.95 45.1001 146.85 45.0501Z" fill="#0C0077"/>
<path d="M144 41.35L145.3 43.1L146 44C146.25 44.35 146.5 44.75 146.9 44.9C147.05 44.95 147.15 44.95 147.3 44.9C148.05 44.8 148.7 44.4 149.15 43.8C149.3 43.6 149.45 43.4 149.5 43.15C149.5 42.9 149.45 42.6 149.3 42.35C148.9 41.45 148.05 40.85 147.4 40.2L145.7 38.55C145.65 38.5 145.2 38.05 145.1 38.25L143.6 40.15C143.55 40.3 143.55 40.45 143.6 40.6C143.7 40.85 143.85 41.1 144 41.35C144.2 41.6 144.4 41.8 144.6 42C144.65 42.05 144.95 42.25 145.05 42.15L146.55 40.25L145.95 39.95L147.9 41.8L148.8 42.7L148.85 42.75L148.45 42.25C148.4 42.15 148.2 41.8 148.15 41.75C148.1 41.6 148.05 41.5 148 41.35V41.4C148 41.15 148 41.3 148 41.35C148 41.4 147.95 41.45 147.95 41.5C147.9 41.65 147.8 41.75 147.7 41.85C147.35 42.25 146.9 42.6 146.4 42.75C146.2 42.8 146 42.85 145.8 42.8L146.75 43.6L144.7 40.9C144.55 40.65 144.35 40.45 144.1 40.25C144 40.2 143.8 40 143.65 40.1C143.3 40.3 143.9 41.2 144 41.35Z" fill="#0C0077"/>
<path d="M144.45 40.3501C144.4 40.3001 144.4 40.2501 144.35 40.2001L144.45 40.4501C144.4 40.3501 144.35 40.2001 144.35 40.0501L144.4 40.3501C144.35 40.1001 144.35 39.8501 144.4 39.6001L144.35 39.8501C144.4 39.5001 144.55 39.1501 144.7 38.8501L144.55 39.1001C144.65 38.9001 144.75 38.7501 144.9 38.6001L144.7 38.8001C144.75 38.7501 144.8 38.7001 144.9 38.6501L144.65 38.8001C144.7 38.7501 144.8 38.7501 144.85 38.7001L144.55 38.7501C144.6 38.7501 144.7 38.7501 144.75 38.7501H144.45C144.55 38.7501 144.65 38.7501 144.7 38.8001L144.35 38.7001C144.45 38.7501 144.55 38.7501 144.65 38.8001L144.35 38.6501C144.5 38.7001 144.6 38.8001 144.75 38.9001L144.5 38.7001C144.6 38.8001 144.75 38.9001 144.8 39.0501L144.6 38.8001C144.65 38.8501 144.7 38.9501 144.7 39.0001L144.6 38.7501C144.65 38.8001 144.65 38.9001 144.65 38.9501L144.6 38.6501C144.6 38.7501 144.6 38.8501 144.6 38.9501L144.65 38.6501C144.6 38.8501 144.55 39.0001 144.45 39.2001L144.6 38.9501C144.5 39.1501 144.35 39.3501 144.25 39.5001C144.15 39.7001 144 39.8501 143.85 40.0501L144.05 39.8501C143.95 39.9501 143.85 40.0001 143.75 40.0501L144 39.9001C143.9 39.9501 143.85 40.0001 143.75 40.0001L144.05 39.9501C143.95 39.9501 143.9 39.9501 143.8 39.9501H144.1C144.05 39.9501 143.95 39.9501 143.9 39.9501L144.2 40.0501C144.15 40.0501 144.1 40.0001 144 40.0001L144.3 40.1501C144.25 40.1001 144.15 40.1001 144.1 40.0501L144.45 40.3501C144.4 40.3001 144.35 40.2501 144.3 40.1501L144.5 40.4001L144.45 40.3501C144.25 40.1001 144 39.9001 143.7 39.8001C143.4 39.7001 143.05 39.7001 142.75 39.8001C142.5 39.9001 142.25 40.1001 142.15 40.3501C142.05 40.6001 142.1 40.9001 142.25 41.1501C142.45 41.4001 142.7 41.6501 142.95 41.8501C143.25 42.0501 143.55 42.1501 143.9 42.2001C144.25 42.2501 144.6 42.2001 144.9 42.1001C145.15 42.0501 145.35 41.9501 145.55 41.8001C145.95 41.5001 146.3 41.1001 146.55 40.6501C146.85 40.2501 147.05 39.7501 147.1 39.2001C147.1 38.6501 146.85 38.1001 146.5 37.7501C146.15 37.4001 145.7 37.1001 145.25 36.9001C145.2 36.8501 145.1 36.8501 145.05 36.8501C144.9 36.8001 144.7 36.7501 144.5 36.7501C144.15 36.7001 143.8 36.7501 143.5 36.9001C143.2 37.0001 142.9 37.2001 142.7 37.4501C142.5 37.7001 142.35 37.9501 142.25 38.2001C142 38.6501 141.9 39.2001 141.85 39.7001C141.8 40.2501 141.95 40.7501 142.2 41.2001C142.4 41.4501 142.65 41.6501 142.95 41.8001C143.25 41.9001 143.6 41.9001 143.9 41.8001C144.4 41.6501 144.65 41.1501 144.5 40.7001C144.55 40.5001 144.5 40.4001 144.45 40.3501Z" fill="#0C0077"/>
<path d="M162.05 57.25C163.6 55.3 164.4 52.9 164.4 50.4C164.45 49.85 164.25 49.35 163.9 48.95C163.35 48.4 162.5 48.15 161.75 48.3C160.3 48.7 161.05 50.3 161.6 51.15C162.3 52.2 163.3 53.3 164.6 53.55C165.9 53.8 166.8 53 167.5 51.9C168.7 50 169.5 47.85 169.8 45.65C170.1 43.4 169.95 41.1 169.3 38.9C168.7 36.9 167.55 33.5 164.95 33.55C163.9 33.5 163.05 34.35 163 35.35C163 35.45 163 35.55 163 35.65C163.1 36.8 163.8 38 164.45 38.9C165.15 39.9 165.95 40.85 166.85 41.75C167.65 42.65 168.55 43.45 169.55 44.15C170.75 44.95 172.25 45.45 173.65 45C174.9 44.5 176 43.65 176.75 42.5C177.6 41.4 178.2 40.15 178.45 38.75C178.55 37.35 177.5 36.1 176.1 35.95C176.05 35.95 176 35.95 175.95 35.95C175.6 35.9 174.65 36.05 174.85 36.6C175.4 38.4 177.55 39.1 179.25 38.65C181.15 38.15 181.95 36.2 182.5 34.55C182.85 33.55 180.45 32.85 180.1 33.85C179.75 34.85 179.35 36.2 178.4 36.9C178.15 37.05 177.85 37.15 177.6 37.2C177.5 37.2 177.35 37.1 177.45 37.2C177.35 37.1 177.3 37.1 177.25 36.95L176.15 37.6C175.45 37.55 175.9 37.35 175.9 37.55C175.9 37.65 176 37.8 176 37.95C176 38.35 175.95 38.7 175.8 39.05C175.55 39.75 175.2 40.45 174.8 41.05C174.2 41.9 173.05 43.6 171.8 43.5C171.35 43.4 170.9 43.15 170.6 42.8C170.05 42.35 169.55 41.85 169.05 41.3C168 40.3 167.05 39.2 166.3 37.95C165.9 37.35 165.65 36.7 165.5 36C165.5 35.7 165.55 35.45 165.65 35.2C165.7 35 166.05 35.1 165.45 35.05C164.95 35 165.15 34.95 165.35 35.25C166.1 36.35 166.6 37.55 166.95 38.8C167.7 41.45 167.7 44.25 167 46.95C166.6 48.45 165.95 49.85 165.1 51.1C164.9 51.35 164.65 51.65 164.4 51.9C164.35 51.75 165.15 52.4 164.75 51.9C164.65 51.75 164.45 51.6 164.35 51.5C164.25 51.4 163.15 49.85 163.4 49.75L162.9 49.9L162 49.55V49.65C162 49.8 162 49.95 162 50.1C162 50.4 162 50.7 161.95 51.05C161.9 51.65 161.75 52.3 161.6 52.9C161.25 54.1 160.65 55.2 159.9 56.2C159.1 57 161.4 58 162.05 57.25Z" fill="#000005"/>
<path d="M173.45 63.05C174.85 60.05 175.2 56.65 174.45 53.4C174.4 53.1 172.9 51.65 172.55 51.85C171.4 52.5 172 53.9 172.65 54.7C173.6 55.75 174.6 56.7 175.65 57.6C176.7 58.55 177.45 59.75 177.85 61.05C178.05 61.65 178.1 62.35 177.9 62.95C177.8 63.25 177.55 63.45 177.3 63.55L177.05 63.6L178.2 64.6C178.15 64.4 178.1 64.25 178.05 64.05C177.45 61.15 178.4 58 179.5 55.35C180 54.15 180.6 52.7 181.8 52.05C182.1 51.85 182.5 51.75 182.85 51.75C182.95 51.75 183.1 51.8 183.25 51.8L183.45 51.85C182.75 51 182.45 50.8 182.65 51.2C182.65 51.3 182.75 51.45 182.75 51.6C182.75 51.75 182.7 51.9 182.7 52L183.95 53.25C183.9 53.2 183.9 53.1 183.9 53.05C183.85 52.85 183.85 52.65 183.85 52.45C183.95 51.25 184.8 50 185.65 49.15C186.6 48.15 187.8 47.4 189.15 47.05C189.25 47.05 188.4 46.15 188.3 46.1C188.1 45.95 187.55 45.35 187.25 45.4C185.25 45.95 183.55 47.3 182.55 49.15C182.15 49.85 181.75 50.8 182 51.65C182.2 52.1 182.5 52.45 182.85 52.75C183.3 53.25 183.9 53.6 184.5 53.85H184.55C184.95 52.65 183.7 51.6 182.85 50.95C181.85 50.15 180.75 49.9 179.65 50.65C178.55 51.4 178.05 52.75 177.55 53.9C176.95 55.2 176.55 56.6 176.25 58C175.95 59.35 175.9 60.75 176.05 62.1C176.1 62.6 176.2 63.05 176.5 63.5C176.95 64.15 177.55 64.65 178.25 65.05C178.65 65.35 179.15 65.35 179.55 65.05C180.05 64.65 180 63.95 179.95 63.35C179.75 62.1 179.25 60.95 178.45 59.95C177.5 58.75 176.45 57.7 175.3 56.7C174.8 56.2 174.15 55.75 173.95 55C173.75 54.4 174 53.8 174.55 53.45L172.65 51.9C173.35 55.1 173 58.45 171.65 61.4C171.4 61.8 173.45 63.05 173.45 63.05Z" fill="#000005"/>
<path d="M178.75 44.8501C178.75 44.9001 178.8 45.0001 178.85 45.0501C178.9 45.1001 178.95 45.2001 179 45.2501C179.05 45.3001 179.15 45.4001 179.25 45.4501C179.35 45.5001 179.45 45.6001 179.55 45.6001C179.75 45.7001 180 45.7501 180.2 45.8001C180.3 45.8001 180.45 45.8501 180.55 45.8501C180.75 45.8501 180.95 45.8501 181.1 45.8001H181.15C181.2 45.7501 181.25 45.7501 181.35 45.7001C181.4 45.6501 181.45 45.6001 181.45 45.5501V45.5001C181.45 45.4501 181.45 45.3501 181.45 45.3001V45.2501C181.4 45.1501 181.4 45.1001 181.35 45.0501C181.3 45.0001 181.25 44.9001 181.15 44.8501C181.1 44.8001 181 44.7001 180.9 44.6501C180.7 44.5001 180.5 44.4001 180.3 44.3501C180.1 44.3001 179.85 44.2501 179.6 44.2001C179.4 44.2001 179.25 44.2001 179.05 44.2501C178.95 44.2501 178.9 44.3501 178.85 44.4001C178.8 44.4501 178.75 44.5501 178.8 44.6501C178.8 44.7501 178.85 44.8501 178.95 44.9001C179.05 45.0001 179.1 45.1001 179.25 45.1501L179.5 45.3001C179.7 45.4001 179.9 45.4501 180.15 45.5001L180.45 45.5501C180.6 45.5501 180.8 45.5501 180.95 45.5001L180.7 45.5501H180.75H180.5L180.2 45.5001L179.9 45.4001L179.6 45.3001L179.35 45.1501L179.15 45.0001L179.2 45.0501L179.05 44.8501L179.1 44.9001L179.05 44.7501C179.05 44.8001 179.05 44.8001 179.05 44.8501V44.7001C179.05 44.7501 179.05 44.7501 179.05 44.8001L179.15 44.6501L179.1 44.7001L179.25 44.6001H179.2L179.45 44.5501H179.65L179.95 44.6001H179.9L180.2 44.7001L180.5 44.8001L180.75 44.9501L180.95 45.1001L181.1 45.3001V45.2501L181.15 45.4001C181.15 45.4001 181.15 45.4001 181.15 45.3501C181.15 45.2501 181.1 45.1501 181 45.1001C180.9 45.0001 180.8 44.9001 180.7 44.8501C180.55 44.7501 180.45 44.7001 180.3 44.6501C180.15 44.6001 180 44.5501 179.8 44.5001L179.5 44.4501C179.35 44.4501 179.15 44.4501 179 44.5001L178.85 44.6001C178.75 44.7001 178.7 44.8001 178.75 44.9001V44.8501Z" fill="#000005"/>
<path d="M11.0501 128.7H69.6501C70.4501 128.7 71.1001 129.35 71.1001 130.15V200.4C71.1001 201.2 70.4501 201.85 69.6501 201.85H11.0501C10.2501 201.85 9.60011 201.2 9.60011 200.4V130.15C9.55011 129.35 10.2001 128.7 11.0501 128.7Z" fill="white"/>
<path d="M69.1501 200.95H11.55C11.25 200.95 10.95 200.95 10.65 200.95C10.65 200.95 10.6 200.95 10.55 200.95C10.45 201 10.6 201.1 10.65 201.05C10.8 201 10.65 201.15 10.65 201C9.80003 207.05 10.65 200.9 10.65 200.9V200.85C10.65 200.6 10.65 200.35 10.65 200.1V138.8C10.65 136.15 10.65 133.5 10.65 130.85C10.65 130.3 10.85 129.7 11.45 129.6C11.65 129.6 11.8 129.6 12 129.6H69.1001C69.4001 129.65 69.7001 129.65 70.0001 129.6C70.2501 129.55 69.9001 129.55 69.9001 129.5C69.9001 129.5 69.9501 129.7 69.9501 129.8C70.0001 130.55 69.9501 131.35 69.9501 132.1V198.8C69.9501 199.45 70.1501 200.9 69.1501 200.95C67.7001 201.05 69.1501 202.8 70.1001 202.75C71.3001 202.7 72.2001 201.95 72.2001 200.75C72.2001 200.45 72.2001 200.15 72.2001 199.85V132.7C72.2001 132 72.2001 131.35 72.2001 130.65C72.1501 129.05 70.6501 127.85 69.1001 127.75C68.8501 127.75 68.6501 127.75 68.4001 127.75H11.05C10.8 127.75 10.55 127.75 10.3 127.75C9.25003 127.85 8.45002 128.7 8.50002 129.75C8.50002 130.6 8.50002 131.45 8.50002 132.3V199.2C8.50002 199.4 8.50002 199.6 8.50002 199.8C8.55002 201.4 10.05 202.6 11.6 202.7C14.3 202.8 16.95 202.7 19.65 202.7H70.1501C70.4501 202.75 70.7501 202.55 70.8001 202.25C70.8501 202.1 70.8001 201.95 70.7001 201.85C70.3001 201.35 69.7501 201 69.1501 200.95Z" fill="#0C0077"/>
<path d="M63.5001 135.75H16.6001V155.4H63.5001V135.75Z" fill="#000005"/>
<path d="M63.5501 154.75H18.5501C17.9501 154.75 17.3001 154.7 16.7001 154.75C16.6501 154.75 16.6501 154.75 16.6001 154.75L17.8001 155.5V135.85L16.5001 136.45H61.5001C62.1001 136.45 62.7501 136.5 63.3501 136.45H63.4501L62.2501 135.7V155.35C62.2501 156.3 64.7501 156.4 64.7501 155.5V135.85C64.7501 135.35 63.9501 135.1 63.5501 135.1H16.6501C16.3001 135.1 15.3501 135.15 15.3501 135.7V155.35C15.3501 155.85 16.1501 156.1 16.5501 156.1H63.4501C63.8501 156.1 64.7001 156.05 64.7501 155.5C64.8001 154.95 63.9001 154.75 63.5501 154.75Z" fill="#000005"/>
<path d="M27.8501 159.5H16.3501V168.95H27.8501V159.5Z" fill="white"/>
<path d="M27.3002 167.9H15.8001L17.2002 169.45V160L16.8501 160.65H28.3502L26.9002 159.1V168.5C27.0002 169.1 27.3502 169.65 27.9002 169.95C28.4002 170.2 28.6502 169.9 28.6502 169.4V159.95C28.6502 159.3 27.9002 158.4 27.2502 158.4H15.7501C15.4001 158.4 15.4001 158.8 15.4001 159.05V168.5C15.4001 169.15 16.1501 170.05 16.8001 170.05H28.3002C28.8502 170.05 28.6002 169.15 28.5002 168.85C28.3502 168.35 27.8502 167.95 27.3002 167.9Z" fill="#0C0077"/>
<path d="M45.8 159.5H34.3V168.95H45.8V159.5Z" fill="white"/>
<path d="M45.4001 168.1H33.9001L35.5001 169.15V159.7L34.6501 160.45H46.1501L44.5501 159.4V168.85C44.5501 169.9 47.0001 170.4 47.0001 169.15V159.7C47.0001 158.95 45.9501 158.65 45.4001 158.65H33.9001C33.4501 158.6 33.1 158.95 33.05 159.35V168.8C33.05 169.55 34.1001 169.85 34.6501 169.85H46.1501C46.6501 169.85 47.1501 169.4 46.9001 168.9C46.6501 168.35 46.0501 168.05 45.4001 168.1Z" fill="#0C0077"/>
<path d="M62.8501 159.15H51.3501V168.6H62.8501V159.15Z" fill="white"/>
<path d="M62.3 167.5H50.8L52.25 169.3V159.85L51.95 160.2H63.45L62 158.4V167.85C62.05 168.45 62.35 169 62.8 169.35C63.05 169.55 63.7 169.85 63.7 169.25V159.8C63.7 159.1 63.05 158 62.25 158H50.75C50.55 158 50.45 158.2 50.45 158.35V167.8C50.45 168.45 51.1 169.6 51.9 169.6H63.4C63.95 169.6 63.6 168.7 63.5 168.5C63.3 168.1 62.85 167.5 62.3 167.5Z" fill="#0C0077"/>
<path d="M27.8 173.35H16.3V182.8H27.8V173.35Z" fill="white"/>
<path d="M27.1001 181.8H15.6001L17.2001 183.45V174L16.9501 174.35H28.4501L26.8501 172.7V182.15C26.8501 182.7 27.4001 183.3 27.8501 183.55C28.1501 183.75 28.7001 183.95 28.7001 183.4V174C28.5501 173.15 27.9501 172.5 27.1001 172.35H15.6001C15.4001 172.35 15.3501 172.6 15.3501 172.7V182.15C15.5001 183 16.1001 183.65 16.9501 183.8H28.5001C29.0501 183.8 28.5501 182.85 28.4501 182.7C28.1501 182.25 27.6501 181.9 27.1001 181.8Z" fill="#0C0077"/>
<path d="M45.75 173.35H34.25V182.8H45.75V173.35Z" fill="white"/>
<path d="M45.0001 181.9H33.5001L35.2001 183.6V174.15L35.0501 174.3H46.5501L44.8501 172.6V182.05C44.8501 182.55 45.4001 183.05 45.7501 183.35C45.8501 183.45 46.7001 184.05 46.7001 183.65V174.2C46.7001 173.6 45.6501 172.5 45.0001 172.5H33.5001C33.4501 172.5 33.3501 172.55 33.3501 172.6V182.05C33.3501 182.65 34.4001 183.75 35.0501 183.75H46.5501C47.0001 183.75 46.3501 182.9 46.2501 182.8C46.0001 182.5 45.4501 181.9 45.0001 181.9Z" fill="#0C0077"/>
<path d="M62.8 173H51.3V182.45H62.8V173Z" fill="white"/>
<path d="M62.6502 181.25H51.1502L52.4502 182.75V173.3L51.5002 174.2H63.0002L61.7002 172.7V182.15C61.6502 182.8 62.0502 183.4 62.7002 183.6C63.2002 183.75 63.7502 183.45 63.9002 182.95C63.9002 182.9 63.9502 182.8 63.9502 182.75V173.3C64.0002 172.55 63.4502 171.85 62.6502 171.8H51.1502C50.6502 171.8 50.2502 172.2 50.2002 172.7V182.15C50.1502 182.9 50.7002 183.6 51.5002 183.65H63.0002C64.5002 183.65 64.0002 181.25 62.6502 181.25Z" fill="#0C0077"/>
<path d="M27.6499 187.15H16.1499V196.6H27.6499V187.15Z" fill="white"/>
<path d="M27.4501 195.5H15.9501L17.1501 197.05V187.55L16.3501 188.3H27.8501L26.6501 186.75V196.2C26.6501 196.85 27.0001 197.45 27.6001 197.7C27.9501 197.9 28.4001 197.75 28.5501 197.35C28.6001 197.25 28.6501 197.15 28.6001 197V187.55C28.6001 186.95 28.1001 186 27.4001 186H15.9001C15.5001 185.95 15.1501 186.25 15.1001 186.65C15.1001 186.7 15.1001 186.7 15.1001 186.75V196.2C15.1001 196.8 15.6001 197.75 16.3001 197.75H27.8001C29.2501 197.75 28.5501 195.5 27.4501 195.5Z" fill="#0C0077"/>
<path d="M45.6001 187.15H34.1001V196.6H45.6001V187.15Z" fill="white"/>
<path d="M46.3999 196.2H34.8999L35.2999 196.35V186.9L33.2999 187.65H44.7999L44.3999 187.5V196.95C44.3999 197.25 46.7999 196.95 46.7999 196.3V186.85C46.7999 186.7 46.3999 186.7 46.3999 186.7H34.8999C34.4499 186.7 33.9999 186.8 33.5499 187C33.3499 187.05 32.8999 187.25 32.8999 187.5V196.95C32.8999 197.1 33.2999 197.1 33.2999 197.1H44.7999C45.3999 197.1 45.9999 196.95 46.4999 196.65C46.8999 196.4 46.8999 196.2 46.3999 196.2Z" fill="#0C0077"/>
<path d="M62.6499 186.8H51.1499V196.25H62.6499V186.8Z" fill="white"/>
<path d="M62.1001 195.25H50.6001L52.2501 196.65V187.2L51.7501 187.8H63.2501L61.6001 186.4V195.85C61.6001 196.8 63.7501 197.95 63.7501 196.65V187.2C63.7501 186.45 62.8001 185.8 62.1001 185.8H50.6001C50.3001 185.8 50.1001 186 50.1001 186.3C50.1001 186.35 50.1001 186.35 50.1001 186.4V195.85C50.1001 196.6 51.0501 197.25 51.7501 197.25H63.2501C63.8501 197.25 63.7501 196.5 63.5501 196.15C63.2501 195.65 62.7001 195.3 62.1001 195.25Z" fill="#0C0077"/>
<path d="M36.7999 144.15C37.5999 143.5 38.4999 143 39.3999 142.6L37.4999 141.1C37.6499 142.7 37.7499 144.3 37.6999 145.9L37.7999 150.7C37.7999 151.15 38.5999 151.6 38.8999 151.8C38.9999 151.85 39.8499 152.4 39.8499 152.05L39.7499 147.25C39.7999 145.65 39.6999 144.05 39.5499 142.45C39.4999 142.1 38.9999 141.7 38.7499 141.55C38.4999 141.4 37.9499 140.85 37.6499 141C36.6499 141.45 35.6999 142 34.8499 142.65C34.5999 142.8 36.2999 144.5 36.7999 144.15Z" fill="white"/>
<path d="M44.9 143.45H47.9L46.6 141.4C46 142.45 45.35 143.45 44.65 144.45C44.4 144.75 44.75 145.45 44.9 145.7C45.05 145.95 45.5 146.5 45.9 146.5C46.65 146.45 47.6 146 48.35 146.3C48.45 146.35 48.55 146.35 48.55 146.45C48.55 146.45 48.4 146.25 48.45 146.4C48.5 146.55 48.45 146.4 48.45 146.35C48.5 146.65 48.55 146.9 48.5 147.2C48.35 147.9 47.95 148.5 47.35 148.85C47.05 149.05 46.7 149.2 46.35 149.3C46.2 149.35 46 149.35 45.85 149.3C45.75 149.3 45.55 149.15 45.65 149.25C45.35 149 44.8 148.75 44.7 149.3C44.7 149.9 44.95 150.5 45.4 150.85C47.3 152.55 50.05 150.5 50.2 148.3C50.25 146.8 49.55 145.4 48.35 144.5C47.85 144.15 47.25 143.95 46.65 144C46.05 144.05 45.45 144.2 44.85 144.25L46.15 146.3C46.85 145.35 47.5 144.3 48.1 143.25C48.3 142.9 48.05 142.3 47.85 142C47.65 141.7 47.25 141.2 46.85 141.2H43.85C43.3 141.2 43.55 142.1 43.7 142.35C43.95 142.8 44.35 143.45 44.9 143.45Z" fill="white"/>
<path d="M56.8501 140.7C53.0001 140.05 51.9001 145.2 53.2001 147.9C53.9501 149.45 55.7001 150.8 57.5001 150.4C59.1501 150.05 60.1001 148.45 60.5001 146.9C61.1001 145.1 60.8501 143.1 59.8501 141.5C59.6001 141.05 58.8501 140.6 58.3501 140.85C57.8501 141.1 58.1001 141.8 58.3001 142.15C58.2001 142 58.4001 142.35 58.4001 142.35C58.4501 142.45 58.5001 142.5 58.5001 142.6C58.5501 142.85 58.6001 143.05 58.6501 143.3C58.7001 143.85 58.7001 144.4 58.6001 144.95C58.4001 146.05 57.9501 147.35 57.0501 148C56.7001 148.3 56.2001 148.4 55.7501 148.35C55.5501 148.3 55.8501 148.4 55.7001 148.35L55.5501 148.3C55.7501 148.4 55.3001 148.15 55.4501 148.25C55.6001 148.35 55.4001 148.2 55.4001 148.2C55.4001 148.2 55.3001 148.1 55.2501 148.05C55.4501 148.25 55.1501 147.9 55.2001 147.95C55.1001 147.75 55.0001 147.55 54.9501 147.35C54.9001 147.05 54.8501 146.8 54.8501 146.5C54.8501 145.95 54.9001 145.35 55.0501 144.8C55.3501 143.75 56.2501 142.55 57.4501 142.7C57.8001 142.8 58.1501 142.6 58.2501 142.25C58.3001 142.15 58.3001 142 58.2501 141.85C57.9501 141.3 57.4501 140.8 56.8501 140.7Z" fill="white"/>
</svg>
