<svg width="250" height="250" viewBox="0 0 250 250" fill="none" xmlns="http://www.w3.org/2000/svg">
<path d="M79.1 189.2C79.1 189.2 24.9499 74.8 26.3499 73.5C27.7499 72.2 118.7 28.25 124 31.85C129.3 35.45 173.6 154.35 173.6 154.35C173.6 154.35 90.8 203.4 79.1 189.2Z" fill="white"/>
<path d="M80.0999 189.2C79.1999 187.25 78.2499 185.3 77.3499 183.35C74.9999 178.35 72.5999 173.35 70.2499 168.3C66.9499 161.35 63.6999 154.35 60.4499 147.35C56.8499 139.6 53.2499 131.85 49.6499 124.1C46.1999 116.7 42.8499 109.35 39.4499 101.95C36.7999 96.05 34.0999 90.2 31.5499 84.25C30.1499 81.05 28.5999 77.85 27.5999 74.55C27.5499 74.4 27.4999 74.25 27.4499 74.1C27.3499 73.85 27.3499 74.15 27.4499 74C27.4499 74 27.2499 74.2 27.3499 74.2C27.4499 74.15 27.5499 74.1 27.6499 74C28.7499 73.35 29.9499 72.8 31.0999 72.2C36.1999 69.65 41.3499 67.15 46.4999 64.7C53.8499 61.2 61.2499 57.7 68.6499 54.3C76.5499 50.7 84.4499 47.1 92.4499 43.7C99.0999 40.8 105.85 38 112.7 35.5C115.05 34.65 117.4 33.85 119.8 33.2C120.6 32.95 121.45 32.8 122.3 32.65C122.45 32.6 122.65 32.6 122.8 32.55H123.05C123.15 32.55 122.85 32.55 123.1 32.55C123.35 32.55 123.6 32.55 123.85 32.55C123.6 32.55 123.7 32.5 123.9 32.55C123.8 32.5 123.7 32.5 123.6 32.45C123.75 32.55 123.25 32.2 123.5 32.35C123.35 32.2 123.3 32.1 123.45 32.3L123.6 32.5C123.75 32.65 123.45 32.25 123.65 32.6C123.8 32.8 123.95 33 124.05 33.25C124.9 34.65 125.65 36.1 126.35 37.6C128.7 42.5 131 47.85 133.15 53.05C136.15 60.25 139.1 67.45 141.95 74.7C145.15 82.8 148.35 90.95 151.5 99.05C154.5 106.85 157.5 114.7 160.5 122.5C162.9 128.85 165.3 135.15 167.7 141.5C169.1 145.2 170.5 148.9 171.9 152.65L172.45 154.1L172.6 153.6C169.9 155.2 167.15 156.75 164.4 158.3C157.75 162.05 151 165.65 144.25 169.15C135.9 173.45 127.5 177.55 118.85 181.25C111.2 184.55 103.3 187.65 95.1999 189.6C92.1999 190.4 89.1499 190.8 86.0999 190.9C85.4499 190.9 84.7999 190.85 84.1999 190.8H83.9999C83.6999 190.75 84.1999 190.85 83.9499 190.8L83.5499 190.75C83.2499 190.7 82.9499 190.65 82.6499 190.55C82.5499 190.55 82.3999 190.5 82.2999 190.45L82.0999 190.4C82.3999 190.5 82.2499 190.45 82.1999 190.4C81.9499 190.3 81.6999 190.2 81.4499 190.1C81.3499 190.05 80.9999 189.85 81.3999 190.1L81.0499 189.9L80.7999 189.75C80.5499 189.6 81.0499 189.95 80.6999 189.7C80.5999 189.6 80.0499 189.15 80.3499 189.45C80.1999 189.3 80.0499 189.15 79.8999 188.95C79.4999 188.5 78.8999 188.25 78.2999 188.3C77.7499 188.45 77.9499 189 78.1999 189.35C81.6999 193.55 88.4499 192.85 93.1999 192C101.2 190.6 108.9 187.65 116.4 184.6C125.25 180.95 133.9 176.85 142.45 172.55C149.7 168.9 156.9 165.05 164 161.05C166.35 159.7 168.7 158.4 171.05 157.05C172.15 156.45 173.3 155.85 174.3 155.15L174.45 155.05C174.6 154.95 174.65 154.75 174.6 154.55C173.85 152.5 173.1 150.45 172.3 148.45C170.3 143.15 168.3 137.85 166.3 132.55C163.55 125.25 160.75 117.95 157.95 110.6C154.8 102.4 151.6 94.2 148.4 86C145.3 78.15 142.2 70.3 139.05 62.5C136.5 56.15 133.9 49.85 131.15 43.65C129.55 40.05 128 36.2 125.8 32.85C125.05 31.75 124.2 30.85 122.8 30.75C121.4 30.65 119.85 31.05 118.45 31.4C112.8 32.9 107.35 35.15 101.95 37.3C94.2499 40.45 86.6499 43.75 79.0499 47.15C71.0999 50.7 63.1499 54.35 55.2499 58.05C48.6999 61.15 42.1499 64.25 35.5999 67.45C32.2499 69.05 28.8499 70.6 25.6499 72.45C24.9999 72.85 25.0499 73.25 25.2499 73.95C25.6499 75.15 26.0999 76.35 26.5999 77.5C28.5499 82.25 30.6499 86.95 32.7499 91.65C35.7999 98.5 38.8999 105.35 42.0499 112.15C45.6499 119.95 49.2499 127.75 52.8999 135.55C56.4499 143.15 59.9999 150.75 63.5499 158.3C66.4499 164.45 69.3499 170.65 72.2499 176.8C73.9499 180.45 75.6499 184.05 77.3999 187.7L78.0999 189.15C78.4999 189.95 80.7499 190.5 80.0999 189.2Z" fill="#0C0077"/>
<path d="M105.6 134.35C106.65 133.45 107.55 132.45 108.4 131.35C109.2 130.3 109.9 129.1 109.85 127.75C109.8 126.4 108.8 125.25 107.7 124.6C106.8 124.05 105.55 123.95 104.95 125C104.35 126.05 104.65 127.25 105 128.25C105.4 129.5 106.05 130.65 106.9 131.65C108.45 133.55 111.2 135.75 113.85 134.9C116.6 134 118.25 130.7 118.5 128C118.55 127.45 118.1 126.95 117.7 126.65C117.55 126.55 116.65 125.95 116.6 126.5C116.45 128.5 115.55 130.4 114.15 131.85C113.5 132.55 112.65 133 111.7 133.15C110.75 133.2 109.8 132.9 109.05 132.25C107.75 131.25 106.9 129.8 106.6 128.2C106.5 127.5 106.55 126.4 107.4 126.15C107.55 126.15 107.75 126.15 107.9 126.15C108 126.15 108.1 126.3 107.95 126.15C107.8 126 107.9 126.15 107.9 126.2C107.85 126.45 107.95 126.75 107.9 127C107.65 128.1 107.1 129.15 106.3 130C105.55 130.9 104.7 131.75 103.85 132.55C103.3 133.1 105.05 134.9 105.6 134.35Z" fill="#0C0077"/>
<path d="M60.4 63.85C61.4 63.6 92.7499 48.2 92.7499 48.2L89.2499 38.15L78.35 43.3C78.35 43.3 75.35 36.15 68.3 40C61.25 43.85 64.85 49.45 64.85 49.45C64.85 49.45 56.15 54 55.6 55.8C55.05 57.6 60.4 63.85 60.4 63.85Z" fill="#0C0077"/>
<path d="M60.6499 64.6C61.0999 64.45 61.5499 64.25 61.9999 64C62.8499 63.6 63.6499 63.25 64.4499 62.85C67.0499 61.6 69.6499 60.35 72.2499 59.1C77.9499 56.3 83.6999 53.55 89.3999 50.75L93.2999 48.85C93.6499 48.7 94.0999 48.25 93.9499 47.8L90.4499 37.75C90.1999 37.05 89.1999 37.2 88.6999 37.45L79.1499 41.95L77.7999 42.6L79.5499 42.9C78.4499 40.3 76.0499 38.25 73.1999 38C70.3499 37.75 67.4499 39.1 65.3999 40.9C63.7499 42.35 62.5999 44.35 62.7499 46.6C62.7999 47.8 63.1499 48.95 63.7999 49.95L64.3499 48.75C61.6999 50.1 59.1499 51.6 56.7499 53.35C55.6999 54.1 54.1999 55.15 54.3999 56.6C54.5499 57.35 54.8499 58.05 55.2499 58.65C55.6999 59.5 56.2499 60.3 56.7999 61.05C57.5999 62.2 58.4499 63.3 59.3499 64.35C60.0499 65.15 62.2999 64.15 61.4999 63.25C60.7999 62.45 60.1499 61.65 59.5499 60.8C58.5499 59.5 57.4999 58.1 56.9499 56.55C56.8999 56.45 56.8499 56.3 56.8499 56.15C56.8499 56.05 56.7999 56 56.7999 55.9C56.7999 55.95 56.7999 56.05 56.7999 55.9C56.7999 55.85 56.8499 55.5 56.7999 55.75C56.7999 55.7 56.8499 55.65 56.8499 55.6C56.6999 55.75 56.9999 55.5 56.8499 55.6L57.0999 55.3C57.2999 55.05 57.0499 55.35 57.2499 55.15C57.4499 54.95 57.7999 54.65 58.0999 54.45C59.4499 53.45 60.8999 52.5 62.3999 51.7C63.3999 51.1 64.3999 50.55 65.3999 50.05C65.8499 49.8 66.2499 49.35 65.9499 48.85C65.8999 48.8 65.8999 48.75 65.8499 48.7C65.8999 48.8 65.9499 48.85 65.8499 48.7C65.7999 48.6 65.7499 48.5 65.6999 48.4C65.4499 47.9 65.2999 47.4 65.1999 46.85C64.9499 45.3 65.3499 43.7 66.3999 42.5C67.2499 41.6 68.2499 40.85 69.3499 40.35C70.1999 39.9 71.0999 39.7 71.9999 39.7C73.3999 39.8 74.7499 40.45 75.6999 41.55C76.1499 42.05 76.4999 42.55 76.8499 43.1L76.8999 43.2C76.9999 43.4 76.8499 43.1 76.9499 43.25C77.0499 43.4 76.9999 43.4 77.0499 43.45C77.0999 43.5 77.0999 43.6 77.1499 43.65C77.4499 44.35 78.3499 44.2 78.8999 43.95L88.4499 39.45L89.7999 38.8L88.0499 38.5L91.5499 48.55L92.1999 47.5L81.4999 52.7C75.7499 55.5 69.9999 58.3 64.2499 61.05C63.2499 61.55 62.1999 62.05 61.1999 62.5L60.2499 62.9C60.1499 62.95 60.0499 63 59.9499 63C59.8499 63 60.3499 62.85 60.0999 62.95C59.6499 63.1 58.9999 63.55 59.1499 64.1C59.3999 64.75 60.1999 64.75 60.6499 64.6Z" fill="#0C0077"/>
<path d="M65.95 87.15C66.5 88.1 67.05 89.1 67.55 90.05C67.95 90.75 68.3 91.45 68.7 92.15C68.85 92.4 68.95 92.65 69.1 92.9C69.15 93 69.15 93.1 69.2 93.15C69.3 93.35 69.2 93.25 69.25 93.2C69.35 92.95 69.35 92.9 69.5 92.75C69.35 92.9 69.8 92.6 69.55 92.7C69.45 92.75 69.4 92.8 69.3 92.85C69.6 92.65 69.35 92.8 69.2 92.9C68.6 93.2 68 93.45 67.4 93.7C67.05 93.85 66.7 94 66.35 94.1L65.9 94.25L65.25 94.5C64.4 94.8 63.5 95.15 62.65 95.45C61.1 96 59.5 96.5 57.95 97C57.65 97.1 57.4 97.2 57.1 97.25L56.75 97.35C56.4 97.45 56.75 97.35 56.85 97.35C56.65 97.3 56.75 97.35 56.85 97.35L56.6 97.25C56.4 97.2 56.65 97.3 56.5 97.2C56.4 97.15 56.3 97.05 56.2 97C55.25 96.2 54.45 95.25 53.8 94.15C52.9 92.8 52.15 91.4 51.4 90C50.3 87.95 49.3 85.85 48.35 83.7L47.5 84.8L57.75 79.8L59.25 79.05C59.6 78.85 60.35 78.45 60.1 77.95C59.85 77.45 59 77.75 58.7 77.9L48.45 82.9L46.95 83.65C46.6 83.8 45.9 84.25 46.1 84.75C46.95 86.7 47.85 88.6 48.85 90.5C49.65 92.05 50.5 93.55 51.45 95C52.15 96.2 53.05 97.3 54.1 98.2C55.1 99 56.05 98.95 57.25 98.6C58.85 98.15 60.4 97.6 61.95 97.05C63.8 96.4 65.65 95.75 67.45 95.05C68.65 94.6 70.1 94.1 71.1 93.25C71.55 92.85 71.75 92.5 71.5 91.95C71.2 91.2 70.75 90.5 70.4 89.8C69.7 88.55 69 87.3 68.3 86.05C67.75 85.25 65.5 86.35 65.95 87.15Z" fill="#0C0077"/>
<path d="M54.3 89.8L56.8 90.85C57.6 91.2 58.5 91.75 59.4 91.8C60.4 91.85 60.7 91.15 61.05 90.35L62.3 87.75L67.05 77.75C67.55 76.75 65.25 75.75 64.75 76.8L61.55 83.55L59.95 86.95L59.2 88.5L58.75 89.4C58.7 89.55 58.55 90.05 58.4 90.1L58.95 90C59.65 90.05 59.25 90.05 59 89.95L58.45 89.7L57.3 89.2L55 88.2C54.55 88 53.75 87.95 53.55 88.5C53.35 89.05 53.85 89.6 54.3 89.8Z" fill="#000005"/>
<path d="M79.3001 86.45C80.6501 83.85 81.8001 81.15 82.8501 78.4C83.3001 77.25 83.9501 75.9 83.2501 74.75C82.5501 73.6 81.0501 73.25 79.85 73.7C78.8 74.1 78.1501 75.2 78.3001 76.35C78.4001 77.65 79.3001 78.75 80.3001 79.5C82.4001 81.1 85.1501 82.4 87.8001 82.45C90.1501 82.5 92.5001 81.4 93.6001 79.2C94.6001 77.2 94.3001 73.95 91.6501 73.45C90.4501 73.2 89.2501 73.95 89.0001 75.15C88.7001 76.35 89.5001 77.5 90.4001 78.2C92.6001 79.85 95.7501 79.85 98.3001 79.1C101.3 78.2 103.85 76.15 106.35 74.35L114.8 68.25C115.3 67.9 115.05 67.25 114.65 66.95C114.15 66.55 113.45 66.55 112.9 66.9C109.25 69.55 105.65 72.2 101.95 74.8C100.3 75.95 98.5501 77.1 96.5501 77.55C95.1001 77.85 92.8001 78 91.7501 76.7C91.5501 76.5 91.4501 76.2 91.4501 75.95C91.5501 75.7 91.6501 75.5 91.7501 75.3C91.9001 75.7 91.3001 75.25 91.3001 75.3C91.3001 75.35 91.4001 75.45 91.4001 75.4C91.4501 75.55 91.6001 75.7 91.6501 75.9C91.7501 76.25 91.8001 76.6 91.8001 77C91.6501 78.45 90.7501 79.75 89.4001 80.35C87.7501 81.1 85.8501 80.5 84.3501 79.8C83.0501 79.15 80.7001 78.1 80.8501 76.3C80.8501 76 81.0001 75.7 81.2501 75.5C81.4001 75.4 81.4001 75.55 81.2501 75.5C81.0001 75.35 81.1501 75.4 81.1501 75.55C81.1001 76.65 80.6 77.75 80.2 78.75C79.3 81.05 78.3001 83.35 77.15 85.55C76.55 86.75 78.8501 87.6 79.4001 86.6L79.3001 86.45Z" fill="#0C0077"/>
<path d="M80.1999 112.9C80.7499 113.85 81.2999 114.85 81.7999 115.8C82.1999 116.5 82.5499 117.2 82.9499 117.9C83.0999 118.15 83.1999 118.4 83.3499 118.7C83.3999 118.8 83.3999 118.85 83.4499 118.95C83.4999 119 83.4499 118.85 83.4499 118.75C83.4499 118.75 83.5499 118.5 83.4499 118.7C83.4999 118.6 83.5999 118.6 83.4499 118.7C83.2999 118.8 83.0999 118.9 82.8999 119C82.3499 119.25 81.8499 119.5 81.2999 119.7C79.6999 120.35 78.0499 120.95 76.4499 121.5C74.8499 122.05 73.2499 122.6 71.6499 123.1C71.0999 123.2 70.5499 123.4 69.9999 123.6C70.0999 123.55 70.1999 123.55 70.2999 123.55C70.1999 123.55 70.6499 123.65 70.2999 123.55C70.3999 123.55 70.7499 123.65 70.2999 123.55C70.1999 123.55 70.5499 123.75 70.3499 123.6C70.2999 123.55 70.2499 123.5 70.1499 123.5C70.0499 123.5 69.7999 123.2 69.9999 123.4C69.8999 123.35 69.8499 123.25 69.7499 123.2C69.4999 123 69.2999 122.75 69.0999 122.5C68.6999 122 68.2999 121.45 67.9499 120.9C67.0499 119.55 66.2499 118.2 65.4999 116.75C64.3999 114.7 63.3999 112.6 62.4499 110.45L62.2499 111.2L72.4999 106.2L73.9999 105.45C74.5499 105.2 74.1999 104.55 73.8499 104.3C73.3499 103.95 72.6999 103.85 72.1499 104.1L61.8999 109.1L60.3999 109.85C60.1499 110 60.0499 110.35 60.1999 110.6C61.0499 112.55 61.9499 114.45 62.9499 116.35C63.7499 117.9 64.5999 119.4 65.5499 120.85C66.2999 122.15 67.2499 123.3 68.3999 124.25C69.3999 125.1 70.7499 125.4 71.9499 124.95C73.4999 124.5 75.0499 124 76.5499 123.45C78.3499 122.85 80.1499 122.2 81.8999 121.5C83.0499 121.05 84.3499 120.65 85.3499 119.9C85.8499 119.5 85.8499 119.15 85.5999 118.6C85.2999 117.85 84.8499 117.15 84.4999 116.45C83.7999 115.2 83.0999 113.95 82.3999 112.7C82.0499 112.2 81.4499 111.9 80.8499 112C80.3999 112.05 79.8499 112.4 80.1499 112.9H80.1999Z" fill="#0C0077"/>
<path d="M69.1499 116L71.6499 117.1C72.3499 117.4 73.2499 118 74.0999 118.05C74.9499 118.1 75.0999 117.15 75.3499 116.6L76.5499 114.1L81.1999 104.3C81.5499 103.55 79.4499 102.25 79.1499 102.85L74.8499 111.85L73.7999 114.1L73.2499 115.2C73.1499 115.45 72.7499 115.95 72.7999 116.2C72.8499 116.45 73.1999 116.45 72.7999 116.3L72.2499 116.05L71.0999 115.55L68.6999 114.5C68.3499 114.35 67.7999 114.35 67.8999 114.85C67.9999 115.35 68.6999 115.8 69.1499 116Z" fill="#000005"/>
<path d="M95.6998 141.2C96.2498 142.2 96.6498 142.9 97.2498 143.95C97.5998 144.65 97.9998 145.3 98.3498 146C98.4998 146.25 98.5998 146.5 98.7498 146.75C98.7998 146.85 98.7998 146.9 98.8498 147C98.8498 147.05 98.8498 147.05 98.8998 147.1C98.7998 147 98.8498 146.6 98.9498 146.45C98.8998 146.55 99.1498 146.2 99.0498 146.35C98.7498 146.55 98.9998 146.4 99.0498 146.35C98.8498 146.45 98.6498 146.55 98.4498 146.65C97.8998 146.9 97.2998 147.15 96.7498 147.4C95.1498 148.05 93.4498 148.65 91.7998 149.25C90.1498 149.85 88.7498 150.3 87.1498 150.8C86.6498 150.9 86.1498 151.05 85.6498 151.25C85.7998 151.15 85.9498 151.25 85.7998 151.25C85.6498 151.25 85.5998 151.2 85.9498 151.3L85.7498 151.25C86.2998 151.4 85.7498 151.3 85.7498 151.2C85.7498 151.1 85.6498 151.15 85.6498 151.15C85.7498 151.2 85.9498 151.3 85.6498 151.15C85.4498 151 85.2498 150.85 85.0998 150.65L84.9998 150.55C85.0498 150.6 85.1998 150.75 84.9998 150.55C84.8498 150.4 84.7498 150.25 84.5998 150.1C84.1498 149.55 83.7498 149 83.3998 148.45C82.5498 147.15 81.7498 145.8 80.9998 144.4C79.8998 142.35 78.8998 140.3 77.9998 138.15L77.4998 139.3L87.7498 134.3L89.2498 133.55C90.6498 132.85 89.0498 131.15 87.8998 131.7L77.6498 136.7L76.1498 137.45C75.6998 137.65 75.4998 138.15 75.6498 138.6C76.4998 140.55 77.4498 142.5 78.4498 144.4C79.2498 145.95 80.0998 147.5 81.0998 149C81.8498 150.25 82.7498 151.4 83.8498 152.35C84.2998 152.75 84.8998 153.05 85.4998 153.25C86.0998 153.35 86.6998 153.3 87.2998 153.1C88.9498 152.6 90.5998 152.05 92.1998 151.5C93.9998 150.9 95.7998 150.25 97.5498 149.55C98.6498 149.1 100.05 148.7 100.95 147.95C101.45 147.55 101.55 146.85 101.2 146.35C100.85 145.6 100.45 144.9 100.1 144.2C99.3998 142.9 98.6498 141.55 97.8998 140.25C97.0998 139.05 94.8998 139.8 95.6998 141.2Z" fill="#0C0077"/>
<path d="M91.3499 103.35C92.5999 104.7 93.9999 106.15 94.3999 108.05C94.5499 108.85 94.4999 109.7 94.1999 110.45C94.0499 110.8 93.8499 111.1 93.5999 111.35C93.5499 111.4 93.5499 111.4 93.4999 111.45C93.2999 111.65 93.1999 111.55 93.4999 111.65C93.9499 111.85 93.5499 111.5 93.4499 111.4C92.3499 109.8 93.0499 107.6 93.8999 106.1C94.7499 104.6 96.0499 102.9 97.8999 102.8C100.05 102.7 100.8 104.95 99.9499 106.65L102.05 106.9C101.35 105.7 102.1 104.15 103.05 103.3C104.3 102.2 106 101.8 107.6 101.35C109 101 107.65 98.95 106.5 99.25C104.5 99.75 102.3 100.4 100.85 102C99.4499 103.45 99.1499 105.65 100.05 107.4C100.5 108.15 101.7 108.6 102.15 107.65C103.5 104.95 101.8 101.8 99.0499 100.85C96.2999 99.9 93.7999 101.6 92.3499 103.8C90.7999 106.1 89.8999 109.2 91.3999 111.75C92.0999 112.95 93.4999 114.35 94.9499 113.35C95.9999 112.6 96.6499 111.4 96.7499 110.15C97.1999 107 95.0499 104.35 93.0499 102.2C92.6499 101.8 91.9499 101.45 91.3999 101.8C90.8499 102.15 90.9999 102.95 91.3499 103.35Z" fill="#0C0077"/>
<path d="M86.0999 142.3C87.2999 142.85 88.4999 143.45 89.6999 144C90.4499 144.35 91.3499 144.15 91.8499 143.5C92.2499 142.95 92.5499 142.35 92.7499 141.7L95.9999 134.55C96.1999 134.2 96.0499 133.75 95.6999 133.6C95.5999 133.55 95.4999 133.5 95.3499 133.5C94.6999 133.5 94.0999 133.85 93.8499 134.45L91.8999 138.75L90.9499 140.85L90.4499 141.95L90.2499 142.4L90.0999 142.7C89.9499 143 90.0499 142.95 90.3999 142.45L90.9999 142.2H90.8999H91.4499C90.7499 141.95 90.0999 141.7 89.4999 141.3L87.4499 140.35C86.4999 139.95 84.8499 141.7 86.0999 142.3Z" fill="#000005"/>
<path d="M69.3999 42.3C68.7999 42.65 68.2999 43.25 68.0999 43.95C67.9499 44.5 67.8999 45.1 67.8999 45.7C67.8999 46.05 67.9499 46.35 68.0499 46.65C68.2499 47.1 68.6999 47.35 69.1499 47.4C70.0999 47.6 71.0499 47.55 71.9499 47.15C72.4499 46.95 72.8499 46.6 73.1499 46.15C73.2999 45.9 73.3999 45.65 73.4499 45.35C73.4999 45.15 73.4499 44.95 73.3999 44.75C73.3499 44.55 73.0499 44.4 72.8499 44.35C72.5499 44.3 72.2499 44.35 71.9499 44.45C71.6499 44.55 71.3999 44.75 71.1999 45C71.0499 45.2 70.9999 45.45 71.0499 45.65V45.7L70.9999 45.5C70.9999 45.6 70.9999 45.75 70.9999 45.85L71.0499 45.65C71.0499 45.7 70.9999 45.75 70.9999 45.8C70.9999 45.85 70.9499 45.85 70.9499 45.9L70.9999 45.75C70.9999 45.8 70.9499 45.85 70.8999 45.9C70.7999 46.05 71.0999 45.75 70.9499 45.85C70.7999 45.95 71.0499 45.85 71.0499 45.8C71.0499 45.75 70.9499 45.85 70.8999 45.9C71.0999 45.8 71.1999 45.75 71.0499 45.8L70.9999 45.85C71.1999 45.8 71.2499 45.8 71.1499 45.8H71.0499C70.7999 45.85 71.1999 45.8 71.0999 45.8H70.8999H70.6999C70.5999 45.8 70.9499 45.85 70.6999 45.8C70.5499 45.8 70.4499 45.75 70.2999 45.75L70.1499 45.7C70.0999 45.7 70.0999 45.7 70.2499 45.75C70.1999 45.75 70.1999 45.7 70.1499 45.7L70.3499 45.85C70.2999 45.8 70.2499 45.8 70.2499 45.75L70.3499 45.95C70.2999 45.85 70.2999 45.8 70.2499 45.7L70.2999 45.9C70.1999 45.3 70.1999 44.65 70.2999 44.05L70.2499 44.25C70.2999 44.1 70.2999 44 70.3499 43.9C70.3499 43.85 70.3999 43.8 70.3999 43.75C70.4499 43.65 70.5499 43.55 70.3999 43.75C70.4499 43.7 70.4499 43.65 70.4999 43.6C70.5499 43.55 70.6999 43.45 70.4499 43.65L70.5999 43.5C70.7499 43.4 70.2999 43.7 70.5499 43.55C70.7999 43.4 70.9999 43.2 71.0999 42.95C71.1999 42.75 71.1499 42.5 70.9999 42.35C70.5499 41.85 69.7999 42 69.3999 42.3Z" fill="white"/>
<path d="M146.7 172.3C146.7 172.3 138.8 166.95 131.2 166.35C123.6 165.75 118.55 156.9 120.9 152.9C123.25 148.9 126.7 151 129.4 154.85C132.1 158.7 137 154 134.9 146.95C132.8 139.9 124.7 139.35 124.75 135.7C124.8 132.05 131.45 128.55 137.35 135.25C137.35 135.25 142.7 130.1 145.55 134.85C145.55 134.85 148.85 128.15 157.2 147.55C165.55 166.95 146.7 172.3 146.7 172.3Z" fill="white"/>
<path d="M146.8 171.45C144.9 170.2 142.95 169.15 140.85 168.2C139 167.35 137.05 166.6 135.1 166.1C134.1 165.8 133.05 165.6 132 165.45C131.1 165.3 130.2 165.3 129.3 165.1C127.8 164.7 126.35 164 125.15 163C124.05 162.1 123.1 161 122.4 159.75C121.25 157.65 120.55 154.85 122.5 152.85C123 152.25 123.75 151.9 124.5 151.9C125.2 152 125.9 152.25 126.45 152.75C127.25 153.4 127.95 154.2 128.55 155.05C129 155.75 129.6 156.35 130.3 156.85C132.9 158.45 135.25 156.15 135.95 153.7C137 150.1 135.95 145.95 133.6 143.05C131.75 140.8 129.3 139.5 126.95 137.85C126.9 137.8 126.55 137.6 126.75 137.75C126.65 137.65 126.55 137.6 126.45 137.5L126.2 137.3C126.1 137.2 125.85 136.95 126.1 137.2C126.05 137.1 125.95 137 125.9 136.95C125.85 136.9 126.05 137.15 125.85 136.9L125.8 136.85C125.75 136.75 125.7 136.45 125.75 136.7C125.7 136.3 125.75 135.9 125.85 135.55C126.05 135.05 126.35 134.6 126.7 134.25C128.8 132.15 132.05 132.4 134.4 133.9C135.25 134.45 136.05 135.15 136.75 135.95C137 136.25 137.7 136.85 138.1 136.45C138.85 135.75 139.7 135.15 140.65 134.7C141.35 134.35 142.15 134.15 142.95 134.2C143.7 134.2 144.4 134.65 144.75 135.3C145 135.7 146.05 136.7 146.45 135.9C146.5 135.85 146.55 135.75 146.55 135.7C146.7 135.5 146.4 135.8 146.6 135.65C146.65 135.55 146.75 135.5 146.8 135.45C146.9 135.35 147 135.3 147.1 135.25C147.2 135.2 147.2 135.2 147.1 135.25C147.15 135.25 147.25 135.2 147.3 135.15C147.45 135.1 147.55 135.1 147.7 135.05C147.55 135.05 147.6 135.05 147.75 135.05C147.9 135.05 147.95 135.05 148.05 135.1C148.3 135.1 147.85 135 148.1 135.1L148.4 135.2C148.7 135.3 148.25 135.1 148.5 135.25C148.6 135.3 148.75 135.4 148.85 135.5L149 135.6C148.8 135.4 149.15 135.7 149 135.6C149.2 135.8 149.25 135.8 149.4 135.9C149.55 136 149.65 136.15 149.8 136.25C149.9 136.35 149.95 136.45 150.05 136.5C151.7 138.35 152.85 140.5 154.05 142.85C156.7 148.1 159.35 154 157.9 159.95C157 163.55 154.6 166.5 151.6 168.6C149.9 169.75 148.05 170.7 146.1 171.35L146 171.4C144.95 171.7 146.25 173.8 147.2 173.5C149.05 172.9 150.8 172.1 152.45 171C155.7 168.95 158.4 165.9 159.55 162.2C161.5 155.95 159.1 149.75 156.4 144.15C155.15 141.35 153.6 138.65 151.75 136.2C150.75 134.95 149.55 133.65 148 133.05C146.8 132.6 145.25 132.9 144.6 134.15L144.55 134.2L146.25 134.8C145.5 133.6 144.5 132.5 143.15 132.1C142.1 131.8 141 131.85 140 132.25C138.7 132.75 137.5 133.45 136.5 134.45L137.85 134.95C135.35 132.15 131.55 129.65 127.65 130.85C125.3 131.55 123.1 133.85 123.9 136.5C124.65 139 127.55 140.25 129.55 141.6C130.7 142.35 131.75 143.25 132.65 144.35C133.65 145.75 134.25 147.45 134.4 149.2C134.6 150.85 134.25 152.55 133.35 154C133 154.5 132.55 154.95 132.05 155.25C131.85 155.35 131.65 155.4 131.4 155.45C131.3 155.45 131.25 155.45 131.15 155.45C131.05 155.45 130.95 155.45 130.9 155.4C130.85 155.4 130.75 155.35 130.7 155.35C130.55 155.3 130.85 155.4 130.7 155.35L130.5 155.25C130.35 155.15 130.65 155.35 130.5 155.25C130.45 155.2 130.2 154.95 130.35 155.1C130.2 154.9 130.05 154.7 129.9 154.5C129.2 153.55 128.4 152.65 127.55 151.85C126.25 150.7 124.35 149.5 122.5 150.1C120.95 150.6 119.8 152.25 119.45 153.8C119.2 155.15 119.35 156.6 119.8 157.9C120.9 161.2 123.1 164 126.05 165.8C127.55 166.75 129.3 167.4 131.05 167.65C132.15 167.8 133.25 167.9 134.3 168.1C135.35 168.35 136.4 168.65 137.45 169C140.5 170.05 143.35 171.45 146.05 173.15C146.2 173.25 146.35 173.35 146.5 173.45C146.9 173.7 147.5 173.7 147.6 173.15C147.7 172.6 147.25 171.7 146.8 171.45Z" fill="#000005"/>
<path d="M142.45 139.1L139.05 135.4L138.55 134.9C138.2 134.5 137.4 134.65 136.95 134.8C136.7 134.9 135.9 135.3 136.25 135.75L139.65 139.45L140.15 140C140.5 140.4 141.3 140.25 141.75 140.1C142 139.95 142.8 139.55 142.45 139.1Z" fill="#000005"/>
<path d="M113.35 157.9L142.8 121.15L150.2 125.6L120.6 163.45L113.35 157.9Z" fill="white"/>
<path d="M114.05 158.85L117 155.2L124.05 146.45L132.55 135.85L139.9 126.65L142.3 123.65L143.05 122.7C143.2 122.55 143.35 122.4 143.45 122.2C143.45 122.15 143.5 122.15 143.5 122.15L143.1 122.25L150.5 126.7L149.45 124.65L146.5 128.4L139.5 137.4L130.95 148.4L123.55 157.85L121.15 160.95L120.4 161.95C120.25 162.1 120.1 162.25 120 162.45L119.95 162.5H120.55L113.25 156.95C112.85 156.65 112.6 156.85 112.65 157.3C112.75 157.9 113.05 158.45 113.55 158.8L120.85 164.35C121.05 164.5 121.25 164.6 121.45 164.4L124.4 160.65L131.45 151.65L140 140.65L147.4 131.2L149.85 128.1C150.25 127.65 150.65 127.15 151 126.6L151.05 126.55C151.25 126.3 150.95 125.65 150.85 125.5C150.65 125.1 150.4 124.8 150 124.55L142.6 120.1C142.45 120 142.3 120.05 142.2 120.2L139.25 123.85L132.2 132.65L123.7 143.25L116.35 152.45L113.95 155.45C113.55 155.9 113.15 156.4 112.8 156.9L112.75 156.95C112.2 157.45 113.55 159.5 114.05 158.85Z" fill="#000005"/>
<path d="M112.85 166.25L113.35 157.9L120.6 163.45L112.85 166.25Z" fill="white"/>
<path d="M114.05 166.45L114.5 159.15L114.55 158.1L112.4 158.2L118.8 163.05L119.7 163.75L119.8 162.9L113 165.35L112 165.7C111.55 165.85 111.45 166.25 111.9 166.55C112.4 166.9 113.05 166.95 113.65 166.8L120.45 164.35L121.4 164C121.9 163.85 121.95 163.5 121.5 163.15L115.1 158.3L114.2 157.6C113.8 157.35 113.35 157.25 112.85 157.3C112.6 157.3 112.05 157.4 112 157.75L111.6 165.05L111.55 166.1C111.5 166.6 112.35 166.8 112.7 166.85C113.05 166.9 114.05 166.9 114.05 166.45Z" fill="#000005"/>
<path d="M142.8 121.15L150.2 125.6C150.2 125.6 153.5 122.25 150.6 119C147.7 115.75 142.8 121.15 142.8 121.15Z" fill="white"/>
<path d="M141.8 121.85L148.25 125.75L149.2 126.3C149.75 126.6 150.65 126.2 151 125.8C151.7 125.1 152.25 124.25 152.55 123.3C153.2 121.7 152.9 119.85 151.75 118.55C150.8 117.4 149.25 116.9 147.8 117.3C146.35 117.65 145.05 118.3 143.9 119.2C143.2 119.7 142.55 120.3 141.95 120.95C141.7 121.25 141.4 121.8 141.95 121.95C142.55 122.05 143.15 121.8 143.55 121.4C143.9 121 144.3 120.65 144.75 120.3C145 120.1 144.6 120.45 144.85 120.25L145.15 120C145.35 119.85 145.6 119.7 145.85 119.5C145.9 119.45 145.95 119.45 146 119.4C145.75 119.6 145.9 119.45 146 119.4L146.35 119.2C146.45 119.15 146.6 119.1 146.7 119.05C146.5 119.2 146.5 119.1 146.65 119.1L146.9 119C147 118.95 147.4 118.9 147.05 118.95L147.4 118.9C147.45 118.9 147.7 118.9 147.45 118.9H147.6H147.85C147.9 118.9 148.05 118.9 147.9 118.9C148.45 118.95 148.95 119.2 149.3 119.6C150.4 120.6 150.85 122.05 150.45 123.5C150.35 123.85 150.25 124.15 150.05 124.45L149.95 124.65C149.85 124.8 150 124.55 149.9 124.75C149.85 124.85 149.75 125 149.7 125.1C149.65 125.2 149.45 125.45 149.3 125.6C149.15 125.75 149.5 125.4 149.35 125.55L149.3 125.6L151.1 125.1L144.65 121.2L143.7 120.65C143.25 120.35 142.55 120.65 142.15 120.95C142 120.9 141.3 121.55 141.8 121.85Z" fill="#000005"/>
<path d="M117.45 160.9L120.45 157.25L127.65 148.45L136.35 137.85L143.85 128.7L146.35 125.65C146.8 125.2 147.2 124.75 147.55 124.2L147.6 124.15C148.05 123.6 146 122.15 145.55 122.75L142.55 126.4L135.35 135.2L126.65 145.8L119.15 154.95L116.65 158C116.2 158.45 115.8 158.9 115.45 159.45L115.4 159.5C114.95 160.05 116.95 161.5 117.45 160.9Z" fill="#000005"/>
<path d="M145.15 170.85C145.15 170.85 125.9 166.85 121.5 161.25C117.1 155.65 119.1 150 123.9 150.25C128.7 150.5 130.5 158.4 135.3 155.05" fill="white"/>
<path d="M144.45 169.85C138.75 168.75 133.2 167.05 127.85 164.8C126.25 164.15 124.7 163.3 123.2 162.35C122.6 161.95 122 161.5 121.5 160.95C121.3 160.8 121.15 160.6 121.05 160.4C120.65 159.75 120.35 159.05 120.15 158.35C119.55 156.35 119.65 153.85 121.35 152.35C122.9 151.1 125 150.95 126.7 151.95C128.45 152.9 129.6 154.6 131.15 155.8C131.75 156.35 132.5 156.7 133.3 156.9C134.3 157 135.25 156.7 136.05 156.1C136.2 156 134.8 153.95 134.6 154.05C133.85 154.65 132.95 154.9 132 154.85C131.2 154.7 130.45 154.35 129.85 153.8C128.4 152.65 127.25 151.1 125.7 150.1C124.15 149.1 121.85 148.85 120.25 150C118.45 151.3 118.15 153.75 118.6 155.8C119 157.25 119.6 158.65 120.45 159.85C121.1 160.95 121.9 161.95 122.8 162.85C124.05 164 125.45 164.95 127 165.7C130.7 167.5 134.55 168.9 138.5 169.95C140.95 170.65 143.4 171.3 145.9 171.8C145.95 171.8 145.75 171.4 145.75 171.45C145.6 171.2 145.45 170.95 145.25 170.7C145.05 170.5 144.75 169.85 144.45 169.85Z" fill="#000005"/>
<path d="M117.05 208.65C117.05 208.65 91.7 195.55 81.05 196.85C70.4 198.15 66.7 201.65 63.85 197.75C61 193.85 69.3 189.4 72.95 189.7C72.95 189.7 65.3 187.1 69.4 178.95C69.4 178.95 64.75 174.75 70.45 170.35L88.55 176C93.25 171.5 91.55 168.6 87.85 166.95C84.15 165.3 81.85 166.65 81.1 162.65C80.35 158.65 85 157.6 92.95 158.9C100.9 160.2 107.75 173.05 105.7 176.95L119.9 182.9" fill="white"/>
<path d="M116.7 208C114.4 206.8 112.1 205.75 109.75 204.65C104.85 202.4 99.8498 200.4 94.7498 198.65C92.1998 197.8 89.5998 197.1 86.9498 196.55C84.7998 196.1 82.6498 195.9 80.4498 196.05C77.0498 196.35 73.7498 197.2 70.4498 198.05C69.3498 198.35 68.2498 198.6 67.1498 198.75C66.7498 198.8 66.3498 198.8 65.8998 198.8C65.7498 198.8 65.4498 198.75 65.3998 198.7L65.1998 198.65C65.1998 198.65 65.0498 198.6 65.1498 198.65C65.2498 198.7 65.0998 198.6 65.0498 198.6C64.9498 198.55 65.0998 198.6 65.0998 198.65C65.0998 198.7 65.1998 198.75 65.0998 198.65C64.9498 198.55 65.0498 198.65 65.0998 198.65C64.8998 198.45 65.2498 198.75 65.0998 198.65C65.0498 198.6 64.8498 198.4 64.9498 198.5C64.5998 198.15 64.3498 197.7 64.2498 197.25C64.0498 196.15 64.5998 195.15 65.2998 194.35C66.9498 192.4 69.6498 191.1 72.1498 190.65C72.6498 190.55 73.1498 190.5 73.6498 190.55C74.0998 190.6 73.8498 190.15 73.6498 190C73.2998 189.6 72.7998 189.25 72.2998 189.1C71.9998 189 72.4998 189.2 72.1998 189.05L71.8498 188.9C71.5498 188.75 71.9998 189 71.6998 188.8L71.4998 188.5C71.1998 188.35 71.6498 188.6 71.4498 188.5L71.1998 188.3C70.8998 188.1 71.2998 188.4 71.1498 188.25L70.8998 188C70.7498 187.9 70.9998 188.1 70.7998 187.9C70.6498 187.75 70.5498 187.65 70.3998 187.5C68.5998 185.15 69.1498 182.1 70.3998 179.6C70.4998 179.4 70.1998 179.1 70.0998 179L69.8998 178.8C69.7998 178.7 70.0498 179 69.8498 178.75C69.7498 178.65 69.6998 178.55 69.5998 178.45C69.1998 177.95 68.9498 177.35 68.7998 176.75C68.1998 174.4 69.6998 172.4 71.4498 171H70.9998L86.8998 175.95L89.1498 176.65C89.2498 176.7 89.4998 176.75 89.5998 176.65C91.0998 175.2 92.9498 173.1 92.3998 170.85C91.8998 168.8 89.8498 167.4 88.0998 166.55C87.0498 166.05 85.9498 165.65 84.7998 165.4C84.3498 165.3 83.9498 165.2 83.4998 165.1C83.1998 165.05 82.7498 164.9 82.5998 164.85C82.4498 164.8 82.7498 165 82.5498 164.85L82.7498 165C82.9498 165.15 82.7998 165.05 82.6998 164.9C82.4498 164.45 82.2498 163.95 82.1498 163.4C81.9498 162.75 81.9998 162 82.2498 161.35C82.8498 159.95 84.4498 159.5 85.7998 159.3C88.1998 158.9 90.7498 159.2 93.1498 159.55C94.8998 159.75 96.4998 160.45 97.8498 161.6C99.3998 162.85 100.7 164.35 101.8 166.05C103 167.8 103.95 169.75 104.55 171.8C104.95 173.15 105.3 174.9 104.65 176.25C104.4 176.7 105.7 177.45 106 177.6L118.45 182.8L120.25 183.55C120.5 183.65 121.1 183.9 120.9 183.4C120.6 182.9 120.15 182.5 119.6 182.3L107.15 177.1L105.35 176.35L106.7 177.7C107.35 176.45 107.1 174.9 106.8 173.6C106.3 171.7 105.55 169.9 104.5 168.2C102.25 164.35 98.8498 160.65 94.6498 158.9C92.2998 157.95 89.6498 157.7 87.1498 157.65C85.2498 157.6 83.0498 157.65 81.3498 158.7C79.9998 159.55 79.7498 160.95 80.0998 162.45C80.5998 164.5 82.2498 166.15 84.3498 166.6C85.4998 166.9 86.6498 167.05 87.7498 167.5C88.2998 167.7 88.7998 167.9 89.2498 168.2C89.4998 168.35 89.6998 168.55 89.8498 168.8C91.4498 171.1 89.0998 173.8 87.5498 175.35H87.9998L77.4998 172L71.2498 170.05C70.7998 169.9 70.3498 169.75 69.8498 169.6C69.2998 169.45 68.9498 169.9 68.5498 170.25C67.8498 170.9 67.2498 171.65 66.8998 172.5C65.9498 174.7 66.9498 177.2 68.6498 178.75L68.3498 178.15C67.1998 180.5 66.5998 183.25 67.8498 185.7C68.8498 187.4 70.2998 188.8 72.0998 189.7C72.5498 189.95 73.0498 190.15 73.4998 190.35L72.1498 188.85C69.5998 188.65 66.8998 189.9 64.8998 191.35C62.8998 192.8 61.2498 195 62.8498 197.3C64.0998 199.2 66.2498 200.3 68.4998 200.25C69.5998 200.15 70.6998 199.95 71.7498 199.65C73.2498 199.3 74.7498 198.9 76.2498 198.55C79.1498 197.9 82.1498 197.3 85.1498 197.55C87.6498 197.8 90.0998 198.3 92.4998 199C97.8998 200.6 103.2 202.6 108.35 204.95C111.35 206.3 114.3 207.7 117.25 209.15L117.4 209.2C117.65 209.35 118.2 209.5 118.05 209.05C117.9 208.6 117.15 208.25 116.7 208Z" fill="#000005"/>
<path d="M81 185.55C80.55 185.25 80.1 185.05 79.6 184.85C78.65 184.4 77.75 183.95 76.85 183.45C74.45 182.25 72.3 180.55 70.55 178.45C70.4 178.3 69.5 178.7 69.35 178.75C68.95 178.9 68.55 179.05 68.2 179.3C69.95 181.35 72.1 183.05 74.55 184.25C75.45 184.75 76.4 185.2 77.3 185.65C77.8 185.8 78.25 186.05 78.7 186.35C78.9 186.5 79.7 186.15 79.9 186.1C79.95 186.05 81.05 185.55 81 185.55Z" fill="#000005"/>
<path d="M77.1998 190.05L72.9998 189L72.3998 188.85C72.2498 188.8 71.9998 188.8 71.8998 188.95C71.7998 189.1 71.8998 189.35 71.9998 189.45C72.3498 189.95 72.8498 190.35 73.4498 190.5L77.5998 191.55L78.1998 191.7C78.3498 191.75 78.5998 191.75 78.6998 191.6C78.7998 191.45 78.6998 191.2 78.5998 191.1C78.2498 190.6 77.7498 190.25 77.1998 190.05Z" fill="#000005"/>
<path d="M171.4 74.3C171.4 74.3 163.55 82.55 155.4 82.05C147.25 81.55 131.6 78.15 129.55 86.05C127.5 93.95 138.3 97.15 145.3 96.1C145.3 96.1 142.65 117.15 155 123.3C167.35 129.45 173.4 126.2 173.95 134.8C173.95 134.8 191.2 140.55 193.45 124.4C193.8 121.9 198.95 100.45 180 89.8C179.95 89.8 169.1 84.45 171.4 74.3Z" fill="white"/>
<path d="M170.45 74.3C169.65 75.15 168.75 75.9 167.85 76.6C165.9 78.25 163.7 79.55 161.3 80.5C160.05 81 158.75 81.25 157.4 81.35C156.25 81.35 155.1 81.3 153.95 81.15C151.45 80.9 149 80.6 146.5 80.4C141.75 80 136.35 79.7 132 82C130.15 82.9 128.85 84.6 128.35 86.55C127.8 88.7 128.35 90.95 129.8 92.6C131.3 94.35 133.5 95.4 135.65 96.05C138.05 96.75 140.55 97.05 143.1 96.9C143.7 96.85 144.3 96.8 144.9 96.7L144.15 96.4C143.95 98.15 143.9 99.85 143.9 101.6C143.9 105.3 144.4 108.95 145.4 112.55C146.55 116.45 148.65 120.2 151.95 122.65C154.15 124.25 156.85 125.25 159.4 126.2C161.6 127 163.9 127.6 166.15 128.2C167.8 128.65 169.6 129.1 170.9 130.25C172.2 131.4 172.65 133.35 172.75 135.1C172.75 135.3 172.85 135.35 173.05 135.45C176.55 136.6 180.35 136.8 183.95 136.05C187.1 135.4 189.95 133.65 191.9 131.15C193.65 128.8 194.25 126 194.75 123.15C195.7 118.2 195.75 113.1 194.85 108.15C193.4 100.15 188.45 93.25 181.35 89.35C179.75 88.45 178.2 87.4 176.85 86.15C174.35 83.8 172.4 80.65 172.3 77.15C172.25 76.05 172.35 75 172.6 73.9C172.7 73.4 171.75 73.6 171.55 73.65C171.1 73.8 170.4 74.1 170.3 74.6C169.5 78.3 170.4 82.2 172.75 85.15C174.3 87.15 176.2 88.8 178.4 90.05C181.25 91.6 183.9 93.6 186.15 95.95C188.7 98.75 190.6 102 191.7 105.6C193.45 110.9 193.55 116.65 192.75 122.15C192.55 124.15 192.1 126.15 191.55 128.1C191.05 129.6 190.25 131 189.15 132.2C188.95 132.4 188.75 132.65 188.5 132.8C188.4 132.9 188.25 133 188.1 133.1C187.95 133.2 187.6 133.45 187.75 133.35C187.5 133.55 187.2 133.7 186.95 133.85C186.85 133.9 186.75 133.95 186.65 134C186.55 134.05 186.35 134.15 186.2 134.2L185.95 134.3C185.75 134.4 186.25 134.2 185.95 134.3L185.5 134.5L185.05 134.65L184.8 134.7H184.7C184.05 134.85 183.45 134.95 182.8 135H182.5H182.1C181.8 135 181.45 135 181.1 135C180.5 135 179.95 135 179.35 134.95C178.45 134.85 177.5 134.7 176.6 134.55C176.05 134.45 175.5 134.25 174.95 134.15L174.7 134.1L175 134.45C174.9 132.75 174.6 131 173.5 129.7C172.55 128.55 171.15 127.95 169.75 127.5C167.8 126.85 165.8 126.4 163.85 125.8C161.05 125 158.35 123.9 155.75 122.6C148.45 118.8 146.45 109.7 146.2 102.15C146.1 100.05 146.2 97.9 146.4 95.8C146.45 95.4 145.85 95.45 145.65 95.5C143.35 95.8 141 95.7 138.75 95.15C136.5 94.7 134.45 93.75 132.7 92.3C131.1 90.95 130.3 88.95 130.5 86.9C130.6 85.9 130.9 84.95 131.45 84.15C131.85 83.6 132.4 83.1 133 82.8C132.75 82.95 133.05 82.75 133.1 82.75L133.4 82.6L133.7 82.45C133.45 82.55 133.8 82.4 133.85 82.4C134.3 82.25 134.75 82.15 135.25 82.05C136.35 81.85 137.45 81.7 138.55 81.7C141.05 81.65 143.5 81.7 146 82C148.35 82.2 150.7 82.5 153.05 82.7C154.25 82.85 155.45 82.9 156.65 82.8C158.1 82.65 159.55 82.35 160.9 81.85C165.25 80.25 169.15 77.7 172.35 74.35C172.7 74 172.5 73.65 172.05 73.65C171.45 73.6 170.85 73.85 170.45 74.3Z" fill="#000005"/>
<path d="M199.3 117.3C199.3 117.3 209.35 122.9 212.65 117.55C215.95 112.2 208.65 111.8 208.65 111.8C208.65 111.8 219.85 102.05 209.4 97.1C209.4 97.1 220.95 90.55 215.95 80.3C210.95 70.05 195.15 71.8 195.15 71.8C195.15 71.8 198.95 59.05 187.3 57.75C175.65 56.45 176.3 64.95 176.3 64.95C176.3 64.95 168.85 64.05 167.5 68.4C166.15 72.75 171.05 75.9 171.05 75.9C171.05 75.9 169.7 89.1 180 89.75L185.2 108.05C185.2 108.05 180.3 113 182.35 119.85C184.4 126.7 197.6 125.65 199.3 117.3Z" fill="#000005"/>
<path d="M198.95 118.1C200 118.65 201.05 119.15 202.2 119.55C204.4 120.35 206.75 120.95 209.1 120.8C211.45 120.7 213.5 119.2 214.35 117.05C214.8 116.1 214.8 114.95 214.35 114C213.9 113.2 213.25 112.5 212.4 112.1C211.15 111.45 209.75 111.05 208.35 111L209.65 112.6C210.95 111.45 212.1 110.15 213.05 108.7C214.55 106.45 215.75 103.5 214.55 100.85C213.65 98.75 211.75 97.4 209.75 96.45L210.2 98.05C214.9 95.35 219 90.1 218.3 84.45C217.75 80.15 215.05 76.45 211.4 74.25C208.25 72.35 204.6 71.4 200.95 71.05C198.85 70.8 196.7 70.8 194.6 71L196.3 72.4C197.4 68.7 197.35 63.95 194.85 60.8C192.35 57.65 188.1 56.7 184.25 56.8C181.15 56.9 178 57.8 176.25 60.5C175.45 61.75 175.05 63.25 175.15 64.7L176.05 64.05C173.7 63.7 171.35 64.05 169.2 64.95C167.6 65.65 166.45 67.1 166.15 68.8C165.8 70.65 166.55 72.5 167.65 74C168.4 75 169.35 75.9 170.4 76.6L169.85 75.7C169.7 77.35 169.8 78.95 170.05 80.6C170.5 83.65 171.8 86.6 174.2 88.55C175.95 89.9 178.05 90.65 180.25 90.75L178.8 89.8L183.35 105.9L184 108.15L184.15 107.5C182.95 108.8 182 110.35 181.4 112C180.35 114.95 180.15 118.7 181.8 121.5C184.45 125.95 191 126.3 195.25 124.25C197.9 123 199.85 120.6 200.5 117.75C200.6 117.2 199.75 116.7 199.35 116.6C198.8 116.45 198.25 116.6 198.15 117.2C197.65 119.3 196.3 121.15 194.45 122.25C192.65 123.3 190.6 123.8 188.5 123.65L188.1 123.6C188.05 123.6 188 123.6 187.95 123.55C187.7 123.5 187.45 123.45 187.15 123.4C187 123.35 186.9 123.35 186.75 123.3L186.6 123.25C186.6 123.25 186.8 123.3 186.65 123.25C186.4 123.15 186.15 123.05 185.95 122.95L185.6 122.75C185.8 122.85 185.6 122.75 185.5 122.7C185.3 122.55 185.1 122.4 184.9 122.25C185.05 122.4 184.9 122.2 184.8 122.2L184.55 121.95L184.35 121.7C184.25 121.55 184.45 121.8 184.35 121.7C184.3 121.65 184.25 121.6 184.25 121.55C183.6 120.45 183.2 119.2 183.15 117.95C183.05 116.5 183.2 115 183.65 113.6C184.15 111.9 185.05 110.3 186.3 109C186.45 108.85 186.5 108.6 186.45 108.35L181.9 92.25L181.25 90C181 89.4 180.45 89.05 179.8 89.05C179.4 89.05 179.05 89 178.65 88.9C178.45 88.85 178.2 88.8 178 88.75C177.8 88.7 177.65 88.65 177.55 88.6C177.2 88.45 176.85 88.3 176.55 88.15C176.75 88.25 176.3 88 176.25 87.95C176.1 87.85 175.95 87.75 175.8 87.6C175.6 87.45 175.4 87.25 175.2 87.05C175 86.85 174.8 86.6 174.6 86.35C174.25 85.85 173.9 85.3 173.6 84.7C172.7 82.55 172.25 80.25 172.3 77.95C172.3 77.45 172.3 76.9 172.35 76.4C172.35 76.05 172.1 75.7 171.8 75.5C171.6 75.35 171.4 75.25 171.25 75.1C171.15 75.05 170.95 74.85 171.15 75.05L170.8 74.75C170.55 74.55 170.35 74.3 170.1 74.05C169.1 73 168.5 71.6 168.5 70.15C168.55 68.75 169.4 67.5 170.65 66.85C171.25 66.55 171.85 66.35 172.55 66.2C172.85 66.15 173.15 66.1 173.5 66.05L173.95 66H174.2C174.25 66 174.25 66 174.2 66H174.35C175.15 65.95 175.95 66 176.75 66.05C177.1 66.1 177.7 65.85 177.65 65.4C177.65 65.1 177.65 64.8 177.7 64.45C177.7 64.3 177.75 64.15 177.75 64C177.75 63.9 177.75 63.85 177.8 63.8C177.85 63.55 177.75 63.9 177.85 63.65C177.95 63.25 178.1 62.85 178.25 62.5C178.4 62.1 178.65 61.75 178.9 61.4C179.25 60.95 179.6 60.6 180.05 60.25C181.15 59.5 182.4 59 183.75 58.85C185.65 58.6 187.55 58.7 189.4 59.15C189.7 59.25 190.05 59.35 190.35 59.45C190.55 59.5 190.7 59.6 190.9 59.7L191.15 59.8L191.3 59.9C191.2 59.85 191.2 59.85 191.3 59.9C191.6 60.05 191.85 60.25 192.15 60.45C192.4 60.6 192.6 60.8 192.8 61.05C193.2 61.45 193.5 61.9 193.75 62.4C194 62.9 194.2 63.4 194.35 63.95C194.65 65 194.8 66.15 194.8 67.25C194.8 68.3 194.7 69.35 194.5 70.35C194.45 70.55 194.45 70.75 194.4 70.9C194.35 71.05 194.45 70.75 194.4 70.95L194.35 71.15C194.35 71.25 194.3 71.4 194.25 71.5C193.95 72.45 195.2 73 195.95 72.9C196.05 72.9 196.2 72.9 196.3 72.85C196.7 72.8 196.1 72.85 196.45 72.85L197 72.8C198.1 72.75 199.25 72.75 200.35 72.85C203.45 72.95 206.5 73.7 209.35 75C210.85 75.7 212.15 76.7 213.3 77.9C214.6 79.35 215.5 81.1 216 83C216.85 86.4 215.7 89.75 213.5 92.4C212.55 93.55 211.45 94.6 210.3 95.5C210.1 95.65 209.85 95.8 209.65 96L209.55 96.05L209.3 96.2C209.15 96.3 209 96.4 208.85 96.45C208.05 96.9 208.75 97.75 209.3 98.05C210.65 98.7 211.95 99.6 212.55 100.95C213 102 213.05 103.2 212.7 104.3C212.1 106.55 210.65 108.45 209.1 110.1C208.7 110.5 208.3 110.9 207.9 111.3C207.1 112 208.6 112.9 209.2 112.9H209.4C209.5 112.9 209.6 112.9 209.65 112.95C209.85 112.95 209.4 112.9 209.55 112.95L209.75 113C210 113.05 210.3 113.1 210.55 113.15C210.7 113.2 210.85 113.25 211.05 113.3C211.1 113.35 211.25 113.4 211 113.3L211.3 113.4C211.45 113.45 211.55 113.5 211.7 113.6C211.45 113.45 211.95 113.75 211.7 113.6L211.9 113.75L212.1 113.9C212.05 113.85 211.9 113.7 212.05 113.85L212.25 114.05C212.35 114.15 212.3 114.15 212.25 114L212.35 114.15C212.45 114.35 212.55 114.55 212.55 114.75C212.6 115.15 212.5 115.55 212.4 115.9C211.85 117.7 210.2 118.95 208.35 119.05C207.45 119.1 206.6 119 205.75 118.85C205.3 118.75 204.8 118.65 204.35 118.5C203.8 118.35 203.6 118.25 203.2 118.1C202.05 117.7 200.95 117.2 199.9 116.65C199.45 116.4 198.65 116.4 198.4 116.9C198.15 117.4 198.55 117.85 198.95 118.1Z" fill="#000005"/>
<path d="M177.7 91.8C177.7 91.8 181.55 83.5499 187.35 86.9C193.15 90.25 190.35 110.35 179.25 106.85" fill="white"/>
<path d="M178.7 91.75C179 91.15 179.3 90.55 179.7 90.05C179.75 90 179.8 89.9 179.85 89.85C179.75 89.95 179.95 89.7 179.85 89.85C179.95 89.75 180.05 89.6 180.15 89.45C180.4 89.15 180.6 88.9 180.9 88.6C181.1 88.4 181.25 88.2 181.45 88.05C181.6 87.95 181.7 87.85 181.85 87.7C181.65 87.85 182.1 87.55 182.15 87.5C182.2 87.45 182.3 87.4 182.35 87.4C182.7 87.2 182.2 87.45 182.4 87.35C182.55 87.25 182.75 87.2 182.9 87.15C182.75 87.2 183.15 87.1 183.25 87.05C183.4 87 183.55 87 183.7 87C184.5 86.95 185.3 87.15 186 87.5C186.9 87.95 187.65 88.7 188.1 89.6C189.25 91.75 189.35 94.45 189.1 96.85C188.95 98.2 188.65 99.55 188.2 100.85C187.8 102 187.25 103.1 186.55 104.15C186.35 104.4 186.1 104.7 185.9 104.95L185.75 105.1C185.95 104.9 185.75 105.15 185.7 105.15C185.55 105.25 185.45 105.4 185.3 105.5L185.1 105.65C185.2 105.55 185.25 105.55 185.1 105.65L184.65 105.95L184.5 106.05C184.8 105.9 184.5 106.05 184.45 106.05C184.3 106.1 184.15 106.2 184 106.25L183.7 106.35C183.5 106.4 183.35 106.45 183.15 106.45C182.95 106.45 183.4 106.4 183.05 106.45L182.75 106.5C182.55 106.5 182.4 106.5 182.25 106.5C181.5 106.45 180.75 106.35 180 106.1C179.2 105.85 177.35 107.45 178.5 107.8C181.65 108.75 185.1 107.85 187.35 105.45C189.5 103.3 190.65 100.3 191.15 97.35C191.6 94.55 191.6 91.5 190.45 88.85C190.05 87.8 189.3 86.9 188.4 86.25C186.75 85.2 184.7 85.05 182.85 85.75C180.1 86.75 177.85 89.35 176.65 91.95C176.45 92.4 176.6 92.75 177.15 92.75C177.75 92.6 178.35 92.3 178.7 91.75Z" fill="#000005"/>
<path d="M155.75 102.25C155.4 103.05 154.9 103.85 154.35 104.55C153.85 105.25 153.25 105.9 152.6 106.45C152.25 106.75 151.85 107.05 151.45 107.25C151.25 107.35 151.05 107.45 150.85 107.55C150.75 107.6 150.65 107.65 150.55 107.7C150.5 107.7 150.45 107.75 150.45 107.75C150.5 107.75 150.75 107.7 150.65 107.7C150.55 107.7 150.4 107.75 150.3 107.75C150 107.8 149.7 107.8 149.4 107.8C148.65 107.8 147.9 107.65 147.15 107.45C146.7 107.35 146.05 107.65 145.65 107.75C145.4 107.8 145.15 107.9 144.95 108.05C144.9 108.1 144.7 108.15 144.85 108.2C149.85 109.4 155.05 107.1 157.6 102.6C157.8 102.25 158 101.9 158.15 101.5C157.75 101.55 157.3 101.6 156.9 101.7C156.65 101.85 155.9 101.95 155.75 102.25Z" fill="#000005"/>
<path d="M163.636 88.5434C164.568 88.4342 165.238 87.6119 165.132 86.7069C165.026 85.8018 164.184 85.1566 163.252 85.2658C162.319 85.375 161.649 86.1972 161.755 87.1023C161.861 88.0074 162.703 88.6525 163.636 88.5434Z" fill="#000005"/>
<path d="M223.7 206.55C223.7 206.55 209.35 115.5 178.2 126.75C147.05 138 146.05 178.2 141.1 181.3C136.15 184.4 117.4 172.55 108.05 180.05C98.7001 187.55 96.2 203.75 102.1 210.9C108 218.05 208.7 224.95 223.7 206.55Z" fill="#000005"/>
<path d="M224.9 206.2C224.6 204.4 224.3 202.6 223.95 200.8C223.1 196.25 222.1 191.7 221.05 187.2C219.6 181.15 218 175.1 216.15 169.2C214.2 162.85 211.9 156.6 209.25 150.5C206.8 145 203.9 139.55 200.2 134.8C197.25 131.05 193.6 127.55 189 126C186.8 125.25 184.5 125.05 182.2 125.3C178.7 125.7 175.35 127.15 172.3 128.75C165 132.55 159.05 138.45 154.65 145.35C150.75 151.5 148.05 158.25 145.85 165.15C145 167.9 144.2 170.65 143.4 173.4C142.9 175.4 142.2 177.4 141.4 179.3C141.2 179.85 140.9 180.4 140.5 180.85L140.4 180.95L140.35 181C140.7 180.65 140.4 180.95 140.4 180.95C140.35 181 140.3 181 140.3 181.05C140.2 181.1 140.15 181.1 140.4 180.95C140.35 180.95 140.3 181.05 140.25 181.05C140.05 181.05 140.5 180.95 140.25 181.05C140.2 181.05 140.15 181.1 140.1 181.1C140.5 180.9 139.85 181.15 140.25 181.05C140.1 181.05 139.95 181.1 139.85 181.1C139.75 181.1 140.15 181.1 139.85 181.1H139.5C139.25 181.1 138.95 181.1 138.7 181.1C138.35 181.1 137.95 181.05 137.6 181C136.85 180.9 136.05 180.75 135.3 180.55C133.4 180.1 131.5 179.55 129.6 179.05C125.45 177.9 121.2 176.85 116.85 176.85C114.75 176.85 112.65 177.2 110.65 177.9C108.65 178.65 106.85 179.85 105.4 181.4C102.15 184.75 99.7999 188.9 98.6999 193.45C97.5999 197.6 97.2999 202.15 98.4999 206.25C98.9999 208.05 99.7999 209.7 100.95 211.2C101.25 211.55 101.55 211.8 101.95 212.05C103.2 212.7 104.5 213.25 105.85 213.6C110.35 214.9 115.1 215.6 119.75 216.25C126.3 217.15 132.85 217.7 139.45 218.15C147.05 218.65 154.7 218.9 162.35 218.9C170 218.9 177.6 218.7 185.25 218.1C192.05 217.65 198.8 216.7 205.45 215.35C210.6 214.25 215.95 212.8 220.5 210.05C222.15 209.1 223.65 207.9 224.9 206.45C225.25 206 224.6 205.9 224.3 205.9C223.7 205.9 223.15 206.15 222.7 206.55C222.45 206.9 222.15 207.2 221.85 207.5C221.65 207.7 221.85 207.5 221.75 207.6L221.5 207.85C221.3 208 221.15 208.15 220.95 208.3C220.6 208.6 220.2 208.85 219.8 209.15C219.75 209.2 219.75 209.2 219.7 209.25C219.5 209.4 219.9 209.15 219.7 209.25L219.4 209.45C219.15 209.6 218.95 209.7 218.7 209.85C218.25 210.1 217.75 210.35 217.3 210.6C217.25 210.65 216.85 210.85 217.15 210.65L216.8 210.8C216.55 210.9 216.25 211.05 216 211.15C215.45 211.4 214.9 211.6 214.35 211.8C214.05 211.9 213.8 212 213.5 212.1L213.3 212.15C213 212.25 213.5 212.1 213.3 212.15L212.8 212.35C211.5 212.8 210.2 213.15 208.9 213.5C208.2 213.7 207.5 213.85 206.85 214L206.55 214.05L206.05 214.15C205.65 214.25 205.3 214.3 204.9 214.4C201.75 215.05 198.6 215.55 195.4 215.95C192.05 216.4 188.6 216.7 185.05 216.95C181.3 217.2 177.55 217.4 173.8 217.5C166.25 217.75 158.65 217.7 151.1 217.4C144.05 217.15 136.95 216.7 129.95 216C124.35 215.45 118.75 214.75 113.25 213.7C112.4 213.55 111.25 213.3 110.3 213.05C109.4 212.85 108.5 212.6 107.65 212.35C106.95 212.15 106.25 211.9 105.55 211.65C105.25 211.55 105 211.4 104.75 211.3H104.7L104.55 211.2C104.45 211.15 104.35 211.1 104.25 211C103.75 210.7 103.35 210.25 103.05 209.8C102 208.2 101.25 206.45 100.85 204.6C99.9499 200.4 100.4 195.9 101.65 191.85C103 187.55 105.35 183.35 108.85 180.4C109.5 179.85 110.2 179.35 111 179C111.7 178.65 112.5 178.45 113.3 178.3C115.15 178 117.05 178 118.95 178.25C123.1 178.75 127.1 179.95 131.15 181.05C134.15 181.85 137.6 182.95 140.7 182.1C142.5 181.6 143.4 180.45 144.15 178.8C144.9 176.9 145.55 174.9 146.1 172.9C147.85 166.9 149.6 160.85 152.05 155.05C155.05 148.05 159 141.45 164.5 136.1C167.4 133.3 170.7 130.9 174.3 129.05C175.25 128.55 176.2 128.15 177.15 127.75C177.65 127.55 178.2 127.35 178.7 127.15L179 127.05C179.25 126.95 178.8 127.1 178.95 127.05L179.45 126.9C179.7 126.8 180 126.75 180.3 126.65C180.6 126.55 180.1 126.7 180.45 126.6L180.95 126.5C181.2 126.45 181.45 126.4 181.75 126.4C182.1 126.35 181.6 126.4 181.9 126.4L182.35 126.35C182.6 126.35 182.85 126.35 183.1 126.35C183.25 126.35 183.35 126.35 183.5 126.35H183.75C184.25 126.4 184.8 126.45 185.3 126.55C185.75 126.65 186.25 126.75 186.7 126.85C187.2 127 187.7 127.15 188.2 127.35C190.25 128.2 192.15 129.4 193.8 130.9C197.9 134.45 200.95 139.1 203.55 143.85C206.6 149.5 209.15 155.4 211.25 161.45C213.45 167.55 215.3 173.75 216.95 180C218.35 185.25 219.6 190.55 220.7 195.9C221.35 199.1 222 202.3 222.55 205.5C222.6 205.95 222.7 206.35 222.75 206.8C222.6 207.55 225 206.95 224.9 206.2Z" fill="#000005"/>
</svg>
