<svg width="14" height="14" viewBox="0 0 14 14" fill="none" xmlns="http://www.w3.org/2000/svg">
<g clip-path="url(#clip0_740_589)">
<path d="M0 7C0 8.85652 0.737498 10.637 2.05025 11.9497C3.36301 13.2625 5.14348 14 7 14C8.85652 14 10.637 13.2625 11.9497 11.9497C13.2625 10.637 14 8.85652 14 7C14 5.14348 13.2625 3.36301 11.9497 2.05025C10.637 0.737498 8.85652 0 7 0C5.14348 0 3.36301 0.737498 2.05025 2.05025C0.737498 3.36301 0 5.14348 0 7Z" fill="white"/>
<path d="M4.50081 5C4.50081 5.66304 4.7642 6.29893 5.23305 6.76777C5.70189 7.23661 6.33777 7.5 7.00081 7.5C7.66385 7.5 8.29974 7.23661 8.76858 6.76777C9.23742 6.29893 9.50081 5.66304 9.50081 5C9.50081 4.33696 9.23742 3.70107 8.76858 3.23223C8.29974 2.76339 7.66385 2.5 7.00081 2.5C6.33777 2.5 5.70189 2.76339 5.23305 3.23223C4.7642 3.70107 4.50081 4.33696 4.50081 5ZM11.2438 10.5C10.7282 9.87391 10.0803 9.36984 9.34667 9.02403C8.61302 8.67822 7.81187 8.49925 7.00081 8.5C6.18975 8.49925 5.3886 8.67822 4.65496 9.02403C3.92131 9.36984 3.2734 9.87391 2.75781 10.5C3.2734 11.1261 3.92131 11.6302 4.65496 11.976C5.3886 12.3218 6.18975 12.5007 7.00081 12.5C7.81187 12.5007 8.61302 12.3218 9.34667 11.976C10.0803 11.6302 10.7282 11.1261 11.2438 10.5Z" fill="#8FBFFA"/>
</g>
<defs>
<clipPath id="clip0_740_589">
<rect width="14" height="14" fill="white"/>
</clipPath>
</defs>
</svg>
