<svg width="14" height="14" viewBox="0 0 14 14" fill="none" xmlns="http://www.w3.org/2000/svg">
<g clip-path="url(#clip0_740_583)">
<path d="M7.00147 8C7.66451 8 8.30039 7.73661 8.76924 7.26777C9.23808 6.79893 9.50147 6.16304 9.50147 5.5C9.50147 4.83696 9.23808 4.20107 8.76924 3.73223C8.30039 3.26339 7.66451 3 7.00147 3C6.33843 3 5.70254 3.26339 5.2337 3.73223C4.76486 4.20107 4.50147 4.83696 4.50147 5.5C4.50147 6.16304 4.76486 6.79893 5.2337 7.26777C5.70254 7.73661 6.33843 8 7.00147 8ZM11.2725 11.9C10.0897 12.9333 8.57199 13.5019 7.00147 13.5C5.43095 13.5019 3.9132 12.9333 2.73047 11.9C3.17663 11.1671 3.80388 10.5614 4.55188 10.1411C5.29988 9.72074 6.14346 9.49997 7.00147 9.5C8.81047 9.5 10.3945 10.46 11.2725 11.9Z" fill="white"/>
<path fill-rule="evenodd" clip-rule="evenodd" d="M2.7295 11.9C3.17566 11.1671 3.80292 10.5614 4.55092 10.1411C5.29892 9.72076 6.14249 9.5 7.0005 9.50003C8.8095 9.50003 10.3945 10.46 11.2715 11.9C12.2691 11.0303 12.9774 9.87683 13.3017 8.59375C13.6261 7.31067 13.5511 5.95914 13.0867 4.71984C12.6223 3.48054 11.7907 2.41253 10.703 1.65856C9.61536 0.904595 8.32345 0.50061 7 0.50061C5.67655 0.50061 4.38464 0.904595 3.29696 1.65856C2.20928 2.41253 1.37767 3.48054 0.913286 4.71984C0.448905 5.95914 0.373888 7.31067 0.698262 8.59375C1.02264 9.87683 1.73094 11.0303 2.7285 11.9M7.0005 8.00003C7.66354 8.00003 8.29943 7.73664 8.76827 7.26779C9.23711 6.79895 9.5005 6.16307 9.5005 5.50003C9.5005 4.83699 9.23711 4.2011 8.76827 3.73226C8.29943 3.26342 7.66354 3.00003 7.0005 3.00003C6.33746 3.00003 5.70158 3.26342 5.23273 3.73226C4.76389 4.2011 4.5005 4.83699 4.5005 5.50003C4.5005 6.16307 4.76389 6.79895 5.23273 7.26779C5.70158 7.73664 6.33746 8.00003 7.0005 8.00003Z" fill="#D7E0FF"/>
<path d="M2.73047 11.9C3.17671 11.1675 3.80388 10.5621 4.55168 10.1421C5.29947 9.72201 6.14276 9.50136 7.00047 9.50136C7.85818 9.50136 8.70146 9.72201 9.44926 10.1421C10.1971 10.5621 10.8242 11.1675 11.2705 11.9M7.00047 8C7.66351 8 8.29939 7.73661 8.76824 7.26777C9.23708 6.79893 9.50047 6.16304 9.50047 5.5C9.50047 4.83696 9.23708 4.20107 8.76824 3.73223C8.29939 3.26339 7.66351 3 7.00047 3C6.33743 3 5.70154 3.26339 5.2327 3.73223C4.76386 4.20107 4.50047 4.83696 4.50047 5.5C4.50047 6.16304 4.76386 6.79893 5.2327 7.26777C5.70154 7.73661 6.33743 8 7.00047 8Z" stroke="#4147D5" stroke-linecap="round" stroke-linejoin="round"/>
<path d="M7 13.5C8.72391 13.5 10.3772 12.8152 11.5962 11.5962C12.8152 10.3772 13.5 8.72391 13.5 7C13.5 5.27609 12.8152 3.62279 11.5962 2.40381C10.3772 1.18482 8.72391 0.5 7 0.5C5.27609 0.5 3.62279 1.18482 2.40381 2.40381C1.18482 3.62279 0.5 5.27609 0.5 7C0.5 8.72391 1.18482 10.3772 2.40381 11.5962C3.62279 12.8152 5.27609 13.5 7 13.5Z" stroke="#4147D5" stroke-linecap="round" stroke-linejoin="round"/>
</g>
<defs>
<clipPath id="clip0_740_583">
<rect width="14" height="14" fill="white"/>
</clipPath>
</defs>
</svg>
