<svg width="1309" height="300" viewBox="0 0 1309 300" fill="none" xmlns="http://www.w3.org/2000/svg">
<path d="M56.6 62V132H150.6V176.4H56.6V250.4H162.6V296H0.600002V16.4H162.6V62H56.6ZM309.891 244.4L365.891 74.4H425.491L343.491 296H275.491L193.891 74.4H253.891L309.891 244.4ZM446.544 184.4C446.544 162 450.944 142.133 459.744 124.8C468.81 107.467 480.944 94.1333 496.144 84.8C511.61 75.4667 528.81 70.8 547.744 70.8C564.277 70.8 578.677 74.1333 590.944 80.8C603.477 87.4667 613.477 95.8667 620.944 106V74.4H677.344V296H620.944V263.6C613.744 274 603.744 282.667 590.944 289.6C578.41 296.267 563.877 299.6 547.344 299.6C528.677 299.6 511.61 294.8 496.144 285.2C480.944 275.6 468.81 262.133 459.744 244.8C450.944 227.2 446.544 207.067 446.544 184.4ZM620.944 185.2C620.944 171.6 618.277 160 612.944 150.4C607.61 140.533 600.41 133.067 591.344 128C582.277 122.667 572.544 120 562.144 120C551.744 120 542.144 122.533 533.344 127.6C524.544 132.667 517.344 140.133 511.744 150C506.41 159.6 503.744 171.067 503.744 184.4C503.744 197.733 506.41 209.467 511.744 219.6C517.344 229.467 524.544 237.067 533.344 242.4C542.41 247.733 552.01 250.4 562.144 250.4C572.544 250.4 582.277 247.867 591.344 242.8C600.41 237.467 607.61 230 612.944 220.4C618.277 210.533 620.944 198.8 620.944 185.2ZM792.038 -3.8147e-06V296H736.038V-3.8147e-06H792.038ZM943.766 244.4L999.766 74.4H1059.37L977.366 296H909.366L827.766 74.4H887.766L943.766 244.4ZM1193.22 299.6C1171.89 299.6 1152.69 294.933 1135.62 285.6C1118.55 276 1105.09 262.533 1095.22 245.2C1085.62 227.867 1080.82 207.867 1080.82 185.2C1080.82 162.533 1085.75 142.533 1095.62 125.2C1105.75 107.867 1119.49 94.5333 1136.82 85.2C1154.15 75.6 1173.49 70.8 1194.82 70.8C1216.15 70.8 1235.49 75.6 1252.82 85.2C1270.15 94.5333 1283.75 107.867 1293.62 125.2C1303.75 142.533 1308.82 162.533 1308.82 185.2C1308.82 207.867 1303.62 227.867 1293.22 245.2C1283.09 262.533 1269.22 276 1251.62 285.6C1234.29 294.933 1214.82 299.6 1193.22 299.6ZM1193.22 250.8C1203.35 250.8 1212.82 248.4 1221.62 243.6C1230.69 238.533 1237.89 231.067 1243.22 221.2C1248.55 211.333 1251.22 199.333 1251.22 185.2C1251.22 164.133 1245.62 148 1234.42 136.8C1223.49 125.333 1210.02 119.6 1194.02 119.6C1178.02 119.6 1164.55 125.333 1153.62 136.8C1142.95 148 1137.62 164.133 1137.62 185.2C1137.62 206.267 1142.82 222.533 1153.22 234C1163.89 245.2 1177.22 250.8 1193.22 250.8Z" fill="#F0F1FF" fill-opacity="0.3"/>
</svg>
