<svg width="264" height="83" viewBox="0 0 264 83" fill="none" xmlns="http://www.w3.org/2000/svg">
<g clip-path="url(#clip0_546_1613)">
<path d="M37.9432 7.5C51.1918 7.5 62.0378 17.8348 62.9388 30.921L47.608 43.9588V33.045C47.608 26.0903 41.9988 20.4524 35.0795 20.4524H28.2784C21.3591 20.4524 15.75 26.0903 15.75 33.045V49.5952C15.75 56.5499 21.3591 62.1878 28.2784 62.1878H35.0795C41.9988 62.1878 47.608 56.5499 47.608 49.5952V49.2355H63V50.3148C63 64.2242 51.7817 75.5 37.9432 75.5H25.0568C11.2183 75.5 0 64.2242 0 50.3148V32.6852C6.45807e-07 18.7758 11.2183 7.5 25.0568 7.5H37.9432Z" fill="white"/>
<path d="M60.6733 22.0714L62.2841 26.5688L63 31.246L37.427 53.1165L34.8544 55.739L18.4798 39.5089L26.6526 31.1782L35.2082 39.6582L59.2415 19.373L60.6733 22.0714Z" fill="url(#paint0_linear_546_1613)"/>
</g>
<path d="M92.6058 28.825V38.45H105.531V44.555H92.6058V54.73H107.181V61H84.9058V22.555H107.181V28.825H92.6058ZM126.883 53.905L134.583 30.53H142.778L131.503 61H122.153L110.933 30.53H119.183L126.883 53.905ZM145.123 45.655C145.123 42.575 145.728 39.8433 146.938 37.46C148.185 35.0767 149.853 33.2433 151.943 31.96C154.07 30.6767 156.435 30.035 159.038 30.035C161.311 30.035 163.291 30.4933 164.978 31.41C166.701 32.3267 168.076 33.4817 169.103 34.875V30.53H176.858V61H169.103V56.545C168.113 57.975 166.738 59.1667 164.978 60.12C163.255 61.0367 161.256 61.495 158.983 61.495C156.416 61.495 154.07 60.835 151.943 59.515C149.853 58.195 148.185 56.3433 146.938 53.96C145.728 51.54 145.123 48.7717 145.123 45.655ZM169.103 45.765C169.103 43.895 168.736 42.3 168.003 40.98C167.27 39.6233 166.28 38.5967 165.033 37.9C163.786 37.1667 162.448 36.8 161.018 36.8C159.588 36.8 158.268 37.1483 157.058 37.845C155.848 38.5417 154.858 39.5683 154.088 40.925C153.355 42.245 152.988 43.8217 152.988 45.655C152.988 47.4883 153.355 49.1017 154.088 50.495C154.858 51.8517 155.848 52.8967 157.058 53.63C158.305 54.3633 159.625 54.73 161.018 54.73C162.448 54.73 163.786 54.3817 165.033 53.685C166.28 52.9517 167.27 51.925 168.003 50.605C168.736 49.2483 169.103 47.635 169.103 45.765ZM192.078 20.3V61H184.378V20.3H192.078ZM212.391 53.905L220.091 30.53H228.286L217.011 61H207.661L196.441 30.53H204.691L212.391 53.905ZM246.141 61.495C243.208 61.495 240.568 60.8533 238.221 59.57C235.874 58.25 234.023 56.3983 232.666 54.015C231.346 51.6317 230.686 48.8817 230.686 45.765C230.686 42.6483 231.364 39.8983 232.721 37.515C234.114 35.1317 236.003 33.2983 238.386 32.015C240.769 30.695 243.428 30.035 246.361 30.035C249.294 30.035 251.953 30.695 254.336 32.015C256.719 33.2983 258.589 35.1317 259.946 37.515C261.339 39.8983 262.036 42.6483 262.036 45.765C262.036 48.8817 261.321 51.6317 259.891 54.015C258.498 56.3983 256.591 58.25 254.171 59.57C251.788 60.8533 249.111 61.495 246.141 61.495ZM246.141 54.785C247.534 54.785 248.836 54.455 250.046 53.795C251.293 53.0983 252.283 52.0717 253.016 50.715C253.749 49.3583 254.116 47.7083 254.116 45.765C254.116 42.8683 253.346 40.65 251.806 39.11C250.303 37.5333 248.451 36.745 246.251 36.745C244.051 36.745 242.199 37.5333 240.696 39.11C239.229 40.65 238.496 42.8683 238.496 45.765C238.496 48.6617 239.211 50.8983 240.641 52.475C242.108 54.015 243.941 54.785 246.141 54.785Z" fill="white"/>
<defs>
<linearGradient id="paint0_linear_546_1613" x1="34.3636" y1="42.3995" x2="54.4558" y2="31.5122" gradientUnits="userSpaceOnUse">
<stop offset="0.283654" stop-color="#34FF42"/>
<stop offset="0.923077" stop-color="white"/>
</linearGradient>
<clipPath id="clip0_546_1613">
<rect width="63" height="68" fill="white" transform="translate(0 7.5)"/>
</clipPath>
</defs>
</svg>
