<svg width="1445" height="360" viewBox="0 0 1445 360" fill="none" xmlns="http://www.w3.org/2000/svg">
<g clip-path="url(#clip0_839_2064)">
<path d="M131.6 191V261H225.6V305.4H131.6V379.4H237.6V425H75.6V145.4H237.6V191H131.6ZM384.891 373.4L440.891 203.4H500.491L418.491 425H350.491L268.891 203.4H328.891L384.891 373.4ZM521.544 313.4C521.544 291 525.944 271.133 534.744 253.8C543.81 236.467 555.944 223.133 571.144 213.8C586.61 204.467 603.81 199.8 622.744 199.8C639.277 199.8 653.677 203.133 665.944 209.8C678.477 216.467 688.477 224.867 695.944 235V203.4H752.344V425H695.944V392.6C688.744 403 678.744 411.667 665.944 418.6C653.41 425.267 638.877 428.6 622.344 428.6C603.677 428.6 586.61 423.8 571.144 414.2C555.944 404.6 543.81 391.133 534.744 373.8C525.944 356.2 521.544 336.067 521.544 313.4ZM695.944 314.2C695.944 300.6 693.277 289 687.944 279.4C682.61 269.533 675.41 262.067 666.344 257C657.277 251.667 647.544 249 637.144 249C626.744 249 617.144 251.533 608.344 256.6C599.544 261.667 592.344 269.133 586.744 279C581.41 288.6 578.744 300.067 578.744 313.4C578.744 326.733 581.41 338.467 586.744 348.6C592.344 358.467 599.544 366.067 608.344 371.4C617.41 376.733 627.01 379.4 637.144 379.4C647.544 379.4 657.277 376.867 666.344 371.8C675.41 366.467 682.61 359 687.944 349.4C693.277 339.533 695.944 327.8 695.944 314.2ZM867.038 129V425H811.038V129H867.038ZM1018.77 373.4L1074.77 203.4H1134.37L1052.37 425H984.366L902.766 203.4H962.766L1018.77 373.4ZM1268.22 428.6C1246.89 428.6 1227.69 423.933 1210.62 414.6C1193.55 405 1180.09 391.533 1170.22 374.2C1160.62 356.867 1155.82 336.867 1155.82 314.2C1155.82 291.533 1160.75 271.533 1170.62 254.2C1180.75 236.867 1194.49 223.533 1211.82 214.2C1229.15 204.6 1248.49 199.8 1269.82 199.8C1291.15 199.8 1310.49 204.6 1327.82 214.2C1345.15 223.533 1358.75 236.867 1368.62 254.2C1378.75 271.533 1383.82 291.533 1383.82 314.2C1383.82 336.867 1378.62 356.867 1368.22 374.2C1358.09 391.533 1344.22 405 1326.62 414.6C1309.29 423.933 1289.82 428.6 1268.22 428.6ZM1268.22 379.8C1278.35 379.8 1287.82 377.4 1296.62 372.6C1305.69 367.533 1312.89 360.067 1318.22 350.2C1323.55 340.333 1326.22 328.333 1326.22 314.2C1326.22 293.133 1320.62 277 1309.42 265.8C1298.49 254.333 1285.02 248.6 1269.02 248.6C1253.02 248.6 1239.55 254.333 1228.62 265.8C1217.95 277 1212.62 293.133 1212.62 314.2C1212.62 335.267 1217.82 351.533 1228.22 363C1238.89 374.2 1252.22 379.8 1268.22 379.8Z" fill="#F0F1FF" fill-opacity="0.3"/>
</g>
<defs>
<clipPath id="clip0_839_2064">
<rect width="1445" height="360" fill="white"/>
</clipPath>
</defs>
</svg>
