<svg width="1445" height="265" viewBox="0 0 1445 265" fill="none" xmlns="http://www.w3.org/2000/svg">
<g clip-path="url(#clip0_839_2064)">
<path d="M131.6 69V139H225.6V183.4H131.6V257.4H237.6V303H75.6V23.4H237.6V69H131.6ZM384.891 251.4L440.891 81.4H500.491L418.491 303H350.491L268.891 81.4H328.891L384.891 251.4ZM521.544 191.4C521.544 169 525.944 149.133 534.744 131.8C543.81 114.467 555.944 101.133 571.144 91.8C586.61 82.4667 603.81 77.8 622.744 77.8C639.277 77.8 653.677 81.1333 665.944 87.8C678.477 94.4667 688.477 102.867 695.944 113V81.4H752.344V303H695.944V270.6C688.744 281 678.744 289.667 665.944 296.6C653.41 303.267 638.877 306.6 622.344 306.6C603.677 306.6 586.61 301.8 571.144 292.2C555.944 282.6 543.81 269.133 534.744 251.8C525.944 234.2 521.544 214.067 521.544 191.4ZM695.944 192.2C695.944 178.6 693.277 167 687.944 157.4C682.61 147.533 675.41 140.067 666.344 135C657.277 129.667 647.544 127 637.144 127C626.744 127 617.144 129.533 608.344 134.6C599.544 139.667 592.344 147.133 586.744 157C581.41 166.6 578.744 178.067 578.744 191.4C578.744 204.733 581.41 216.467 586.744 226.6C592.344 236.467 599.544 244.067 608.344 249.4C617.41 254.733 627.01 257.4 637.144 257.4C647.544 257.4 657.277 254.867 666.344 249.8C675.41 244.467 682.61 237 687.944 227.4C693.277 217.533 695.944 205.8 695.944 192.2ZM867.038 7V303H811.038V7H867.038ZM1018.77 251.4L1074.77 81.4H1134.37L1052.37 303H984.366L902.766 81.4H962.766L1018.77 251.4ZM1268.22 306.6C1246.89 306.6 1227.69 301.933 1210.62 292.6C1193.55 283 1180.09 269.533 1170.22 252.2C1160.62 234.867 1155.82 214.867 1155.82 192.2C1155.82 169.533 1160.75 149.533 1170.62 132.2C1180.75 114.867 1194.49 101.533 1211.82 92.2C1229.15 82.6 1248.49 77.8 1269.82 77.8C1291.15 77.8 1310.49 82.6 1327.82 92.2C1345.15 101.533 1358.75 114.867 1368.62 132.2C1378.75 149.533 1383.82 169.533 1383.82 192.2C1383.82 214.867 1378.62 234.867 1368.22 252.2C1358.09 269.533 1344.22 283 1326.62 292.6C1309.29 301.933 1289.82 306.6 1268.22 306.6ZM1268.22 257.8C1278.35 257.8 1287.82 255.4 1296.62 250.6C1305.69 245.533 1312.89 238.067 1318.22 228.2C1323.55 218.333 1326.22 206.333 1326.22 192.2C1326.22 171.133 1320.62 155 1309.42 143.8C1298.49 132.333 1285.02 126.6 1269.02 126.6C1253.02 126.6 1239.55 132.333 1228.62 143.8C1217.95 155 1212.62 171.133 1212.62 192.2C1212.62 213.267 1217.82 229.533 1228.22 241C1238.89 252.2 1252.22 257.8 1268.22 257.8Z" fill="#F0F1FF" fill-opacity="0.3"/>
</g>
<defs>
<clipPath id="clip0_839_2064">
<rect width="1445" height="265" fill="white"/>
</clipPath>
</defs>
</svg>
