<svg width="413" height="83" viewBox="0 0 413 83" fill="none" xmlns="http://www.w3.org/2000/svg">
<g clip-path="url(#clip0_851_1639)">
<path d="M37.9432 7.5C51.1918 7.5 62.0378 17.8348 62.9388 30.921L47.608 43.9588V33.045C47.608 26.0903 41.9988 20.4524 35.0795 20.4524H28.2784C21.3591 20.4524 15.75 26.0903 15.75 33.045V49.5952C15.75 56.5499 21.3591 62.1878 28.2784 62.1878H35.0795C41.9988 62.1878 47.608 56.5499 47.608 49.5952V49.2355H63V50.3148C63 64.2242 51.7817 75.5 37.9432 75.5H25.0568C11.2183 75.5 0 64.2242 0 50.3148V32.6852C6.45807e-07 18.7758 11.2183 7.5 25.0568 7.5H37.9432Z" fill="#4F39F6"/>
<path d="M60.6733 22.0715L62.2841 26.5688L63 31.2461L37.427 53.1165L34.8544 55.739L18.4797 39.5089L26.6526 31.1782L35.2082 39.6582L59.2415 19.373L60.6733 22.0715Z" fill="url(#paint0_linear_851_1639)"/>
</g>
<path d="M92.9847 28.825V38.45H105.91V44.555H92.9847V54.73H107.56V61H85.2847V22.555H107.56V28.825H92.9847ZM127.262 53.905L134.962 30.53H143.157L131.882 61H122.532L111.312 30.53H119.562L127.262 53.905ZM145.502 45.655C145.502 42.575 146.107 39.8433 147.317 37.46C148.564 35.0767 150.232 33.2433 152.322 31.96C154.449 30.6767 156.814 30.035 159.417 30.035C161.69 30.035 163.67 30.4933 165.357 31.41C167.08 32.3267 168.455 33.4817 169.482 34.875V30.53H177.237V61H169.482V56.545C168.492 57.975 167.117 59.1667 165.357 60.12C163.634 61.0367 161.635 61.495 159.362 61.495C156.795 61.495 154.449 60.835 152.322 59.515C150.232 58.195 148.564 56.3433 147.317 53.96C146.107 51.54 145.502 48.7717 145.502 45.655ZM169.482 45.765C169.482 43.895 169.115 42.3 168.382 40.98C167.649 39.6233 166.659 38.5967 165.412 37.9C164.165 37.1667 162.827 36.8 161.397 36.8C159.967 36.8 158.647 37.1483 157.437 37.845C156.227 38.5417 155.237 39.5683 154.467 40.925C153.734 42.245 153.367 43.8217 153.367 45.655C153.367 47.4883 153.734 49.1017 154.467 50.495C155.237 51.8517 156.227 52.8967 157.437 53.63C158.684 54.3633 160.004 54.73 161.397 54.73C162.827 54.73 164.165 54.3817 165.412 53.685C166.659 52.9517 167.649 51.925 168.382 50.605C169.115 49.2483 169.482 47.635 169.482 45.765ZM192.457 20.3V61H184.757V20.3H192.457ZM212.77 53.905L220.47 30.53H228.665L217.39 61H208.04L196.82 30.53H205.07L212.77 53.905ZM246.52 61.495C243.586 61.495 240.946 60.8533 238.6 59.57C236.253 58.25 234.401 56.3983 233.045 54.015C231.725 51.6317 231.065 48.8817 231.065 45.765C231.065 42.6483 231.743 39.8983 233.1 37.515C234.493 35.1317 236.381 33.2983 238.765 32.015C241.148 30.695 243.806 30.035 246.74 30.035C249.673 30.035 252.331 30.695 254.715 32.015C257.098 33.2983 258.968 35.1317 260.325 37.515C261.718 39.8983 262.415 42.6483 262.415 45.765C262.415 48.8817 261.7 51.6317 260.27 54.015C258.876 56.3983 256.97 58.25 254.55 59.57C252.166 60.8533 249.49 61.495 246.52 61.495ZM246.52 54.785C247.913 54.785 249.215 54.455 250.425 53.795C251.671 53.0983 252.661 52.0717 253.395 50.715C254.128 49.3583 254.495 47.7083 254.495 45.765C254.495 42.8683 253.725 40.65 252.185 39.11C250.681 37.5333 248.83 36.745 246.63 36.745C244.43 36.745 242.578 37.5333 241.075 39.11C239.608 40.65 238.875 42.8683 238.875 45.765C238.875 48.6617 239.59 50.8983 241.02 52.475C242.486 54.015 244.32 54.785 246.52 54.785ZM307.294 22.61V28.825H297.064V61H289.364V28.825H279.134V22.61H307.294ZM341.237 45.105C341.237 46.205 341.163 47.195 341.017 48.075H318.742C318.925 50.275 319.695 51.9983 321.052 53.245C322.408 54.4917 324.077 55.115 326.057 55.115C328.917 55.115 330.952 53.8867 332.162 51.43H340.467C339.587 54.3633 337.9 56.7833 335.407 58.69C332.913 60.56 329.852 61.495 326.222 61.495C323.288 61.495 320.648 60.8533 318.302 59.57C315.992 58.25 314.177 56.3983 312.857 54.015C311.573 51.6317 310.932 48.8817 310.932 45.765C310.932 42.6117 311.573 39.8433 312.857 37.46C314.14 35.0767 315.937 33.2433 318.247 31.96C320.557 30.6767 323.215 30.035 326.222 30.035C329.118 30.035 331.703 30.6583 333.977 31.905C336.287 33.1517 338.065 34.93 339.312 37.24C340.595 39.5133 341.237 42.135 341.237 45.105ZM333.262 42.905C333.225 40.925 332.51 39.3483 331.117 38.175C329.723 36.965 328.018 36.36 326.002 36.36C324.095 36.36 322.482 36.9467 321.162 38.12C319.878 39.2567 319.09 40.8517 318.797 42.905H333.262ZM344.877 45.765C344.877 42.6117 345.519 39.8617 346.802 37.515C348.085 35.1317 349.864 33.2983 352.137 32.015C354.41 30.695 357.014 30.035 359.947 30.035C363.724 30.035 366.84 30.9883 369.297 32.895C371.79 34.765 373.459 37.405 374.302 40.815H365.997C365.557 39.495 364.805 38.4683 363.742 37.735C362.715 36.965 361.432 36.58 359.892 36.58C357.692 36.58 355.95 37.3867 354.667 39C353.384 40.5767 352.742 42.8317 352.742 45.765C352.742 48.6617 353.384 50.9167 354.667 52.53C355.95 54.1067 357.692 54.895 359.892 54.895C363.009 54.895 365.044 53.5017 365.997 50.715H374.302C373.459 54.015 371.79 56.6367 369.297 58.58C366.804 60.5233 363.687 61.495 359.947 61.495C357.014 61.495 354.41 60.8533 352.137 59.57C349.864 58.25 348.085 56.4167 346.802 54.07C345.519 51.6867 344.877 48.9183 344.877 45.765ZM397.103 30.09C399.413 30.09 401.466 30.6033 403.263 31.63C405.06 32.62 406.453 34.105 407.443 36.085C408.47 38.0283 408.983 40.375 408.983 43.125V61H401.283V44.17C401.283 41.75 400.678 39.8983 399.468 38.615C398.258 37.295 396.608 36.635 394.518 36.635C392.391 36.635 390.705 37.295 389.458 38.615C388.248 39.8983 387.643 41.75 387.643 44.17V61H379.943V20.3H387.643V34.325C388.633 33.005 389.953 31.9783 391.603 31.245C393.253 30.475 395.086 30.09 397.103 30.09Z" fill="#4F39F6"/>
<defs>
<linearGradient id="paint0_linear_851_1639" x1="34.3636" y1="42.3995" x2="54.4558" y2="31.5122" gradientUnits="userSpaceOnUse">
<stop offset="0.283654" stop-color="#34FF42"/>
<stop offset="0.923077" stop-color="#4949FF"/>
</linearGradient>
<clipPath id="clip0_851_1639">
<rect width="63" height="68" fill="white" transform="translate(0 7.5)"/>
</clipPath>
</defs>
</svg>
