<svg width="161" height="57" viewBox="0 0 161 57" fill="none" xmlns="http://www.w3.org/2000/svg">
<g clip-path="url(#clip0_4_554)">
<mask id="mask0_4_554" style="mask-type:luminance" maskUnits="userSpaceOnUse" x="0" y="8" width="38" height="42">
<path d="M37.8947 8.51807H0V49.4819H37.8947V8.51807Z" fill="white"/>
</mask>
<g mask="url(#mask0_4_554)">
<path d="M22.823 8.51807C30.7921 8.51807 37.316 14.7438 37.8579 22.6271L28.6364 30.4812V23.9066C28.6364 19.717 25.2624 16.3207 21.1005 16.3207H17.0096C12.8476 16.3207 9.47368 19.717 9.47368 23.9066V33.8766C9.47368 38.0662 12.8476 41.4625 17.0096 41.4625H21.1005C25.2624 41.4625 28.6364 38.0662 28.6364 33.8766V33.6599H37.8947V34.3101C37.8947 42.6893 31.1469 49.4819 22.823 49.4819H15.0718C6.74785 49.4819 0 42.6893 0 34.3101V23.6899C3.88455e-07 15.3107 6.74785 8.51807 15.0718 8.51807H22.823Z" fill="#4F39F6"/>
<path d="M36.4952 17.2961L37.4641 20.0053L37.8947 22.8229L22.5125 35.9979L20.965 37.5777L11.1156 27.8005L16.0316 22.782L21.1779 27.8905L35.634 15.6705L36.4952 17.2961Z" fill="url(#paint0_linear_4_554)"/>
</g>
</g>
<path d="M71.5509 46.674L67.5229 41.848C66.4083 42.1267 65.2683 42.266 64.1029 42.266C61.6203 42.266 59.3403 41.6833 57.2629 40.518C55.1856 39.3527 53.5389 37.744 52.3229 35.692C51.1069 33.6147 50.4989 31.2713 50.4989 28.662C50.4989 26.078 51.1069 23.76 52.3229 21.708C53.5389 19.6307 55.1856 18.0093 57.2629 16.844C59.3403 15.6787 61.6203 15.096 64.1029 15.096C66.6109 15.096 68.8909 15.6787 70.9429 16.844C73.0203 18.0093 74.6543 19.6307 75.8449 21.708C77.0609 23.76 77.6689 26.078 77.6689 28.662C77.6689 31.018 77.1623 33.1713 76.1489 35.122C75.1609 37.0473 73.8056 38.618 72.0829 39.834L78.1629 46.674H71.5509ZM55.9709 28.662C55.9709 30.4353 56.3129 31.9933 56.9969 33.336C57.6809 34.6787 58.6309 35.7173 59.8469 36.452C61.0883 37.1613 62.5069 37.516 64.1029 37.516C65.6989 37.516 67.1049 37.1613 68.3209 36.452C69.5369 35.7173 70.4869 34.6787 71.1709 33.336C71.8549 31.9933 72.1969 30.4353 72.1969 28.662C72.1969 26.8887 71.8549 25.3433 71.1709 24.026C70.4869 22.6833 69.5369 21.6573 68.3209 20.948C67.1049 20.2387 65.6989 19.884 64.1029 19.884C62.5069 19.884 61.0883 20.2387 59.8469 20.948C58.6309 21.6573 57.6809 22.6833 56.9969 24.026C56.3129 25.3433 55.9709 26.8887 55.9709 28.662ZM96.7491 28.396C98.2438 28.6747 99.4724 29.422 100.435 30.638C101.398 31.854 101.879 33.2473 101.879 34.818C101.879 36.2367 101.524 37.4907 100.815 38.58C100.131 39.644 99.1304 40.48 97.8131 41.088C96.4958 41.696 94.9378 42 93.1391 42H81.7011V15.476H92.6451C94.4438 15.476 95.9891 15.7673 97.2811 16.35C98.5984 16.9327 99.5864 17.7433 100.245 18.782C100.929 19.8207 101.271 20.9987 101.271 22.316C101.271 23.8613 100.853 25.1533 100.017 26.192C99.2064 27.2307 98.1171 27.9653 96.7491 28.396ZM87.0211 26.42H91.8851C93.1518 26.42 94.1271 26.1413 94.8111 25.584C95.4951 25.0013 95.8371 24.178 95.8371 23.114C95.8371 22.05 95.4951 21.2267 94.8111 20.644C94.1271 20.0613 93.1518 19.77 91.8851 19.77H87.0211V26.42ZM92.3791 37.668C93.6711 37.668 94.6718 37.364 95.3811 36.756C96.1158 36.148 96.4831 35.2867 96.4831 34.172C96.4831 33.032 96.1031 32.1453 95.3431 31.512C94.5831 30.8533 93.5571 30.524 92.2651 30.524H87.0211V37.668H92.3791ZM135.037 15.476V42H129.717V24.748L122.611 42H118.583L111.439 24.748V42H106.119V15.476H112.161L120.597 35.198L129.033 15.476H135.037ZM149.455 42.266C147.605 42.266 145.933 41.9493 144.439 41.316C142.969 40.6827 141.804 39.7707 140.943 38.58C140.081 37.3893 139.638 35.9833 139.613 34.362H145.313C145.389 35.4513 145.769 36.3127 146.453 36.946C147.162 37.5793 148.125 37.896 149.341 37.896C150.582 37.896 151.557 37.6047 152.267 37.022C152.976 36.414 153.331 35.6287 153.331 34.666C153.331 33.8807 153.09 33.2347 152.609 32.728C152.127 32.2213 151.519 31.8287 150.785 31.55C150.075 31.246 149.087 30.9167 147.821 30.562C146.098 30.0553 144.692 29.5613 143.603 29.08C142.539 28.5733 141.614 27.826 140.829 26.838C140.069 25.8247 139.689 24.482 139.689 22.81C139.689 21.2393 140.081 19.8713 140.867 18.706C141.652 17.5407 142.754 16.654 144.173 16.046C145.591 15.4127 147.213 15.096 149.037 15.096C151.773 15.096 153.989 15.7673 155.687 17.11C157.409 18.4273 158.359 20.2767 158.537 22.658H152.685C152.634 21.746 152.241 20.9987 151.507 20.416C150.797 19.808 149.847 19.504 148.657 19.504C147.618 19.504 146.782 19.77 146.149 20.302C145.541 20.834 145.237 21.6067 145.237 22.62C145.237 23.3293 145.465 23.9247 145.921 24.406C146.402 24.862 146.985 25.242 147.669 25.546C148.378 25.8247 149.366 26.154 150.633 26.534C152.355 27.0407 153.761 27.5473 154.851 28.054C155.94 28.5607 156.877 29.3207 157.663 30.334C158.448 31.3473 158.841 32.6773 158.841 34.324C158.841 35.7427 158.473 37.06 157.739 38.276C157.004 39.492 155.927 40.4673 154.509 41.202C153.09 41.9113 151.405 42.266 149.455 42.266Z" fill="#4F39F6"/>
<defs>
<linearGradient id="paint0_linear_4_554" x1="20.6698" y1="29.5419" x2="32.7636" y2="22.9985" gradientUnits="userSpaceOnUse">
<stop offset="0.283654" stop-color="#34FF42"/>
<stop offset="0.923077" stop-color="#4949FF"/>
</linearGradient>
<clipPath id="clip0_4_554">
<rect width="41" height="50" fill="white" transform="translate(0 4)"/>
</clipPath>
</defs>
</svg>
