<svg width="1144" height="341" viewBox="0 0 1144 341" fill="none" xmlns="http://www.w3.org/2000/svg">
<g clip-path="url(#clip0_749_8)">
<rect width="1144" height="341" rx="18" fill="white"/>
<rect width="1144" height="333" rx="14" fill="url(#paint0_linear_749_8)"/>
<path d="M103.248 96.1587C100.767 96.1587 98.3083 96.6657 96.0218 97.6579L34.4366 126.401L34.2856 126.477C32.3956 127.43 30.8072 128.889 29.6974 130.691C28.5876 132.493 28 134.569 28 136.685C28 138.802 28.5876 140.877 29.6974 142.679C30.8072 144.482 32.3956 145.941 34.2856 146.894L34.4474 146.969L95.9247 175.443L96.0326 175.497C98.3127 176.488 100.772 177 103.259 177C105.745 177 108.205 176.488 110.485 175.497L172.081 146.743L172.232 146.678C174.122 145.725 175.711 144.266 176.82 142.464C177.93 140.661 178.518 138.586 178.518 136.47C178.518 134.353 177.93 132.278 176.82 130.475C175.711 128.673 174.122 127.214 172.232 126.261L172.07 126.186L110.593 97.7118L110.485 97.6579C108.204 96.6699 105.745 96.1561 103.259 96.1479L103.248 96.1587Z" fill="white" fill-opacity="0.6"/>
<path d="M103.259 61.0742C100.778 61.0742 98.3191 61.5919 96.0326 62.5842L34.4474 91.3168L34.2964 91.3923C32.4092 92.3463 30.8235 93.805 29.7158 95.6062C28.608 97.4075 28.0215 99.4807 28.0215 101.595C28.0215 103.71 28.608 105.783 29.7158 107.584C30.8235 109.386 32.4092 110.844 34.2964 111.798L34.4582 111.885L95.9355 140.358L96.0434 140.412C98.3235 141.404 100.783 141.916 103.27 141.916C105.756 141.916 108.216 141.404 110.496 140.412L172.092 111.658L172.243 111.583C174.13 110.629 175.716 109.17 176.824 107.369C177.931 105.567 178.518 103.494 178.518 101.38C178.518 99.265 177.931 97.1918 176.824 95.3905C175.716 93.5893 174.13 92.1305 172.243 91.1765L172.081 91.0903L110.604 62.6165L110.496 62.5626C108.21 61.5805 105.747 61.0741 103.259 61.0742Z" fill="#EA8FFA" fill-opacity="0.9"/>
<path d="M103.248 26C100.767 26 98.3083 26.5069 96.0218 27.4992L34.4366 56.2533L34.2856 56.318C32.3956 57.271 30.8072 58.7299 29.6974 60.5323C28.5876 62.3347 28 64.4098 28 66.5265C28 68.6432 28.5876 70.7183 29.6974 72.5207C30.8072 74.3231 32.3956 75.782 34.2856 76.735L34.4474 76.8105L95.9247 105.284L96.0326 105.338C98.3127 106.33 100.772 106.841 103.259 106.841C105.745 106.841 108.205 106.33 110.485 105.338L172.081 76.5948L172.232 76.5193C174.122 75.5663 175.711 74.1074 176.82 72.305C177.93 70.5026 178.518 68.4275 178.518 66.3108C178.518 64.1941 177.93 62.119 176.82 60.3166C175.711 58.5142 174.122 57.0553 172.232 56.1023L172.07 56.0268L110.593 27.5531L110.485 27.4992C108.2 26.5134 105.737 26.0033 103.248 26Z" fill="white" fill-opacity="0.6"/>
<path d="M1077.98 248.022C1072.93 248.022 1067.94 249.05 1063.29 251.063L938.085 309.366L937.778 309.519C933.936 311.452 930.707 314.411 928.451 318.067C926.195 321.723 925 325.932 925 330.226C925 334.519 926.195 338.728 928.451 342.384C930.707 346.04 933.936 348.999 937.778 350.932L938.107 351.085L1063.09 408.841L1063.31 408.951C1067.94 410.962 1072.95 412 1078 412C1083.05 412 1088.06 410.962 1092.69 408.951L1217.91 350.626L1218.22 350.495C1222.06 348.562 1225.29 345.603 1227.55 341.947C1229.81 338.291 1231 334.081 1231 329.788C1231 325.495 1229.81 321.285 1227.55 317.629C1225.29 313.973 1222.06 311.014 1218.22 309.081L1217.89 308.928L1092.91 251.172L1092.69 251.063C1088.05 249.059 1083.05 248.017 1078 248L1077.98 248.022Z" fill="white" fill-opacity="0.4"/>
<path d="M1077.98 177C1072.93 177 1067.93 178.05 1063.29 180.063L938.066 238.352L937.759 238.505C933.921 240.44 930.697 243.4 928.445 247.054C926.192 250.708 925 254.914 925 259.204C925 263.494 926.192 267.699 928.445 271.354C930.697 275.008 933.921 277.967 937.759 279.902L938.088 280.077L1063.09 337.841L1063.31 337.95C1067.94 339.962 1072.94 341 1078 341C1083.06 341 1088.06 339.962 1092.69 337.95L1217.93 279.618L1218.24 279.465C1222.08 277.529 1225.3 274.57 1227.56 270.916C1229.81 267.262 1231 263.056 1231 258.766C1231 254.476 1229.81 250.27 1227.56 246.616C1225.3 242.962 1222.08 240.003 1218.24 238.067L1217.91 237.892L1092.91 180.129L1092.69 180.019C1088.04 178.027 1083.04 177 1077.98 177Z" fill="#F099FF" fill-opacity="0.4"/>
<path d="M1077.98 105C1072.93 105 1067.94 106.035 1063.29 108.06L938.085 166.748L937.778 166.88C933.936 168.825 930.707 171.803 928.451 175.482C926.195 179.16 925 183.396 925 187.716C925 192.036 926.195 196.271 928.451 199.95C930.707 203.629 933.936 206.607 937.778 208.552L938.107 208.706L1063.09 266.822L1063.31 266.932C1067.94 268.956 1072.95 270 1078 270C1083.05 270 1088.06 268.956 1092.69 266.932L1217.91 208.266L1218.22 208.111C1222.06 206.166 1225.29 203.189 1227.55 199.51C1229.81 195.831 1231 191.596 1231 187.276C1231 182.955 1229.81 178.72 1227.55 175.041C1225.29 171.363 1222.06 168.385 1218.22 166.44L1217.89 166.286L1092.91 108.17L1092.69 108.06C1088.04 106.048 1083.04 105.007 1077.98 105Z" fill="white" fill-opacity="0.4"/>
</g>
<defs>
<linearGradient id="paint0_linear_749_8" x1="572" y1="9.92417e-06" x2="572" y2="333" gradientUnits="userSpaceOnUse">
<stop stop-color="#AC33E0"/>
<stop offset="0.402271" stop-color="#BD60FF"/>
<stop offset="0.685824" stop-color="#D591FF"/>
<stop offset="0.874859" stop-color="#F8C3FF"/>
<stop offset="1" stop-color="#FEF9FF"/>
</linearGradient>
<clipPath id="clip0_749_8">
<rect width="1144" height="341" rx="18" fill="white"/>
</clipPath>
</defs>
</svg>
