<svg width="1144" height="275" viewBox="0 0 1144 275" fill="none" xmlns="http://www.w3.org/2000/svg">
<g clip-path="url(#clip0_769_5287)">
<rect width="1144" height="275" rx="18" fill="white"/>
<rect width="1144" height="333" rx="14" fill="url(#paint0_linear_769_5287)"/>
<g clip-path="url(#clip1_769_5287)">
<path d="M58.2857 66.4286C58.2857 73.7031 61.1755 80.6796 66.3194 85.8235C71.4632 90.9674 78.4398 93.8571 85.7143 93.8571C92.9888 93.8571 99.9654 90.9674 105.109 85.8235C110.253 80.6796 113.143 73.7031 113.143 66.4286C113.143 59.1541 110.253 52.1775 105.109 47.0336C99.9654 41.8898 92.9888 39 85.7143 39C78.4398 39 71.4632 41.8898 66.3194 47.0336C61.1755 52.1775 58.2857 59.1541 58.2857 66.4286ZM120 118.479C113.858 111.515 105.741 106.586 96.7297 104.349C87.7179 102.111 78.2384 102.671 69.5527 105.954C60.8669 109.237 53.3867 115.087 48.1075 122.725C42.8283 130.364 40.0004 139.429 40 148.714C40 149.927 40.4816 151.089 41.3389 151.947C42.1962 152.804 43.359 153.286 44.5714 153.286H106.56C103.012 151.322 100.217 148.235 98.6144 144.51C97.0123 140.785 96.6939 136.633 97.7095 132.707C98.725 128.78 101.017 125.303 104.224 122.822C107.432 120.341 111.373 118.996 115.429 119H120V118.479Z" fill="white" fill-opacity="0.5"/>
<path fill-rule="evenodd" clip-rule="evenodd" d="M138.287 107.571C140.105 107.571 141.849 108.294 143.135 109.58C144.421 110.866 145.144 112.61 145.144 114.428V130.428H161.144C162.962 130.428 164.706 131.151 165.992 132.437C167.278 133.723 168.001 135.467 168.001 137.286C168.001 139.104 167.278 140.848 165.992 142.134C164.706 143.42 162.962 144.143 161.144 144.143H145.144V160.143C145.144 161.961 144.421 163.705 143.135 164.991C141.849 166.277 140.105 167 138.287 167C136.468 167 134.724 166.277 133.438 164.991C132.152 163.705 131.429 161.961 131.429 160.143V144.143H115.429C113.611 144.143 111.867 143.42 110.581 142.134C109.295 140.848 108.572 139.104 108.572 137.286C108.572 135.467 109.295 133.723 110.581 132.437C111.867 131.151 113.611 130.428 115.429 130.428H131.429V114.428C131.429 112.61 132.152 110.866 133.438 109.58C134.724 108.294 136.468 107.571 138.287 107.571Z" fill="#8FBFFA" fill-opacity="0.5"/>
</g>
<g clip-path="url(#clip2_769_5287)">
<path d="M959.714 126.071C959.714 138.29 964.568 150.009 973.208 158.649C981.848 167.289 993.567 172.143 1005.79 172.143C1018 172.143 1029.72 167.289 1038.36 158.649C1047 150.009 1051.86 138.29 1051.86 126.071C1051.86 113.853 1047 102.134 1038.36 93.494C1029.72 84.8539 1018 80 1005.79 80C993.567 80 981.848 84.8539 973.208 93.494C964.568 102.134 959.714 113.853 959.714 126.071ZM1063.37 213.5C1053.06 201.802 1039.43 193.524 1024.29 189.765C1009.15 186.007 993.229 186.948 978.639 192.462C964.05 197.976 951.486 207.802 942.618 220.632C933.751 233.463 929.001 248.689 929 264.286C929 266.322 929.809 268.275 931.249 269.715C932.689 271.155 934.642 271.964 936.679 271.964H1040.8C1034.84 268.667 1030.15 263.481 1027.45 257.224C1024.76 250.967 1024.23 243.992 1025.93 237.398C1027.64 230.803 1031.49 224.963 1036.88 220.795C1042.26 216.627 1048.88 214.369 1055.7 214.375H1063.37V213.5Z" fill="white" fill-opacity="0.5"/>
<path fill-rule="evenodd" clip-rule="evenodd" d="M1094.09 195.179C1097.14 195.179 1100.07 196.392 1102.23 198.552C1104.39 200.712 1105.61 203.642 1105.61 206.697V233.572H1132.48C1135.54 233.572 1138.47 234.785 1140.63 236.945C1142.79 239.105 1144 242.035 1144 245.089C1144 248.144 1142.79 251.074 1140.63 253.234C1138.47 255.394 1135.54 256.607 1132.48 256.607H1105.61V283.482C1105.61 286.537 1104.39 289.467 1102.23 291.627C1100.07 293.787 1097.14 295 1094.09 295C1091.03 295 1088.1 293.787 1085.94 291.627C1083.78 289.467 1082.57 286.537 1082.57 283.482V256.607H1055.7C1052.64 256.607 1049.71 255.394 1047.55 253.234C1045.39 251.074 1044.18 248.144 1044.18 245.089C1044.18 242.035 1045.39 239.105 1047.55 236.945C1049.71 234.785 1052.64 233.572 1055.7 233.572H1082.57V206.697C1082.57 203.642 1083.78 200.712 1085.94 198.552C1088.1 196.392 1091.03 195.179 1094.09 195.179Z" fill="#8FBFFA" fill-opacity="0.5"/>
</g>
</g>
<defs>
<linearGradient id="paint0_linear_769_5287" x1="572" y1="9.92417e-06" x2="572" y2="333" gradientUnits="userSpaceOnUse">
<stop offset="0.389423" stop-color="#4F39F6"/>
<stop offset="0.658654" stop-color="#8A7AF9"/>
<stop offset="1" stop-color="#FEF9FF"/>
</linearGradient>
<clipPath id="clip0_769_5287">
<rect width="1144" height="275" rx="18" fill="white"/>
</clipPath>
<clipPath id="clip1_769_5287">
<rect width="128" height="128" fill="white" transform="translate(40 39)"/>
</clipPath>
<clipPath id="clip2_769_5287">
<rect width="215" height="215" fill="white" transform="translate(929 80)"/>
</clipPath>
</defs>
</svg>
