<svg width="1144" height="275" viewBox="0 0 1144 275" fill="none" xmlns="http://www.w3.org/2000/svg">
<g clip-path="url(#clip0_769_5256)">
<rect width="1144" height="275" rx="18" fill="white"/>
<rect width="1144" height="333" rx="14" fill="url(#paint0_linear_769_5256)"/>
<path d="M84 94.8C91.0017 94.8 97.7167 92.0186 102.668 87.0676C107.619 82.1167 110.4 75.4017 110.4 68.4C110.4 61.3983 107.619 54.6833 102.668 49.7324C97.7167 44.7814 91.0017 42 84 42C76.9983 42 70.2833 44.7814 65.3324 49.7324C60.3814 54.6833 57.6 61.3983 57.6 68.4C57.6 75.4017 60.3814 82.1167 65.3324 87.0676C70.2833 92.0186 76.9983 94.8 84 94.8ZM40 147.6C40 135.93 44.6357 124.739 52.8873 116.487C61.1389 108.236 72.3305 103.6 84 103.6C95.6695 103.6 106.861 108.236 115.113 116.487C123.364 124.739 128 135.93 128 147.6C128 148.767 127.536 149.886 126.711 150.711C125.886 151.536 124.767 152 123.6 152H44.4C43.233 152 42.1139 151.536 41.2887 150.711C40.4636 149.886 40 148.767 40 147.6Z" fill="white" fill-opacity="0.5"/>
<path fill-rule="evenodd" clip-rule="evenodd" d="M138.373 151.996H158.807C159.974 151.996 161.093 151.532 161.918 150.707C162.743 149.882 163.207 148.763 163.207 147.596C163.207 141.638 161.997 135.743 159.65 130.267C157.304 124.791 153.87 119.849 149.557 115.74C145.243 111.63 140.141 108.44 134.558 106.362C128.975 104.283 123.028 103.36 117.077 103.648C123.893 108.769 129.423 115.406 133.229 123.034C137.036 130.661 139.014 139.071 139.007 147.596C139.007 149.133 138.796 150.599 138.373 151.996ZM111.568 93.678C115.511 94.8658 119.678 95.1147 123.734 94.4048C127.791 93.6948 131.625 92.0458 134.93 89.5895C138.235 87.1331 140.92 83.9376 142.77 80.2583C144.62 76.5791 145.583 72.5181 145.583 68.4C145.583 64.2819 144.62 60.2209 142.77 56.5417C140.92 52.8624 138.235 49.6669 134.93 47.2105C131.625 44.7542 127.791 43.1052 123.734 42.3952C119.678 41.6853 115.511 41.9342 111.568 43.122C117.902 50.0142 121.414 59.0352 121.407 68.3956C121.416 77.759 117.904 86.7835 111.568 93.678Z" fill="#8FBFFA" fill-opacity="0.5"/>
<path d="M1001.07 183.884C1015.24 183.884 1028.84 178.253 1038.86 168.231C1048.88 158.209 1054.51 144.615 1054.51 130.442C1054.51 116.268 1048.88 102.675 1038.86 92.6528C1028.84 82.6305 1015.24 77 1001.07 77C986.896 77 973.303 82.6305 963.281 92.6528C953.258 102.675 947.628 116.268 947.628 130.442C947.628 144.615 953.258 158.209 963.281 168.231C973.303 178.253 986.896 183.884 1001.07 183.884ZM912 290.767C912 267.145 921.384 244.489 938.088 227.786C954.792 211.082 977.447 201.698 1001.07 201.698C1024.69 201.698 1047.35 211.082 1064.05 227.786C1080.76 244.489 1090.14 267.145 1090.14 290.767C1090.14 293.13 1089.2 295.395 1087.53 297.066C1085.86 298.736 1083.59 299.674 1081.23 299.674H920.907C918.545 299.674 916.279 298.736 914.609 297.066C912.938 295.395 912 293.13 912 290.767Z" fill="white" fill-opacity="0.3"/>
<path fill-rule="evenodd" clip-rule="evenodd" d="M1111.14 299.665H1152.5C1154.87 299.665 1157.13 298.727 1158.8 297.057C1160.47 295.386 1161.41 293.121 1161.41 290.758C1161.41 278.699 1158.96 266.765 1154.21 255.68C1149.46 244.595 1142.51 234.59 1133.78 226.272C1125.05 217.954 1114.72 211.495 1103.42 207.288C1092.11 203.08 1080.08 201.212 1068.03 201.796C1081.83 212.161 1093.02 225.596 1100.73 241.037C1108.43 256.478 1112.44 273.502 1112.42 290.758C1112.42 293.87 1112 296.839 1111.14 299.665ZM1056.88 181.612C1064.86 184.017 1073.29 184.521 1081.51 183.084C1089.72 181.646 1097.48 178.308 1104.17 173.336C1110.86 168.364 1116.3 161.895 1120.04 154.447C1123.78 146.999 1125.74 138.778 1125.74 130.442C1125.74 122.106 1123.78 113.885 1120.04 106.437C1116.3 98.9889 1110.86 92.5202 1104.17 87.5478C1097.48 82.5754 1089.72 79.2372 1081.51 77.8001C1073.29 76.363 1064.86 76.8668 1056.88 79.2713C1069.7 93.2233 1076.81 111.485 1076.79 130.433C1076.81 149.387 1069.7 167.656 1056.88 181.612Z" fill="#8FBFFA" fill-opacity="0.3"/>
</g>
<defs>
<linearGradient id="paint0_linear_769_5256" x1="572" y1="9.92417e-06" x2="572" y2="333" gradientUnits="userSpaceOnUse">
<stop offset="0.389423" stop-color="#4F39F6"/>
<stop offset="0.658654" stop-color="#8A7AF9"/>
<stop offset="1" stop-color="#FEF9FF"/>
</linearGradient>
<clipPath id="clip0_769_5256">
<rect width="1144" height="275" rx="18" fill="white"/>
</clipPath>
</defs>
</svg>
