<svg width="1144" height="275" viewBox="0 0 1144 275" fill="none" xmlns="http://www.w3.org/2000/svg">
<g clip-path="url(#clip0_749_8)">
<rect width="1144" height="275" rx="18" fill="white"/>
<rect width="1144" height="333" rx="14" fill="url(#paint0_linear_749_8)"/>
<path d="M1028.07 200.9C1024.58 200.9 1021.11 201.615 1017.89 203.013L931.073 243.532L930.861 243.638C928.196 244.981 925.957 247.038 924.393 249.579C922.828 252.12 922 255.045 922 258.029C922 261.012 922.828 263.938 924.393 266.478C925.957 269.019 928.196 271.076 930.861 272.419L931.089 272.526L1017.75 312.664L1017.9 312.74C1021.12 314.138 1024.58 314.859 1028.09 314.859C1031.59 314.859 1035.06 314.138 1038.28 312.74L1125.11 272.206L1125.32 272.115C1127.98 270.772 1130.22 268.715 1131.79 266.174C1133.35 263.634 1134.18 260.708 1134.18 257.725C1134.18 254.741 1133.35 251.816 1131.79 249.275C1130.22 246.734 1127.98 244.677 1125.32 243.334L1125.09 243.228L1038.43 203.089L1038.28 203.013C1035.06 201.62 1031.59 200.896 1028.09 200.885L1028.07 200.9Z" fill="white" fill-opacity="0.4"/>
<path d="M1028.09 151.442C1024.59 151.442 1021.13 152.172 1017.9 153.571L931.09 194.074L930.877 194.181C928.216 195.525 925.981 197.582 924.42 200.121C922.858 202.66 922.031 205.582 922.031 208.563C922.031 211.544 922.858 214.467 924.42 217.006C925.981 219.545 928.216 221.601 930.877 222.946L931.105 223.068L1017.77 263.206L1017.92 263.282C1021.13 264.68 1024.6 265.401 1028.11 265.401C1031.61 265.401 1035.08 264.68 1038.29 263.282L1125.12 222.749L1125.33 222.642C1127.99 221.297 1130.23 219.241 1131.79 216.702C1133.35 214.163 1134.18 211.24 1134.18 208.259C1134.18 205.278 1133.35 202.356 1131.79 199.817C1130.23 197.278 1127.99 195.221 1125.33 193.876L1125.11 193.755L1038.44 153.617L1038.29 153.541C1035.07 152.156 1031.6 151.442 1028.09 151.442Z" fill="#7B5FBC" fill-opacity="0.6"/>
<path d="M1028.07 102C1024.58 102 1021.11 102.715 1017.89 104.113L931.073 144.647L930.861 144.738C928.196 146.081 925.957 148.138 924.393 150.679C922.828 153.22 922 156.145 922 159.129C922 162.112 922.828 165.038 924.393 167.578C925.957 170.119 928.196 172.176 930.861 173.519L931.089 173.626L1017.75 213.764L1017.9 213.84C1021.12 215.238 1024.58 215.959 1028.09 215.959C1031.59 215.959 1035.06 215.238 1038.28 213.84L1125.11 173.321L1125.32 173.215C1127.98 171.872 1130.22 169.815 1131.79 167.274C1133.35 164.734 1134.18 161.808 1134.18 158.825C1134.18 155.841 1133.35 152.916 1131.79 150.375C1130.22 147.834 1127.98 145.777 1125.32 144.434L1125.09 144.328L1038.43 104.189L1038.28 104.113C1035.05 102.724 1031.58 102.005 1028.07 102Z" fill="white" fill-opacity="0.4"/>
<path d="M93.8231 84.2502C92.0817 84.2502 90.3555 84.6061 88.7504 85.3027L45.5184 105.48L45.4124 105.533C44.0856 106.202 42.9706 107.226 42.1916 108.491C41.4125 109.757 41 111.213 41 112.699C41 114.185 41.4125 115.642 42.1916 116.907C42.9706 118.172 44.0856 119.197 45.4124 119.865L45.526 119.918L88.6822 139.907L88.7579 139.945C90.3585 140.641 92.0853 141 93.8307 141C95.5761 141 97.3028 140.641 98.9034 139.945L142.143 119.76L142.249 119.714C143.576 119.045 144.691 118.021 145.47 116.756C146.249 115.49 146.661 114.034 146.661 112.548C146.661 111.062 146.249 109.605 145.47 108.34C144.691 107.075 143.576 106.051 142.249 105.382L142.135 105.329L98.9791 85.3405L98.9034 85.3027C97.3019 84.6091 95.576 84.2484 93.8307 84.2427L93.8231 84.2502Z" fill="white" fill-opacity="0.4"/>
<path d="M93.8312 59.6216C92.0898 59.6216 90.3636 59.985 88.7585 60.6816L45.5265 80.8514L45.4205 80.9044C44.0957 81.5741 42.9826 82.5981 42.205 83.8626C41.4273 85.127 41.0156 86.5824 41.0156 88.0668C41.0156 89.5513 41.4273 91.0067 42.205 92.2711C42.9826 93.5356 44.0957 94.5596 45.4205 95.2293L45.5341 95.2898L88.6903 115.278L88.7661 115.316C90.3667 116.012 92.0934 116.371 93.8388 116.371C95.5842 116.371 97.311 116.012 98.9116 115.316L142.151 95.1308L142.257 95.0778C143.582 94.4081 144.695 93.3841 145.473 92.1197C146.25 90.8552 146.662 89.3999 146.662 87.9154C146.662 86.431 146.25 84.9756 145.473 83.7112C144.695 82.4467 143.582 81.4227 142.257 80.753L142.144 80.6924L98.9873 60.7043L98.9116 60.6664C97.3066 59.977 95.578 59.6215 93.8312 59.6216Z" fill="#7B5FBC" fill-opacity="0.6"/>
<path d="M93.8231 35C92.0817 35 90.3555 35.3558 88.7504 36.0524L45.5184 56.2374L45.4124 56.2828C44.0856 56.9518 42.9706 57.9759 42.1916 59.2412C41.4125 60.5065 41 61.9632 41 63.449C41 64.9349 41.4125 66.3916 42.1916 67.6569C42.9706 68.9222 44.0856 69.9463 45.4124 70.6153L45.526 70.6683L88.6822 90.6564L88.7579 90.6943C90.3585 91.3904 92.0853 91.7496 93.8307 91.7496C95.5761 91.7496 97.3028 91.3904 98.9034 90.6943L142.143 70.5168L142.249 70.4638C143.576 69.7949 144.691 68.7707 145.47 67.5055C146.249 66.2402 146.661 64.7835 146.661 63.2976C146.661 61.8117 146.249 60.355 145.47 59.0898C144.691 57.8245 143.576 56.8004 142.249 56.1314L142.135 56.0784L98.9791 36.0903L98.9034 36.0524C97.299 35.3604 95.5704 35.0023 93.8231 35Z" fill="white" fill-opacity="0.4"/>
</g>
<defs>
<linearGradient id="paint0_linear_749_8" x1="572" y1="9.92417e-06" x2="572" y2="333" gradientUnits="userSpaceOnUse">
<stop offset="0.389423" stop-color="#4F39F6"/>
<stop offset="0.658654" stop-color="#8A7AF9"/>
<stop offset="1" stop-color="#FEF9FF"/>
</linearGradient>
<clipPath id="clip0_749_8">
<rect width="1144" height="275" rx="18" fill="white"/>
</clipPath>
</defs>
</svg>
