<svg width="1144" height="275" viewBox="0 0 1144 275" fill="none" xmlns="http://www.w3.org/2000/svg">
<g clip-path="url(#clip0_769_5278)">
<rect width="1144" height="275" rx="18" fill="white"/>
<rect width="1144" height="333" rx="14" fill="url(#paint0_linear_769_5278)"/>
<g clip-path="url(#clip1_769_5278)">
<path d="M98.0625 49C126.816 49 150.125 72.3092 150.125 101.062C150.125 129.816 126.816 153.125 98.0625 153.125C69.3092 153.125 46 129.816 46 101.062C46 72.3092 69.3092 49 98.0625 49ZM94.3438 97.3438H72.0312V104.781H94.3438V127.094H101.781V104.781H124.094V97.3438H101.781V75.0312H94.3438V97.3438Z" fill="white" fill-opacity="0.5"/>
<path d="M53.875 131.25C57.8201 131.25 61.6036 132.817 64.3932 135.607C67.1828 138.396 68.75 142.18 68.75 146.125C68.75 150.07 67.1828 153.854 64.3932 156.643C61.6036 159.433 57.8201 161 53.875 161C49.9299 161 46.1464 159.433 43.3568 156.643C40.5672 153.854 39 150.07 39 146.125C39 142.18 40.5672 138.396 43.3568 135.607C46.1464 132.817 49.9299 131.25 53.875 131.25ZM143.125 131.25C147.07 131.25 150.854 132.817 153.643 135.607C156.433 138.396 158 142.18 158 146.125C158 150.07 156.433 153.854 153.643 156.643C150.854 159.433 147.07 161 143.125 161C139.18 161 135.396 159.433 132.607 156.643C129.817 153.854 128.25 150.07 128.25 146.125C128.25 142.18 129.817 138.396 132.607 135.607C135.396 132.817 139.18 131.25 143.125 131.25ZM53.875 138.688C51.9025 138.688 50.0107 139.471 48.6159 140.866C47.2211 142.261 46.4375 144.152 46.4375 146.125C46.4375 148.098 47.2211 149.989 48.6159 151.384C50.0107 152.779 51.9025 153.562 53.875 153.562C55.8475 153.562 57.7393 152.779 59.1341 151.384C60.5289 149.989 61.3125 148.098 61.3125 146.125C61.3125 144.152 60.5289 142.261 59.1341 140.866C57.7393 139.471 55.8475 138.688 53.875 138.688ZM143.125 138.688C141.152 138.688 139.261 139.471 137.866 140.866C136.471 142.261 135.688 144.152 135.688 146.125C135.688 148.098 136.471 149.989 137.866 151.384C139.261 152.779 141.152 153.562 143.125 153.562C145.098 153.562 146.989 152.779 148.384 151.384C149.779 149.989 150.562 148.098 150.562 146.125C150.562 144.152 149.779 142.261 148.384 140.866C146.989 139.471 145.098 138.688 143.125 138.688ZM53.875 42C57.8201 42 61.6036 43.5672 64.3932 46.3568C67.1828 49.1464 68.75 52.9299 68.75 56.875C68.75 60.8201 67.1828 64.6036 64.3932 67.3932C61.6036 70.1828 57.8201 71.75 53.875 71.75C49.9299 71.75 46.1464 70.1828 43.3568 67.3932C40.5672 64.6036 39 60.8201 39 56.875C39 52.9299 40.5672 49.1464 43.3568 46.3568C46.1464 43.5672 49.9299 42 53.875 42ZM143.125 42C147.07 42 150.854 43.5672 153.643 46.3568C156.433 49.1464 158 52.9299 158 56.875C158 60.8201 156.433 64.6036 153.643 67.3932C150.854 70.1828 147.07 71.75 143.125 71.75C139.18 71.75 135.396 70.1828 132.607 67.3932C129.817 64.6036 128.25 60.8201 128.25 56.875C128.25 52.9299 129.817 49.1464 132.607 46.3568C135.396 43.5672 139.18 42 143.125 42ZM143.125 49.4375C141.152 49.4375 139.261 50.2211 137.866 51.6159C136.471 53.0107 135.688 54.9025 135.688 56.875C135.688 58.8475 136.471 60.7393 137.866 62.1341C139.261 63.5289 141.152 64.3125 143.125 64.3125C145.098 64.3125 146.989 63.5289 148.384 62.1341C149.779 60.7393 150.562 58.8475 150.562 56.875C150.562 54.9025 149.779 53.0107 148.384 51.6159C146.989 50.2211 145.098 49.4375 143.125 49.4375ZM53.875 49.4375C51.9025 49.4375 50.0107 50.2211 48.6159 51.6159C47.2211 53.0107 46.4375 54.9025 46.4375 56.875C46.4375 58.8475 47.2211 60.7393 48.6159 62.1341C50.0107 63.5289 51.9025 64.3125 53.875 64.3125C55.8475 64.3125 57.7393 63.5289 59.1341 62.1341C60.5289 60.7393 61.3125 58.8475 61.3125 56.875C61.3125 54.9025 60.5289 53.0107 59.1341 51.6159C57.7393 50.2211 55.8475 49.4375 53.875 49.4375Z" fill="#8FBFFA" fill-opacity="0.5"/>
<path d="M117.384 150.03C117.763 152.547 118.499 154.946 119.548 157.17C112.821 159.708 105.69 161.005 98.5 161C91.0885 161 83.9969 159.646 77.4519 157.17C78.4969 154.946 79.2369 152.547 79.6162 150.03C85.4695 152.313 91.8397 153.563 98.5 153.563C105.16 153.563 111.531 152.313 117.384 150.03ZM154.17 80.4519C156.708 87.1789 158.005 94.3102 158 101.5C158 108.911 156.646 116.003 154.17 122.548C151.906 121.488 149.501 120.759 147.03 120.384C149.313 114.531 150.563 108.16 150.563 101.5C150.563 94.8397 149.313 88.4695 147.03 82.6162C149.501 82.2413 151.906 81.5124 154.17 80.4519ZM42.8303 80.4519C45.0541 81.4969 47.4527 82.2369 49.9703 82.6162C47.6315 88.6372 46.4335 95.0408 46.4375 101.5C46.4375 108.16 47.687 114.531 49.9703 120.384C47.4988 120.759 45.0941 121.488 42.8303 122.548C40.2923 115.821 38.9946 108.69 39 101.5C39 94.0885 40.3536 86.9969 42.8303 80.4519ZM98.5 42C105.911 42 113.003 43.3536 119.548 45.8303C118.488 48.0941 117.759 50.4988 117.384 52.9703C111.363 50.6315 104.959 49.4335 98.5 49.4375C91.8397 49.4375 85.4695 50.687 79.6162 52.9703C79.2413 50.4988 78.5124 48.0941 77.4519 45.8303C84.1789 43.2923 91.3102 41.9946 98.5 42Z" fill="#8FBFFA" fill-opacity="0.5"/>
</g>
<g clip-path="url(#clip2_769_5278)">
<path d="M1057.04 86.4116C1120.34 86.4116 1171.66 137.731 1171.66 201.037C1171.66 264.342 1120.34 315.662 1057.04 315.662C993.731 315.662 942.412 264.342 942.412 201.037C942.412 137.731 993.731 86.4116 1057.04 86.4116ZM1048.85 192.849H999.725V209.224H1048.85V258.349H1065.22V209.224H1114.35V192.849H1065.22V143.724H1048.85V192.849Z" fill="white" fill-opacity="0.3"/>
<path d="M959.75 267.5C968.436 267.5 976.766 270.95 982.908 277.092C989.05 283.234 992.5 291.564 992.5 300.25C992.5 308.936 989.05 317.266 982.908 323.408C976.766 329.55 968.436 333 959.75 333C951.064 333 942.734 329.55 936.592 323.408C930.45 317.266 927 308.936 927 300.25C927 291.564 930.45 283.234 936.592 277.092C942.734 270.95 951.064 267.5 959.75 267.5ZM1156.25 267.5C1164.94 267.5 1173.27 270.95 1179.41 277.092C1185.55 283.234 1189 291.564 1189 300.25C1189 308.936 1185.55 317.266 1179.41 323.408C1173.27 329.55 1164.94 333 1156.25 333C1147.56 333 1139.23 329.55 1133.09 323.408C1126.95 317.266 1123.5 308.936 1123.5 300.25C1123.5 291.564 1126.95 283.234 1133.09 277.092C1139.23 270.95 1147.56 267.5 1156.25 267.5ZM959.75 283.875C955.407 283.875 951.242 285.6 948.171 288.671C945.1 291.742 943.375 295.907 943.375 300.25C943.375 304.593 945.1 308.758 948.171 311.829C951.242 314.9 955.407 316.625 959.75 316.625C964.093 316.625 968.258 314.9 971.329 311.829C974.4 308.758 976.125 304.593 976.125 300.25C976.125 295.907 974.4 291.742 971.329 288.671C968.258 285.6 964.093 283.875 959.75 283.875ZM1156.25 283.875C1151.91 283.875 1147.74 285.6 1144.67 288.671C1141.6 291.742 1139.87 295.907 1139.87 300.25C1139.87 304.593 1141.6 308.758 1144.67 311.829C1147.74 314.9 1151.91 316.625 1156.25 316.625C1160.59 316.625 1164.76 314.9 1167.83 311.829C1170.9 308.758 1172.62 304.593 1172.62 300.25C1172.62 295.907 1170.9 291.742 1167.83 288.671C1164.76 285.6 1160.59 283.875 1156.25 283.875ZM959.75 71C968.436 71 976.766 74.4504 982.908 80.5923C989.05 86.7341 992.5 95.0642 992.5 103.75C992.5 112.436 989.05 120.766 982.908 126.908C976.766 133.05 968.436 136.5 959.75 136.5C951.064 136.5 942.734 133.05 936.592 126.908C930.45 120.766 927 112.436 927 103.75C927 95.0642 930.45 86.7341 936.592 80.5923C942.734 74.4504 951.064 71 959.75 71ZM1156.25 71C1164.94 71 1173.27 74.4504 1179.41 80.5923C1185.55 86.7341 1189 95.0642 1189 103.75C1189 112.436 1185.55 120.766 1179.41 126.908C1173.27 133.05 1164.94 136.5 1156.25 136.5C1147.56 136.5 1139.23 133.05 1133.09 126.908C1126.95 120.766 1123.5 112.436 1123.5 103.75C1123.5 95.0642 1126.95 86.7341 1133.09 80.5923C1139.23 74.4504 1147.56 71 1156.25 71ZM1156.25 87.375C1151.91 87.375 1147.74 89.1002 1144.67 92.1711C1141.6 95.242 1139.87 99.4071 1139.87 103.75C1139.87 108.093 1141.6 112.258 1144.67 115.329C1147.74 118.4 1151.91 120.125 1156.25 120.125C1160.59 120.125 1164.76 118.4 1167.83 115.329C1170.9 112.258 1172.62 108.093 1172.62 103.75C1172.62 99.4071 1170.9 95.242 1167.83 92.1711C1164.76 89.1002 1160.59 87.375 1156.25 87.375ZM959.75 87.375C955.407 87.375 951.242 89.1002 948.171 92.1711C945.1 95.242 943.375 99.4071 943.375 103.75C943.375 108.093 945.1 112.258 948.171 115.329C951.242 118.4 955.407 120.125 959.75 120.125C964.093 120.125 968.258 118.4 971.329 115.329C974.4 112.258 976.125 108.093 976.125 103.75C976.125 99.4071 974.4 95.242 971.329 92.1711C968.258 89.1002 964.093 87.375 959.75 87.375Z" fill="#8FBFFA" fill-opacity="0.3"/>
<path d="M1099.58 308.847C1100.41 314.39 1102.03 319.671 1104.34 324.567C1089.53 330.155 1073.83 333.012 1058 333C1041.68 333 1026.07 330.02 1011.66 324.567C1013.96 319.671 1015.59 314.39 1016.42 308.847C1029.31 313.874 1043.34 316.625 1058 316.625C1072.66 316.625 1086.69 313.874 1099.58 308.847ZM1180.57 155.659C1186.15 170.469 1189.01 186.17 1189 202C1189 218.318 1186.02 233.931 1180.57 248.341C1175.58 246.006 1170.29 244.401 1164.85 243.576C1169.87 230.689 1172.63 216.664 1172.63 202C1172.63 187.336 1169.87 173.311 1164.85 160.424C1170.29 159.599 1175.58 157.994 1180.57 155.659ZM935.433 155.659C940.329 157.959 945.61 159.589 951.153 160.424C946.004 173.68 943.366 187.779 943.375 202C943.375 216.664 946.126 230.689 951.153 243.576C945.712 244.401 940.417 246.006 935.433 248.341C929.845 233.531 926.988 217.83 927 202C927 185.682 929.98 170.069 935.433 155.659ZM1058 71C1074.32 71 1089.93 73.9803 1104.34 79.4332C1102.01 84.4172 1100.4 89.7115 1099.58 95.1532C1086.32 90.0038 1072.22 87.3662 1058 87.375C1043.34 87.375 1029.31 90.126 1016.42 95.1532C1015.6 89.7115 1013.99 84.4172 1011.66 79.4332C1026.47 73.8453 1042.17 70.9881 1058 71Z" fill="#8FBFFA" fill-opacity="0.3"/>
</g>
</g>
<defs>
<linearGradient id="paint0_linear_769_5278" x1="572" y1="9.92417e-06" x2="572" y2="333" gradientUnits="userSpaceOnUse">
<stop offset="0.389423" stop-color="#4F39F6"/>
<stop offset="0.658654" stop-color="#8A7AF9"/>
<stop offset="1" stop-color="#FEF9FF"/>
</linearGradient>
<clipPath id="clip0_769_5278">
<rect width="1144" height="275" rx="18" fill="white"/>
</clipPath>
<clipPath id="clip1_769_5278">
<rect width="119" height="119" fill="white" transform="translate(39 42)"/>
</clipPath>
<clipPath id="clip2_769_5278">
<rect width="262" height="262" fill="white" transform="translate(927 71)"/>
</clipPath>
</defs>
</svg>
