<svg width="1144" height="275" viewBox="0 0 1144 275" fill="none" xmlns="http://www.w3.org/2000/svg">
<g clip-path="url(#clip0_772_5806)">
<rect width="1144" height="275" rx="18" fill="white"/>
<rect width="1144" height="333" rx="14" fill="url(#paint0_linear_772_5806)"/>
<rect x="41.3066" y="31.1113" width="132.245" height="105.796" rx="21" fill="white" fill-opacity="0.5"/>
<path d="M84.2857 84H130.571M107.429 60.8571V107.143M61.1429 138C57.0509 138 53.1266 136.374 50.2332 133.481C47.3398 130.588 45.7143 126.663 45.7143 122.571V91.7143L38 84L45.7143 76.2857V45.4286C45.7143 41.3367 47.3398 37.4123 50.2332 34.5189C53.1266 31.6255 57.0509 30 61.1429 30M153.714 138C157.806 138 161.731 136.374 164.624 133.481C167.517 130.588 169.143 126.663 169.143 122.571V91.7143L176.857 84L169.143 76.2857V45.4286C169.143 41.3367 167.517 37.4123 164.624 34.5189C161.731 31.6255 157.806 30 153.714 30" stroke="#5288FF" stroke-width="9" stroke-linecap="round" stroke-linejoin="round"/>
<rect x="946.215" y="106.753" width="208.571" height="166.857" rx="21" fill="white" fill-opacity="0.4"/>
<path d="M1014 190.167H1087M1050.5 153.667V226.667M977.5 275.333C971.046 275.333 964.857 272.77 960.294 268.206C955.73 263.643 953.167 257.454 953.167 251V202.333L941 190.167L953.167 178V129.333C953.167 122.88 955.73 116.69 960.294 112.127C964.857 107.564 971.046 105 977.5 105M1123.5 275.333C1129.95 275.333 1136.14 272.77 1140.71 268.206C1145.27 263.643 1147.83 257.454 1147.83 251V202.333L1160 190.167L1147.83 178V129.333C1147.83 122.88 1145.27 116.69 1140.71 112.127C1136.14 107.564 1129.95 105 1123.5 105" stroke="#5288FF" stroke-opacity="0.6" stroke-width="15" stroke-linecap="round" stroke-linejoin="round"/>
</g>
<defs>
<linearGradient id="paint0_linear_772_5806" x1="572" y1="9.92417e-06" x2="572" y2="333" gradientUnits="userSpaceOnUse">
<stop offset="0.389423" stop-color="#4F39F6"/>
<stop offset="0.658654" stop-color="#8A7AF9"/>
<stop offset="1" stop-color="#FEF9FF"/>
</linearGradient>
<clipPath id="clip0_772_5806">
<rect width="1144" height="275" rx="18" fill="white"/>
</clipPath>
</defs>
</svg>
