<svg width="1144" height="275" viewBox="0 0 1144 275" fill="none" xmlns="http://www.w3.org/2000/svg">
<g clip-path="url(#clip0_770_5346)">
<rect width="1144" height="275" rx="18" fill="white"/>
<rect width="1144" height="333" rx="14" fill="url(#paint0_linear_770_5346)"/>
<path d="M109.5 125.5H93V133.75H109.5V150.25H117.75V133.75H134.25V125.5H117.75V109H109.5V125.5ZM61.0312 96.2812H87.5V103.844H61.0312V96.2812ZM61.0312 77.375H106.406V84.9375H61.0312V77.375ZM61.0312 58.4688H106.406V66.0312H61.0312V58.4688Z" fill="white" fill-opacity="0.5"/>
<path d="M87.5 145.438H49.6875C45.5168 145.438 42.125 142.046 42.125 137.875V47.125C42.125 42.9543 45.5168 39.5625 49.6875 39.5625H117.75C121.921 39.5625 125.312 42.9543 125.312 47.125V103.844H117.75V47.125H49.6875V137.875H87.5V145.438Z" fill="white" fill-opacity="0.5"/>
<path d="M1080.68 213.773H1053.55V227.341H1080.68V254.477H1094.25V227.341H1121.39V213.773H1094.25V186.636H1080.68V213.773ZM1000.97 165.719H1044.5V178.156H1000.97V165.719ZM1000.97 134.625H1075.59V147.062H1000.97V134.625ZM1000.97 103.531H1075.59V115.969H1000.97V103.531Z" fill="white" fill-opacity="0.3"/>
<path d="M1044.5 246.562H982.312C975.453 246.562 969.875 240.984 969.875 234.125V84.875C969.875 78.0157 975.453 72.4375 982.312 72.4375H1094.25C1101.11 72.4375 1106.69 78.0157 1106.69 84.875V178.156H1094.25V84.875H982.312V234.125H1044.5V246.562Z" fill="white" fill-opacity="0.3"/>
</g>
<defs>
<linearGradient id="paint0_linear_770_5346" x1="572" y1="9.92417e-06" x2="572" y2="333" gradientUnits="userSpaceOnUse">
<stop offset="0.389423" stop-color="#4F39F6"/>
<stop offset="0.658654" stop-color="#8A7AF9"/>
<stop offset="1" stop-color="#FEF9FF"/>
</linearGradient>
<clipPath id="clip0_770_5346">
<rect width="1144" height="275" rx="18" fill="white"/>
</clipPath>
</defs>
</svg>
