<svg width="1144" height="275" viewBox="0 0 1144 275" fill="none" xmlns="http://www.w3.org/2000/svg">
<g clip-path="url(#clip0_765_5180)">
<rect width="1144" height="275" rx="18" fill="white"/>
<rect width="1144" height="333" rx="14" fill="url(#paint0_linear_765_5180)"/>
<path d="M134.962 71.3961C134.962 67.8532 133.555 64.4554 131.05 61.9502C128.544 59.445 125.147 58.0376 121.604 58.0376H50.3585C46.8156 58.0376 43.4178 59.445 40.9126 61.9502C38.4074 64.4554 37 67.8532 37 71.3961V142.641C37 146.184 38.4074 149.582 40.9126 152.087C43.4178 154.592 46.8156 156 50.3585 156H121.604C125.147 156 128.544 154.592 131.05 152.087C133.555 149.582 134.962 146.184 134.962 142.641V71.3961Z" fill="#8FBFFA" fill-opacity="0.5"/>
<path d="M154.999 51.3585C154.999 47.8156 153.592 44.4178 151.087 41.9126C148.582 39.4074 145.184 38 141.641 38H70.3956C66.8527 38 63.4549 39.4074 60.9497 41.9126C58.4445 44.4178 57.0371 47.8156 57.0371 51.3585V122.604C57.0371 126.147 58.4445 129.544 60.9497 132.05C63.4549 134.555 66.8527 135.962 70.3956 135.962H141.641C145.184 135.962 148.582 134.555 151.087 132.05C153.592 129.544 154.999 126.147 154.999 122.604V51.3585Z" fill="white" fill-opacity="0.5"/>
<path fill-rule="evenodd" clip-rule="evenodd" d="M92.6598 84.7549C92.6598 82.9835 91.956 81.2846 90.7034 80.032C89.4508 78.7794 87.752 78.0757 85.9805 78.0757C84.2091 78.0757 82.5102 78.7794 81.2576 80.032C80.005 81.2846 79.3013 82.9835 79.3013 84.7549V100.34H63.7164C61.9449 100.34 60.246 101.044 58.9934 102.296C57.7408 103.549 57.0371 105.248 57.0371 107.019C57.0371 108.791 57.7408 110.489 58.9934 111.742C60.246 112.995 61.9449 113.698 63.7164 113.698H79.3013V129.283C79.3013 131.055 80.005 132.754 81.2576 134.006C82.5102 135.259 84.2091 135.962 85.9805 135.962C87.752 135.962 89.4508 135.259 90.7034 134.006C91.956 132.754 92.6598 131.055 92.6598 129.283V113.698H108.245C110.016 113.698 111.715 112.995 112.968 111.742C114.22 110.489 114.924 108.791 114.924 107.019C114.924 105.248 114.22 103.549 112.968 102.296C111.715 101.044 110.016 100.34 108.245 100.34H92.6598V84.7549Z" fill="#858AFF" fill-opacity="0.5"/>
<path d="M1127.68 156.868C1127.68 150.622 1125.2 144.633 1120.78 140.217C1116.37 135.801 1110.38 133.32 1104.13 133.32H978.547C972.302 133.32 966.313 135.801 961.897 140.217C957.481 144.633 955 150.622 955 156.868V282.453C955 288.698 957.481 294.687 961.897 299.103C966.313 303.519 972.302 306 978.547 306H1104.13C1110.38 306 1116.37 303.519 1120.78 299.103C1125.2 294.687 1127.68 288.698 1127.68 282.453V156.868Z" fill="#8FBFFA" fill-opacity="0.3"/>
<path d="M1163 121.547C1163 115.302 1160.52 109.313 1156.1 104.897C1151.69 100.481 1145.7 98 1139.45 98H1013.87C1007.62 98 1001.63 100.481 997.217 104.897C992.801 109.313 990.32 115.302 990.32 121.547V247.132C990.32 253.378 992.801 259.367 997.217 263.783C1001.63 268.199 1007.62 270.68 1013.87 270.68H1139.45C1145.7 270.68 1151.69 268.199 1156.1 263.783C1160.52 259.367 1163 253.378 1163 247.132V121.547Z" fill="white" fill-opacity="0.3"/>
<path fill-rule="evenodd" clip-rule="evenodd" d="M1053.11 180.416C1053.11 177.293 1051.87 174.298 1049.66 172.09C1047.46 169.883 1044.46 168.642 1041.34 168.642C1038.22 168.642 1035.22 169.883 1033.01 172.09C1030.81 174.298 1029.57 177.293 1029.57 180.416V207.887H1002.09C998.971 207.887 995.977 209.128 993.769 211.336C991.561 213.544 990.32 216.539 990.32 219.661C990.32 222.784 991.561 225.778 993.769 227.986C995.977 230.194 998.971 231.435 1002.09 231.435H1029.57V258.906C1029.57 262.029 1030.81 265.024 1033.01 267.232C1035.22 269.44 1038.22 270.68 1041.34 270.68C1044.46 270.68 1047.46 269.44 1049.66 267.232C1051.87 265.024 1053.11 262.029 1053.11 258.906V231.435H1080.58C1083.71 231.435 1086.7 230.194 1088.91 227.986C1091.12 225.778 1092.36 222.784 1092.36 219.661C1092.36 216.539 1091.12 213.544 1088.91 211.336C1086.7 209.128 1083.71 207.887 1080.58 207.887H1053.11V180.416Z" fill="#858AFF" fill-opacity="0.3"/>
</g>
<defs>
<linearGradient id="paint0_linear_765_5180" x1="572" y1="9.92417e-06" x2="572" y2="333" gradientUnits="userSpaceOnUse">
<stop offset="0.389423" stop-color="#4F39F6"/>
<stop offset="0.658654" stop-color="#8A7AF9"/>
<stop offset="1" stop-color="#FEF9FF"/>
</linearGradient>
<clipPath id="clip0_765_5180">
<rect width="1144" height="275" rx="18" fill="white"/>
</clipPath>
</defs>
</svg>
