<svg width="1144" height="275" viewBox="0 0 1144 275" fill="none" xmlns="http://www.w3.org/2000/svg">
<g clip-path="url(#clip0_766_5226)">
<rect width="1144" height="275" rx="18" fill="white"/>
<rect width="1144" height="333" rx="14" fill="url(#paint0_linear_766_5226)"/>
<rect x="91" y="54" width="43" height="59" rx="3" fill="white" fill-opacity="0.5"/>
<circle cx="160" cy="165" r="16" fill="white" fill-opacity="0.5"/>
<path d="M118 144.066H70.5997C67.8061 144.066 65.1269 142.957 63.1515 140.981C61.1762 139.006 60.0664 136.327 60.0664 133.533V70.333H70.5997V133.533H118V144.066Z" fill="#8FBFFA" fill-opacity="0.5"/>
<path d="M96.9333 165.133H49.5333C43.7242 165.133 39 160.409 39 154.6V91.3999H49.5333V154.6H96.9333V165.133Z" fill="#8FBFFA" fill-opacity="0.5"/>
<path d="M196.999 170.4V159.867H185.934C185.251 156.571 183.942 153.437 182.079 150.634L189.926 142.787L182.479 135.34L174.632 143.187C171.829 141.324 168.695 140.015 165.399 139.332V128.267H154.866V139.332C151.571 140.015 148.437 141.324 145.634 143.187L137.786 135.34L130.339 142.787L138.187 150.634C136.323 153.437 135.015 156.571 134.331 159.867H123.266V170.4H134.331C135.016 173.755 136.354 176.873 138.187 179.632L130.339 187.48L137.786 194.927L145.634 187.08C148.437 188.943 151.571 190.251 154.866 190.935V202H165.399V190.935C168.695 190.251 171.829 188.943 174.632 187.08L182.479 194.927L189.926 187.48L182.079 179.632C183.942 176.83 185.251 173.696 185.934 170.4H196.999ZM160.133 180.933C151.422 180.933 144.333 173.844 144.333 165.133C144.333 156.422 151.422 149.333 160.133 149.333C168.844 149.333 175.933 156.422 175.933 165.133C175.933 173.844 168.844 180.933 160.133 180.933ZM133.799 123H91.6661C88.8725 123 86.1933 121.89 84.218 119.915C82.2426 117.939 81.1328 115.26 81.1328 112.467V54.5333C81.1328 51.7397 82.2426 49.0605 84.218 47.0851C86.1933 45.1098 88.8725 44 91.6661 44H133.799C136.593 44 139.272 45.1098 141.248 47.0851C143.223 49.0605 144.333 51.7397 144.333 54.5333V112.467C144.333 115.26 143.223 117.939 141.248 119.915C139.272 121.89 136.593 123 133.799 123ZM91.6661 112.467H133.799V54.5333H91.6661V112.467Z" fill="#8FBFFA" fill-opacity="0.5"/>
<rect x="1010.23" y="70.5825" width="71.3038" height="97.8354" rx="3" fill="white" fill-opacity="0.3"/>
<circle cx="1124.64" cy="254.645" r="26.5316" fill="white" fill-opacity="0.3"/>
<path d="M1055 219.933H976.398C971.766 219.933 967.323 218.092 964.048 214.817C960.772 211.541 958.932 207.098 958.932 202.466V97.666H976.398V202.466H1055V219.933Z" fill="#8FBFFA" fill-opacity="0.3"/>
<path d="M1020.07 254.866H941.467C931.834 254.866 924 247.032 924 237.4V132.6H941.467V237.4H1020.07V254.866Z" fill="#8FBFFA" fill-opacity="0.3"/>
<path d="M1186 263.6V246.133H1167.65C1166.52 240.669 1164.35 235.472 1161.26 230.824L1174.27 217.811L1161.92 205.462L1148.91 218.475C1144.26 215.385 1139.07 213.215 1133.6 212.082V193.733H1116.13V212.082C1110.67 213.215 1105.47 215.385 1100.82 218.475L1087.81 205.462L1075.46 217.811L1088.48 230.824C1085.39 235.472 1083.22 240.669 1082.08 246.133H1063.73V263.6H1082.08C1083.22 269.163 1085.44 274.333 1088.48 278.91L1075.46 291.922L1087.81 304.271L1100.82 291.258C1105.47 294.348 1110.67 296.518 1116.13 297.651V316H1133.6V297.651C1139.07 296.518 1144.26 294.348 1148.91 291.258L1161.92 304.271L1174.27 291.922L1161.26 278.91C1164.35 274.262 1166.52 269.065 1167.65 263.6H1186ZM1124.87 281.067C1110.42 281.067 1098.67 269.312 1098.67 254.867C1098.67 240.422 1110.42 228.667 1124.87 228.667C1139.31 228.667 1151.07 240.422 1151.07 254.867C1151.07 269.312 1139.31 281.067 1124.87 281.067ZM1081.2 185H1011.33C1006.7 185 1002.26 183.16 998.983 179.884C995.707 176.609 993.867 172.166 993.867 167.533V71.4667C993.867 66.8342 995.707 62.3915 998.983 59.1159C1002.26 55.8402 1006.7 54 1011.33 54H1081.2C1085.83 54 1090.28 55.8402 1093.55 59.1159C1096.83 62.3915 1098.67 66.8342 1098.67 71.4667V167.533C1098.67 172.166 1096.83 176.609 1093.55 179.884C1090.28 183.16 1085.83 185 1081.2 185ZM1011.33 167.533H1081.2V71.4667H1011.33V167.533Z" fill="#8FBFFA" fill-opacity="0.3"/>
</g>
<defs>
<linearGradient id="paint0_linear_766_5226" x1="572" y1="9.92417e-06" x2="572" y2="333" gradientUnits="userSpaceOnUse">
<stop offset="0.389423" stop-color="#4F39F6"/>
<stop offset="0.658654" stop-color="#8A7AF9"/>
<stop offset="1" stop-color="#FEF9FF"/>
</linearGradient>
<clipPath id="clip0_766_5226">
<rect width="1144" height="275" rx="18" fill="white"/>
</clipPath>
</defs>
</svg>
