<svg width="1144" height="275" viewBox="0 0 1144 275" fill="none" xmlns="http://www.w3.org/2000/svg">
<g clip-path="url(#clip0_770_5385)">
<rect width="1144" height="275" rx="18" fill="white"/>
<rect width="1144" height="333" rx="14" fill="url(#paint0_linear_770_5385)"/>
<path d="M955 101.875C955 95.2115 957.762 88.8208 962.679 84.109C967.596 79.3971 974.264 76.75 981.217 76.75H1129.78C1136.74 76.75 1143.4 79.3971 1148.32 84.109C1153.24 88.8208 1156 95.2115 1156 101.875V269.375C1156 276.039 1153.24 282.43 1148.32 287.141C1143.4 291.853 1136.74 294.5 1129.78 294.5H981.217C974.264 294.5 967.596 291.853 962.679 287.141C957.762 282.43 955 276.039 955 269.375V101.875Z" fill="white" fill-opacity="0.3"/>
<path fill-rule="evenodd" clip-rule="evenodd" d="M1013.63 76.75C1013.63 72.3076 1015.39 68.0472 1018.53 64.906C1021.67 61.7647 1025.93 60 1030.38 60H1080.63C1085.07 60 1089.33 61.7647 1092.47 64.906C1095.61 68.0472 1097.38 72.3076 1097.38 76.75V85.125C1097.38 89.5674 1095.61 93.8279 1092.47 96.9691C1089.33 100.11 1085.07 101.875 1080.63 101.875H1030.38C1025.93 101.875 1021.67 100.11 1018.53 96.9691C1015.39 93.8279 1013.63 89.5674 1013.63 85.125V76.75Z" fill="#00117F" fill-opacity="0.3"/>
<rect x="991.906" y="125.675" width="127.187" height="14.5735" rx="4" fill="#00117F" fill-opacity="0.3"/>
<rect x="991.906" y="156.147" width="127.187" height="15.8983" rx="4" fill="#00117F" fill-opacity="0.3"/>
<rect x="991.906" y="186.619" width="127.187" height="15.8983" rx="4" fill="#00117F" fill-opacity="0.3"/>
<rect x="991.906" y="218.416" width="127.187" height="15.8983" rx="4" fill="#00117F" fill-opacity="0.3"/>
<rect x="991.906" y="250.211" width="127.187" height="15.8983" rx="4" fill="#00117F" fill-opacity="0.3"/>
<path d="M36 54.5C36 50.9196 37.4842 47.4858 40.126 44.9541C42.7678 42.4223 46.3509 41 50.087 41H129.913C133.649 41 137.232 42.4223 139.874 44.9541C142.516 47.4858 144 50.9196 144 54.5V144.5C144 148.081 142.516 151.514 139.874 154.046C137.232 156.578 133.649 158 129.913 158H50.087C46.3509 158 42.7678 156.578 40.126 154.046C37.4842 151.514 36 148.081 36 144.5V54.5Z" fill="white" fill-opacity="0.5"/>
<path fill-rule="evenodd" clip-rule="evenodd" d="M67.5 41C67.5 38.6131 68.4482 36.3239 70.1361 34.636C71.8239 32.9482 74.1131 32 76.5 32H103.5C105.887 32 108.176 32.9482 109.864 34.636C111.552 36.3239 112.5 38.6131 112.5 41V45.5C112.5 47.887 111.552 50.1762 109.864 51.864C108.176 53.5518 105.887 54.5 103.5 54.5H76.5C74.1131 54.5 71.8239 53.5518 70.1361 51.864C68.4482 50.1762 67.5 47.887 67.5 45.5V41Z" fill="#00117F" fill-opacity="0.5"/>
<rect x="55.8301" y="67.2881" width="68.3391" height="7.83052" rx="3.91526" fill="#00117F" fill-opacity="0.5"/>
<rect x="55.8301" y="83.6611" width="68.3391" height="8.54239" rx="4" fill="#00117F" fill-opacity="0.5"/>
<rect x="55.8301" y="100.034" width="68.3391" height="8.54239" rx="4" fill="#00117F" fill-opacity="0.5"/>
<rect x="55.8301" y="117.119" width="68.3391" height="8.54239" rx="4" fill="#00117F" fill-opacity="0.5"/>
<rect x="55.8301" y="134.203" width="68.3391" height="8.54239" rx="4" fill="#00117F" fill-opacity="0.5"/>
</g>
<defs>
<linearGradient id="paint0_linear_770_5385" x1="572" y1="9.92417e-06" x2="572" y2="333" gradientUnits="userSpaceOnUse">
<stop offset="0.389423" stop-color="#4F39F6"/>
<stop offset="0.658654" stop-color="#8A7AF9"/>
<stop offset="1" stop-color="#FEF9FF"/>
</linearGradient>
<clipPath id="clip0_770_5385">
<rect width="1144" height="275" rx="18" fill="white"/>
</clipPath>
</defs>
</svg>
