<svg width="1144" height="275" viewBox="0 0 1144 275" fill="none" xmlns="http://www.w3.org/2000/svg">
<g clip-path="url(#clip0_770_5328)">
<rect width="1144" height="275" rx="18" fill="white"/>
<rect width="1144" height="333" rx="14" fill="url(#paint0_linear_770_5328)"/>
<path fill-rule="evenodd" clip-rule="evenodd" d="M42 35C42 32.7909 43.7909 31 46 31H69.3636C71.5728 31 73.3636 32.7909 73.3636 35V58.3636C73.3636 60.5728 71.5728 62.3636 69.3636 62.3636H46C43.7909 62.3636 42 60.5728 42 58.3636V35ZM42 76.8182C42 74.609 43.7909 72.8182 46 72.8182H69.3636C71.5728 72.8182 73.3636 74.609 73.3636 76.8182V100.182C73.3636 102.391 71.5728 104.182 69.3636 104.182H46C43.7909 104.182 42 102.391 42 100.182V76.8182ZM73.3636 118.636C73.3636 116.427 71.5728 114.636 69.3636 114.636H46C43.7909 114.636 42 116.427 42 118.636V142C42 144.209 43.7909 146 46 146H69.3636C71.5728 146 73.3636 144.209 73.3636 142V118.636Z" fill="#8FBFFA" fill-opacity="0.5"/>
<path fill-rule="evenodd" clip-rule="evenodd" d="M156.994 48.9126C156.994 50.5694 155.651 51.9126 153.994 51.9126H86.8125C85.1556 51.9126 83.8125 50.5694 83.8125 48.9126V44.458C83.8125 42.8012 85.1556 41.458 86.8125 41.458H153.994C155.651 41.458 156.994 42.8012 156.994 44.458V48.9126ZM156.994 90.7307C156.994 92.3876 155.651 93.7307 153.994 93.7307H86.8125C85.1556 93.7307 83.8125 92.3876 83.8125 90.7307V86.2762C83.8125 84.6193 85.1556 83.2762 86.8125 83.2762H153.994C155.651 83.2762 156.994 84.6193 156.994 86.2762V90.7307ZM83.8125 132.549C83.8125 134.206 85.1556 135.549 86.8125 135.549H153.994C155.651 135.549 156.994 134.206 156.994 132.549V128.094C156.994 126.438 155.651 125.094 153.994 125.094H86.8125C85.1556 125.094 83.8125 126.438 83.8125 128.094V132.549Z" fill="white" fill-opacity="0.5"/>
<path fill-rule="evenodd" clip-rule="evenodd" d="M916 63C916 60.7909 917.791 59 920 59H970.912C973.121 59 974.912 60.7909 974.912 63V113.912C974.912 116.121 973.121 117.912 970.912 117.912H920C917.791 117.912 916 116.121 916 113.912V63ZM916 141.549C916 139.34 917.791 137.549 920 137.549H970.912C973.121 137.549 974.912 139.34 974.912 141.549V192.461C974.912 194.67 973.121 196.461 970.912 196.461H920C917.791 196.461 916 194.67 916 192.461V141.549ZM974.912 220.099C974.912 217.89 973.121 216.099 970.912 216.099H920C917.791 216.099 916 217.89 916 220.099V271.011C916 273.22 917.791 275.011 920 275.011H970.912C973.121 275.011 974.912 273.22 974.912 271.011V220.099Z" fill="#8FBFFA" fill-opacity="0.3"/>
<path fill-rule="evenodd" clip-rule="evenodd" d="M1132 95.2809C1132 96.9377 1130.66 98.2809 1129 98.2809H997.539C995.882 98.2809 994.539 96.9377 994.539 95.2809V81.6436C994.539 79.9867 995.882 78.6436 997.539 78.6436H1129C1130.66 78.6436 1132 79.9867 1132 81.6436V95.2809ZM1132 173.83C1132 175.487 1130.66 176.83 1129 176.83H997.539C995.882 176.83 994.539 175.487 994.539 173.83V160.193C994.539 158.536 995.882 157.193 997.539 157.193H1129C1130.66 157.193 1132 158.536 1132 160.193V173.83ZM994.539 252.38C994.539 254.036 995.882 255.38 997.539 255.38H1129C1130.66 255.38 1132 254.036 1132 252.38V238.742C1132 237.085 1130.66 235.742 1129 235.742H997.539C995.882 235.742 994.539 237.085 994.539 238.742V252.38Z" fill="white" fill-opacity="0.3"/>
</g>
<defs>
<linearGradient id="paint0_linear_770_5328" x1="572" y1="9.92417e-06" x2="572" y2="333" gradientUnits="userSpaceOnUse">
<stop offset="0.389423" stop-color="#4F39F6"/>
<stop offset="0.658654" stop-color="#8A7AF9"/>
<stop offset="1" stop-color="#FEF9FF"/>
</linearGradient>
<clipPath id="clip0_770_5328">
<rect width="1144" height="275" rx="18" fill="white"/>
</clipPath>
</defs>
</svg>
