<svg width="1144" height="275" viewBox="0 0 1144 275" fill="none" xmlns="http://www.w3.org/2000/svg">
<g clip-path="url(#clip0_772_5754)">
<rect width="1144" height="275" rx="18" fill="white"/>
<rect width="1144" height="333" rx="14" fill="url(#paint0_linear_772_5754)"/>
<g clip-path="url(#clip1_772_5754)">
<path d="M83 28C97.5869 28 111.576 33.7949 121.891 44.1094C132.205 54.4239 138 68.4131 138 83C138 97.5869 132.205 111.576 121.891 121.891C111.576 132.205 97.5869 138 83 138C68.4131 138 54.4239 132.205 44.1094 121.891C33.7949 111.576 28 97.5869 28 83C28 68.4131 33.7949 54.4239 44.1094 44.1094C54.4239 33.7949 68.4131 28 83 28ZM59.7197 63.9541C58.5987 63.9583 57.5245 64.4059 56.7324 65.1992C55.9404 65.9928 55.4943 67.0683 55.4922 68.1895V97.8105C55.4943 98.9331 55.9416 100.009 56.7354 100.803C57.5291 101.596 58.6051 102.044 59.7275 102.046H91.4697C92.5909 102.042 93.665 101.593 94.457 100.8C95.2491 100.006 95.6952 98.9317 95.6973 97.8105V91.4619L107.632 96.7578C107.954 96.8804 108.301 96.9226 108.644 96.8809C108.986 96.8391 109.313 96.7141 109.596 96.5176C109.879 96.321 110.111 96.0588 110.27 95.7529C110.428 95.447 110.51 95.1064 110.508 94.7617V71.2373C110.509 70.8935 110.426 70.5547 110.267 70.25C110.107 69.9451 109.876 69.6829 109.593 69.4873C109.31 69.2917 108.983 69.1684 108.642 69.127C108.3 69.0856 107.953 69.1277 107.632 69.25L95.6895 74.5381V68.1895C95.6874 67.0683 95.2413 65.9928 94.4492 65.1992C93.6572 64.4058 92.583 63.9583 91.4619 63.9541H59.7197Z" fill="white" fill-opacity="0.5"/>
</g>
<g clip-path="url(#clip2_772_5754)">
<path d="M1055 85C1082.58 85 1109.04 95.9572 1128.54 115.461C1148.04 134.965 1159 161.417 1159 189C1159 216.583 1148.04 243.035 1128.54 262.539C1109.04 282.043 1082.58 293 1055 293C1027.42 293 1000.96 282.043 981.461 262.539C961.957 243.035 951 216.583 951 189C951 161.417 961.957 134.965 981.461 115.461C1000.96 95.9572 1027.42 85 1055 85ZM1010.98 152.986C1008.86 152.994 1006.83 153.84 1005.33 155.341C1003.83 156.841 1002.99 158.874 1002.99 160.994V217.005C1002.99 219.127 1003.83 221.162 1005.33 222.663C1006.84 224.164 1008.87 225.01 1010.99 225.014H1071.02C1073.14 225.006 1075.17 224.159 1076.67 222.658C1078.16 221.158 1079 219.125 1079.01 217.005V205.001L1101.58 215.015C1102.19 215.246 1102.84 215.326 1103.49 215.247C1104.14 215.168 1104.76 214.932 1105.29 214.561C1105.83 214.189 1106.26 213.693 1106.56 213.114C1106.86 212.536 1107.02 211.893 1107.01 211.241V166.759C1107.02 166.108 1106.86 165.467 1106.56 164.891C1106.26 164.314 1105.82 163.819 1105.28 163.449C1104.75 163.079 1104.13 162.845 1103.49 162.767C1102.84 162.688 1102.19 162.769 1101.58 163L1078.99 172.998V160.994C1078.99 158.874 1078.15 156.841 1076.65 155.341C1075.15 153.84 1073.12 152.994 1071 152.986H1010.98Z" fill="white" fill-opacity="0.5"/>
</g>
</g>
<defs>
<linearGradient id="paint0_linear_772_5754" x1="572" y1="9.92417e-06" x2="572" y2="333" gradientUnits="userSpaceOnUse">
<stop offset="0.389423" stop-color="#4F39F6"/>
<stop offset="0.658654" stop-color="#8A7AF9"/>
<stop offset="1" stop-color="#FEF9FF"/>
</linearGradient>
<clipPath id="clip0_772_5754">
<rect width="1144" height="275" rx="18" fill="white"/>
</clipPath>
<clipPath id="clip1_772_5754">
<rect width="110" height="110" fill="white" transform="translate(28 28)"/>
</clipPath>
<clipPath id="clip2_772_5754">
<rect width="208" height="208" fill="white" transform="translate(951 85)"/>
</clipPath>
</defs>
</svg>
