<svg width="1144" height="275" viewBox="0 0 1144 275" fill="none" xmlns="http://www.w3.org/2000/svg">
<g clip-path="url(#clip0_772_5784)">
<rect width="1144" height="275" rx="18" fill="white"/>
<rect width="1144" height="333" rx="14" fill="url(#paint0_linear_772_5784)"/>
<path d="M40 42.328C40 39.854 40.9828 37.4814 42.7321 35.7321C44.4814 33.9828 46.854 33 49.328 33H130.575C133.048 33 135.421 33.9828 137.17 35.7321C138.92 37.4814 139.903 39.854 139.903 42.328V105.646C139.903 108.12 138.92 110.493 137.17 112.242C135.421 113.991 133.048 114.974 130.575 114.974H49.328C46.854 114.974 44.4814 113.991 42.7321 112.242C40.9828 110.493 40 108.12 40 105.646V42.328Z" fill="#8FBFFA" fill-opacity="0.5"/>
<path d="M70.0977 73.7098C70.0977 71.2359 71.0804 68.8633 72.8298 67.1139C74.5791 65.3646 76.9517 64.3818 79.4256 64.3818H160.672C163.146 64.3818 165.519 65.3646 167.268 67.1139C169.017 68.8633 170 71.2359 170 73.7098V137.028C170 139.502 169.017 141.875 167.268 143.624C165.519 145.373 163.146 146.356 160.672 146.356H79.4256C76.9517 146.356 74.5791 145.373 72.8298 143.624C71.0804 141.875 70.0977 139.502 70.0977 137.028V73.7098Z" fill="white" fill-opacity="0.5"/>
<path d="M104.365 88.557C104.367 87.7253 104.591 86.9091 105.014 86.1931C105.437 85.477 106.044 84.8872 106.772 84.4848C107.5 84.0823 108.323 83.8818 109.154 83.904C109.985 83.9263 110.796 84.1705 111.501 84.6113L138.384 101.411C139.055 101.83 139.608 102.413 139.992 103.105C140.375 103.797 140.576 104.575 140.576 105.366C140.576 106.157 140.375 106.935 139.992 107.627C139.608 108.319 139.055 108.902 138.384 109.321L111.501 126.121C110.795 126.562 109.984 126.806 109.152 126.828C108.319 126.85 107.496 126.649 106.768 126.245C106.04 125.841 105.433 125.25 105.011 124.533C104.588 123.816 104.365 122.998 104.365 122.166V88.557Z" fill="#806FFF"/>
<path d="M931 99.2528C931 95.2075 932.607 91.3279 935.467 88.4674C938.328 85.607 942.207 84 946.253 84H1079.1C1083.15 84 1087.03 85.607 1089.89 88.4674C1092.75 91.3279 1094.36 95.2075 1094.36 99.2528V202.789C1094.36 206.834 1092.75 210.714 1089.89 213.574C1087.03 216.434 1083.15 218.041 1079.1 218.041H946.253C942.207 218.041 938.328 216.434 935.467 213.574C932.607 210.714 931 206.834 931 202.789V99.2528Z" fill="#8FBFFA" fill-opacity="0.5"/>
<path d="M980.215 150.567C980.215 146.522 981.822 142.642 984.682 139.782C987.543 136.921 991.422 135.314 995.468 135.314H1128.32C1132.36 135.314 1136.24 136.921 1139.1 139.782C1141.97 142.642 1143.57 146.522 1143.57 150.567V254.103C1143.57 258.148 1141.97 262.028 1139.1 264.888C1136.24 267.749 1132.36 269.356 1128.32 269.356H995.468C991.422 269.356 987.543 267.749 984.682 264.888C981.822 262.028 980.215 258.148 980.215 254.103V150.567Z" fill="white" fill-opacity="0.5"/>
<path d="M1036.25 174.845C1036.25 173.485 1036.62 172.15 1037.31 170.979C1038 169.808 1038.99 168.844 1040.18 168.186C1041.37 167.528 1042.72 167.2 1044.08 167.236C1045.44 167.273 1046.76 167.672 1047.92 168.393L1091.87 195.863C1092.97 196.548 1093.88 197.502 1094.5 198.633C1095.13 199.764 1095.46 201.037 1095.46 202.33C1095.46 203.624 1095.13 204.896 1094.5 206.027C1093.88 207.158 1092.97 208.112 1091.87 208.797L1047.92 236.268C1046.76 236.989 1045.44 237.388 1044.07 237.424C1042.71 237.46 1041.37 237.131 1040.18 236.471C1038.99 235.811 1037.99 234.844 1037.3 233.671C1036.61 232.498 1036.25 231.162 1036.25 229.8V174.845Z" fill="#806FFF"/>
</g>
<defs>
<linearGradient id="paint0_linear_772_5784" x1="572" y1="9.92417e-06" x2="572" y2="333" gradientUnits="userSpaceOnUse">
<stop offset="0.389423" stop-color="#4F39F6"/>
<stop offset="0.658654" stop-color="#8A7AF9"/>
<stop offset="1" stop-color="#FEF9FF"/>
</linearGradient>
<clipPath id="clip0_772_5784">
<rect width="1144" height="275" rx="18" fill="white"/>
</clipPath>
</defs>
</svg>
