<svg width="1144" height="275" viewBox="0 0 1144 275" fill="none" xmlns="http://www.w3.org/2000/svg">
<g clip-path="url(#clip0_765_5159)">
<rect width="1144" height="275" rx="18" fill="white"/>
<rect width="1144" height="333" rx="14" fill="url(#paint0_linear_765_5159)"/>
<path d="M97.4283 102.5C103.489 102.5 109.301 100.129 113.587 95.9099C117.872 91.6903 120.28 85.9674 120.28 80C120.28 74.0326 117.872 68.3097 113.587 64.0901C109.301 59.8705 103.489 57.5 97.4283 57.5C91.3677 57.5 85.5553 59.8705 81.2698 64.0901C76.9843 68.3097 74.5767 74.0326 74.5767 80C74.5767 85.9674 76.9843 91.6903 81.2698 95.9099C85.5553 100.129 91.3677 102.5 97.4283 102.5ZM136.468 137.6C125.657 146.9 111.784 152.017 97.4283 152C83.0728 152.017 69.1996 146.9 58.3887 137.6C62.4669 131.004 68.2004 125.552 75.0375 121.77C81.8747 117.987 89.5856 116 97.4283 116C113.964 116 128.442 124.64 136.468 137.6Z" fill="white" fill-opacity="0.5"/>
<path fill-rule="evenodd" clip-rule="evenodd" d="M58.379 137.599C62.4572 131.003 68.1907 125.552 75.0279 121.769C81.8651 117.986 89.5759 115.999 97.4186 115.999C113.954 115.999 128.442 124.639 136.458 137.599C145.577 129.772 152.051 119.39 155.016 107.843C157.981 96.2949 157.295 84.1312 153.05 72.9775C148.806 61.8238 141.204 52.2116 131.262 45.426C121.32 38.6403 109.511 35.0044 97.4141 35.0044C85.3169 35.0044 73.508 38.6403 63.566 45.426C53.6239 52.2116 46.0224 61.8238 41.7777 72.9775C37.533 84.1312 36.8473 96.2949 39.8122 107.843C42.7772 119.39 49.2516 129.772 58.3699 137.599M97.4186 102.499C103.479 102.499 109.292 100.129 113.577 95.9091C117.863 91.6895 120.27 85.9665 120.27 79.9992C120.27 74.0318 117.863 68.3088 113.577 64.0892C109.292 59.8697 103.479 57.4991 97.4186 57.4991C91.358 57.4991 85.5456 59.8697 81.2601 64.0892C76.9746 68.3088 74.5671 74.0318 74.5671 79.9992C74.5671 85.9665 76.9746 91.6895 81.2601 95.9091C85.5456 100.129 91.358 102.499 97.4186 102.499Z" fill="#D7E0FF" fill-opacity="0.5"/>
<path d="M58.3887 137.6C62.4676 131.008 68.2003 125.559 75.0356 121.779C81.871 117.998 89.5792 116.012 97.4191 116.012C105.259 116.012 112.967 117.998 119.803 121.779C126.638 125.559 132.371 131.008 136.45 137.6M97.4191 102.5C103.48 102.5 109.292 100.129 113.578 95.9099C117.863 91.6903 120.271 85.9674 120.271 80C120.271 74.0326 117.863 68.3097 113.578 64.0901C109.292 59.8705 103.48 57.5 97.4191 57.5C91.3585 57.5 85.5461 59.8705 81.2606 64.0901C76.9751 68.3097 74.5676 74.0326 74.5676 80C74.5676 85.9674 76.9751 91.6903 81.2606 95.9099C85.5461 100.129 91.3585 102.5 97.4191 102.5Z" stroke="#4147D5" stroke-opacity="0.5" stroke-width="6" stroke-linecap="round" stroke-linejoin="round"/>
<path d="M97.4141 152C113.172 152 128.284 145.837 139.426 134.866C150.568 123.895 156.828 109.015 156.828 93.5C156.828 77.9848 150.568 63.1051 139.426 52.1343C128.284 41.1634 113.172 35 97.4141 35C81.6565 35 66.5443 41.1634 55.402 52.1343C44.2597 63.1051 38 77.9848 38 93.5C38 109.015 44.2597 123.895 55.402 134.866C66.5443 145.837 81.6565 152 97.4141 152Z" stroke="#4147D5" stroke-opacity="0.5" stroke-width="6" stroke-linecap="round" stroke-linejoin="round"/>
<path d="M1042.53 218.444C1055.23 218.444 1067.41 213.476 1076.39 204.634C1085.37 195.793 1090.41 183.8 1090.41 171.296C1090.41 158.791 1085.37 146.799 1076.39 137.957C1067.41 129.115 1055.23 124.148 1042.53 124.148C1029.83 124.148 1017.65 129.115 1008.67 137.957C999.689 146.799 994.644 158.791 994.644 171.296C994.644 183.8 999.689 195.793 1008.67 204.634C1017.65 213.476 1029.83 218.444 1042.53 218.444ZM1124.33 291.995C1101.68 311.481 1072.61 322.204 1042.53 322.169C1012.45 322.204 983.377 311.481 960.723 291.995C969.268 278.173 981.283 266.749 995.61 258.822C1009.94 250.895 1026.09 246.732 1042.53 246.733C1077.18 246.733 1107.52 264.837 1124.33 291.995Z" fill="white" fill-opacity="0.3"/>
<path fill-rule="evenodd" clip-rule="evenodd" d="M960.704 291.993C969.249 278.172 981.264 266.748 995.591 258.821C1009.92 250.894 1026.08 246.731 1042.51 246.731C1077.16 246.731 1107.52 264.836 1124.32 291.993C1143.42 275.591 1156.99 253.837 1163.2 229.64C1169.42 205.442 1167.98 179.953 1159.08 156.581C1150.19 133.209 1134.26 113.067 1113.43 98.8478C1092.59 84.6286 1067.85 77.0098 1042.5 77.0098C1017.15 77.0098 992.406 84.6286 971.573 98.8478C950.739 113.067 934.811 133.209 925.916 156.581C917.021 179.953 915.584 205.442 921.797 229.64C928.01 253.837 941.577 275.591 960.684 291.993M1042.51 218.443C1055.21 218.443 1067.39 213.475 1076.37 204.633C1085.35 195.791 1090.39 183.799 1090.39 171.295C1090.39 158.79 1085.35 146.798 1076.37 137.956C1067.39 129.114 1055.21 124.147 1042.51 124.147C1029.81 124.147 1017.63 129.114 1008.65 137.956C999.67 146.798 994.625 158.79 994.625 171.295C994.625 183.799 999.67 195.791 1008.65 204.633C1017.63 213.475 1029.81 218.443 1042.51 218.443Z" fill="#D7E0FF" fill-opacity="0.3"/>
<path d="M960.723 291.995C969.27 278.181 981.283 266.764 995.606 258.842C1009.93 250.919 1026.08 246.758 1042.51 246.758C1058.94 246.758 1075.09 250.919 1089.41 258.842C1103.74 266.764 1115.75 278.181 1124.3 291.995M1042.51 218.444C1055.21 218.444 1067.39 213.476 1076.37 204.634C1085.35 195.793 1090.39 183.8 1090.39 171.296C1090.39 158.791 1085.35 146.799 1076.37 137.957C1067.39 129.115 1055.21 124.148 1042.51 124.148C1029.81 124.148 1017.63 129.115 1008.65 137.957C999.67 146.799 994.625 158.791 994.625 171.296C994.625 183.8 999.67 195.793 1008.65 204.634C1017.63 213.476 1029.81 218.444 1042.51 218.444Z" stroke="#4147D5" stroke-opacity="0.3" stroke-width="8" stroke-linecap="round" stroke-linejoin="round"/>
<path d="M1042.5 322.169C1075.52 322.169 1107.19 309.254 1130.53 286.265C1153.88 263.276 1167 232.096 1167 199.585C1167 167.073 1153.88 135.893 1130.53 112.904C1107.19 89.9151 1075.52 77 1042.5 77C1009.48 77 977.813 89.9151 954.465 112.904C931.117 135.893 918 167.073 918 199.585C918 232.096 931.117 263.276 954.465 286.265C977.813 309.254 1009.48 322.169 1042.5 322.169Z" stroke="#4147D5" stroke-opacity="0.3" stroke-width="8" stroke-linecap="round" stroke-linejoin="round"/>
</g>
<defs>
<linearGradient id="paint0_linear_765_5159" x1="572" y1="9.92417e-06" x2="572" y2="333" gradientUnits="userSpaceOnUse">
<stop offset="0.389423" stop-color="#4F39F6"/>
<stop offset="0.658654" stop-color="#8A7AF9"/>
<stop offset="1" stop-color="#FEF9FF"/>
</linearGradient>
<clipPath id="clip0_765_5159">
<rect width="1144" height="275" rx="18" fill="white"/>
</clipPath>
</defs>
</svg>
