<svg width="12" height="14" viewBox="0 0 12 14" fill="none" xmlns="http://www.w3.org/2000/svg">
<path d="M0.25 2.5C0.25 2.10218 0.408035 1.72064 0.68934 1.43934C0.970644 1.15804 1.35218 1 1.75 1H10.25C10.6478 1 11.0294 1.15804 11.3107 1.43934C11.592 1.72064 11.75 2.10218 11.75 2.5V12.5C11.75 12.8978 11.592 13.2794 11.3107 13.5607C11.0294 13.842 10.6478 14 10.25 14H1.75C1.35218 14 0.970644 13.842 0.68934 13.5607C0.408035 13.2794 0.25 12.8978 0.25 12.5V2.5Z" fill="white"/>
<path fill-rule="evenodd" clip-rule="evenodd" d="M4.50095 0C4.23574 0 3.98138 0.105357 3.79385 0.292893C3.60631 0.48043 3.50095 0.734784 3.50095 1V1.5C3.50095 1.76522 3.60631 2.01957 3.79385 2.20711C3.98138 2.39464 4.23574 2.5 4.50095 2.5H7.50095C7.76617 2.5 8.02052 2.39464 8.20806 2.20711C8.3956 2.01957 8.50095 1.76522 8.50095 1.5V1C8.50095 0.734784 8.3956 0.48043 8.20806 0.292893C8.02052 0.105357 7.76617 0 7.50095 0L4.50095 0ZM9.10095 6.95C9.2203 6.79087 9.27155 6.59085 9.24342 6.39393C9.21529 6.19702 9.11008 6.01935 8.95095 5.9C8.79182 5.78065 8.5918 5.72941 8.39489 5.75754C8.19798 5.78567 8.0203 5.89087 7.90095 6.05L5.32695 9.482L4.41695 8.876C4.25144 8.76827 4.05012 8.73016 3.85669 8.76996C3.66325 8.80975 3.49332 8.92423 3.38378 9.08855C3.27423 9.25287 3.23392 9.45376 3.27158 9.64762C3.30925 9.84148 3.42185 10.0127 3.58495 10.124L5.08495 11.124C5.24446 11.2303 5.43863 11.2716 5.62758 11.2392C5.81653 11.2068 5.98592 11.1034 6.10095 10.95L9.10095 6.95Z" fill="#8FBFFA"/>
</svg>
