<svg width="12" height="14" viewBox="0 0 12 14" fill="none" xmlns="http://www.w3.org/2000/svg">
<path fill-rule="evenodd" clip-rule="evenodd" d="M3.5 1.5H1.75C1.48478 1.5 1.23043 1.60536 1.04289 1.79289C0.855357 1.98043 0.75 2.23478 0.75 2.5V12.5C0.75 12.7652 0.855357 13.0196 1.04289 13.2071C1.23043 13.3946 1.48478 13.5 1.75 13.5H10.25C10.5152 13.5 10.7696 13.3946 10.9571 13.2071C11.1446 13.0196 11.25 12.7652 11.25 12.5V2.5C11.25 2.23478 11.1446 1.98043 10.9571 1.79289C10.7696 1.60536 10.5152 1.5 10.25 1.5H8.5V2C8.5 2.26522 8.39464 2.51957 8.20711 2.70711C8.01957 2.89464 7.76522 3 7.5 3H4.5C4.23478 3 3.98043 2.89464 3.79289 2.70711C3.60536 2.51957 3.5 2.26522 3.5 2V1.5Z" fill="#D7E0FF"/>
<path d="M8.75 1.5H10.25C10.5152 1.5 10.7696 1.60536 10.9571 1.79289C11.1446 1.98043 11.25 2.23478 11.25 2.5V12.5C11.25 12.7652 11.1446 13.0196 10.9571 13.2071C10.7696 13.3946 10.5152 13.5 10.25 13.5H1.75C1.48478 13.5 1.23043 13.3946 1.04289 13.2071C0.855357 13.0196 0.75 12.7652 0.75 12.5V2.5C0.75 2.23478 0.855357 1.98043 1.04289 1.79289C1.23043 1.60536 1.48478 1.5 1.75 1.5H3.25" stroke="#4147D5" stroke-linecap="round" stroke-linejoin="round"/>
<path d="M7.5 0.5H4.5C4.23478 0.5 3.98043 0.605357 3.79289 0.792893C3.60536 0.98043 3.5 1.23478 3.5 1.5V2C3.5 2.26522 3.60536 2.51957 3.79289 2.70711C3.98043 2.89464 4.23478 3 4.5 3H7.5C7.76522 3 8.01957 2.89464 8.20711 2.70711C8.39464 2.51957 8.5 2.26522 8.5 2V1.5C8.5 1.23478 8.39464 0.98043 8.20711 0.792893C8.01957 0.605357 7.76522 0.5 7.5 0.5Z" fill="white"/>
<path d="M4 9L5.5 10L8.5 6M7.5 0.5H4.5C4.23478 0.5 3.98043 0.605357 3.79289 0.792893C3.60536 0.98043 3.5 1.23478 3.5 1.5V2C3.5 2.26522 3.60536 2.51957 3.79289 2.70711C3.98043 2.89464 4.23478 3 4.5 3H7.5C7.76522 3 8.01957 2.89464 8.20711 2.70711C8.39464 2.51957 8.5 2.26522 8.5 2V1.5C8.5 1.23478 8.39464 0.98043 8.20711 0.792893C8.01957 0.605357 7.76522 0.5 7.5 0.5Z" stroke="#4147D5" stroke-linecap="round" stroke-linejoin="round"/>
</svg>
