<svg width="14" height="14" viewBox="0 0 14 14" fill="none" xmlns="http://www.w3.org/2000/svg">
<g clip-path="url(#clip0_740_575)">
<path d="M5 7.5C3.80653 7.5 2.66193 7.97411 1.81802 8.81802C0.974106 9.66193 0.5 10.8065 0.5 12V12.5H8.972C9.257 12.5 9.5 12.285 9.5 12C9.5 10.8065 9.02589 9.66193 8.18198 8.81802C7.33807 7.97411 6.19347 7.5 5 7.5ZM5 5.5C5.66304 5.5 6.29893 5.23661 6.76777 4.76777C7.23661 4.29893 7.5 3.66304 7.5 3C7.5 2.33696 7.23661 1.70107 6.76777 1.23223C6.29893 0.763392 5.66304 0.5 5 0.5C4.33696 0.5 3.70107 0.763392 3.23223 1.23223C2.76339 1.70107 2.5 2.33696 2.5 3C2.5 3.66304 2.76339 4.29893 3.23223 4.76777C3.70107 5.23661 4.33696 5.5 5 5.5Z" fill="#D7E0FF"/>
<path d="M6.5 12.5H0.5V11.958C0.507961 11.1958 0.708977 10.448 1.08427 9.78458C1.45957 9.12113 1.9969 8.56361 2.64607 8.16412C3.29525 7.76463 4.03509 7.53619 4.79648 7.50015C5.55788 7.4641 6.31599 7.62162 7 7.958M10.5 7.5V13.5M7.5 10.5H13.5M5 5.5C5.66304 5.5 6.29893 5.23661 6.76777 4.76777C7.23661 4.29893 7.5 3.66304 7.5 3C7.5 2.33696 7.23661 1.70107 6.76777 1.23223C6.29893 0.763392 5.66304 0.5 5 0.5C4.33696 0.5 3.70107 0.763392 3.23223 1.23223C2.76339 1.70107 2.5 2.33696 2.5 3C2.5 3.66304 2.76339 4.29893 3.23223 4.76777C3.70107 5.23661 4.33696 5.5 5 5.5Z" stroke="#4147D5" stroke-linecap="round" stroke-linejoin="round"/>
</g>
<defs>
<clipPath id="clip0_740_575">
<rect width="14" height="14" fill="white"/>
</clipPath>
</defs>
</svg>
