<svg width="14" height="14" viewBox="0 0 14 14" fill="none" xmlns="http://www.w3.org/2000/svg">
<path d="M2 3C2 3.79565 2.31607 4.55871 2.87868 5.12132C3.44129 5.68393 4.20435 6 5 6C5.79565 6 6.55871 5.68393 7.12132 5.12132C7.68393 4.55871 8 3.79565 8 3C8 2.20435 7.68393 1.44129 7.12132 0.87868C6.55871 0.31607 5.79565 0 5 0C4.20435 0 3.44129 0.31607 2.87868 0.87868C2.31607 1.44129 2 2.20435 2 3ZM8.75 8.693C8.07825 7.93131 7.19048 7.39223 6.20481 7.14752C5.21914 6.9028 4.18233 6.96404 3.23232 7.32308C2.28232 7.68213 1.46417 8.32196 0.886759 9.15744C0.309344 9.99291 3.84167e-05 10.9844 0 12C0 12.1326 0.0526784 12.2598 0.146447 12.3536C0.240215 12.4473 0.367392 12.5 0.5 12.5H7.28C6.8919 12.2853 6.58619 11.9476 6.41095 11.5402C6.23572 11.1327 6.2009 10.6786 6.31197 10.2492C6.42305 9.81974 6.67371 9.43944 7.02454 9.16805C7.37537 8.89667 7.80646 8.74961 8.25 8.75H8.75V8.693Z" fill="white"/>
<path fill-rule="evenodd" clip-rule="evenodd" d="M10.75 7.5C10.9489 7.5 11.1397 7.57902 11.2803 7.71967C11.421 7.86032 11.5 8.05109 11.5 8.25V10H13.25C13.4489 10 13.6397 10.079 13.7803 10.2197C13.921 10.3603 14 10.5511 14 10.75C14 10.9489 13.921 11.1397 13.7803 11.2803C13.6397 11.421 13.4489 11.5 13.25 11.5H11.5V13.25C11.5 13.4489 11.421 13.6397 11.2803 13.7803C11.1397 13.921 10.9489 14 10.75 14C10.5511 14 10.3603 13.921 10.2197 13.7803C10.079 13.6397 10 13.4489 10 13.25V11.5H8.25C8.05109 11.5 7.86032 11.421 7.71967 11.2803C7.57902 11.1397 7.5 10.9489 7.5 10.75C7.5 10.5511 7.57902 10.3603 7.71967 10.2197C7.86032 10.079 8.05109 10 8.25 10H10V8.25C10 8.05109 10.079 7.86032 10.2197 7.71967C10.3603 7.57902 10.5511 7.5 10.75 7.5Z" fill="#8FBFFA"/>
</svg>
