<svg width="29" height="29" viewBox="0 0 29 29" fill="none" xmlns="http://www.w3.org/2000/svg">
<path d="M13.1499 1H26.2386C27.2127 1 28.0019 1.78923 28.0019 2.76331V16.8407C28.0019 17.8168 27.2127 18.6061 26.2386 18.6061H15.5383M6.50162 8.27131C7.46586 8.27131 8.3906 7.88827 9.07242 7.20645C9.75423 6.52463 10.1373 5.59989 10.1373 4.63565C10.1373 3.67142 9.75423 2.74668 9.07242 2.06486C8.3906 1.38304 7.46586 1 6.50162 1C5.53739 1 4.61264 1.38304 3.93083 2.06486C3.24901 2.74668 2.86597 3.67142 2.86597 4.63565C2.86597 5.59989 3.24901 6.52463 3.93083 7.20645C4.61264 7.88827 5.53739 8.27131 6.50162 8.27131Z" stroke="#0A0064" stroke-linecap="round" stroke-linejoin="round"/>
<path d="M18.6538 11.4407C18.6538 10.2631 17.6985 9.30768 16.5208 9.30768H6.50177C5.04278 9.30823 3.6437 9.88805 2.61204 10.9197C1.58038 11.9514 1.00055 13.3505 1 14.8094V19.6923H3.35731L4.14446 28H8.85908L10.6702 13.5758H16.5208C17.6985 13.5758 18.6538 12.6204 18.6538 11.4407Z" stroke="#0A0064" stroke-linecap="round" stroke-linejoin="round"/>
</svg>
