<svg width="28" height="27" viewBox="0 0 28 27" fill="none" xmlns="http://www.w3.org/2000/svg">
<path d="M13.9993 26H27M20.3205 1.91433C20.8956 1.32889 21.6755 1 22.4888 1C23.302 1 24.0819 1.32889 24.657 1.91433C25.232 2.49977 25.5551 3.29379 25.5551 4.12172C25.5551 4.94965 25.232 5.74367 24.657 6.3291L7.30824 23.9926C6.96458 24.3425 6.53979 24.5984 6.07317 24.7367L1.9245 25.9691C1.8002 26.006 1.66844 26.0082 1.54301 25.9755C1.41758 25.9428 1.3031 25.8764 1.21155 25.7832C1.11999 25.69 1.05473 25.5734 1.0226 25.4457C0.990463 25.318 0.992637 25.1839 1.02889 25.0573L2.2394 20.8337C2.37551 20.3592 2.62689 19.9273 2.97033 19.5778L20.3205 1.91433Z" stroke="#0A0064" stroke-width="2" stroke-linecap="round" stroke-linejoin="round"/>
</svg>
