<svg width="20" height="19" viewBox="0 0 20 19" fill="none" xmlns="http://www.w3.org/2000/svg">
<path d="M17.1845 0.240295L0.935729 9.14292C-0.407917 9.8814 -0.279021 11.7703 1.15837 12.3306L5.62287 14.0859V17.218C5.62287 18.9399 7.93519 19.6487 9.00542 18.2793L10.7162 16.0862L15.087 17.8006C15.3174 17.8897 15.5596 17.9342 15.8018 17.9342C16.1221 17.9342 16.4384 17.8563 16.7236 17.7041C17.2235 17.4369 17.5673 16.9619 17.6571 16.4239L19.9772 2.05496C20.2155 0.566861 18.5359 -0.498189 17.1845 0.240295ZM7.49772 17.218V14.8207L8.9273 15.3811L7.49772 17.218ZM15.8018 16.153L9.79442 13.7965L15.2706 6.28918C15.6885 5.71398 14.8995 5.04601 14.3449 5.50246L6.08377 12.3418L1.87316 10.6867L18.1219 1.78035L15.8018 16.153Z" fill="white"/>
</svg>
