<svg width="14" height="14" viewBox="0 0 14 14" fill="none" xmlns="http://www.w3.org/2000/svg">
<g clip-path="url(#clip0_740_653)">
<path fill-rule="evenodd" clip-rule="evenodd" d="M7 0C5.14348 0 3.36301 0.737498 2.05025 2.05025C0.737498 3.36301 0 5.14348 0 7C0 8.85652 0.737498 10.637 2.05025 11.9497C3.36301 13.2625 5.14348 14 7 14C8.85652 14 10.637 13.2625 11.9497 11.9497C13.2625 10.637 14 8.85652 14 7C14 5.14348 13.2625 3.36301 11.9497 2.05025C10.637 0.737498 8.85652 0 7 0Z" fill="white"/>
<path d="M10.134 5.25005L8.61405 5.92305V5.11505C8.61378 4.97235 8.55705 4.83556 8.45624 4.73456C8.35543 4.63357 8.21874 4.57658 8.07605 4.57605H4.03605C3.89335 4.57658 3.75666 4.63357 3.65585 4.73456C3.55504 4.83556 3.49831 4.97235 3.49805 5.11505V8.88505C3.49831 9.02792 3.55518 9.16486 3.65621 9.26589C3.75723 9.36691 3.89418 9.42379 4.03705 9.42405H8.07705C8.21974 9.42352 8.35643 9.36653 8.45724 9.26554C8.55805 9.16454 8.61478 9.02775 8.61505 8.88505V8.07705L10.134 8.75105C10.1751 8.76665 10.2192 8.77202 10.2628 8.7667C10.3063 8.76138 10.3479 8.74553 10.384 8.72051C10.42 8.6955 10.4494 8.66208 10.4697 8.62314C10.4899 8.5842 10.5003 8.54092 10.5 8.49705V5.50305C10.5002 5.45926 10.4896 5.4161 10.4693 5.3773C10.449 5.33849 10.4196 5.3052 10.3836 5.2803C10.3476 5.25541 10.306 5.23964 10.2625 5.23437C10.2191 5.2291 10.175 5.23448 10.134 5.25005Z" fill="#8FBFFA"/>
</g>
<defs>
<clipPath id="clip0_740_653">
<rect width="14" height="14" fill="white"/>
</clipPath>
</defs>
</svg>
