<svg width="14" height="14" viewBox="0 0 14 14" fill="none" xmlns="http://www.w3.org/2000/svg">
<g clip-path="url(#clip0_740_647)">
<path fill-rule="evenodd" clip-rule="evenodd" d="M13.5 7C13.5 8.72391 12.8152 10.3772 11.5962 11.5962C10.3772 12.8152 8.72391 13.5 7 13.5C5.27609 13.5 3.62279 12.8152 2.40381 11.5962C1.18482 10.3772 0.5 8.72391 0.5 7C0.5 5.27609 1.18482 3.62279 2.40381 2.40381C3.62279 1.18482 5.27609 0.5 7 0.5C8.72391 0.5 10.3772 1.18482 11.5962 2.40381C12.8152 3.62279 13.5 5.27609 13.5 7ZM8.616 5.923L10.135 5.25C10.1759 5.23443 10.22 5.22905 10.2635 5.23432C10.307 5.23959 10.3485 5.25536 10.3845 5.28026C10.4206 5.30516 10.45 5.33844 10.4703 5.37725C10.4906 5.41605 10.5011 5.45921 10.501 5.503V8.497C10.5013 8.54087 10.4908 8.58415 10.4706 8.62309C10.4504 8.66203 10.421 8.69545 10.3849 8.72046C10.3489 8.74548 10.3073 8.76133 10.2638 8.76665C10.2202 8.77197 10.176 8.7666 10.135 8.751L8.615 8.077V8.885C8.61474 9.0277 8.558 9.16449 8.45719 9.26549C8.35638 9.36648 8.2197 9.42347 8.077 9.424H4.037C3.8943 9.42347 3.75762 9.36648 3.65681 9.26549C3.556 9.16449 3.49926 9.0277 3.499 8.885V5.115C3.49926 4.97213 3.55614 4.83519 3.65716 4.73416C3.75819 4.63314 3.89513 4.57626 4.038 4.576H8.078C8.2207 4.57653 8.35738 4.63352 8.45819 4.73451C8.559 4.83551 8.61574 4.9723 8.616 5.115V5.923Z" fill="#D7E0FF"/>
<path d="M10.134 5.25005L8.61405 5.92305V5.11505C8.61378 4.97235 8.55705 4.83556 8.45624 4.73456C8.35543 4.63357 8.21874 4.57658 8.07605 4.57605H4.03605C3.89335 4.57658 3.75666 4.63357 3.65585 4.73456C3.55504 4.83556 3.49831 4.97235 3.49805 5.11505V8.88505C3.49831 9.02792 3.55518 9.16486 3.65621 9.26589C3.75723 9.36691 3.89418 9.42379 4.03705 9.42405H8.07705C8.21974 9.42352 8.35643 9.36653 8.45724 9.26554C8.55805 9.16454 8.61478 9.02775 8.61505 8.88505V8.07705L10.134 8.75105C10.1751 8.76665 10.2192 8.77202 10.2628 8.7667C10.3063 8.76138 10.3479 8.74553 10.384 8.72051C10.42 8.6955 10.4494 8.66208 10.4697 8.62314C10.4899 8.5842 10.5003 8.54092 10.5 8.49705V5.50305C10.5002 5.45926 10.4896 5.4161 10.4693 5.3773C10.449 5.33849 10.4196 5.3052 10.3836 5.2803C10.3476 5.25541 10.306 5.23964 10.2625 5.23437C10.2191 5.2291 10.175 5.23448 10.134 5.25005Z" fill="white"/>
<path d="M10.134 5.25005L8.61405 5.92305V5.11505C8.61378 4.97235 8.55705 4.83556 8.45624 4.73456C8.35543 4.63357 8.21874 4.57658 8.07605 4.57605H4.03605C3.89335 4.57658 3.75666 4.63357 3.65585 4.73456C3.55504 4.83556 3.49831 4.97235 3.49805 5.11505V8.88505C3.49831 9.02792 3.55518 9.16486 3.65621 9.26589C3.75723 9.36691 3.89418 9.42379 4.03705 9.42405H8.07705C8.21974 9.42352 8.35643 9.36653 8.45724 9.26554C8.55805 9.16454 8.61478 9.02775 8.61505 8.88505V8.07705L10.134 8.75105C10.1751 8.76665 10.2192 8.77202 10.2628 8.7667C10.3063 8.76138 10.3479 8.74553 10.384 8.72051C10.42 8.6955 10.4494 8.66208 10.4697 8.62314C10.4899 8.5842 10.5003 8.54092 10.5 8.49705V5.50305C10.5002 5.45926 10.4896 5.4161 10.4693 5.3773C10.449 5.33849 10.4196 5.3052 10.3836 5.2803C10.3476 5.25541 10.306 5.23964 10.2625 5.23437C10.2191 5.2291 10.175 5.23448 10.134 5.25005Z" stroke="#4147D5" stroke-linecap="round" stroke-linejoin="round"/>
<path d="M7 13.5C8.72391 13.5 10.3772 12.8152 11.5962 11.5962C12.8152 10.3772 13.5 8.72391 13.5 7C13.5 5.27609 12.8152 3.62279 11.5962 2.40381C10.3772 1.18482 8.72391 0.5 7 0.5C5.27609 0.5 3.62279 1.18482 2.40381 2.40381C1.18482 3.62279 0.5 5.27609 0.5 7C0.5 8.72391 1.18482 10.3772 2.40381 11.5962C3.62279 12.8152 5.27609 13.5 7 13.5Z" stroke="#4147D5" stroke-linecap="round" stroke-linejoin="round"/>
</g>
<defs>
<clipPath id="clip0_740_647">
<rect width="14" height="14" fill="white"/>
</clipPath>
</defs>
</svg>
