<svg width="14" height="14" viewBox="0 0 14 14" fill="none" xmlns="http://www.w3.org/2000/svg">
<path d="M12.5 1.5H6.5C6.23478 1.5 5.98043 1.60536 5.79289 1.79289C5.60536 1.98043 5.5 2.23478 5.5 2.5V6.5C5.5 6.76522 5.60536 7.01957 5.79289 7.20711C5.98043 7.39464 6.23478 7.5 6.5 7.5H12.5C12.7652 7.5 13.0196 7.39464 13.2071 7.20711C13.3946 7.01957 13.5 6.76522 13.5 6.5V2.5C13.5 2.23478 13.3946 1.98043 13.2071 1.79289C13.0196 1.60536 12.7652 1.5 12.5 1.5Z" fill="#D7E0FF"/>
<path d="M12.5 1.5H6.5C6.23478 1.5 5.98043 1.60536 5.79289 1.79289C5.60536 1.98043 5.5 2.23478 5.5 2.5V6.5C5.5 6.76522 5.60536 7.01957 5.79289 7.20711C5.98043 7.39464 6.23478 7.5 6.5 7.5H12.5C12.7652 7.5 13.0196 7.39464 13.2071 7.20711C13.3946 7.01957 13.5 6.76522 13.5 6.5V2.5C13.5 2.23478 13.3946 1.98043 13.2071 1.79289C13.0196 1.60536 12.7652 1.5 12.5 1.5Z" stroke="#4147D5" stroke-linecap="round" stroke-linejoin="round"/>
<path d="M11 10H4C3.73478 10 3.48043 9.89464 3.29289 9.70711C3.10536 9.51957 3 9.26522 3 9V4" stroke="#4147D5" stroke-linecap="round" stroke-linejoin="round"/>
<path d="M9 12.5H1.5C1.23478 12.5 0.98043 12.3946 0.792893 12.2071C0.605357 12.0196 0.5 11.7652 0.5 11.5V6" stroke="#4147D5" stroke-linecap="round" stroke-linejoin="round"/>
</svg>
