<svg width="22" height="22" viewBox="0 0 22 22" fill="none" xmlns="http://www.w3.org/2000/svg">
<path d="M15.125 18.6863L13.3444 16.9056L12.375 17.875L15.125 20.625L20.625 15.125L19.6556 14.1556L15.125 18.6863ZM6.1875 11.6875H11V13.0625H6.1875V11.6875ZM6.1875 8.25H14.4375V9.625H6.1875V8.25ZM6.1875 4.8125H14.4375V6.1875H6.1875V4.8125Z" fill="#4147D5"/>
<path d="M11 20.625H4.125C3.36669 20.625 2.75 20.0083 2.75 19.25V2.75C2.75 1.99169 3.36669 1.375 4.125 1.375H16.5C17.2583 1.375 17.875 1.99169 17.875 2.75V13.0625H16.5V2.75H4.125V19.25H11V20.625Z" fill="#4147D5"/>
</svg>
