<svg width="23" height="23" viewBox="0 0 23 23" fill="none" xmlns="http://www.w3.org/2000/svg">
<path d="M9.08333 0.625H1.83333C1.51286 0.625 1.20552 0.752306 0.978913 0.978913C0.752306 1.20552 0.625 1.51286 0.625 1.83333V9.08333C0.625 9.4038 0.752306 9.71115 0.978913 9.93775C1.20552 10.1644 1.51286 10.2917 1.83333 10.2917H9.08333C9.4038 10.2917 9.71115 10.1644 9.93775 9.93775C10.1644 9.71115 10.2917 9.4038 10.2917 9.08333V1.83333C10.2917 1.51286 10.1644 1.20552 9.93775 0.978913C9.71115 0.752306 9.4038 0.625 9.08333 0.625ZM7.875 7.875H3.04167V3.04167H7.875V7.875ZM21.1667 0.625H13.9167C13.5962 0.625 13.2889 0.752306 13.0622 0.978913C12.8356 1.20552 12.7083 1.51286 12.7083 1.83333V9.08333C12.7083 9.4038 12.8356 9.71115 13.0622 9.93775C13.2889 10.1644 13.5962 10.2917 13.9167 10.2917H21.1667C21.4871 10.2917 21.7945 10.1644 22.0211 9.93775C22.2477 9.71115 22.375 9.4038 22.375 9.08333V1.83333C22.375 1.51286 22.2477 1.20552 22.0211 0.978913C21.7945 0.752306 21.4871 0.625 21.1667 0.625ZM19.9583 7.875H15.125V3.04167H19.9583V7.875ZM9.08333 12.7083H1.83333C1.51286 12.7083 1.20552 12.8356 0.978913 13.0622C0.752306 13.2889 0.625 13.5962 0.625 13.9167V21.1667C0.625 21.4871 0.752306 21.7945 0.978913 22.0211C1.20552 22.2477 1.51286 22.375 1.83333 22.375H9.08333C9.4038 22.375 9.71115 22.2477 9.93775 22.0211C10.1644 21.7945 10.2917 21.4871 10.2917 21.1667V13.9167C10.2917 13.5962 10.1644 13.2889 9.93775 13.0622C9.71115 12.8356 9.4038 12.7083 9.08333 12.7083ZM7.875 19.9583H3.04167V15.125H7.875V19.9583ZM17.5417 12.7083C14.8761 12.7083 12.7083 14.8761 12.7083 17.5417C12.7083 20.2073 14.8761 22.375 17.5417 22.375C20.2073 22.375 22.375 20.2073 22.375 17.5417C22.375 14.8761 20.2073 12.7083 17.5417 12.7083ZM17.5417 19.9583C16.2089 19.9583 15.125 18.8745 15.125 17.5417C15.125 16.2089 16.2089 15.125 17.5417 15.125C18.8745 15.125 19.9583 16.2089 19.9583 17.5417C19.9583 18.8745 18.8745 19.9583 17.5417 19.9583Z" fill="#4F39F6"/>
</svg>
