<svg width="26" height="25" viewBox="0 0 26 25" fill="none" xmlns="http://www.w3.org/2000/svg">
<path d="M17.074 7.24999H17.0833M20.574 7.24999H20.5833M24.6666 6.99682C24.6666 10.0792 22.0545 12.5782 18.8333 12.5782C18.4537 12.5782 18.0777 12.5432 17.7051 12.4732C17.4368 12.423 17.3026 12.3985 17.2093 12.4125C17.116 12.4265 16.983 12.4965 16.7193 12.6377C15.9644 13.04 15.0956 13.1753 14.2541 13.0215C14.5758 12.6241 14.7938 12.1531 14.8888 11.6507C14.9471 11.3415 14.8025 11.0417 14.5855 10.8223C13.573 9.80624 13.0031 8.43122 13 6.99682C13 3.91566 15.6121 1.41666 18.8333 1.41666C22.0545 1.41666 24.6666 3.91566 24.6666 6.99682ZM7.75228 23.5833H4.50428C4.12745 23.5833 3.74828 23.5297 3.40178 23.3815C2.27478 22.8973 1.70195 22.2568 1.43595 21.8567C1.36376 21.7458 1.32829 21.6151 1.33457 21.4829C1.34086 21.3508 1.38857 21.224 1.47095 21.1205C2.77762 19.3845 5.81095 18.3368 7.75812 18.3368C9.70412 18.3368 12.7328 19.3845 14.0395 21.1205C14.204 21.3387 14.2261 21.6292 14.0745 21.8567C13.8073 22.2568 13.2345 22.8973 12.1075 23.3815C11.7573 23.5224 11.3823 23.591 11.005 23.5833H7.75228ZM11.0003 12.2538C10.9997 12.6791 10.9153 13.1002 10.752 13.4929C10.5886 13.8856 10.3496 14.2422 10.0484 14.5425C9.74723 14.8428 9.38986 15.0809 8.99669 15.2431C8.60352 15.4053 8.18226 15.4884 7.75695 15.4878C6.89841 15.4884 6.07475 15.1481 5.46701 14.5417C4.85927 13.9353 4.51719 13.1124 4.51595 12.2538C4.51641 11.8285 4.60064 11.4075 4.76382 11.0147C4.927 10.6219 5.16595 10.2652 5.46701 9.96476C5.76807 9.66435 6.12536 9.42618 6.51847 9.26385C6.91158 9.10151 7.33281 9.0182 7.75812 9.01866C8.18343 9.0182 8.60466 9.10151 8.99777 9.26385C9.39088 9.42618 9.74816 9.66435 10.0492 9.96476C10.3503 10.2652 10.5892 10.6219 10.7524 11.0147C10.9156 11.4075 10.9998 11.8285 11.0003 12.2538Z" stroke="#4949FF" stroke-width="1.5" stroke-linecap="round" stroke-linejoin="round"/>
</svg>
