<svg width="14" height="14" viewBox="0 0 14 14" fill="none" xmlns="http://www.w3.org/2000/svg">
<g clip-path="url(#clip0_741_770)">
<path d="M7.00022 6.50503C6.77022 6.50503 6.54222 6.55203 6.33022 6.64403L0.620219 9.30903L0.606219 9.31603C0.430981 9.40438 0.283712 9.53965 0.180816 9.70676C0.0779199 9.87388 0.0234375 10.0663 0.0234375 10.2625C0.0234375 10.4588 0.0779199 10.6512 0.180816 10.8183C0.283712 10.9854 0.430981 11.1207 0.606219 11.209L0.621219 11.216L6.32122 13.856L6.33122 13.861C6.54262 13.953 6.77069 14.0004 7.00122 14.0004C7.23175 14.0004 7.45981 13.953 7.67122 13.861L13.3822 11.195L13.3962 11.189C13.5715 11.1007 13.7187 10.9654 13.8216 10.7983C13.9245 10.6312 13.979 10.4388 13.979 10.2425C13.979 10.0463 13.9245 9.85388 13.8216 9.68676C13.7187 9.51965 13.5715 9.38438 13.3962 9.29603L13.3812 9.28903L7.68122 6.64903L7.67122 6.64403C7.45969 6.55242 7.23173 6.50479 7.00122 6.50403L7.00022 6.50503Z" fill="white"/>
<path d="M7.00118 3.25195C6.77118 3.25195 6.54318 3.29995 6.33118 3.39195L0.621181 6.05595L0.607181 6.06295C0.432204 6.15141 0.285188 6.28665 0.182478 6.45366C0.0797685 6.62067 0.0253906 6.81289 0.0253906 7.00895C0.0253906 7.20502 0.0797685 7.39724 0.182478 7.56425C0.285188 7.73125 0.432204 7.8665 0.607181 7.95495L0.622181 7.96295L6.32218 10.603L6.33218 10.608C6.54359 10.6999 6.77165 10.7473 7.00218 10.7473C7.23271 10.7473 7.46078 10.6999 7.67218 10.608L13.3832 7.94195L13.3972 7.93495C13.5722 7.8465 13.7192 7.71125 13.8219 7.54425C13.9246 7.37724 13.979 7.18502 13.979 6.98895C13.979 6.79289 13.9246 6.60067 13.8219 6.43366C13.7192 6.26665 13.5722 6.13141 13.3972 6.04295L13.3822 6.03495L7.68218 3.39495L7.67218 3.38995C7.4602 3.2989 7.2319 3.25194 7.00118 3.25195Z" fill="#8FBFFA"/>
<path d="M7.00022 0C6.77022 0 6.54222 0.047 6.33022 0.139L0.620219 2.805L0.606219 2.811C0.430981 2.89935 0.283712 3.03462 0.180816 3.20174C0.0779199 3.36885 0.0234375 3.56125 0.0234375 3.7575C0.0234375 3.95375 0.0779199 4.14615 0.180816 4.31326C0.283712 4.48038 0.430981 4.61565 0.606219 4.704L0.621219 4.711L6.32122 7.351L6.33122 7.356C6.54262 7.44794 6.77069 7.49538 7.00122 7.49538C7.23175 7.49538 7.45981 7.44794 7.67122 7.356L13.3822 4.691L13.3962 4.684C13.5715 4.59565 13.7187 4.46038 13.8216 4.29326C13.9245 4.12615 13.979 3.93375 13.979 3.7375C13.979 3.54125 13.9245 3.34885 13.8216 3.18174C13.7187 3.01462 13.5715 2.87935 13.3962 2.791L13.3812 2.784L7.68122 0.144L7.67122 0.139C7.45931 0.0476012 7.231 0.000307277 7.00022 0Z" fill="white"/>
</g>
<defs>
<clipPath id="clip0_741_770">
<rect width="14" height="14" fill="white"/>
</clipPath>
</defs>
</svg>
