<svg width="14" height="14" viewBox="0 0 14 14" fill="none" xmlns="http://www.w3.org/2000/svg">
<g clip-path="url(#clip0_740_708)">
<path d="M1.75 10.5C2.21413 10.5 2.65925 10.6844 2.98744 11.0126C3.31563 11.3408 3.5 11.7859 3.5 12.25C3.5 12.7141 3.31563 13.1592 2.98744 13.4874C2.65925 13.8156 2.21413 14 1.75 14C1.28587 14 0.840752 13.8156 0.512563 13.4874C0.184374 13.1592 0 12.7141 0 12.25C0 11.7859 0.184374 11.3408 0.512563 11.0126C0.840752 10.6844 1.28587 10.5 1.75 10.5ZM12.25 10.5C12.7141 10.5 13.1592 10.6844 13.4874 11.0126C13.8156 11.3408 14 11.7859 14 12.25C14 12.7141 13.8156 13.1592 13.4874 13.4874C13.1592 13.8156 12.7141 14 12.25 14C11.7859 14 11.3408 13.8156 11.0126 13.4874C10.6844 13.1592 10.5 12.7141 10.5 12.25C10.5 11.7859 10.6844 11.3408 11.0126 11.0126C11.3408 10.6844 11.7859 10.5 12.25 10.5ZM1.75 11.375C1.51794 11.375 1.29538 11.4672 1.13128 11.6313C0.967187 11.7954 0.875 12.0179 0.875 12.25C0.875 12.4821 0.967187 12.7046 1.13128 12.8687C1.29538 13.0328 1.51794 13.125 1.75 13.125C1.98206 13.125 2.20462 13.0328 2.36872 12.8687C2.53281 12.7046 2.625 12.4821 2.625 12.25C2.625 12.0179 2.53281 11.7954 2.36872 11.6313C2.20462 11.4672 1.98206 11.375 1.75 11.375ZM12.25 11.375C12.0179 11.375 11.7954 11.4672 11.6313 11.6313C11.4672 11.7954 11.375 12.0179 11.375 12.25C11.375 12.4821 11.4672 12.7046 11.6313 12.8687C11.7954 13.0328 12.0179 13.125 12.25 13.125C12.4821 13.125 12.7046 13.0328 12.8687 12.8687C13.0328 12.7046 13.125 12.4821 13.125 12.25C13.125 12.0179 13.0328 11.7954 12.8687 11.6313C12.7046 11.4672 12.4821 11.375 12.25 11.375ZM7.4375 3.9375V6.5625H10.0625V7.4375H7.4375V10.0625H6.5625V7.4375H3.9375V6.5625H6.5625V3.9375H7.4375ZM1.75 0C2.21413 0 2.65925 0.184374 2.98744 0.512563C3.31563 0.840752 3.5 1.28587 3.5 1.75C3.5 2.21413 3.31563 2.65925 2.98744 2.98744C2.65925 3.31563 2.21413 3.5 1.75 3.5C1.28587 3.5 0.840752 3.31563 0.512563 2.98744C0.184374 2.65925 0 2.21413 0 1.75C0 1.28587 0.184374 0.840752 0.512563 0.512563C0.840752 0.184374 1.28587 0 1.75 0ZM12.25 0C12.7141 0 13.1592 0.184374 13.4874 0.512563C13.8156 0.840752 14 1.28587 14 1.75C14 2.21413 13.8156 2.65925 13.4874 2.98744C13.1592 3.31563 12.7141 3.5 12.25 3.5C11.7859 3.5 11.3408 3.31563 11.0126 2.98744C10.6844 2.65925 10.5 2.21413 10.5 1.75C10.5 1.28587 10.6844 0.840752 11.0126 0.512563C11.3408 0.184374 11.7859 0 12.25 0ZM12.25 0.875C12.0179 0.875 11.7954 0.967187 11.6313 1.13128C11.4672 1.29538 11.375 1.51794 11.375 1.75C11.375 1.98206 11.4672 2.20462 11.6313 2.36872C11.7954 2.53281 12.0179 2.625 12.25 2.625C12.4821 2.625 12.7046 2.53281 12.8687 2.36872C13.0328 2.20462 13.125 1.98206 13.125 1.75C13.125 1.51794 13.0328 1.29538 12.8687 1.13128C12.7046 0.967187 12.4821 0.875 12.25 0.875ZM1.75 0.875C1.51794 0.875 1.29538 0.967187 1.13128 1.13128C0.967187 1.29538 0.875 1.51794 0.875 1.75C0.875 1.98206 0.967187 2.20462 1.13128 2.36872C1.29538 2.53281 1.51794 2.625 1.75 2.625C1.98206 2.625 2.20462 2.53281 2.36872 2.36872C2.53281 2.20462 2.625 1.98206 2.625 1.75C2.625 1.51794 2.53281 1.29538 2.36872 1.13128C2.20462 0.967187 1.98206 0.875 1.75 0.875Z" fill="#4147D5"/>
<path d="M9.22163 12.7094C9.26625 13.0056 9.35288 13.2878 9.47625 13.5494C8.68484 13.848 7.84587 14.0006 7 14C6.12806 14 5.29375 13.8408 4.52375 13.5494C4.64669 13.2878 4.73375 13.0056 4.77838 12.7094C5.467 12.978 6.21644 13.125 7 13.125C7.78356 13.125 8.533 12.978 9.22163 12.7094ZM13.5494 4.52375C13.848 5.31516 14.0006 6.15414 14 7C14 7.87194 13.8408 8.70625 13.5494 9.47625C13.2831 9.35148 13.0001 9.26573 12.7094 9.22163C12.978 8.533 13.125 7.78356 13.125 7C13.125 6.21644 12.978 5.467 12.7094 4.77838C13.0001 4.73428 13.2831 4.64852 13.5494 4.52375ZM0.450627 4.52375C0.712252 4.64669 0.994439 4.73375 1.29063 4.77838C1.01547 5.48672 0.874529 6.24009 0.875002 7C0.875002 7.78356 1.022 8.533 1.29063 9.22163C0.999853 9.26573 0.716948 9.35148 0.450627 9.47625C0.15204 8.68484 -0.000635535 7.84587 1.98833e-06 7C1.98833e-06 6.12806 0.159252 5.29375 0.450627 4.52375ZM7 1.98833e-06C7.87194 1.98833e-06 8.70625 0.159252 9.47625 0.450627C9.35148 0.716948 9.26573 0.999853 9.22163 1.29063C8.51328 1.01547 7.75991 0.874529 7 0.875002C6.21644 0.875002 5.467 1.022 4.77838 1.29063C4.73428 0.999853 4.64852 0.716948 4.52375 0.450627C5.31516 0.15204 6.15414 -0.000635535 7 1.98833e-06Z" fill="#8FBFFA"/>
</g>
<defs>
<clipPath id="clip0_740_708">
<rect width="14" height="14" fill="white"/>
</clipPath>
</defs>
</svg>
