<svg width="15" height="13" viewBox="0 0 15 13" fill="none" xmlns="http://www.w3.org/2000/svg">
<path d="M3.90625 5.13806C3.90625 4.87285 4.01161 4.61849 4.19914 4.43095C4.38668 4.24342 4.64103 4.13806 4.90625 4.13806H12.6562C12.9215 4.13806 13.1758 4.24342 13.3634 4.43095C13.5509 4.61849 13.6562 4.87285 13.6562 5.13806V11.1381C13.6562 11.4033 13.5509 11.6576 13.3634 11.8452C13.1758 12.0327 12.9215 12.1381 12.6562 12.1381H4.90625C4.64103 12.1381 4.38668 12.0327 4.19914 11.8452C4.01161 11.6576 3.90625 11.4033 3.90625 11.1381V5.13806Z" fill="#D7E0FF"/>
<path d="M3.90625 5.13806C3.90625 4.87285 4.01161 4.61849 4.19914 4.43095C4.38668 4.24342 4.64103 4.13806 4.90625 4.13806H12.6562C12.9215 4.13806 13.1758 4.24342 13.3634 4.43095C13.5509 4.61849 13.6562 4.87285 13.6562 5.13806V11.1381C13.6562 11.4033 13.5509 11.6576 13.3634 11.8452C13.1758 12.0327 12.9215 12.1381 12.6562 12.1381H4.90625C4.64103 12.1381 4.38668 12.0327 4.19914 11.8452C4.01161 11.6576 3.90625 11.4033 3.90625 11.1381V5.13806Z" stroke="#4147D5" stroke-linecap="round" stroke-linejoin="round"/>
<path d="M10.7188 2.35705V2.07605C10.7188 1.81083 10.6134 1.55648 10.4259 1.36894C10.2383 1.18141 9.98397 1.07605 9.71875 1.07605H1.96875C1.70353 1.07605 1.44918 1.18141 1.26164 1.36894C1.07411 1.55648 0.96875 1.81083 0.96875 2.07605V8.07605C0.96875 8.34127 1.07411 8.59562 1.26164 8.78316C1.44918 8.97069 1.70353 9.07605 1.96875 9.07605H2.15675" stroke="#4147D5" stroke-linecap="round" stroke-linejoin="round"/>
<path d="M7.71875 6.26306L10.7188 8.13806L7.71875 10.0131V6.26306Z" fill="white"/>
<path d="M7.71875 6.26306L10.7188 8.13806L7.71875 10.0131V6.26306Z" stroke="#4147D5" stroke-linecap="round" stroke-linejoin="round"/>
</svg>
