<svg width="22" height="22" viewBox="0 0 22 22" fill="none" xmlns="http://www.w3.org/2000/svg">
<path d="M10.084 8.24996C10.084 9.77163 8.85565 11 7.33398 11C5.81232 11 4.58398 9.77163 4.58398 8.24996C4.58398 6.72829 5.81232 5.49996 7.33398 5.49996C8.85565 5.49996 10.084 6.72829 10.084 8.24996ZM12.834 18.3333H1.83398V16.5C1.83398 14.4741 4.29982 12.8333 7.33398 12.8333C10.3682 12.8333 12.834 14.4741 12.834 16.5M20.1673 11V12.8333H11.9173V11M20.1673 7.33329V9.16663H11.9173V7.33329M20.1673 3.66663V5.49996H11.9173V3.66663H20.1673Z" fill="white"/>
</svg>
