<svg width="14" height="14" viewBox="0 0 14 14" fill="none" xmlns="http://www.w3.org/2000/svg">
<g clip-path="url(#clip0_740_673)">
<path d="M6.99958 9.00001C7.55533 9.00001 8.10564 8.89055 8.61909 8.67787C9.13254 8.46519 9.59908 8.15346 9.99205 7.76049C10.385 7.36751 10.6968 6.90098 10.9094 6.38753C11.1221 5.87408 11.2316 5.32377 11.2316 4.76801C11.2316 4.21226 11.1221 3.66194 10.9094 3.14849C10.6968 2.63504 10.385 2.16851 9.99205 1.77553C9.59908 1.38256 9.13254 1.07083 8.61909 0.858153C8.10564 0.645475 7.55533 0.536011 6.99958 0.536011C5.87718 0.536011 4.80076 0.981881 4.0071 1.77553C3.21345 2.56919 2.76758 3.64561 2.76758 4.76801C2.76758 5.89041 3.21345 6.96683 4.0071 7.76049C4.80076 8.55414 5.87718 9.00001 6.99958 9.00001Z" fill="white"/>
<path d="M13.1803 13.5C12.7605 12.1908 11.9358 11.0488 10.8251 10.2386C9.71441 9.4284 8.37512 8.99182 7.00031 8.99182C5.62551 8.99182 4.28622 9.4284 3.17553 10.2386C2.06484 11.0488 1.24013 12.1908 0.820312 13.5H13.1803Z" fill="#D7E0FF"/>
<path d="M13.1803 13.5C12.7605 12.1908 11.9358 11.0488 10.8251 10.2386C9.71441 9.4284 8.37512 8.99182 7.00031 8.99182C5.62551 8.99182 4.28622 9.4284 3.17553 10.2386C2.06484 11.0488 1.24013 12.1908 0.820312 13.5H13.1803Z" stroke="#4147D5" stroke-linecap="round" stroke-linejoin="round"/>
<path d="M6.99958 9.00001C7.55533 9.00001 8.10564 8.89055 8.61909 8.67787C9.13254 8.46519 9.59908 8.15346 9.99205 7.76049C10.385 7.36751 10.6968 6.90098 10.9094 6.38753C11.1221 5.87408 11.2316 5.32377 11.2316 4.76801C11.2316 4.21226 11.1221 3.66194 10.9094 3.14849C10.6968 2.63504 10.385 2.16851 9.99205 1.77553C9.59908 1.38256 9.13254 1.07083 8.61909 0.858153C8.10564 0.645475 7.55533 0.536011 6.99958 0.536011C5.87718 0.536011 4.80076 0.981881 4.0071 1.77553C3.21345 2.56919 2.76758 3.64561 2.76758 4.76801C2.76758 5.89041 3.21345 6.96683 4.0071 7.76049C4.80076 8.55414 5.87718 9.00001 6.99958 9.00001Z" stroke="#4147D5" stroke-linecap="round" stroke-linejoin="round"/>
<path d="M8.38314 6.40503C8.38314 6.40503 8.03114 7.09603 7.00114 7.09603C5.97114 7.09603 5.61914 6.40603 5.61914 6.40603" stroke="#4147D5" stroke-linecap="round" stroke-linejoin="round"/>
<path d="M11.1547 3.962H11.1267C10.5423 3.96236 9.96465 3.83843 9.4319 3.59844C8.89915 3.35845 8.42355 3.00788 8.03666 2.57C7.64965 3.008 7.17389 3.35865 6.64096 3.59865C6.10803 3.83864 5.53013 3.96251 4.94566 3.962C4.25642 3.96383 3.57784 3.79186 2.97266 3.462C3.2629 2.57001 3.84114 1.79965 4.61661 1.27187C5.39207 0.744082 6.32085 0.488757 7.25713 0.545973C8.19341 0.603189 9.08419 0.969707 9.78962 1.58799C10.495 2.20627 10.9752 3.0413 11.1547 3.962Z" fill="#D7E0FF"/>
<path d="M11.1547 3.962H11.1267C10.5423 3.96236 9.96465 3.83843 9.4319 3.59844C8.89915 3.35845 8.42355 3.00788 8.03666 2.57C7.64965 3.008 7.17389 3.35865 6.64096 3.59865C6.10803 3.83864 5.53013 3.96251 4.94566 3.962C4.25642 3.96383 3.57784 3.79186 2.97266 3.462C3.2629 2.57001 3.84114 1.79965 4.61661 1.27187C5.39207 0.744082 6.32085 0.488757 7.25713 0.545973C8.19341 0.603189 9.08419 0.969707 9.78962 1.58799C10.495 2.20627 10.9752 3.0413 11.1547 3.962Z" stroke="#4147D5" stroke-linecap="round" stroke-linejoin="round"/>
</g>
<defs>
<clipPath id="clip0_740_673">
<rect width="14" height="14" fill="white"/>
</clipPath>
</defs>
</svg>
