<svg width="14" height="14" viewBox="0 0 14 14" fill="none" xmlns="http://www.w3.org/2000/svg">
<g clip-path="url(#clip0_740_682)">
<path d="M7.0003 8.49001C5.51965 8.49001 4.07725 8.96017 2.88103 9.83271C1.6848 10.7053 0.796539 11.9351 0.344297 13.345C0.320193 13.42 0.314148 13.4996 0.326655 13.5774C0.339162 13.6552 0.369866 13.7289 0.416266 13.7925C0.462666 13.8562 0.523448 13.908 0.59366 13.9437C0.663872 13.9794 0.741527 13.998 0.820297 13.998H13.1803C13.2591 13.998 13.3367 13.9794 13.4069 13.9437C13.4771 13.908 13.5379 13.8562 13.5843 13.7925C13.6307 13.7289 13.6614 13.6552 13.6739 13.5774C13.6864 13.4996 13.6804 13.42 13.6563 13.345C13.2042 11.9349 12.316 10.7049 11.1198 9.83212C9.92356 8.95938 8.48106 8.49007 7.0003 8.49001Z" fill="white"/>
<path d="M6.99953 0.00195312C5.74506 0.00195313 4.54196 0.500291 3.65492 1.38734C2.76787 2.27439 2.26953 3.47748 2.26953 4.73195C2.26953 5.98643 2.76787 7.18952 3.65492 8.07657C4.54196 8.96362 5.74506 9.46195 6.99953 9.46195C8.25401 9.46195 9.4571 8.96362 10.3441 8.07657C11.2312 7.18952 11.7295 5.98643 11.7295 4.73195C11.7295 3.47748 11.2312 2.27439 10.3441 1.38734C9.4571 0.500291 8.25401 0.00195313 6.99953 0.00195312Z" fill="#8FBFFA"/>
<path fill-rule="evenodd" clip-rule="evenodd" d="M2.49802 3.30492C2.8227 2.30769 3.46932 1.44651 4.3364 0.856558C5.20347 0.266601 6.24191 -0.018732 7.28869 0.0453477C8.33548 0.109427 9.33136 0.519292 10.12 1.2106C10.9086 1.90192 11.4454 2.83554 11.646 3.86492C11.66 3.93705 11.6579 4.01137 11.6398 4.08259C11.6218 4.15382 11.5883 4.2202 11.5417 4.277C11.4951 4.33381 11.4366 4.37965 11.3703 4.41127C11.304 4.44288 11.2315 4.45949 11.158 4.45992H11.127C9.98581 4.46221 8.88449 4.04022 8.03702 3.27592C7.18878 4.04091 6.08626 4.46296 4.94402 4.45992C4.14402 4.45992 3.39002 4.25692 2.73302 3.89792C2.63074 3.84207 2.55118 3.75224 2.50809 3.64397C2.465 3.5357 2.46209 3.41577 2.49802 3.30492ZM5.33502 5.59492C5.48288 5.52 5.65444 5.50688 5.81197 5.55845C5.9695 5.61002 6.10009 5.72206 6.17502 5.86992C6.26602 6.04892 6.55602 6.23292 7.00002 6.23292C7.44402 6.23292 7.73402 6.04892 7.82502 5.86992C7.90268 5.7268 8.03313 5.61965 8.1886 5.57126C8.34407 5.52287 8.51228 5.53706 8.65745 5.61082C8.80261 5.68457 8.91326 5.81207 8.96585 5.96617C9.01844 6.12027 9.00881 6.28881 8.93902 6.43592C8.55202 7.19692 7.70002 7.48292 7.00002 7.48292C6.30002 7.48292 5.44802 7.19692 5.06102 6.43592C4.98602 6.28818 4.97276 6.11671 5.02414 5.9592C5.07552 5.80169 5.18734 5.67102 5.33502 5.59592V5.59492Z" fill="white"/>
</g>
<defs>
<clipPath id="clip0_740_682">
<rect width="14" height="14" fill="white"/>
</clipPath>
</defs>
</svg>
