<svg width="472" height="472" viewBox="0 0 472 472" fill="none" xmlns="http://www.w3.org/2000/svg">
<path d="M336.064 159.819C336.064 159.819 339.368 133.198 320.205 121.398C301.042 109.598 279.518 106.955 262.715 116.584C245.912 126.213 234.678 137.635 238.926 158.686C243.174 179.738 249.216 189.744 244.118 198.523C239.021 207.302 238.549 211.834 246.006 212.872C253.558 214.005 246.95 225.805 252.992 230.619C259.034 235.434 293.678 233.546 304.912 222.123C316.146 210.701 350.696 217.309 359.569 205.509C368.443 193.709 347.864 191.066 352.584 183.325C357.304 175.584 357.304 172.941 347.864 171.902C338.424 170.864 337.008 163.878 336.064 159.819Z" fill="#000005"/>
<path d="M266.774 233.64C260.166 233.64 254.785 232.79 252.614 231.091C249.593 228.637 249.499 224.672 249.499 221.085C249.405 216.648 249.216 214.005 245.817 213.438C242.797 212.966 241.003 212.022 240.153 210.323C239.021 207.963 240.059 204.47 243.552 198.334C247.045 192.387 245.251 185.968 242.419 175.395C241.097 170.675 239.681 165.294 238.36 158.781C233.829 136.03 247.233 124.891 262.432 116.206C278.763 106.861 300.381 108.654 320.393 121.021C339.085 132.537 336.725 158.12 336.536 159.819V160.008C337.48 164.161 338.896 170.486 347.769 171.525C352.489 172.091 354.755 173.035 355.605 174.734C356.549 176.717 355.321 179.549 352.773 183.702C350.885 186.723 353.528 188.989 356.454 191.537C360.23 194.841 365.045 198.901 359.758 205.886C355.133 212.022 344.088 213.25 332.477 214.571C321.621 215.798 310.481 217.025 305.006 222.501C297.643 230.242 279.801 233.64 266.774 233.64ZM285.654 111.203C277.725 111.109 269.889 113.091 262.998 116.962C248.083 125.458 234.961 136.408 239.398 158.592C240.72 165.105 242.136 170.486 243.457 175.206C246.289 185.685 248.177 192.576 244.496 198.806C241.097 204.565 240.153 207.963 241.097 209.945C241.758 211.267 243.363 212.117 246.006 212.494C250.349 213.155 250.349 217.12 250.443 221.085C250.443 224.577 250.537 228.259 253.275 230.336C259.033 234.962 293.584 233.074 304.534 221.84C310.198 216.082 321.526 214.854 332.571 213.627C343.993 212.306 354.849 211.173 359.192 205.32C363.912 198.995 359.947 195.597 355.982 192.198C352.961 189.555 349.846 186.912 352.112 183.136C354.377 179.36 355.699 176.622 354.849 175.017C354.189 173.696 352.017 172.846 347.769 172.374C338.329 171.242 336.725 164.256 335.781 160.102L335.686 159.819C335.686 159.725 335.686 159.725 335.686 159.63C335.686 159.347 338.707 133.198 320.016 121.681C308.593 114.79 296.699 111.203 285.654 111.203Z" fill="#000005"/>
<path d="M252.897 208.813C236.849 197.768 246.478 152.173 246.478 152.173C253.558 149.246 264.414 139.806 264.414 139.806C265.264 163.123 293.017 163.973 293.017 163.973C295.944 150.662 311.048 152.173 312.653 164.256C314.258 176.339 303.118 179.926 303.118 179.926C303.118 179.926 317.373 216.082 317.278 221.085C317.184 226.088 291.318 237.699 278.857 216.365C278.857 216.365 263.753 216.365 252.897 208.813Z" fill="white"/>
<path d="M254.125 209.096C253.747 208.813 253.369 208.529 252.992 208.246C252.52 207.869 252.142 207.397 251.765 206.925C250.915 205.886 250.254 204.848 249.688 203.715C248.461 201.166 247.517 198.429 246.95 195.597C245.723 189.272 245.345 182.758 245.723 176.339C246.006 170.864 246.478 165.294 247.328 159.819C247.611 158.214 247.894 156.515 248.177 154.91C248.177 154.533 248.272 154.061 248.461 153.683C248.65 153.117 249.216 153.117 249.782 152.833C255.824 149.907 261.394 145.47 266.397 141.033L262.337 138.768C262.432 142.921 263.565 146.886 265.641 150.473C267.718 153.589 270.456 156.326 273.571 158.309C278.857 161.707 284.805 163.973 291.035 164.917C292.357 165.105 293.584 165.294 294.905 165.294L295 165.2C295.755 161.707 297.737 158.12 301.136 156.609C302.457 156.043 303.968 155.76 305.384 155.854C305.95 155.949 306.517 156.043 307.083 156.232C307.649 156.326 307.177 156.326 307.177 156.232L306.989 156.137C306.894 155.949 306.989 156.043 306.989 156.137C307.083 156.326 307.366 156.421 307.461 156.515C310.198 159.158 311.048 163.501 310.576 167.182C310.198 170.581 308.499 173.601 305.95 175.867C304.534 177.094 302.929 178.038 301.136 178.699C301.041 178.699 300.947 178.793 301.041 178.888C303.024 183.985 305.006 189.083 306.894 194.275C309.726 201.733 312.653 209.285 314.635 217.025C315.107 218.913 315.485 220.329 313.974 221.934C311.897 224.105 308.782 225.427 305.856 226.277C301.891 227.504 297.643 227.787 293.584 227.126C292.545 226.937 291.507 226.654 290.469 226.371C289.619 226.088 288.77 225.71 288.014 225.238C287.165 224.766 286.41 224.105 285.749 223.539C284.805 222.689 283.861 221.651 283.011 220.613C282.539 220.046 282.161 219.48 281.689 218.819C281.312 218.064 280.84 217.403 280.273 216.742C279.235 215.798 278.008 215.232 276.592 215.043C275.459 214.949 274.232 214.949 273.099 214.854C267.718 214.477 262.432 213.155 257.523 211.078C256.485 210.512 255.258 209.851 254.125 209.096C253.37 208.624 252.142 207.585 251.198 207.68C250.254 207.774 251.293 208.435 251.67 208.624C260.261 214.382 270.456 217.497 280.84 217.497L276.875 215.232C281.501 223.067 289.808 228.825 298.965 229.675C305.006 230.241 311.709 228.92 316.712 225.427C317.939 224.577 319.449 223.35 319.355 221.745C319.166 219.669 318.6 217.592 317.939 215.704C315.862 208.907 313.408 202.299 310.953 195.597C309.821 192.481 308.594 189.461 307.461 186.345C306.894 184.552 306.233 182.853 305.478 181.248C305.384 181.153 305.384 180.965 305.289 180.87C305.289 181.059 305.006 181.059 305.289 180.965C306.045 180.776 306.8 180.398 307.366 179.926C314.257 176.339 316.995 167.937 313.502 161.046C311.709 157.459 308.027 154.91 304.251 153.683C301.136 152.645 297.643 153.305 295.094 155.382C293.584 156.704 292.545 158.309 291.79 160.102C291.601 160.574 291.413 161.046 291.318 161.518C291.318 161.613 291.129 162.651 291.129 162.651H290.846C290.752 162.651 290.657 162.651 290.563 162.651H290.374L289.336 162.557C288.392 162.462 287.542 162.273 286.598 162.179C285.465 161.99 284.238 161.707 283.2 161.424C281.878 161.046 280.368 160.574 279.424 160.197L278.291 159.725C277.913 159.536 278.197 159.63 278.291 159.725L277.725 159.441L277.158 159.158C276.592 158.875 277.63 159.441 276.969 159.064L276.592 158.875L276.214 158.686C275.648 158.403 275.081 158.025 274.609 157.553C274.043 157.081 273.477 156.609 272.91 156.137C270.361 153.683 268.379 150.568 267.435 147.075C266.869 145.093 266.585 143.016 266.491 140.939C266.491 140.089 262.998 138.107 262.337 138.673C257.806 142.733 252.897 146.414 247.611 149.435C246.761 149.907 246.006 150.285 245.157 150.662C244.874 150.757 244.59 150.851 244.401 151.04C244.307 151.323 244.213 151.606 244.213 151.889C243.93 153.4 243.646 154.91 243.457 156.421C241.569 168.126 240.531 180.398 242.608 192.104C243.741 198.429 246.195 204.659 251.576 208.435C252.331 208.907 253.558 209.945 254.502 209.851C255.446 209.757 254.502 209.379 254.125 209.096Z" fill="#000005"/>
<path d="M289.336 179.36C289.147 178.605 289.242 178.888 289.336 179.265C289.43 179.643 289.43 179.832 289.43 180.115C289.43 180.398 289.43 180.965 289.43 181.437C289.43 181.72 289.43 181.909 289.43 182.192C289.43 182.475 289.43 182.475 289.43 182.569C289.43 182.664 289.336 183.136 289.43 182.758C289.525 182.381 289.43 182.853 289.43 182.947L289.336 183.325C289.242 183.608 289.241 183.985 289.147 184.269C289.053 184.552 288.958 184.835 288.864 185.118L288.675 185.496L288.581 185.685C288.486 185.968 288.864 185.213 288.581 185.59C288.203 186.157 287.826 186.723 287.448 187.195L287.259 187.384C287.07 187.667 287.354 187.384 287.354 187.289C287.354 187.384 286.976 187.573 286.976 187.667C286.693 187.95 286.41 188.139 286.032 188.328C285.938 188.328 285.843 188.422 285.749 188.517C285.466 188.705 285.654 188.611 285.749 188.517C285.56 188.611 285.277 188.8 285.088 188.8C284.616 188.989 284.144 189.177 283.578 189.272C283.294 189.461 283.389 189.366 283.578 189.272C283.483 189.366 283.294 189.366 283.106 189.366C282.822 189.461 282.445 189.461 282.162 189.555C281.501 189.649 280.746 189.649 280.085 189.744C279.141 189.744 278.386 190.499 278.48 191.443C278.48 191.632 278.48 191.726 278.574 191.915C279.046 192.953 280.179 193.614 281.406 193.52C285.466 193.425 289.902 192.009 292.168 188.517C293.584 186.251 294.245 183.608 294.056 180.965C294.056 180.304 293.962 179.643 293.773 178.982C293.584 177.849 291.885 177.189 290.941 177.377C289.997 177.377 289.242 178.227 289.336 179.171C289.242 179.171 289.336 179.36 289.336 179.36Z" fill="#000005"/>
<path d="M255.541 172.563C255.446 171.902 255.258 171.242 254.88 170.581C254.314 169.637 253.464 168.976 252.426 168.598C251.482 168.221 250.349 168.126 249.405 168.41C248.65 168.598 248.083 169.165 247.894 169.92C247.8 170.864 247.894 171.902 248.272 172.752C248.555 173.224 249.027 173.602 249.594 173.696C249.877 173.79 250.443 173.79 250.254 173.318C249.877 172.563 249.782 171.714 249.877 170.958C250.16 170.203 250.821 169.731 251.67 169.637C251.859 169.637 252.048 169.637 252.237 169.637L252.614 169.731C252.426 169.731 252.709 169.731 252.709 169.826C252.614 169.731 252.614 169.731 252.709 169.826C252.803 169.826 252.803 169.92 252.709 169.826H252.803C252.898 169.92 252.898 169.92 252.709 169.731L252.803 169.826C252.709 169.731 252.709 169.731 252.709 169.826L252.803 169.92C252.709 169.826 252.709 169.826 252.803 169.92C252.803 170.014 252.898 170.014 252.992 170.109C252.898 169.92 252.992 170.203 253.086 170.203C253.181 170.392 253.181 170.486 253.275 170.675C253.37 170.958 253.464 171.336 253.464 171.619C253.558 172.091 254.125 172.469 254.597 172.658C254.786 172.752 255.73 173.035 255.541 172.563Z" fill="#000005"/>
<path d="M275.742 170.581C275.837 169.92 275.742 169.165 275.553 168.504C275.176 167.56 274.421 166.805 273.571 166.333C272.627 165.766 271.494 165.483 270.361 165.577C269.606 165.672 268.945 166.049 268.568 166.71C268.19 167.56 268.19 168.504 268.285 169.448C268.379 169.92 268.945 170.297 269.417 170.486C269.606 170.581 270.456 170.864 270.456 170.392C270.456 169.92 270.456 169.542 270.456 169.07C270.456 168.881 270.456 168.693 270.456 168.504V168.409C270.456 168.315 270.456 168.315 270.456 168.221C270.55 167.749 270.928 167.371 271.4 167.182C271.683 167.088 271.966 166.993 272.249 166.993H272.533H272.627L272.91 167.088H273.005C273.005 167.088 273.193 167.277 273.099 167.182C273.005 167.088 273.193 167.277 273.193 167.277C273.099 167.182 273.193 167.277 273.193 167.371L273.288 167.465C273.382 167.56 273.382 167.749 273.477 167.843C273.477 167.937 273.571 168.032 273.571 168.221C273.571 168.409 273.571 168.504 273.571 168.693C273.571 169.07 273.571 169.353 273.571 169.731C273.571 169.92 273.76 170.109 273.949 170.297C274.137 170.486 274.421 170.675 274.704 170.769C274.987 170.769 275.742 170.958 275.742 170.581Z" fill="#000005"/>
<path d="M258.845 173.602C255.352 177.755 251.198 181.248 246.667 184.174C231.469 194.275 232.129 200.883 238.643 201.827C245.157 202.771 266.491 190.216 266.491 190.216" fill="white"/>
<path d="M256.673 172.846C252.803 177.755 247.422 181.248 242.419 184.835C239.304 186.912 236.472 189.461 234.112 192.387C232.885 193.992 231.752 195.974 231.941 198.051C232.413 202.393 238.926 203.337 242.23 202.865C247.517 202.016 252.709 199.467 257.523 197.107C261.299 195.219 264.981 193.237 268.568 191.16C269.417 190.688 267.529 189.744 267.246 189.649C266.302 189.177 265.264 189.177 264.32 189.555C263.47 190.027 263.093 190.216 262.149 190.782C260.261 191.821 258.278 192.953 256.296 193.897C251.67 196.446 246.856 198.523 241.853 200.222C240.909 200.505 240.059 200.694 239.115 200.883C239.021 200.883 238.36 200.977 238.832 200.883H238.265C238.549 200.883 238.643 200.883 238.265 200.883C238.454 200.883 238.454 200.883 237.982 200.789C237.51 200.694 238.454 200.977 237.888 200.789C237.793 200.789 237.51 200.6 237.982 200.883C237.888 200.883 237.888 200.789 237.793 200.789C237.793 200.789 237.416 200.6 237.699 200.789C237.982 200.977 237.699 200.789 237.605 200.789L237.416 200.6C237.227 200.411 237.699 200.883 237.416 200.6C236.944 200.222 236.661 199.656 236.661 199.089C236.377 197.39 237.416 195.597 238.36 194.275C240.437 191.537 242.985 189.177 245.817 187.289C251.104 183.325 256.957 179.832 261.11 174.545C261.96 173.413 257.617 171.902 256.768 173.035L256.673 172.846Z" fill="#000005"/>
<path d="M277.064 233.074C277.064 233.074 264.886 227.598 273.005 220.99C281.123 214.382 314.163 205.509 321.621 207.019C329.078 208.53 326.246 224.389 326.246 224.389C326.246 224.389 487.104 312.464 431.691 346.92C406.014 362.874 227.032 362.213 211.173 353.717C195.313 345.221 269.984 233.64 277.064 233.074Z" fill="#0C0077"/>
<path d="M366.177 346.92C366.177 346.92 332.005 357.021 336.819 365.705C341.633 374.39 408.185 364.384 410.357 360.041C412.528 355.699 390.249 339.934 366.177 346.92Z" fill="#000005"/>
<path d="M365.328 344.749C361.741 345.787 358.154 347.014 354.661 348.43C349.091 350.601 343.144 352.961 338.518 356.832C336.725 358.342 334.931 360.136 334.554 362.59C334.27 364.856 335.214 367.121 337.008 368.443C340.123 370.897 344.938 371.086 348.714 371.275C361.741 371.936 374.957 370.331 387.701 368.349C393.27 367.499 398.746 366.461 404.126 365.045C405.92 364.573 407.714 364.006 409.413 363.345C410.546 363.062 411.49 362.213 411.962 361.174C412.717 358.814 410.923 356.171 409.318 354.566C406.864 352.112 404.126 350.129 401.011 348.619C392.515 344.182 382.886 342.294 373.352 343.144C370.709 343.427 367.971 343.899 365.328 344.749C363.062 345.315 364.95 349.657 366.838 349.091C376.184 346.448 386.096 346.825 395.158 350.129C398.462 351.262 401.672 352.867 404.598 354.849C405.165 355.227 405.731 355.699 406.298 356.171C406.581 356.36 406.77 356.643 407.053 356.832L407.336 357.115C407.714 357.493 407.147 356.832 407.43 357.209C407.714 357.587 408.091 358.059 408.469 358.437C408.091 358.059 408.374 358.248 408.563 358.531C408.658 358.625 408.658 358.72 408.752 358.814C409.035 359.192 408.563 358.248 408.658 358.625C408.658 358.531 408.941 359.192 408.658 358.625C408.658 358.153 408.752 359.097 408.658 358.625C408.658 358.625 408.846 358.153 408.658 358.437C408.469 358.72 408.563 358.531 408.658 358.437C408.752 358.342 408.752 358.342 408.658 358.437C408.469 358.72 409.035 358.248 408.563 358.531C408.374 358.625 408.186 358.814 407.902 358.909C407.336 359.192 406.77 359.475 406.203 359.664L405.731 359.853L405.542 359.947L404.221 360.325C399.501 361.646 394.592 362.779 389.778 363.629C377.411 365.894 364.95 367.121 352.395 367.216C348.147 367.216 343.805 367.121 339.651 365.8C339.274 365.705 340.029 365.894 339.746 365.8L339.462 365.705L338.896 365.328C338.613 365.233 337.858 364.573 338.424 365.139C338.141 364.95 337.669 364.384 338.141 365.045C338.046 364.95 337.952 364.856 337.952 364.761C338.518 365.611 337.952 364.384 338.235 365.233C338.141 365.045 338.046 364.384 338.141 365.139C338.141 365.045 338.046 364.478 338.046 364.856C338.046 365.233 338.046 364.667 338.046 364.573C338.046 364.195 337.952 364.856 338.046 364.667C338.141 364.478 338.141 364.384 338.141 364.289C338.235 364.101 338.235 363.912 338.33 363.723C338.235 363.817 338.33 363.723 338.518 363.44C338.802 362.968 339.179 362.59 339.557 362.118C341.256 360.419 343.238 359.003 345.41 357.87C348.053 356.36 350.79 355.038 353.622 353.905C357.776 352.112 362.213 350.601 366.178 349.374L366.933 349.185C367.971 348.902 368.16 347.769 367.782 346.825C367.499 345.976 366.461 344.465 365.328 344.749Z" fill="#000005"/>
<path d="M398.368 333.043C398.368 333.043 365.422 321.243 352.112 323.981C338.802 326.718 338.141 348.241 340.123 349.657C342.106 351.073 346.165 347.486 346.165 347.486C346.165 347.486 339.651 364.384 349.186 358.153C349.186 358.153 348.147 364.667 356.832 359.758C362.496 356.549 367.877 352.867 372.974 348.808C372.974 348.808 364.195 362.496 369.954 361.929C375.712 361.363 385.813 348.525 385.813 348.525C385.813 348.525 421.024 358.059 417.248 347.675" fill="white"/>
<path d="M397.046 331.155C393.27 329.833 389.494 328.606 385.624 327.473C378.261 325.208 370.803 323.509 363.157 322.281C356.926 321.432 349.469 320.677 344.465 325.208C339.934 329.361 338.046 336.158 337.669 342.2C337.574 344.371 337.574 346.825 338.707 348.808C339.84 350.79 341.445 352.301 343.71 351.545C345.126 351.073 346.353 350.224 347.486 349.28L344.465 345.787C343.71 347.769 343.144 349.752 342.672 351.829C342.294 353.15 342.2 354.566 342.389 355.982C342.766 358.059 343.993 359.853 345.881 360.985C347.392 361.835 349.28 360.702 350.601 359.853L347.581 356.36C347.486 357.115 347.581 357.87 347.769 358.625C348.43 360.513 350.224 363.062 352.395 363.345C355.227 363.817 358.248 361.552 360.513 360.23C363.723 358.342 366.838 356.265 369.859 354.094C371.369 352.961 372.88 351.829 374.39 350.696L371.464 347.014C370.331 348.713 369.293 350.601 368.443 352.395C367.405 354.566 365.705 357.587 366.744 360.041C367.405 361.552 368.915 363.629 370.709 363.817C372.125 363.817 373.541 363.345 374.673 362.496C377.883 360.419 380.715 357.87 383.264 355.038C384.302 353.905 385.246 352.773 386.19 351.64C386.473 351.357 386.757 351.073 387.04 350.696C387.134 350.507 387.323 350.413 387.134 350.507C387.512 350.507 387.889 350.696 388.267 350.79C389.117 350.979 389.966 351.262 390.91 351.451C396.669 352.867 402.521 353.905 408.374 354.377C411.773 354.566 420.741 355.038 418.664 349.185C418.286 348.147 417.625 347.297 416.776 346.542C416.587 346.353 415.265 345.409 415.643 346.353C417.342 351.073 409.224 350.79 406.581 350.696C400.539 350.224 394.592 349.28 388.739 347.769C387.323 347.392 385.907 347.109 384.491 346.731H384.208C381.093 350.79 377.505 354.472 373.446 357.681C372.313 358.531 371.086 359.286 369.765 359.853C369.293 360.041 368.726 360.136 368.254 360.136C368.065 360.136 367.782 360.041 367.593 360.041C368.537 360.608 369.198 361.457 369.576 362.496V362.401C369.765 360.136 370.425 357.87 371.558 355.888C372.408 354.094 373.352 352.395 374.485 350.79C374.957 350.035 372.125 346.637 371.558 347.109C367.027 350.79 362.213 354.094 357.209 357.021C355.605 358.059 353.905 358.909 352.017 359.569C351.451 359.758 350.885 359.853 350.318 359.853C350.035 359.853 349.563 359.569 349.374 359.664C350.224 359.569 350.413 361.363 350.979 361.552C351.073 361.552 350.979 361.741 350.979 361.457C350.885 361.269 350.885 361.08 350.885 360.891C350.885 360.608 350.885 360.325 350.885 360.041C350.979 359.286 348.619 356.077 347.864 356.549C347.109 357.115 346.165 357.587 345.221 357.87C344.937 357.87 344.654 357.965 344.371 357.87C344.182 357.87 344.277 357.776 344.182 357.776C344.749 358.153 345.221 358.625 345.598 359.192L345.976 359.853C345.881 359.758 345.976 360.041 345.976 359.664C345.976 359.664 345.881 359.286 345.881 359.475C345.881 359.192 345.787 358.814 345.881 358.531C345.881 357.776 345.976 356.926 346.165 356.171C346.637 353.905 347.203 351.64 348.053 349.469C348.336 348.808 345.598 345.409 345.032 345.976C344.182 346.731 343.238 347.392 342.2 347.864C341.539 348.241 340.689 348.43 339.934 348.43C339.84 348.43 339.745 348.336 339.651 348.336C341.917 348.336 341.067 350.035 341.633 350.696C341.539 350.601 341.633 350.979 341.633 350.601C341.256 348.619 341.256 346.637 341.445 344.654C342.011 338.896 343.993 332.571 348.619 328.795C353.528 324.83 360.513 325.585 366.366 326.435C373.635 327.568 380.809 329.173 387.889 331.344C392.043 332.571 396.197 333.798 400.256 335.309C400.917 335.497 399.784 333.609 399.784 333.609C399.312 332.76 398.557 332.005 397.613 331.627L397.046 331.155Z" fill="#000005"/>
<path d="M360.514 332.949C360.514 332.949 350.13 339.746 346.07 347.392L360.514 332.949Z" fill="white"/>
<path d="M358.72 331.344C354.661 333.987 350.885 337.291 347.675 340.973C346.353 342.483 345.221 344.088 344.277 345.881C343.805 346.731 344.654 347.769 345.315 348.336C345.693 348.619 347.392 349.846 347.864 349.091C349.657 346.07 351.829 343.238 354.472 340.878C356.549 338.99 358.72 337.197 360.985 335.497C361.457 335.214 361.835 334.837 362.307 334.553C362.59 334.365 362.401 333.704 362.307 333.515C362.118 332.949 361.741 332.571 361.269 332.193C360.513 331.533 359.569 330.872 358.72 331.344Z" fill="#000005"/>
<path d="M372.502 337.291C372.502 337.291 352.867 349.846 348.997 358.059L372.502 337.291Z" fill="white"/>
<path d="M370.52 336.253C363.629 340.501 357.21 345.504 351.451 351.168C349.658 352.867 348.053 354.944 346.92 357.115C346.542 357.965 350.79 359.947 351.168 359.098C353.15 354.85 357.115 351.546 360.608 348.619C364.29 345.598 368.066 342.766 371.936 340.123C372.786 339.557 373.541 338.99 374.39 338.518C375.146 338.046 371.558 335.686 370.52 336.253Z" fill="#000005"/>
<path d="M287.92 383.264C287.92 383.264 346.448 407.808 367.782 400.728C389.117 393.648 341.256 374.107 337.858 378.449C334.459 382.792 344.938 383.169 352.112 372.785" fill="white"/>
<path d="M286.504 384.963C294.245 388.173 302.174 391.099 310.104 393.742C324.075 398.368 338.518 402.71 353.245 403.749C358.909 404.126 365.045 404.032 370.331 401.672C372.408 400.728 374.579 399.218 375.334 396.858C375.806 395.158 375.429 393.365 374.39 391.949C371.653 387.89 366.838 385.152 362.59 382.981C357.682 380.432 352.49 378.355 347.109 376.845C343.899 375.995 338.329 374.39 335.969 377.6C335.025 378.638 334.837 380.054 335.309 381.376C335.97 382.603 337.48 383.075 338.801 383.075C342.389 383.264 346.07 381.282 348.808 379.11C350.79 377.506 352.49 375.618 353.906 373.541C355.699 370.992 351.829 369.576 350.413 371.653C349.186 373.541 347.581 375.24 345.787 376.656C345.221 377.128 344.56 377.506 343.899 377.883C343.521 378.072 343.144 378.261 342.766 378.45L342.294 378.638C341.539 378.922 342.672 378.544 342.011 378.733C341.633 378.827 341.35 378.922 340.973 379.016L340.595 379.11C340.029 379.205 340.878 379.11 340.501 379.11H339.745C339.273 379.11 340.123 379.11 339.745 379.11C339.651 379.11 339.462 379.11 339.368 379.016C339.84 379.205 339.368 378.922 339.273 378.922C339.273 378.922 339.651 379.205 339.368 379.016C339.085 378.827 339.557 379.488 339.462 379.205V379.394C339.462 379.394 339.557 379.582 339.462 379.299C339.274 379.488 339.368 379.016 339.462 379.299C339.84 378.827 339.274 379.394 339.557 379.11C339.746 378.922 338.99 379.582 339.368 379.394C338.707 379.866 338.896 379.677 339.179 379.582C339.462 379.488 338.518 379.866 338.99 379.677C339.179 379.582 339.651 379.677 338.801 379.677C338.896 379.677 339.085 379.677 339.273 379.677C339.651 379.677 339.934 379.677 340.312 379.677C340.406 379.677 340.973 379.771 340.595 379.677C340.217 379.582 340.784 379.677 340.973 379.771C341.445 379.866 341.917 379.866 342.294 379.96C343.333 380.149 344.371 380.432 345.41 380.715C350.224 382.037 354.85 383.925 359.286 386.19C361.552 387.323 363.723 388.55 365.8 390.061C366.555 390.627 367.31 391.194 368.066 391.854C368.726 392.421 369.387 393.082 369.953 393.837C370.048 393.931 370.142 394.026 370.142 394.12C370.142 394.214 369.859 393.742 370.048 394.026L370.331 394.498C370.52 394.781 370.614 395.158 370.803 395.442C370.897 395.63 370.803 394.97 370.803 395.536C370.803 395.63 370.803 395.819 370.897 396.008C370.992 396.48 370.897 396.008 370.897 396.102C370.897 396.291 370.803 396.386 370.803 396.574C370.709 396.952 370.803 396.669 370.803 396.574C370.803 396.574 370.426 397.141 370.709 396.763C370.992 396.386 370.614 396.858 370.52 396.952C370.142 397.518 370.803 396.763 370.331 397.141L369.953 397.424C369.765 397.518 369.104 397.896 369.765 397.518C369.293 397.802 368.821 397.99 368.254 398.274C367.971 398.368 367.688 398.462 367.405 398.651C367.877 398.462 367.216 398.746 367.027 398.746C366.461 398.934 365.894 399.029 365.328 399.218C364.762 399.406 364.195 399.406 363.629 399.501L362.968 399.595H362.685L362.118 399.69C359.286 399.878 356.454 399.878 353.622 399.69C340.406 398.651 326.813 394.686 314.069 390.533C305.478 387.701 297.832 384.869 289.525 381.565L289.147 381.376C288.014 380.904 286.693 381.187 285.937 382.131C285.277 382.886 285.182 384.302 286.315 384.774L286.504 384.963Z" fill="#000005"/>
<path d="M303.024 234.018C295.378 236.472 287.259 237.133 279.33 236C278.291 235.811 279.33 237.038 279.518 237.227C280.274 237.982 281.312 238.454 282.35 238.738C290.469 239.87 298.776 239.21 306.611 236.755C307.366 236.472 305.856 235.339 305.667 235.15C305.101 234.678 303.779 233.734 303.024 234.018Z" fill="white"/>
<path d="M66.4578 383.264C66.4578 383.264 18.597 233.168 30.5858 227.126C42.5746 221.085 227.032 222.595 238.266 232.318C249.499 242.042 261.488 359.381 261.488 359.381C261.488 359.381 310.765 352.678 308.594 357.87C306.423 363.062 278.763 386.285 266.775 391.477C254.786 396.669 77.6914 391.477 66.4578 383.264Z" fill="white"/>
<path d="M68.5345 382.131C67.6849 379.394 66.8353 376.656 65.8913 373.824C63.7201 366.744 61.5489 359.664 59.3777 352.584C56.4513 342.861 53.6193 333.043 50.7873 323.32C47.7665 312.558 44.7457 301.797 41.9137 290.941C39.2705 280.84 36.8161 270.739 34.6449 260.544C32.8513 252.898 31.6241 245.251 30.8689 237.416C30.5857 234.962 30.5857 232.507 30.8689 230.053C30.8689 230.053 30.8689 229.864 30.8689 229.77C30.8689 229.675 30.9633 229.298 31.0577 229.109C31.1521 228.731 31.2465 228.448 31.4353 228.07C31.1521 228.448 31.5297 227.882 31.4353 228.07C31.7185 227.693 31.7185 227.693 31.4353 228.07C31.7185 227.787 31.8129 227.787 31.3409 228.165C31.8129 227.882 30.7745 228.542 31.1521 228.259C31.5297 227.976 30.3969 228.448 30.9633 228.354C31.0577 228.354 31.1521 228.259 31.3409 228.259L31.8129 228.165C32.1905 228.07 31.2465 228.259 31.5297 228.259L31.8129 228.165C32.6625 227.976 33.5121 227.787 34.2673 227.693C35.4001 227.504 36.5329 227.41 37.6657 227.221C38.3265 227.126 38.9873 227.126 39.6481 227.032L40.5921 226.938H40.6865L41.3473 226.843C48.9937 226.182 56.6401 225.899 64.3809 225.71C74.6705 225.427 84.9601 225.238 95.1553 225.238C106.767 225.238 118.283 225.238 129.895 225.427C141.6 225.616 153.4 225.899 165.106 226.277C175.678 226.654 186.251 227.126 196.824 227.882C201.355 228.165 205.886 228.542 210.418 228.92C212.4 229.109 214.382 229.298 216.365 229.486C217.309 229.581 218.158 229.675 219.102 229.77L220.424 229.958L220.99 230.053L221.368 230.147C225.994 230.714 231.091 231.28 235.528 233.168C235.056 232.979 235.811 233.357 236 233.451C236.189 233.64 236.472 233.734 236.661 233.923C237.038 234.206 236.661 233.829 236.85 234.112L237.227 234.678C237.51 235.15 237.794 235.528 238.077 236C239.398 238.643 240.437 241.381 241.286 244.213C243.835 253.181 245.912 262.243 247.328 271.4C249.405 282.728 251.104 294.056 252.709 305.478C254.219 316.051 255.541 326.624 256.768 337.197C257.523 343.899 258.278 350.507 259.034 357.21C259.128 358.154 259.223 359.098 259.317 360.042C259.411 360.986 260.355 360.891 261.016 360.797C269.323 359.664 277.63 358.72 285.938 358.059C291.319 357.493 296.699 357.304 302.08 357.398C302.552 357.398 303.024 357.398 303.402 357.493L304.062 357.587C304.157 357.587 304.251 357.587 304.346 357.587C304.723 357.682 305.007 357.682 305.384 357.776C305.573 357.87 305.856 357.965 306.045 357.965C305.856 357.87 306.234 358.154 306.423 358.248C305.951 357.965 306.423 358.154 306.328 358.248C306.234 358.342 306.328 358.154 306.328 358.154C306.328 358.342 306.234 357.776 306.328 358.059L306.234 358.248C306.234 358.248 306.423 357.87 306.328 358.154C306.234 358.437 305.951 358.814 305.762 359.098C305.667 359.192 305.29 359.664 305.667 359.286C305.573 359.475 305.384 359.664 305.195 359.758C304.818 360.23 304.44 360.608 304.062 361.08C303.118 362.024 302.174 362.968 301.23 363.912C298.871 366.272 296.322 368.443 293.773 370.614C287.826 375.712 281.69 380.432 275.176 384.869C272.722 386.568 270.173 388.078 267.53 389.494L266.774 389.872C266.774 389.872 266.114 390.155 266.491 389.966C266.586 389.966 266.68 389.872 266.491 389.966L266.114 390.155C265.547 390.344 266.302 390.155 266.208 390.155L265.642 390.25C264.698 390.438 263.754 390.627 262.715 390.722C262.149 390.816 261.488 390.816 260.827 390.91C260.638 390.91 260.355 390.91 260.733 390.91H260.261L259.128 391.005C250.726 391.666 242.23 391.76 233.734 391.76C221.84 391.854 210.04 391.76 198.146 391.477C184.741 391.194 171.336 390.816 157.931 390.25C144.999 389.778 132.16 389.117 119.227 388.267C108.749 387.606 98.1761 386.757 87.7921 385.624C84.0161 385.152 80.7121 384.774 76.8417 384.114C74.3873 383.736 72.0273 383.17 69.6673 382.414L69.1009 382.226C68.8177 382.131 68.7233 382.037 68.9121 382.131C68.6289 382.037 68.4401 381.848 68.1569 381.659C66.7409 380.621 62.8705 383.264 64.4753 384.491C66.0801 385.435 67.8737 386.096 69.7617 386.379C72.8769 387.134 76.0865 387.606 79.2961 388.078C89.2081 389.4 99.1201 390.25 109.032 391.005C121.87 391.949 134.709 392.61 147.547 393.27C161.235 393.931 174.923 394.403 188.706 394.686C201.261 394.97 213.816 395.158 226.277 395.158C235.528 395.158 244.874 395.064 254.125 394.498C257.051 394.309 259.978 394.12 262.904 393.742C265.83 393.176 268.663 392.138 271.117 390.533C277.631 386.662 283.861 382.226 289.808 377.411C295.566 372.974 301.042 368.16 306.139 362.968C307.65 361.458 313.03 356.643 309.066 355.038C307.461 354.472 305.762 354.283 304.157 354.283C301.703 354.189 299.154 354.189 296.699 354.283C285.749 354.755 274.799 355.982 264.037 357.398C263.282 357.493 262.621 357.587 261.866 357.682L263.565 358.437C263.187 354.661 262.81 350.885 262.338 347.109C261.299 337.858 260.166 328.701 259.034 319.45C257.523 307.933 256.013 296.416 254.125 284.899C252.426 274.232 250.632 263.565 248.272 252.992C247.328 248.933 246.29 244.779 245.062 240.814C244.307 238.077 243.174 235.434 241.853 232.979C241.003 231.563 239.776 230.43 238.266 229.77C236.472 229.014 234.584 228.542 232.602 228.165C225.805 226.843 218.914 225.899 211.928 225.427C202.205 224.578 192.387 224.011 182.664 223.539C171.242 222.973 159.725 222.595 148.208 222.312C136.314 222.029 124.325 221.84 112.43 221.84C101.291 221.746 90.2465 221.84 79.1073 222.029C70.0449 222.218 61.0769 222.406 52.0145 222.878C46.1617 223.067 40.3089 223.634 34.5505 224.483C32.6625 224.672 30.8689 225.238 29.2641 226.277C27.8481 227.41 26.9041 229.109 26.8097 230.902C25.8657 236.755 26.9985 242.986 27.9425 248.744C29.4529 257.995 31.4353 267.152 33.7009 276.214C36.2497 287.07 39.0817 297.832 42.0081 308.594C44.9345 319.355 47.9553 329.834 51.0705 340.501C53.6193 349.28 56.2625 358.059 58.9057 366.744C60.5105 371.936 62.1153 377.034 63.7201 382.226L64.3809 384.302C64.9473 386.002 69.1009 383.925 68.5345 382.131Z" fill="#000005"/>
<path d="M267.341 381.659L264.32 360.23L259.411 325.963L258.278 318.128C257.995 316.995 257.24 316.051 256.107 315.674C255.352 315.39 254.125 315.485 254.219 316.618L257.24 338.046L262.149 372.314L263.282 380.149C263.565 381.282 264.32 382.226 265.453 382.603C266.208 382.886 267.53 382.792 267.341 381.659Z" fill="#000005"/>
<path d="M129.989 309.821C127.818 316.523 132.254 324.453 139.334 325.586C144.81 326.435 150.285 324.358 153.872 320.11C156.893 316.523 157.931 311.803 155.477 307.555C153.589 304.251 151.04 301.325 147.925 299.154C146.981 298.398 145.848 297.926 144.715 297.832C144.054 297.832 144.998 299.342 145.187 299.531C145.565 300.003 146.509 301.608 147.264 301.608C149.718 301.608 152.078 304.346 153.211 306.139C153.494 306.706 153.778 307.366 153.872 308.027C153.966 308.971 153.966 309.821 153.778 310.765C153.4 312.747 152.55 314.541 151.323 316.051C148.491 319.638 144.149 321.81 139.618 321.904C137.446 322.093 135.275 321.621 133.387 320.488C133.198 320.394 133.01 320.299 132.915 320.11C132.538 319.922 132.915 320.11 133.01 320.299C133.387 320.771 133.104 320.11 133.104 320.488C133.104 320.299 132.726 319.544 132.632 318.883C132.254 316.995 132.443 314.918 133.01 313.125C133.198 312.37 131.971 311.048 131.594 310.576C131.31 310.482 130.178 309.254 129.989 309.821Z" fill="#000005"/>
<path d="M146.603 174.829C146.603 174.829 171.714 192.954 172.941 189.083C174.168 185.213 164.822 93.7393 154.627 90.5297C144.432 87.3201 67.1184 100.914 58.8112 109.221C50.504 117.528 70.8 185.874 75.8976 189.083C80.9952 192.293 146.603 174.829 146.603 174.829Z" fill="#0C0077"/>
<path d="M89.2079 142.355C90.4351 146.415 92.1343 150.379 94.3999 154.061C96.0991 156.893 98.6479 159.159 101.669 160.48C104.973 161.896 109.41 163.029 112.619 160.669C114.413 159.253 115.923 157.554 117.339 155.76C119.227 153.4 121.021 150.851 122.72 148.303C126.402 142.827 129.894 137.069 133.198 131.405C135.181 128.101 137.069 124.703 138.957 121.304C139.24 120.832 138.013 120.171 137.918 120.077C136.974 119.511 135.936 119.039 134.803 118.755C133.765 118.378 132.632 118.189 131.499 118.189C131.027 118.189 130.178 118.189 129.894 118.661C125.552 126.496 121.021 134.237 116.206 141.789C113.186 146.509 110.07 151.418 106.2 155.477C105.634 156.138 104.973 156.704 104.312 157.271C104.029 157.459 103.746 157.743 103.462 157.837C103.274 157.931 103.179 158.026 102.99 158.12L102.613 158.309C102.424 158.403 102.99 158.215 102.518 158.309C101.763 158.403 102.707 158.309 102.424 158.309C103.462 158.403 104.595 158.592 105.539 159.064C105.539 159.064 106.672 159.631 106.106 159.347C107.144 159.819 106.766 159.725 106.483 159.536C106.389 159.536 105.917 159.159 106.389 159.442C106.861 159.725 106.294 159.347 106.2 159.253C105.35 158.592 104.595 157.743 104.029 156.799C101.48 152.928 99.4975 148.68 98.1759 144.243C97.9871 143.677 96.6655 143.111 96.2879 142.922C95.1551 142.45 94.0223 141.978 92.7951 141.789C92.2287 141.695 88.8303 140.939 89.2079 142.355Z" fill="white"/>
<path d="M157.27 81.5617V70.7057C157.27 69.5729 156.138 68.7233 155.194 68.4401C154.533 68.2513 152.928 68.0625 152.928 69.1953V80.0513C152.928 81.0897 154.061 82.0337 155.005 82.3169C155.666 82.5057 157.27 82.6945 157.27 81.5617Z" fill="#0C0077"/>
<path d="M165.578 90.6242C169.165 89.3026 172.374 87.3202 175.206 84.677C176.056 83.6386 175.867 82.1282 174.829 81.2786C173.979 80.6178 172.846 80.6178 171.997 81.1842C171.336 81.7506 170.675 82.317 170.014 82.8834C169.637 83.1666 169.259 83.4498 168.976 83.6386L168.882 83.733L168.787 83.8274L168.221 84.205C166.71 85.149 165.106 85.9042 163.501 86.4706C162.368 86.8482 162.179 88.453 162.746 89.397C163.123 90.6242 164.445 91.0962 165.578 90.6242Z" fill="#0C0077"/>
</svg>
