<svg width="31" height="33" viewBox="0 0 31 33" fill="none" xmlns="http://www.w3.org/2000/svg">
<path d="M15.4898 0.000714644C16.0311 0.000714644 16.564 0.0358336 17.0598 0.118467C17.5483 0.18139 18.0302 0.287859 18.4997 0.436603C18.968 0.577079 19.4321 0.758183 19.8921 0.979914C20.3404 1.19269 20.801 1.45299 21.2617 1.73601C22.0405 2.2318 22.8069 2.63257 23.5878 2.95277C25.1247 3.5693 26.7505 3.93547 28.4033 4.03733C29.2392 4.09931 30.1048 4.13098 31 4.13236V12.3956C31 13.9643 30.7996 15.4558 30.3988 16.8702C30.0138 18.2671 29.4668 19.6142 28.7689 20.8841C28.0741 22.1523 27.2517 23.3463 26.3147 24.4477C25.3639 25.5746 24.3339 26.6322 23.2325 27.6125C22.1156 28.5944 20.9408 29.5085 19.7144 30.3497C18.4859 31.2036 17.2506 31.9907 16.0083 32.7109L15.5125 33.0064L15.0167 32.7109C13.7424 31.9734 12.4978 31.1857 11.2859 30.3497C10.0529 29.5175 8.87753 28.603 7.76776 27.6125C6.66708 26.6321 5.63776 25.5745 4.68762 24.4477C3.75377 23.3411 2.92782 22.1478 2.22103 20.8841C1.53571 19.6083 0.989274 18.2626 0.591093 16.8702C0.190452 15.4127 -0.00834273 13.9072 0.000268175 12.3956V4.13236C0.895458 4.13098 1.76173 4.09931 2.59907 4.03733C3.42483 3.9812 4.2452 3.86312 5.05327 3.68408C5.84448 3.50642 6.63569 3.27091 7.41451 2.95277C8.22246 2.62618 8.99725 2.22288 9.72823 1.7484C10.6372 1.15758 11.5585 0.721687 12.4675 0.434537C13.4465 0.134765 14.466 -0.0115773 15.4898 0.000714644ZM28.9218 6.16306C27.3581 6.08653 25.809 5.8251 24.3067 5.38425C22.813 4.93751 21.39 4.28165 20.0801 3.43618C19.4004 2.99121 18.6629 2.64159 17.8882 2.39707C17.1139 2.16355 16.3089 2.04794 15.5001 2.05414C14.6854 2.04918 13.8744 2.16474 13.0935 2.39707C12.3179 2.6343 11.5814 2.98442 10.9078 3.43618C9.59512 4.28542 8.16857 4.9441 6.67081 5.39251C5.20683 5.81807 3.67192 6.07836 2.06609 6.17339V12.406C2.06609 13.7736 2.24375 15.0874 2.59907 16.3476C2.96138 17.5987 3.46017 18.8062 4.08647 19.9483C4.72052 21.1022 5.4679 22.19 6.31755 23.1958C7.179 24.2101 8.09829 25.1542 9.08989 26.0507C10.0815 26.9473 11.1206 27.7778 12.2072 28.5421C13.3049 29.3078 14.4025 30.0082 15.5001 30.6431C16.6239 29.99 17.7191 29.289 18.7827 28.5421C19.8778 27.7799 20.9226 26.9477 21.9104 26.0507C22.902 25.1542 23.8233 24.2101 24.6848 23.1958C25.5344 22.19 26.2818 21.1022 26.9159 19.9483C27.539 18.8075 28.0304 17.5995 28.3805 16.3476C28.747 15.066 28.9293 13.7389 28.9218 12.406V6.16306Z" fill="#0A0064"/>
<path fill-rule="evenodd" clip-rule="evenodd" d="M23.1912 9.72876L22.2823 8.94788L21.4436 9.02018L12.4366 19.655L9.36883 15.2755L8.5425 15.135L7.58602 15.8188L7.44348 16.6451L11.3871 22.2766L11.8354 22.5245L12.7795 22.5823L13.2629 22.3716L23.2512 10.5654L23.1912 9.72876Z" fill="#0A0064"/>
</svg>
