<svg width="253" height="287" viewBox="0 0 253 287" fill="none" xmlns="http://www.w3.org/2000/svg">
<path d="M115.907 4.05997C53.3545 15.7648 32.1942 63.3224 33.4328 114.36L86.4885 112.145C86.4885 112.145 99.9073 48.0323 153.066 63.217C206.225 78.4016 158.743 150.423 158.743 150.423L190.639 179.106C190.639 179.106 240.082 116.785 231.927 67.3295C223.773 17.7684 189.194 -9.75388 115.907 4.05997Z" fill="#CDCFFF"/>
<path d="M116.836 41.4946C116.836 41.4946 128.809 40.7564 136.551 34.0077C144.293 27.2589 153.479 33.7968 155.337 42.4436C155.337 42.4436 177.633 51.5122 161.221 91.1611L122.926 46.5561C122.926 46.5561 117.249 46.5561 116.836 41.4946Z" fill="black"/>
<path d="M111.158 129.123L110.023 81.5652C110.023 81.5652 88.8626 84.2014 90.1013 81.5652C91.3399 78.9289 122.926 46.556 122.926 46.556C122.926 46.556 132.319 48.2432 139.131 45.0797C145.944 41.9163 150.692 42.6544 150.692 46.556C150.692 50.3522 153.582 64.9042 161.221 67.435C161.221 67.435 161.427 62.9007 163.079 62.1625C164.833 61.3189 175.259 56.8901 177.323 65.2205C180.523 78.1908 167.827 78.9289 159.982 76.82L157.298 129.123H111.158Z" fill="white"/>
<path d="M158.124 130.177H110.126L108.991 82.8306C100.423 83.885 90.6174 84.6232 89.2755 82.7251C88.9659 82.3033 88.8627 81.7761 89.1723 81.2488C90.411 78.6126 116.939 51.3012 122.306 45.9233L122.719 45.5015L123.235 45.607C123.339 45.607 132.422 47.1887 138.822 44.2362C143.673 42.0217 147.699 41.5999 149.97 43.0762C151.105 43.8144 151.724 45.0797 151.724 46.6615C151.724 50.4577 154.305 62.5843 160.292 66.0641C160.498 64.3769 161.118 62.0571 162.666 61.3189C164.421 60.4753 170.407 58.05 174.536 60.0535C176.394 61.0026 177.633 62.6898 178.252 65.0096C179.388 69.6494 178.768 73.1292 176.291 75.5546C172.678 79.1398 165.969 79.2453 160.808 78.0853L158.124 130.177ZM112.191 128.068H156.163L158.847 75.4491L160.085 75.7655C165.246 77.1363 171.749 77.1363 174.846 74.0783C176.704 72.1802 177.117 69.3331 176.188 65.5369C175.775 63.7442 174.949 62.5843 173.607 61.9516C170.201 60.2644 164.524 62.6898 163.492 63.217C162.769 63.5334 162.253 65.7478 162.253 67.6459V69.0167L160.911 68.5949C156.473 67.1186 153.686 61.9516 152.241 57.9445C150.486 53.1993 149.763 48.4541 149.763 46.6615C149.763 45.8179 149.454 45.2906 148.937 44.8688C147.699 44.0253 144.602 43.9198 139.751 46.2397C133.557 49.0868 125.609 48.1378 123.442 47.8214C111.984 59.5263 94.3334 77.8744 91.4432 81.6706C93.8173 82.1979 102.488 81.6706 110.023 80.7216L111.158 80.6161L112.191 128.068Z" fill="black"/>
<path d="M8.96941 224.027C8.96941 224.027 14.3369 188.912 43.3421 186.698C43.3421 186.698 61.3026 164.554 78.9534 154.747C96.501 144.94 105.068 137.242 105.068 137.242C105.068 137.242 107.236 124.694 111.158 124.588C115.081 124.378 157.608 123.639 157.608 123.639C157.608 123.639 161.943 126.487 162.666 131.759C163.388 137.031 163.079 139.879 170.304 145.573C177.53 151.267 215.206 187.331 220.883 201.566C220.883 201.566 247.204 231.725 252.056 264.414C256.907 297.103 7.11143 283.922 7.11143 283.922C7.11143 283.922 -8.88787 252.182 8.96941 224.027Z" fill="white"/>
<path d="M8.96948 224.027C8.96948 224.027 14.337 188.912 43.3422 186.698C43.3422 186.698 61.3027 164.554 78.9535 154.747C96.5011 144.94 105.068 137.242 105.068 137.242C105.068 137.242 107.236 124.694 111.159 124.588C115.081 124.378 157.608 123.639 157.608 123.639C157.608 123.639 161.943 126.487 162.666 131.759C163.388 137.031 163.079 139.879 170.304 145.573C177.53 151.267 215.206 187.331 220.883 201.566" fill="white"/>
<path d="M10.0017 224.238L7.93726 223.922C8.04048 223.605 13.7176 188.28 42.826 185.644C45.2001 182.796 62.1284 162.867 78.4374 153.798C94.0238 145.046 102.488 137.981 104.139 136.61C104.656 133.763 106.823 123.639 111.055 123.429C114.978 123.218 155.75 122.479 157.505 122.479H157.815L158.124 122.69C158.331 122.796 162.769 125.854 163.595 131.548C163.698 132.075 163.698 132.497 163.801 132.919C164.317 137.137 164.627 139.668 170.82 144.624C177.117 149.58 215.722 186.276 221.708 201.039L219.747 201.883C214.173 188.069 176.601 151.9 169.479 146.311C162.666 140.828 162.253 137.664 161.634 133.235C161.53 132.814 161.53 132.286 161.427 131.864C160.911 127.857 157.918 125.327 157.092 124.694C153.066 124.799 114.771 125.432 111.055 125.643C108.991 125.748 106.823 132.708 105.997 137.453L105.894 137.77L105.585 137.981C105.481 138.086 96.7075 145.889 79.2631 155.591C62.0252 165.186 44.1679 187.12 43.9615 187.331L43.6518 187.647H43.2389C31.5749 188.596 22.4915 194.923 16.0917 206.628C11.3436 215.486 10.0017 224.133 10.0017 224.238Z" fill="black"/>
<path d="M104.965 137.137C104.965 137.137 120.448 145.678 164.833 137.137H104.965Z" fill="white"/>
<path d="M129.532 142.093C111.984 142.093 104.965 138.402 104.552 138.086L105.584 136.188C105.688 136.293 121.377 144.413 164.73 136.082L165.143 138.191C150.176 141.144 138.409 142.093 129.532 142.093Z" fill="black"/>
<path d="M86.5918 267.999C83.5983 267.999 80.7081 267.578 78.1276 266.523C77.6115 266.312 77.3018 265.68 77.5083 265.152C77.7147 264.625 78.3341 264.309 78.8502 264.52C93.714 270.53 121.171 254.186 121.481 253.975L121.79 253.869L174.639 241.215C175.052 241.11 177.426 240.372 178.872 240.794C180.626 241.215 180.317 243.008 179.801 246.066C179.594 247.331 179.284 249.019 178.975 251.128C178.768 252.604 178.872 253.553 179.388 253.869C180.11 254.396 182.071 253.658 183.104 253.026L184.033 252.498L184.549 253.553C185.374 255.24 186.303 256.189 187.336 256.4C188.781 256.611 190.019 255.451 190.019 255.451L190.639 254.818L191.361 255.346C193.219 256.716 194.768 257.138 196.213 256.505C199.722 255.135 201.58 248.175 202.096 245.644L202.303 244.273L203.541 244.906C207.464 246.91 208.599 245.012 208.909 244.379C211.902 239.317 207.877 223.394 201.064 218.333C193.116 212.428 171.956 214.642 171.749 214.642C170.201 214.748 133.248 217.806 128.706 217.173H128.396L128.19 216.962C109.92 203.359 97.1203 219.598 96.6042 220.336L94.9527 222.445L94.7462 219.809C94.4366 215.908 93.1979 213.482 91.2367 212.744C85.8692 210.635 75.031 219.493 71.315 222.973L69.0441 225.187L69.6635 222.024C69.9731 220.547 70.0764 218.438 69.0441 217.489C68.0119 216.54 65.9475 216.857 65.225 217.067L63.8831 217.489V216.013C63.8831 214.853 63.5734 214.009 62.8509 213.271C62.0251 212.428 60.7864 212.111 59.8574 211.9C59.2381 211.9 58.6188 211.795 57.8962 211.795L57.9995 209.686C58.1027 209.686 58.9285 209.686 60.0639 209.791C63.7799 209.897 66.5668 209.053 68.3216 207.261C71.1086 204.519 70.6957 200.301 70.6957 200.196C70.5924 199.668 71.0053 199.141 71.6247 199.036C72.1408 199.036 72.6569 199.352 72.7601 199.985C72.7601 200.196 73.2762 205.257 69.7667 208.737C68.3216 210.213 66.4636 211.162 64.0895 211.584L64.1927 211.69C65.0185 212.533 65.5346 213.482 65.7411 214.642C66.9797 214.431 68.9409 214.431 70.2828 215.697C71.2118 216.54 71.7279 217.806 71.8311 219.387C75.96 215.802 85.8692 208.104 91.9593 210.424C94.3333 211.373 95.8817 213.588 96.501 217.067C100.733 212.849 113.223 203.043 129.222 214.853C133.454 215.169 158.537 213.377 171.543 212.322C172.369 212.217 193.632 210.002 202.303 216.435C209.425 221.707 214.483 238.895 210.664 245.222C209.838 246.699 207.877 248.702 203.748 247.12C203.025 249.968 201.064 256.505 196.935 258.193C194.974 258.931 192.91 258.614 190.742 257.138C189.916 257.665 188.574 258.404 186.923 258.087C185.478 257.876 184.136 256.822 183.104 255.029C181.865 255.662 179.594 256.4 178.149 255.346C177.014 254.502 176.497 252.92 176.91 250.495C177.22 248.28 177.53 246.699 177.839 245.328C178.046 244.062 178.252 242.902 178.252 242.375C177.53 242.27 176.188 242.586 175.259 242.902L122.513 255.451C120.448 257.138 101.662 267.999 86.5918 267.999Z" fill="black"/>
<path d="M52.5288 225.187C50.4644 225.187 49.6386 224.343 49.3289 223.711C48.1935 221.18 52.0127 218.016 56.0383 216.118C58.1027 215.169 60.2704 214.431 62.0252 214.326C64.7089 214.115 65.7411 214.958 66.154 215.802C67.2894 218.333 63.4703 221.496 59.4446 223.394C57.3802 224.343 55.2125 225.082 53.4578 225.187C53.1481 225.187 52.8385 225.187 52.5288 225.187ZM62.9541 216.329C62.7477 216.329 62.5413 216.329 62.2316 216.329C60.6833 216.435 58.8253 217.067 56.9673 217.911C52.7352 219.915 51.0837 222.34 51.2901 222.762C51.2901 222.867 51.8062 223.183 53.2513 222.973C54.7997 222.867 56.6577 222.234 58.5156 221.391C62.7477 219.387 64.3992 216.962 64.1928 216.54C64.1928 216.54 63.8831 216.329 62.9541 216.329Z" fill="black"/>
<path d="M115.907 211.795C115.597 211.795 115.39 211.689 115.184 211.479C114.771 211.057 114.771 210.424 115.184 210.002C116.423 208.631 118.177 204.941 119.21 202.41C118.281 202.515 117.352 202.304 116.836 201.566C115.803 200.195 116.939 198.192 118.59 195.239C119.21 194.185 119.932 192.919 120.448 191.549C121.171 189.967 122.203 187.858 122.1 187.331C121.79 187.014 119.623 187.014 117.455 186.909C116.423 186.909 115.597 186.382 115.184 185.538C112.81 181.004 123.855 163.077 126.126 159.492C126.435 158.965 127.054 158.859 127.571 159.176C128.087 159.492 128.19 160.125 127.88 160.652C122.616 168.983 115.7 181.953 117.042 184.589C117.042 184.694 117.145 184.8 117.455 184.8C121.377 184.905 123.132 184.905 123.855 186.276C124.68 187.542 123.855 189.334 122.306 192.498C121.687 193.869 120.964 195.134 120.345 196.294C119.519 197.665 118.487 199.563 118.487 200.301C118.694 200.301 119.21 200.406 120.552 200.09L122.513 199.668L121.79 201.566C121.687 201.883 118.9 209.264 116.526 211.584C116.423 211.689 116.113 211.795 115.907 211.795Z" fill="black"/>
<path d="M179.181 243.008C179.078 243.008 179.078 243.008 178.975 243.008C178.459 242.902 178.046 242.375 178.149 241.742C178.768 238.473 177.839 237.419 177.53 237.313C177.014 237.208 176.601 236.681 176.704 236.154C176.807 235.626 177.323 235.205 177.943 235.31C178.149 235.31 178.975 235.521 179.594 236.47C180.42 237.735 180.626 239.633 180.213 242.164C180.11 242.586 179.697 243.008 179.181 243.008Z" fill="black"/>
<path d="M183.413 255.134C183.207 255.134 183 255.029 182.794 254.924C182.381 254.607 182.278 253.869 182.691 253.447C187.439 247.437 185.375 235.204 185.375 235.099C185.271 234.572 185.684 233.939 186.2 233.834C186.716 233.728 187.336 234.15 187.439 234.677C187.542 235.204 189.71 247.964 184.342 254.818C184.033 255.029 183.723 255.134 183.413 255.134Z" fill="black"/>
<path d="M190.536 257.349C190.329 257.349 190.123 257.244 190.019 257.138C189.503 256.822 189.4 256.189 189.71 255.662C198.38 242.164 190.639 228.35 190.639 228.14C190.329 227.612 190.536 226.98 191.052 226.663C191.568 226.347 192.187 226.558 192.497 227.085C192.6 227.191 200.858 242.164 191.568 256.822C191.258 257.138 190.948 257.349 190.536 257.349Z" fill="black"/>
<path d="M202.922 247.015C202.303 247.015 201.89 246.488 201.89 245.855C202.922 229.405 195.077 224.027 194.974 224.027C194.458 223.711 194.355 223.078 194.664 222.551C194.974 222.023 195.593 221.918 196.11 222.234C196.522 222.445 205.09 228.35 203.954 245.96C203.954 246.593 203.438 247.015 202.922 247.015Z" fill="black"/>
<path d="M118.281 282.13C118.281 282.13 116.319 260.934 121.997 255.029C120.655 249.229 121.068 247.226 118.9 243.851C116.732 240.477 125.197 217.911 132.422 212.322L131.493 179L133.661 178.789L133.248 165.186C133.248 165.186 121.687 160.968 126.435 145.256C126.435 145.256 121.997 144.624 121.274 142.304C121.274 142.304 124.577 152.216 120.861 153.06C117.248 154.009 114.049 148.736 114.152 142.515C114.255 136.293 117.558 131.232 117.558 131.232C117.558 131.232 118.797 122.374 125.919 120.476C125.919 120.476 128.603 110.036 141.918 115.625C147.802 118.578 152.447 121.003 152.447 121.003C152.447 121.003 147.699 85.3613 154.202 85.4668C161.737 85.5722 164.73 91.0556 164.73 113.622C164.73 136.188 165.659 169.088 165.659 169.088C165.659 169.088 168.446 168.139 168.756 172.251C169.169 176.469 168.756 201.25 168.756 201.25C168.756 201.25 172.472 214.642 174.02 231.619C175.568 248.597 175.775 267.788 175.775 267.788" fill="white"/>
<path d="M117.249 282.235C117.145 281.391 115.391 261.461 120.861 254.713C120.448 253.026 120.242 251.655 120.036 250.6C119.623 248.069 119.313 246.488 117.971 244.379C115.391 240.372 123.855 218.122 131.287 211.795L130.254 177.946L132.422 177.735L132.112 165.819C129.635 164.554 121.481 159.387 124.99 145.995C124.371 145.889 123.648 145.573 122.926 145.256C123.442 147.682 123.751 150.74 122.822 152.532C122.41 153.271 121.79 153.798 120.965 154.009C119.519 154.325 118.074 154.009 116.836 152.954C114.462 150.951 112.913 146.838 113.016 142.409C113.12 136.61 115.803 131.759 116.423 130.704C116.629 129.228 118.281 121.636 124.887 119.421C125.3 118.156 126.642 115.414 129.738 113.833C132.938 112.145 137.17 112.356 142.125 114.36C145.841 116.258 149.144 117.945 151.002 118.894C150.176 111.724 147.802 89.7902 151.828 85.1504C152.447 84.4123 153.17 84.0959 153.995 84.0959C162.769 84.2014 165.556 91.2665 165.556 113.305C165.556 133.235 166.382 161.707 166.485 167.612C166.898 167.612 167.414 167.823 167.827 168.034C168.859 168.666 169.478 169.932 169.685 171.83C170.098 175.942 169.685 198.508 169.685 200.723C170.098 202.304 173.504 215.169 174.949 231.092C176.498 247.964 176.704 267.156 176.704 267.367H174.64C174.64 267.156 174.433 248.069 172.885 231.303C171.336 214.642 167.724 201.25 167.621 201.145V201.039V200.934C167.621 200.723 168.033 176.153 167.621 172.146C167.517 171.092 167.208 170.248 166.795 169.932C166.382 169.615 165.866 169.826 165.866 169.826L164.524 170.248L164.421 168.877C164.421 168.561 163.492 135.661 163.492 113.305C163.492 88.3139 159.363 86.3104 153.995 86.2049C153.789 86.2049 153.582 86.2049 153.376 86.5213C150.486 89.8957 151.724 108.771 153.273 120.581L153.582 122.585L151.828 121.847C151.828 121.847 147.079 119.421 141.299 116.469C136.964 114.676 133.454 114.465 130.771 115.836C127.674 117.418 126.848 120.687 126.745 120.687L126.642 121.32L126.022 121.53C119.726 123.218 118.487 131.443 118.487 131.443V131.654L118.384 131.864C118.384 131.864 115.287 136.821 115.184 142.62C115.081 146.311 116.32 149.896 118.178 151.478C118.9 152.111 119.726 152.322 120.552 152.111C120.758 152.111 120.965 152.005 121.171 151.583C122.1 149.896 121.068 145.151 120.242 142.62L122.203 141.988C122.616 143.253 125.3 144.097 126.538 144.202L127.674 144.413L127.364 145.573C123.029 160.125 133.145 164.026 133.558 164.237L134.177 164.448V165.186L134.59 179.738L132.422 179.949L133.351 212.849L132.938 213.166C125.506 218.965 118.074 240.793 119.726 243.324C121.274 245.75 121.584 247.542 122.1 250.284C122.306 251.549 122.616 253.026 123.029 254.818L123.132 255.345L122.719 255.767C117.455 261.356 119.313 281.919 119.313 282.13L117.249 282.235Z" fill="black"/>
<path d="M145.944 132.708C145.634 132.708 145.221 132.497 145.118 132.181C145.015 132.075 137.377 120.16 125.919 121.319C125.403 121.319 124.887 121.003 124.784 120.37C124.68 119.738 125.093 119.316 125.713 119.21C138.409 117.84 146.46 130.494 146.873 131.021C147.183 131.548 147.079 132.181 146.563 132.497C146.357 132.708 146.15 132.708 145.944 132.708Z" fill="black"/>
<path d="M136.448 137.769C136.138 137.769 135.932 137.664 135.725 137.453C135.622 137.348 128.706 130.388 117.558 132.181C117.042 132.286 116.423 131.864 116.423 131.337C116.32 130.81 116.732 130.177 117.249 130.177C129.429 128.174 136.861 135.66 137.17 135.977C137.583 136.399 137.583 137.031 137.17 137.453C136.964 137.664 136.757 137.769 136.448 137.769Z" fill="black"/>
<path d="M126.951 146.205C126.745 146.205 126.642 146.205 126.435 146.1C125.919 145.784 125.713 145.151 126.022 144.624C127.88 141.144 131.7 141.249 131.803 141.249C132.422 141.249 132.835 141.777 132.835 142.304C132.835 142.831 132.319 143.358 131.803 143.358C131.803 143.358 131.803 143.358 131.699 143.358C131.39 143.358 128.913 143.464 127.777 145.678C127.674 145.995 127.364 146.205 126.951 146.205Z" fill="black"/>
<path d="M136.448 168.35C136.241 168.35 135.932 168.244 135.725 168.033C135.622 167.928 135.106 167.506 132.525 166.03C132.009 165.714 131.906 165.081 132.216 164.554C132.525 164.026 133.145 163.921 133.661 164.237C135.106 165.081 136.861 166.241 137.17 166.557C137.583 166.979 137.583 167.612 137.17 168.033C136.964 168.244 136.757 168.35 136.448 168.35Z" fill="black"/>
<path d="M139.544 180.16C135.932 180.16 133.557 179.844 133.454 179.738C132.938 179.633 132.525 179.106 132.628 178.578C132.732 178.051 133.248 177.629 133.764 177.735C133.97 177.735 154.615 180.793 164.834 168.35C165.246 167.928 165.866 167.823 166.279 168.244C166.691 168.666 166.795 169.299 166.382 169.721C161.84 175.309 154.615 178.789 145.634 179.844C143.363 180.055 141.299 180.16 139.544 180.16Z" fill="black"/>
<path d="M138.306 213.693C134.796 213.693 132.525 213.271 132.216 213.271C131.699 213.166 131.287 212.639 131.39 212.111C131.493 211.584 132.009 211.162 132.525 211.268C132.732 211.268 153.17 214.537 168.033 200.406C168.446 199.985 169.066 199.985 169.478 200.406C169.891 200.828 169.891 201.461 169.478 201.883C158.847 212.006 145.841 213.693 138.306 213.693Z" fill="black"/>
<path d="M137.893 207.26C138.691 207.26 139.338 206.599 139.338 205.784C139.338 204.969 138.691 204.308 137.893 204.308C137.095 204.308 136.448 204.969 136.448 205.784C136.448 206.599 137.095 207.26 137.893 207.26Z" fill="black"/>
<path d="M126.642 70.4931C127.668 70.4931 128.5 68.8879 128.5 66.9078C128.5 64.9277 127.668 63.3225 126.642 63.3225C125.616 63.3225 124.784 64.9277 124.784 66.9078C124.784 68.8879 125.616 70.4931 126.642 70.4931Z" fill="black"/>
<path d="M137.273 69.8602C138.3 69.8602 139.131 68.2551 139.131 66.275C139.131 64.2949 138.3 62.6897 137.273 62.6897C136.247 62.6897 135.416 64.2949 135.416 66.275C135.416 68.2551 136.247 69.8602 137.273 69.8602Z" fill="black"/>
<path d="M128.5 84.4123C128.293 84.4123 128.087 84.3068 127.88 84.2014C127.467 83.885 127.364 83.2523 127.674 82.7251C127.777 82.5142 130.564 78.718 134.074 78.6126C135.828 78.5071 137.48 79.3507 138.925 81.0379C139.338 81.4597 139.235 82.1978 138.822 82.5142C138.409 82.936 137.686 82.8305 137.377 82.4087C136.344 81.2488 135.312 80.6161 134.28 80.7215C131.699 80.827 129.429 83.9905 129.429 83.9905C129.119 84.3068 128.809 84.4123 128.5 84.4123Z" fill="black"/>
<path d="M163.492 71.5475C163.285 71.5475 163.079 71.442 162.872 71.3366C162.459 71.0202 162.356 70.2821 162.666 69.8603C162.872 69.6494 166.692 64.4824 170.924 66.8023C171.44 67.1186 171.646 67.7513 171.336 68.2786C171.027 68.8058 170.407 69.0167 169.891 68.7004C167.208 67.2241 164.317 71.1257 164.317 71.1257C164.111 71.442 163.801 71.5475 163.492 71.5475Z" fill="black"/>
</svg>
