<svg width="149" height="34" viewBox="0 0 149 34" fill="none" xmlns="http://www.w3.org/2000/svg">
<path d="M105.011 33.7217C104.913 33.7217 104.815 33.7217 104.718 33.6243C96.2279 30.3153 69.7826 25.8384 69.5874 25.8384C69.0995 25.7411 68.8067 25.3518 68.9043 24.8651C69.0019 24.3785 69.3922 24.0865 69.8802 24.1839C70.9536 24.3785 96.7159 28.7581 105.401 32.0672C105.791 32.2618 106.084 32.7484 105.889 33.1377C105.694 33.527 105.303 33.7217 105.011 33.7217Z" fill="black"/>
<path d="M148.045 30.9966C147.947 30.9966 147.752 30.9966 147.655 30.8993C129.894 21.3615 110.865 16.8845 98.0819 14.7434C84.2249 12.4076 74.4664 12.4076 74.3689 12.4076C73.8809 12.4076 73.4906 12.0183 73.4906 11.5317C73.4906 11.0451 73.8809 10.6558 74.3689 10.6558C74.4664 10.6558 84.3225 10.6558 98.3746 12.9916C111.256 15.1327 130.48 19.7069 148.533 29.3421C148.923 29.5367 149.119 30.0233 148.923 30.51C148.631 30.8019 148.338 30.9966 148.045 30.9966Z" fill="black"/>
<path d="M0.00970745 9.19588C0.790383 11.045 4.69376 14.4514 12.1102 17.0792C19.5266 19.7069 36.799 27.6875 39.0435 27.6875C41.2879 27.6875 48.8019 31.0939 48.8019 31.0939L54.3642 24.9625L63.342 30.1207V15.23L75.3449 0.533997C75.3449 0.533997 24.0155 6.86009 20.7952 6.86009C17.5749 6.86009 -0.478215 7.93066 0.00970745 9.19588Z" fill="#CDCFFF"/>
<path d="M48.8019 31.9698C48.6068 31.9698 48.4116 31.8725 48.2164 31.7752C47.9237 31.4832 47.8261 30.8993 48.1188 30.6073L61.5855 16.0086C54.7546 15.814 31.3343 15.23 27.3334 15.1327C24.5034 15.0354 23.6252 13.5755 23.1372 12.6023C22.6493 11.7263 22.5517 11.629 21.2831 12.3103C17.9653 13.9648 16.9894 13.7701 16.0136 12.6023C15.916 12.5049 15.8184 12.3103 15.7208 12.213C15.3305 11.921 15.3305 11.4344 15.6232 11.0451C15.916 10.6558 16.4039 10.6558 16.7942 10.9477C16.9894 11.1424 17.1846 11.337 17.3797 11.5317C17.6725 11.8237 17.6725 11.8237 17.8677 11.8237C18.3556 11.8237 19.2339 11.4344 20.6 10.7531C23.1372 9.39054 24.0155 10.4611 24.6986 11.7263C25.1865 12.6023 25.6744 13.3809 27.5285 13.3809C32.3102 13.4782 63.342 14.3541 63.6348 14.3541C63.9275 14.3541 64.2203 14.5487 64.4154 14.8407C64.513 15.1327 64.513 15.522 64.2203 15.7166L49.485 31.6779C49.2898 31.8725 49.0947 31.9698 48.8019 31.9698Z" fill="black"/>
<path d="M63.4397 30.9966C62.9517 30.9966 62.5614 30.6073 62.5614 30.1206V15.23C62.5614 14.7434 62.9517 14.3541 63.4397 14.3541C63.9276 14.3541 64.3179 14.7434 64.3179 15.23V30.1206C64.2203 30.6073 63.83 30.9966 63.4397 30.9966Z" fill="black"/>
</svg>
