<svg width="250" height="250" viewBox="0 0 250 250" fill="none" xmlns="http://www.w3.org/2000/svg">
<path d="M46.3 159.35L44.4 21.75H225.75V159.35H46.3Z" fill="white"/>
<path d="M47.35 158.65L47.3 155L47.15 144.95L46.95 130.15L46.7 112.05L46.4 92.3L46.1 72.35L45.85 53.65L45.65 37.95L45.5 26.65C45.5 24.85 45.55 23.05 45.4 21.25C45.4 21.15 45.4 21.1 45.4 21L43.4 22.4H223.1C223.45 22.4 224.3 22.25 224.6 22.4C224.75 22.5 224.55 22.3 224.65 22.45C224.7 22.65 224.7 22.85 224.65 23.05V160L226.65 158.6H54.55C52.25 158.6 49.9 158.5 47.55 158.6H47.25C46.85 158.6 46.25 159.15 45.95 159.4C45.85 159.5 45.2 160 45.3 160H217.5C219.8 160 222.15 160.1 224.5 160H224.8C225.15 160 226.8 158.95 226.8 158.6V23.1C226.85 22.5 226.85 21.85 226.8 21.25C226.8 21.2 226.8 21.1 226.8 21H52.7C50.35 21 48 20.9 45.65 21H45.35C45 21 43.35 22.05 43.35 22.4L43.4 26.05L43.55 36.1L43.75 50.9L44 69L44.25 88.75L44.55 108.7L44.8 127.4L45 143.1L45.15 154.4L45.2 157.9C45.15 158.5 45.15 159.15 45.2 159.75C45.2 159.85 45.2 159.9 45.2 160C45.2 160.05 46.2 159.45 46.3 159.4C46.55 159.35 47.35 158.95 47.35 158.65Z" fill="#000005"/>
<path d="M225.75 21.75H44.4V35.05H225.75V21.75Z" fill="#000005"/>
<path d="M224.5 21.5501V34.8501L225.5 34.3501H51.5C49.15 34.3501 46.8 34.2501 44.45 34.3501C44.35 34.3501 44.25 34.3501 44.15 34.3501L45.6 35.2501V21.9001L44.6 22.4001H218.6C220.95 22.4001 223.3 22.4001 225.65 22.4001H225.95C226.35 22.4001 227.05 22.3001 226.95 21.7501C226.85 21.2001 225.9 21.0501 225.5 21.0501H51.5C49.15 21.0501 46.8 21.0501 44.45 21.0501H44.15C43.9 21.0501 43.15 21.1501 43.15 21.5501V34.8001C43.15 35.4501 44.1 35.7001 44.6 35.7001H218.6C220.95 35.7001 223.3 35.7001 225.65 35.7001C225.75 35.7001 225.85 35.7001 225.95 35.7001C226.2 35.7001 226.95 35.6001 226.95 35.2001V21.9001C226.95 20.9501 224.5 20.6501 224.5 21.5501Z" fill="#000005"/>
<path d="M53.9001 30.4501C54.7009 30.4501 55.3501 29.8009 55.3501 29C55.3501 28.1992 54.7009 27.55 53.9001 27.55C53.0993 27.55 52.4501 28.1992 52.4501 29C52.4501 29.8009 53.0993 30.4501 53.9001 30.4501Z" fill="#0C0077"/>
<path d="M59.1501 30.4C59.9509 30.4 60.6001 29.7508 60.6001 28.95C60.6001 28.1492 59.9509 27.5 59.1501 27.5C58.3493 27.5 57.7001 28.1492 57.7001 28.95C57.7001 29.7508 58.3493 30.4 59.1501 30.4Z" fill="#0C0077"/>
<path d="M64.55 30.4501C65.3508 30.4501 66 29.8009 66 29C66 28.1992 65.3508 27.55 64.55 27.55C63.7492 27.55 63.1 28.1992 63.1 29C63.1 29.8009 63.7492 30.4501 64.55 30.4501Z" fill="#0C0077"/>
<path d="M121.1 89.25C117.1 92.6 113.9 96.8 111.65 101.5C111.35 102.15 112.05 103.25 112.7 103.35C115.1 103.8 117.55 104.15 119.95 104.35C121.3 104.5 120.6 102.15 119.6 102.05C117.15 101.8 114.75 101.5 112.35 101.05L113.45 102.9C115.6 98.5 118.65 94.55 122.4 91.4C122.8 91 122.85 90.35 122.5 89.9C122.2 89.65 121.5 88.9 121.1 89.25Z" fill="#000005"/>
<path d="M146.45 89.6001L150.95 96.8001L152.05 98.6001L152.55 99.4501C152.65 99.6001 152.75 99.7501 152.8 99.8501C152.95 100.1 152.95 100.15 152.85 99.9001C152.75 99.6501 152.75 99.7001 152.75 99.8501C152.7 99.9001 152.65 100.15 152.55 100.25C152.45 100.35 152.35 100.4 152.25 100.45C151.95 100.55 151.6 100.7 151.3 100.75L149.15 101.45C149.05 101.5 150 103.75 150.4 103.6L152.75 102.85C153.35 102.65 154.05 102.5 153.95 101.75C153.8 101 153.5 100.35 153.05 99.7001C152.6 98.9501 152.1 98.2001 151.65 97.4501L146.3 88.9001C146.2 88.8001 145.8 88.0501 145.65 88.2501C145.5 88.4501 146.35 89.4501 146.45 89.6001Z" fill="#000005"/>
<path d="M132.5 92.05C132.4 98.65 132.9 105.25 134 111.75C134.15 112.55 136.5 111.8 136.35 110.85C135.3 104.45 134.8 98 134.85 91.5C134.85 90.55 132.45 91.2 132.5 92.05Z" fill="#000005"/>
<path d="M121.95 115.25C122 113.45 122.1 111.65 122.2 109.85C122.45 105.5 122.85 101.2 123.3 96.9001C123.9 91.7001 124.65 86.5001 125.75 81.4001C126.7 76.9001 127.85 72.4501 129.95 68.3001C130.35 67.5001 130.85 66.7001 131.35 65.9501C131.35 65.9001 131.55 65.6501 131.5 65.7501C131.45 65.8501 131.6 65.6501 131.6 65.6001C131.75 65.4501 131.85 65.2501 132 65.1001C132.25 64.8001 132.5 64.5501 132.8 64.2501C132.9 64.1501 133.05 64.0001 133.2 63.9001C133.25 63.8501 133.5 63.7001 133.25 63.8501L133.45 63.7001C133.75 63.5001 134.05 63.3501 134.35 63.2001C134.2 63.2501 134.6 63.0501 134.35 63.2001L134.6 63.1001C134.75 63.0501 134.9 63.0001 135.05 62.9501L135.3 62.9001C135.1 62.9501 135.1 62.9501 135.3 62.9001L135.75 62.8501C136.15 62.8501 135.45 62.8001 135.85 62.8501C136 62.8501 136.15 62.9001 136.3 62.9001C136.45 62.9001 135.95 62.8001 136.25 62.9001C136.3 62.9001 136.35 62.9501 136.45 62.9501C136.6 63.0001 136.7 63.0501 136.85 63.1001C136.5 63.0001 136.85 63.1001 136.95 63.2001C137.05 63.3001 137.2 63.3501 137.35 63.4501C137.5 63.5501 137.3 63.4001 137.3 63.4001C137.3 63.4001 137.4 63.5001 137.5 63.5501C137.65 63.6501 137.75 63.7501 137.9 63.9001C138 64.0001 138.1 64.1001 138.2 64.2501L138.35 64.4001L138.45 64.5501L138.55 64.7001C138.6 64.7501 138.65 64.8001 138.7 64.9001C138.8 65.0501 138.95 65.2001 139.05 65.4001C139.5 66.1001 139.9 66.8001 140.25 67.5501C140.35 67.7501 140.45 67.9501 140.5 68.1001L140.65 68.4001C140.55 68.2001 140.7 68.5501 140.75 68.6001C140.95 69.0501 141.1 69.5001 141.25 69.9001C141.6 70.9001 141.9 71.9001 142.2 72.9001C142.8 75.1501 143.3 77.4001 143.7 79.7001C144.6 84.6501 145.15 89.6501 145.6 94.6501C146 99.1001 146.2 103.35 146.35 107.8C146.45 110.2 146.5 112.6 146.5 115C146.5 115.1 146.5 115.2 146.5 115.35L147.5 114.55L138.35 114.4L123.85 114.15L120.5 114.1C119.95 114.1 119.35 114.55 119.5 115.15C119.65 115.8 120.4 115.95 120.95 116L130.1 116.15L144.6 116.4L147.95 116.45C148.35 116.45 148.95 116.1 148.95 115.65C148.95 113.9 148.9 112.15 148.85 110.4C148.75 106.15 148.55 101.95 148.25 97.7001C147.9 92.6001 147.4 87.5001 146.6 82.4501C145.9 77.9001 145.05 73.3001 143.4 68.9501C142.3 66.0001 140.7 62.5001 137.55 61.3001C134.4 60.1001 131.3 62.0001 129.45 64.4501C126.8 67.9501 125.45 72.3001 124.35 76.4501C123 81.6001 122 86.8501 121.35 92.1501C120.7 96.9001 120.25 101.7 119.9 106.5C119.7 109.15 119.55 111.8 119.45 114.45V114.8C119.45 116.2 121.95 116.5 121.95 115.25Z" fill="#000005"/>
<path d="M139.75 78.6C139.7 80.55 138.6 82.3 136.8 83.15C135.9 83.55 134.9 83.75 133.9 83.6C133.45 83.55 133 83.4 132.55 83.25C132.45 83.2 131.3 82.6 131.35 82.5C131.35 82.5 131.45 82.6 131.45 82.65C131.4 82.5 131.3 82.35 131.25 82.2C131.05 81.75 130.95 81.3 130.95 80.8C130.9 79.85 131.1 78.85 131.6 78C132.55 76.3 134.4 75.3 136.35 75.4C137.4 75.5 138.4 75.85 139.2 76.45C139.45 76.6 139.25 76.5 139.2 76.4C139.3 76.6 139.4 76.8 139.45 76.95C139.7 77.5 139.8 78.1 139.75 78.6C139.75 79.05 140.35 79.6 140.6 79.9C140.65 80 141.35 80.65 141.35 80.4C141.3 79.15 140.9 77.9 140.15 76.9C139.4 75.7 138.35 74.75 137.15 74.05C134.6 72.65 131.45 73.55 130.05 76.1C129.1 77.8 129.2 79.9 130.25 81.5C131.6 83.75 133.75 85.75 136.5 85.55C139.2 85.35 141.3 83.1 141.35 80.4C141.35 79.95 140.75 79.4 140.5 79.1C140.45 79.05 139.8 78.4 139.75 78.6Z" fill="#000005"/>
<path d="M148.45 123.45H121.4L121.85 123.55V114.65L119.95 115.7H146.95L146.5 115.55V124.5C146.5 124.8 148.8 124.3 148.8 123.55V114.65C148.8 114.5 148.4 114.55 148.35 114.55H121.35C120.85 114.55 119.45 114.95 119.45 115.6V124.5C119.45 124.65 119.85 124.6 119.9 124.6H146.9C147.5 124.55 148.1 124.35 148.55 123.95C149.05 123.65 148.95 123.45 148.45 123.45Z" fill="#000005"/>
<path d="M122.6 129.7C122.1 131.85 121.8 134.1 121.65 136.3C121.6 137.35 121.6 138.35 121.65 139.4C121.7 140.4 122.25 140.85 123.2 141.05C125.1 141.3 127.05 140.65 128.4 139.3C129.75 137.95 130.3 136.05 131.55 134.65L129.15 135.1L130.45 142.75C130.7 144.3 131.05 146.4 132.95 146.55C134.1 146.65 135.2 146.3 136.15 145.6C136.9 144.95 137.15 144.05 137.3 143.1C137.5 142 137.75 140.9 138.1 139.85C138.3 139.3 138.5 138.75 138.75 138.25C138.85 138 139 137.7 139.15 137.45C139.25 137.25 139.4 136.85 139.55 136.75L138.4 137.1H138.6H137.85C138.5 137.25 139 138.45 139.35 139C139.7 139.65 140.05 140.25 140.45 140.9C141.1 142.1 142.2 143 143.45 143.5C143.8 143.6 145.7 143.4 145.7 142.85C145.5 138.05 144.4 133.3 142.45 128.9C142.2 128.35 139.85 129.1 140 129.45C141.95 133.85 143.05 138.6 143.25 143.4L145.5 142.75C143.75 142.15 142.8 140.35 141.95 138.85C141.55 138.15 141.1 137.05 140.4 136.6C139.85 136.35 139.2 136.3 138.65 136.5C138 136.6 137.45 136.9 137.1 137.45C135.85 139.4 135.3 141.65 134.9 143.9C134.8 144.45 134.65 144.95 134.35 145.45C134.2 145.65 134.05 145.85 133.85 146L133.8 146.05C133.45 146.25 133.75 146.2 134.7 145.9C134.6 145.85 134.45 145.85 134.35 145.75C133.6 145.35 133.3 144.3 133.15 143.55C132.5 140.65 132.15 137.7 131.65 134.8C131.55 134.2 129.45 134.95 129.25 135.25C128.25 136.35 127.7 137.75 126.85 139C126.45 139.6 125.95 140.1 125.35 140.45C125.25 140.5 124.85 140.65 125.25 140.55C125.65 140.45 125.25 140.5 125.1 140.45C124.75 140.35 124.45 140.1 124.3 139.75C124.2 139.4 124.2 139 124.2 138.65C124.2 138.15 124.2 137.7 124.2 137.2C124.2 136.35 124.25 135.45 124.35 134.6C124.5 132.85 124.8 131.1 125.2 129.4C125.25 129.1 124 129.3 123.9 129.35C123.45 129.15 122.7 129.25 122.6 129.7Z" fill="#0C0077"/>
<path d="M146.55 127.6C147.5 129.6 148.4 131.6 149.2 133.65C149.25 133.85 149.6 133.95 149.75 133.95C150.05 133.95 150.35 133.9 150.65 133.75C151.05 133.55 151.65 133.1 151.45 132.55C150.65 130.5 149.8 128.5 148.8 126.5C148.55 126 147.75 126.2 147.35 126.4C146.95 126.6 146.3 127.1 146.55 127.6Z" fill="#0C0077"/>
<path d="M116.4 128.35C115.05 129.3 114 130.65 113.35 132.2C113.3 132.35 113.55 132.55 113.65 132.6C114.2 132.9 114.8 133 115.4 132.95C115.55 132.9 115.75 132.9 115.8 132.7C116 132.25 116.2 131.85 116.45 131.45L116.4 131.55C117 130.6 117.8 129.75 118.7 129.1C118.85 129 118.75 128.8 118.65 128.75C118.45 128.6 118.2 128.45 117.95 128.4C117.65 128.3 117.3 128.25 117 128.25C116.8 128.2 116.6 128.25 116.4 128.35Z" fill="#0C0077"/>
<path d="M209.65 75.45C209.65 75.3 209.65 75.2 209.65 75.05C209.65 64.3 200.95 55.6 190.2 55.6C190.05 55.6 189.85 55.6 189.7 55.6L190.2 75.05L209.65 75.45Z" fill="#0C0077"/>
<path d="M210.9 75.45C211.15 66.8 205.25 58.85 197 56.35C194.45 55.65 191.75 55.35 189.1 55.45C189.05 55.45 188.5 55.45 188.5 55.55L188.95 72.6L189.05 75C189.05 75.15 190.25 75.15 190.3 75.15L207.35 75.5L209.75 75.55C209.8 75.55 210.95 75.6 210.9 75.45C210.9 75.3 209.7 75.3 209.7 75.3L192.65 74.95L190.25 74.9L191.5 75.05L191.05 58L191 55.6L190.4 55.7C192.2 55.7 193.95 56.05 195.6 56.7C201.15 58.65 205.5 63.05 207.4 68.6C208.15 70.75 208.5 73.05 208.45 75.35C208.4 75.6 210.9 75.65 210.9 75.45Z" fill="#0C0077"/>
<path d="M185.8 80.45L185.3 61C174.55 61.25 166.1 70.2 166.35 80.95C166.6 91.7 175.55 100.15 186.3 99.9C196.7 99.65 205.05 91.25 205.25 80.85L185.8 80.45Z" fill="white"/>
<path d="M186.95 80.7L186.5 63.65L186.45 61.25C186.4 60.5 185.75 59.95 185 59.9C173.85 60.1 164.95 69.35 165.15 80.55C165.2 82.4 165.45 84.2 166 86C167.8 92 172.2 96.9 178 99.35C183.95 101.85 190.75 101.4 196.35 98.2C202.4 94.6 206.2 88.15 206.35 81.15C206.3 80.4 205.65 79.8 204.9 79.8L187.9 79.45L185.5 79.4C185.05 79.4 184.65 79.75 184.65 80.2C184.65 80.3 184.65 80.4 184.7 80.5C184.9 81.1 185.45 81.55 186.1 81.6L203.1 81.95L205.5 82L204.05 80.65C203.9 86.35 201.2 91.7 196.65 95.15C192.05 98.65 186.1 99.75 180.5 98.25C175.2 96.75 170.9 92.9 168.8 87.8C166.6 82.45 167.05 76.4 169.95 71.4C172.85 66.5 177.75 63.2 183.35 62.3C184.05 62.2 184.8 62.15 185.5 62.1L184.05 60.75L184.5 77.8L184.55 80.2C184.6 80.85 185.05 81.35 185.7 81.5C186.3 81.6 186.95 81.35 186.95 80.7Z" fill="#0C0077"/>
<path d="M167.95 80.5C173.8 74.85 179.8 69.25 185.85 63.8C186.3 63.4 185.85 62.95 185.45 62.8C184.9 62.55 184.25 62.65 183.75 63C177.7 68.45 171.7 74.05 165.85 79.7C165.45 80.1 165.85 80.55 166.25 80.7C166.8 80.95 167.45 80.85 167.95 80.5Z" fill="#0C0077"/>
<path d="M169.4 86.7C174.05 81.35 179.3 76.65 185.15 72.65C186.35 71.85 184.4 70.4 183.4 71.05C177.45 75.15 172.05 80 167.3 85.45C166.45 86.45 168.65 87.6 169.4 86.7Z" fill="#0C0077"/>
<path d="M172.3 94C176.65 89.15 181.4 84.6 186.45 80.45C187.05 79.95 185.45 78.05 184.8 78.55C179.75 82.7 175.05 87.2 170.65 92.1C170.05 92.75 171.75 94.55 172.3 94Z" fill="#0C0077"/>
<path d="M179.2 98.4999C184.5 92.2499 190.15 86.3999 196.2 80.8999C196.6 80.5499 195.05 78.5999 194.8 78.8499C188.75 84.3499 183.1 90.2499 177.8 96.4499C177.4 96.8999 179.05 98.7499 179.2 98.4999Z" fill="#0C0077"/>
<path d="M189.5 99.25C194.25 93.2 199.15 87.3 204.25 81.55C204.95 80.8 202.6 80 201.95 80.7C196.85 86.45 191.95 92.35 187.2 98.4C186.55 99.2 188.9 100 189.5 99.25Z" fill="#0C0077"/>
<path d="M178.95 114.7H170.9V122.75H178.95V114.7Z" fill="white"/>
<path d="M178.4 121.75H170.35L171.9 123.25V115.2L171.45 115.65H179.5L177.95 114.15V122.2C177.95 122.75 178.55 123.3 179 123.55C179.45 123.8 179.95 123.8 179.95 123.25V115.2C179.8 114.4 179.2 113.8 178.4 113.7H170.35C170.15 113.65 169.95 113.85 169.9 114.05C169.9 114.1 169.9 114.1 169.9 114.15V122.2C170.05 123 170.65 123.6 171.45 123.7H179.5C180.05 123.7 180 123.1 179.8 122.75C179.5 122.25 179 121.85 178.4 121.75Z" fill="#0C0077"/>
<path d="M185.4 121.4C187.35 121 189.2 120.1 190.7 118.8C191.55 118 191 116.75 190.1 116.25C189.2 115.75 188.35 116.1 187.95 117.05C187.2 118.85 188.65 120.9 190.4 121.4C192.3 121.95 194.15 120.85 195.55 119.65C196.25 119 196.9 118.3 197.45 117.55C197.95 116.85 198.45 116 198.25 115.1C198 114.05 197.05 113.3 195.95 113.25C195 113.3 194.3 114.05 193.95 114.85C193.15 116.6 193.45 118.6 194.7 120.05C196.15 121.75 198.6 121.55 200.4 120.6C201.25 120.15 202.3 119.4 201.95 118.3C201.65 117.35 200.1 116.1 199.3 117.25C198.7 118.15 199.25 119.3 199.9 120C200.8 120.85 202.05 121.2 203.25 120.95C203.85 120.9 203.8 120.2 203.6 119.8C203.3 119.25 202.7 118.95 202.1 118.95C201.85 119 201.6 119 201.4 119C200.95 118.95 201.25 119.05 201.25 119.05C201.45 118.95 201.1 119.25 201.3 118.9C201.35 118.75 201.45 118.65 201.55 118.6L200.65 118.75C200.3 117.9 200 117.65 199.85 118.1C199.8 118.2 199.7 118.3 199.6 118.35C199.4 118.5 199.2 118.65 199 118.75C198.55 119 198.1 119.15 197.65 119.25C197.2 119.4 196.75 119.45 196.3 119.35C196.4 119.4 196.35 119.45 196.25 119.25C196.15 119.1 196.1 118.95 196 118.8C195.7 118.05 195.75 117.2 196.05 116.4C196.2 116.05 196.4 115.7 196.75 115.45C196.85 115.4 196.9 115.35 197 115.3L196.25 114.7C196.2 114.9 196.15 115.1 196.1 115.3C195.7 116.1 195.15 116.85 194.45 117.5C193.8 118.2 193.05 118.75 192.25 119.2C191.8 119.45 190.75 119.95 190.25 119.6C190.15 119.5 190.1 119.2 190.1 119.05C190.1 118.85 190.1 118.65 190.2 118.5C190.2 118.4 190.25 118.35 190.3 118.25C190.65 117.85 190.3 117.6 189.25 117.55L189.1 117.05C189.15 117.35 188.65 117.65 188.4 117.8C188 118.1 187.6 118.35 187.15 118.6C186.3 119.05 185.35 119.4 184.4 119.6C182.95 119.7 184.45 121.6 185.4 121.4Z" fill="#000005"/>
<path d="M175.7 123.1L180.4 118C180.55 117.8 180.55 117.5 180.5 117.3C180.4 117 180.2 116.75 179.95 116.55C179.5 116.25 178.85 116.05 178.45 116.5L173.75 121.65C173.6 121.85 173.6 122.15 173.65 122.35C173.75 122.65 173.95 122.9 174.2 123.1C174.6 123.4 175.25 123.55 175.7 123.1Z" fill="#0C0077"/>
<path d="M172.4 120.5L177 114.65C177.25 114.3 177.2 113.85 176.85 113.6C176.75 113.55 176.65 113.5 176.55 113.45C175.9 113.35 175.3 113.6 174.9 114.1L170.3 120C170.05 120.35 170.1 120.8 170.45 121.05C170.55 121.1 170.65 121.15 170.75 121.2C171.35 121.3 172 121.05 172.4 120.5Z" fill="#0C0077"/>
<path d="M180 134.2H171.95V142.25H180V134.2Z" fill="#0C0077"/>
<path d="M181.1 141.75H173.4C173.3 141.75 173.2 141.75 173.05 141.75C173.1 141.8 173.1 141.75 173.1 141.65C173.1 141.5 173.1 141.3 173.1 141.15V133.75L170.85 134.75H178.55C178.65 134.75 178.8 134.75 178.9 134.75C178.85 134.7 178.85 134.75 178.85 134.85C178.85 134.95 178.85 135.2 178.85 135.35V142.75C178.85 142.95 180 142.5 180.1 142.5C180.35 142.4 180.65 142.25 180.9 142.1C181 142.05 181.2 141.95 181.2 141.8V133.75L181.15 133.7H173.1C172.65 133.75 172.2 133.85 171.8 134.1C171.6 134.2 170.9 134.45 170.9 134.7V142.75L170.95 142.8H179C179.55 142.75 180.05 142.6 180.5 142.35C180.75 142.25 180.95 142.15 181.15 141.95C181.05 141.9 181.25 141.75 181.1 141.75Z" fill="#0C0077"/>
<path d="M186.4 141.05C188.25 140.65 190.35 139.8 191.65 138.4C192.45 137.55 192.1 136.2 191.15 135.6C190.2 135 189.4 135.6 189.05 136.5C188.35 138.3 189.55 140.5 191.35 141C193.15 141.5 195.1 140.4 196.45 139.2C197.65 138.1 199.55 136.25 199.15 134.45C198.95 133.45 198.05 132.5 197 132.55C196.05 132.6 195.4 133.4 195 134.15C194.2 135.95 194.45 138 195.7 139.55C196.3 140.4 197.3 140.85 198.35 140.85C199.4 140.8 200.4 140.55 201.3 140.05C202.25 139.55 203.15 138.8 202.85 137.6C202.6 136.6 201.15 135.25 200.35 136.55C199.8 137.45 200.2 138.75 200.9 139.5C201.75 140.45 202.95 140.6 204.15 140.45C204.75 140.35 204.7 139.5 204.5 139.1C204.3 138.55 203.7 138.2 203.1 138.2C202.75 138.25 202.35 138.2 202 138.1C202.25 138.15 202 138.3 202.25 138.15L201.55 138.2H201.5L201.05 137.75C201.05 137.25 201 137.1 200.85 137.35C200.75 137.45 200.65 137.5 200.6 137.55C200.4 137.7 200.2 137.8 200 137.95C199.55 138.2 199.1 138.35 198.65 138.45C198.2 138.6 197.75 138.65 197.25 138.55C197.05 138.4 196.85 138.2 196.8 137.95C196.55 137.25 196.55 136.5 196.85 135.8C197 135.4 197.25 135.1 197.55 134.85C197.6 134.8 197.7 134.75 197.8 134.75L197.25 134.15C197.15 134.2 197.15 134.4 197.15 134.5C196.75 135.35 196.2 136.05 195.5 136.7C194.85 137.4 194.1 137.95 193.3 138.4C192.8 138.65 191.65 139.15 191.1 138.7C191 138.6 190.95 138.5 190.95 138.35C190.95 138.15 190.95 138 191.05 137.8C191.1 137.7 191.25 137.55 191.15 137.55L190.65 137.35L190.75 137.4L190.3 136.95C190.3 136.4 190.25 136.25 190.05 136.45L189.75 136.7C189.6 136.85 189.4 136.95 189.25 137.1C188.85 137.35 188.5 137.6 188.05 137.8C187.2 138.25 186.3 138.55 185.4 138.75C184.15 139.1 185.3 141.3 186.4 141.05Z" fill="#000005"/>
<path d="M65.5 50.9C67.55 53.2 68.75 56.25 68.15 59.35C67.9 60.85 67.2 62.25 66.2 63.45C66.05 63.6 65.95 63.7 65.8 63.85C65.4 64.2 65.85 63.9 65.85 63.9C65.75 64.05 65.1 64.05 64.9 64.1C64 64.2 63.1 64 62.35 63.5C60.95 62.4 61.7 60.8 62.65 59.65C63.8 58.25 65.05 57 66.4 55.85C67.45 54.95 68.65 53.85 70 53.5C71.8 53.1 73.7 53.15 75.45 53.75C78.15 54.5 81.3 56.35 81.75 59.4C81.85 60.15 81.8 60.9 81.55 61.6C81.4 62 81.25 62.35 81 62.7C80.9 62.85 80.75 63 80.65 63.15C80.4 63.35 80.5 63.35 80.9 63.1C81.35 62.95 81.45 62.9 81.1 62.9C80.75 62.8 80.45 62.65 80.2 62.4C80.05 62.2 79.9 61.9 79.85 61.65C79.7 61.05 79.65 60.45 79.75 59.85C80 58.55 80.75 57.35 81.8 56.5C82.85 55.7 84.15 55.3 85.5 55.3C86.95 55.2 88.55 55.45 89.65 56.4C90.65 57.3 91.1 58.6 90.95 59.9C90.95 60.6 90.7 61.25 90.25 61.8L90.1 61.95C89.8 62.2 89.95 62.1 90.65 61.65C90.5 61.65 90.35 61.6 90.2 61.55C90.1 61.5 90.05 61.45 90 61.35C89.75 61.1 89.55 60.8 89.45 60.5C88.9 58.9 90.6 57.25 91.8 56.45C93.3 55.5 95.3 56.25 96.65 57.2C97.7 58 99.5 59.8 98.15 61.1C97.8 61.45 98.55 61.2 98.7 61.15C99.25 61 99.75 60.7 100.2 60.35C101.7 58.85 100.25 57.1 98.9 56.1C98.1 55.5 97.2 55.05 96.2 54.9C95.15 54.8 94.05 55 93.1 55.4C91.1 56.15 88.95 57.4 87.75 59.2C87.25 59.85 87.05 60.65 87.2 61.45C87.35 62.3 88.15 62.9 89 62.8C90.2 62.55 91.25 62 92.15 61.2C92.7 60.7 93.05 60 93.15 59.25C93.4 57.55 92.85 55.8 91.25 54.9C89.65 54 87.7 54.05 85.95 54.4C83.8 54.8 81.8 55.7 80.1 57.05C78.8 58.05 77.7 59.5 77.55 61.2C77.45 61.95 77.6 62.7 77.95 63.35C78.45 64.15 79.35 64.15 80.15 63.95C82.2 63.3 83.85 61.85 84.1 59.6C84.35 57.7 83.35 55.95 81.9 54.75C80.3 53.5 78.45 52.7 76.45 52.35C74.15 51.95 71.85 52.25 69.75 53.2C67.7 54.2 65.85 55.45 64.2 56.95C63.35 57.65 62.55 58.45 61.8 59.25C61 60 60.3 60.9 59.75 61.85C59.3 62.6 59.35 63.55 59.85 64.25C60.5 64.9 61.35 65.25 62.25 65.25C64.45 65.25 66.55 64.4 68.2 62.9C71 60.25 71.4 55.7 69.7 52.35C69.25 51.45 68.65 50.6 67.95 49.85C67.45 49.4 65.5 50.8 65.5 50.9Z" fill="#000005"/>
<path d="M83.4502 118.15L65.3002 114L70.9502 90.95L88.5502 94.05L83.4502 118.15Z" fill="white"/>
<path d="M83.6001 117.4L67.6501 113.75L65.4001 113.25L66.5001 114.2L68.4001 106.45L71.4501 94L72.1501 91.15L70.8001 91.75L86.2501 94.5L88.4001 94.9L87.3001 93.95L85.5501 102.1L82.8001 115.1L82.1501 118.1C81.9501 119.15 84.4001 119.55 84.6001 118.5L86.3001 110.35L89.0501 97.35L89.7001 94.4C89.8001 93.85 89.0001 93.5 88.6001 93.45L73.1501 90.7L71.0001 90.3C70.5501 90.2 69.8001 90.3 69.6501 90.9L67.7501 98.65L64.7001 111.1L64.0001 113.95C63.8501 114.5 64.7501 114.85 65.1001 114.9L81.0501 118.55L83.3001 119.05C83.7501 119.15 84.5501 119 84.6501 118.5C84.7501 118 84.0001 117.5 83.6001 117.4Z" fill="#0C0077"/>
<path d="M72.9501 106.6L75.7501 103.3L79.0001 106.55C78.9501 106.55 75.7501 109.4 72.9501 106.6Z" fill="#0C0077"/>
<path d="M79.2001 99.3001C79.2501 99.2001 79.2001 99.1501 79.2001 99.1501C79.1001 99.0501 79.0002 99.0001 78.9002 98.9001C78.8002 98.8001 77.9501 98.4001 77.7501 98.6001L78.8002 98.8501C77.9502 98.3001 77.0001 98.0001 76.0501 97.8501C74.9501 97.6501 73.8001 97.8501 72.7501 98.3501C71.3001 99.2501 70.8001 101.15 71.1001 102.7C71.2501 103.6 71.7001 104.4 72.3501 104.95C72.5501 105.1 73.2501 105.45 73.5001 105.25L76.5001 102.15L75.3501 101.85L78.4501 104.95C78.6001 105.1 79.4001 105.45 79.6001 105.25C80.4002 104.15 80.7001 102.8 80.4501 101.5C80.2501 100.65 79.8502 99.9001 79.2501 99.2501C79.0501 99.0501 78.8002 98.9501 78.5502 98.9001C78.5002 98.9001 78.0001 98.8001 78.1001 98.9501C78.6501 99.5501 79.0502 100.3 79.3002 101.1C79.5502 102.4 79.2501 103.8 78.4501 104.85L79.6001 105.15L76.5001 102.05C76.3501 101.9 75.5501 101.55 75.3501 101.75L72.3501 104.85L73.5001 105.15C72.3501 104.25 72.1001 102.55 72.4001 101.2C72.5501 100.5 72.8501 99.8501 73.3001 99.3001C73.9501 98.7001 74.8001 98.3001 75.6501 98.3001C76.1501 98.2501 76.7001 98.2501 77.2001 98.4001C77.4501 98.4501 77.7001 98.6001 77.9501 98.7501C78.1501 98.8501 78.8001 99.2001 79.0001 99.0001L77.8501 98.7001C77.9501 98.8001 78.0501 98.8501 78.1501 98.9501L78.1001 98.8501L78.0502 98.9001C77.9502 99.0001 78.5501 99.2001 78.6001 99.2501C78.7001 99.3001 79.0501 99.4501 79.2001 99.3001Z" fill="#0C0077"/>
<path d="M72.5501 103.95H75.8001C76.2501 103.95 75.9001 103.1 75.8001 102.95C75.6501 102.65 75.5001 102.4 75.2501 102.15C75.1501 102 74.9501 101.8 74.7501 101.8H71.5001C71.0501 101.8 71.4001 102.65 71.5001 102.8C71.6501 103.1 71.8001 103.35 72.0501 103.6C72.1501 103.7 72.3501 103.95 72.5501 103.95Z" fill="#0C0077"/>
<path d="M72 101.85C74.45 101.7 76.9 101.7 79.3 101.9C79.8 101.95 80.45 101.6 80.35 101C80.25 100.4 79.5 100.15 78.95 100.1C76.5 99.9 74.05 99.9 71.65 100.05C71.15 100.1 70.5 100.3 70.6 100.95C70.7 101.6 71.5 101.85 72 101.85Z" fill="#0C0077"/>
<path d="M35.9501 215.5L39.1501 217.8C39.1501 217.8 46.5501 226.1 44.4501 227.4C42.3501 228.7 36.9001 226.3 30.6001 221.85C24.3001 217.4 23.3001 213.8 28.7001 210.7L35.9501 215.5Z" fill="#000005"/>
<path d="M35.4001 215.85L38.0001 217.7C38.1501 217.8 38.3501 217.95 38.5001 218.05C38.8501 218.3 38.1501 217.7 38.2001 217.8C38.3501 218 38.5001 218.2 38.7001 218.35C40.3501 220.15 41.8001 222.15 43.0001 224.25C43.2501 224.7 43.4501 225.15 43.6001 225.6C43.7001 225.9 43.7001 226.25 43.6001 226.55C43.3501 226.75 43.0501 226.9 42.7501 226.9C42.2001 226.95 41.6501 226.9 41.1001 226.75C39.2501 226.2 37.5001 225.45 35.8501 224.4C33.5501 223.15 31.4001 221.7 29.4001 220.05C28.0501 218.9 26.4001 217.35 26.3501 215.45C26.3001 213.55 28.2001 212.2 29.7001 211.3L28.1501 211L35.4001 215.85C35.7501 216.1 36.6001 216.45 37.0001 216.15C37.4001 215.85 36.8001 215.3 36.5001 215.1L29.2001 210.3C28.8001 210.05 28.1001 209.75 27.6501 210.05C26.1001 210.95 24.3501 212.25 24.0501 214.2C23.8001 216 24.9001 217.7 26.1001 218.95C28.0501 221 30.4501 222.65 32.8501 224.15C35.0001 225.55 37.3001 226.75 39.7001 227.7C41.2001 228.25 46.7501 229.75 45.8501 226.4C45.4001 225.1 44.7501 223.85 43.9501 222.75C43.1501 221.55 42.2501 220.45 41.3501 219.3C40.8501 218.6 40.2501 218 39.6001 217.45C38.5501 216.7 37.5501 215.95 36.5001 215.2C36.1501 214.95 35.3001 214.6 34.9501 214.9C34.6001 215.2 35.1501 215.7 35.4001 215.85Z" fill="#000005"/>
<path d="M42.5001 207.55C42.5001 207.55 36.7001 211.85 36.5001 213C36.3001 214.15 42.7501 222 41.7001 221.5C40.9001 221.1 38.2501 221.55 32.8501 217.4C27.4501 213.25 28.1001 212.65 28.5001 211.2C28.9001 209.75 33.4001 202.4 33.4001 202.4L42.5001 207.55Z" fill="white"/>
<path d="M41.7501 206.5C40.6501 207.3 39.6001 208.15 38.6001 209C37.9001 209.6 37.2001 210.2 36.5501 210.85C36.2001 211.2 35.7001 211.7 35.7001 212.25C35.8001 212.9 36.0501 213.55 36.4501 214.1C36.9001 214.85 37.4001 215.6 37.9001 216.35C38.8501 217.75 39.9001 219.15 40.8501 220.55C40.9501 220.65 41.0001 220.8 41.1001 220.9C41.2501 221.15 40.9501 220.65 41.1501 220.95C41.0501 220.7 41.3001 221.2 41.1501 220.95C41.1001 220.85 41.1001 220.75 41.0501 220.65C41.0501 220.6 41.1001 220.5 41.1501 220.45C41.1501 220.5 41.3001 220.5 41.0501 220.4L40.8501 220.35C40.6501 220.3 40.4501 220.3 40.2501 220.25C38.5001 219.9 36.8001 219.3 35.3001 218.35C33.8501 217.45 32.5001 216.5 31.2001 215.4C30.7001 215 30.2501 214.6 29.8001 214.2L29.3501 213.75C29.2501 213.65 29.2001 213.6 29.1001 213.5C29.2501 213.7 29.0501 213.45 29.0501 213.4C28.8501 213.1 29.0501 213.35 29.0501 213.4C28.9001 213.15 29.2001 213.65 29.0501 213.4C28.9001 213.15 29.1501 213.6 29.0501 213.45C29.0001 213.4 28.9501 213.25 29.0501 213.5C29.0001 213.45 29.0501 213.3 29.0501 213.5C29.0501 213.45 29.0001 213.4 29.0001 213.35C29.0001 213.15 29.0001 213.3 29.0001 213.15C29.0501 212.8 29.1501 212.4 29.2501 212.1C29.5001 211.45 29.8001 210.8 30.1501 210.15C30.7001 209.15 31.2501 208.15 31.8001 207.15C32.5501 205.9 33.2501 204.65 34.0501 203.4L33.8001 203.35L42.9501 208.5C43.4001 208.75 43.1501 208.05 43.1001 207.85C42.8501 207.3 42.5001 206.85 42.0001 206.55L32.9501 201.4C32.9001 201.35 32.8001 201.3 32.7001 201.35C32.0001 202.45 31.3501 203.6 30.7001 204.75C29.7001 206.35 28.8001 208.05 28.0001 209.75C27.5501 210.55 27.4501 211.5 27.7501 212.4C28.5501 214.6 30.6501 216.2 32.4001 217.6C34.6001 219.35 36.9501 221.05 39.7001 221.9C40.3501 222.1 41.0001 222.25 41.6501 222.35C41.8501 222.4 42.0501 222.4 42.2501 222.45C42.4001 222.5 42.1501 222.45 42.3001 222.45C42.4501 222.45 42.5001 222.55 42.6001 222.5C43.2001 222.05 41.0001 219.3 40.7001 218.9C40.1501 218.1 39.5501 217.35 39.0001 216.55C38.7501 216.2 38.5001 215.85 38.2501 215.45L37.9001 214.9C37.7001 214.6 38.0501 215.1 37.8501 214.85L37.6501 214.55C37.6001 214.45 37.3001 213.95 37.5001 214.25L37.4001 214.05C37.2501 213.8 37.4501 214.15 37.4001 214C37.3501 213.75 37.4001 213.95 37.4001 214C37.4001 213.9 37.4501 213.85 37.4001 213.95C37.4501 213.85 37.4501 213.75 37.5001 213.7C37.9001 212.95 38.7501 212.3 39.3501 211.75C40.6001 210.65 41.9501 209.55 43.3001 208.55C43.6001 208.25 42.1501 206.2 41.7501 206.5Z" fill="#000005"/>
<path d="M46.5001 129.2C46.5001 129.2 18.4001 190 25.4001 203.15C32.4001 216.3 50.8501 220.35 53.9001 201.4C56.9501 182.45 65.3001 131.75 65.3001 131.75L46.5001 129.2Z" fill="white"/>
<path d="M45.4 128.65C44.3 131.05 43.25 133.45 42.2 135.85C39.7 141.6 37.3 147.45 35 153.3C32.25 160.4 29.65 167.6 27.4 174.9C25.5 181.15 23.75 187.55 23.15 194.1C22.85 196.45 22.95 198.85 23.4 201.15C24.1 204.2 26.15 206.85 28.25 209.1C33 214 40.85 217.5 47.4 214.2C54.4501 210.65 55.0501 202 56.1501 195.1C57.4501 187.05 58.7501 179.05 60.1001 171C61.4501 162.9 62.7501 154.8 64.1001 146.7L66.4001 132.7L66.5001 132.05C66.5501 131.4 66.1001 130.8 65.4501 130.65L48.9501 128.4L46.65 128.1C46.05 128 45.35 128.2 45.25 128.9C45.2 129.55 45.65 130.15 46.3 130.3L62.8001 132.55L65.1001 132.85L64.0501 131.45L62.4501 141.15C61.2501 148.55 60.0001 155.95 58.8001 163.35C57.4501 171.65 56.1001 179.95 54.7001 188.25C54.1501 191.65 53.6001 195.05 53.0501 198.4C52.4501 202.1 51.9001 205.85 49.6501 208.95C48.7501 210.2 47.6 211.25 46.3 212C45.7 212.35 45.05 212.6 44.4 212.8C43.7 213 43 213.1 42.3 213.15C41.95 213.15 41.55 213.2 41.2 213.15C41 213.15 40.8 213.15 40.6 213.1H40.4H40.2H40.25C39.45 213 38.65 212.85 37.85 212.6L37.3 212.4L37.1 212.3C36.75 212.15 37.35 212.4 36.95 212.25C36.55 212.1 36.15 211.9 35.75 211.75C34.95 211.4 34.2 210.95 33.5 210.5C33.4 210.4 33.25 210.35 33.15 210.25C33 210.15 32.8 210 32.65 209.85C32.25 209.55 31.9 209.25 31.55 208.95C30.9 208.4 30.3 207.8 29.7 207.15C28.45 205.8 27.4 204.3 26.6 202.65C26.4 202.3 26.25 201.9 26.15 201.5C26.1 201.4 26.1 201.3 26.05 201.2C25.95 200.9 26.1 201.4 26.05 201.1C26 200.8 25.95 200.6 25.9 200.35C25.7 199.3 25.6 198.25 25.6 197.2V196.8C25.6 196.75 25.6 196.65 25.6 196.6C25.6 196.3 25.6 195.95 25.65 195.65C25.7 195 25.75 194.35 25.8 193.7C25.95 192.25 26.15 190.85 26.4 189.45C27 186.15 27.8 182.9 28.7 179.7C30.65 172.55 33.05 165.7 35.65 158.75C38 152.5 40.5 146.3 43.15 140.15C44.55 136.8 46 133.5 47.55 130.2C47.6 130.05 47.7 129.9 47.75 129.75C48.2 128.5 46 127.35 45.4 128.65Z" fill="#000005"/>
<path d="M73 219.7L76.9 220.25C76.9 220.25 87.3 224.1 86.05 226.25C84.8 228.4 78.85 228.8 71.2 227.85C63.55 226.9 61 224.15 64.25 218.9L73 219.7Z" fill="#000005"/>
<path d="M73.3501 220.4L76.6501 220.85C76.8501 220.9 77.0501 220.9 77.2001 220.9C77.3501 220.9 76.8001 220.75 77.0501 220.85C77.1501 220.9 77.2501 220.95 77.3501 220.95L77.5501 221.05C77.1501 220.9 77.5501 221.05 77.6501 221.1C78.8501 221.6 80.0501 222.1 81.2001 222.65C81.5001 222.8 81.8001 222.95 82.1501 223.1L82.6501 223.35C82.5001 223.25 82.8501 223.45 82.6501 223.35C82.8001 223.45 82.8501 223.45 82.9501 223.55C83.2501 223.7 83.5001 223.85 83.7501 224.05C83.9001 224.15 84.0001 224.25 84.1501 224.3C84.0001 224.2 84.3001 224.35 84.1501 224.3L84.3501 224.5C84.4501 224.6 84.5501 224.7 84.6501 224.75C84.7501 224.8 84.6001 224.65 84.7501 224.85C84.8001 224.9 84.9501 225.15 84.9001 225.05C84.8501 224.95 84.9501 225.2 85.0001 225.25C85.0001 225.2 85.0001 225.25 85.0001 225.35C85.0001 225.45 85.0501 225.35 85.0001 225.45C84.9501 225.65 84.8001 225.8 84.6501 225.95C83.6501 226.9 82.0501 227.15 80.7501 227.3C78.4501 227.55 76.1501 227.55 73.8001 227.3C71.4501 227.2 69.1501 226.85 66.9001 226.2C66.5001 226.1 66.1501 225.95 65.7501 225.75L65.5001 225.65C65.7001 225.75 65.3501 225.6 65.3501 225.55C65.2501 225.5 65.1501 225.4 65.0501 225.35C64.6001 225 64.2501 224.55 64.1001 223.95C63.6501 222.35 64.5501 220.65 65.4001 219.3L64.6001 219.5L73.3501 220.4C73.7501 220.4 74.3001 220.4 74.1001 219.85C73.8001 219.35 73.2501 219 72.6501 218.9L63.9501 218.05C63.7001 218.05 63.3501 218 63.1501 218.25C62.3001 219.65 61.4501 221.35 61.7501 223C62.0501 224.65 63.4501 225.85 64.9001 226.65C66.9001 227.75 69.2501 228.2 71.5001 228.45C74.3501 228.85 77.2001 229 80.0501 228.95C81.9501 228.9 84.0001 228.7 85.7501 227.85C86.7001 227.35 87.6501 226.5 87.0001 225.4C86.3001 224.15 84.8501 223.35 83.7001 222.65C82.2501 221.85 80.8001 221.15 79.2501 220.5C78.3501 220.05 77.4001 219.7 76.4001 219.45C75.1001 219.2 73.8001 219.1 72.5501 218.9C72.1501 218.85 71.6001 218.95 71.8001 219.45C72.0001 219.95 72.8501 220.35 73.3501 220.4Z" fill="#000005"/>
<path d="M75.0001 209.6C75.0001 209.6 71.9001 216.1 72.3001 217.25C72.7001 218.4 82.05 222.25 80.85 222.3C79.9501 222.35 77.8501 223.95 71.1501 222.8C64.3501 221.65 64.7001 220.8 64.4001 219.35C64.1001 217.9 64.6001 209.3 64.6001 209.3L75.0001 209.6Z" fill="white"/>
<path d="M74.1002 208.75C73.5502 209.95 73.0002 211.2 72.5002 212.45C72.1502 213.3 71.8002 214.2 71.5502 215.1C71.3002 215.7 71.3002 216.35 71.5002 216.9C72.2002 218.35 74.0502 219.2 75.4002 219.9C77.0002 220.75 78.6002 221.5 80.2002 222.3C80.4502 222.45 80.0002 222.2 80.2502 222.35L80.4502 222.45C80.5502 222.5 80.6502 222.55 80.7502 222.6C80.8502 222.65 81.1502 222.9 80.8002 222.6C80.9502 222.7 80.5502 222.35 80.5502 222.35C80.3502 222.1 79.9002 221.3 80.2002 221.3C79.8502 221.3 79.5002 221.4 79.2002 221.55C77.4502 222.1 75.6502 222.3 73.8002 222.15C72.1502 222.05 70.5502 221.8 68.9502 221.45C67.9002 221.25 66.8502 221 65.8002 220.6C65.7002 220.55 65.2502 220.35 65.4502 220.45C65.3002 220.35 65.1502 220.15 65.3502 220.4C65.1002 220.15 65.6002 220.7 65.5002 220.55C65.4002 220.4 65.7002 220.8 65.5502 220.65C65.4002 220.5 65.6502 220.9 65.6002 220.7C65.5002 220.45 65.6002 220.8 65.5502 220.6C65.5502 220.55 65.5002 220.45 65.5002 220.35C65.4502 220.15 65.4002 219.95 65.4002 219.75C65.3002 219.05 65.2502 218.35 65.3002 217.6C65.3002 216.5 65.3502 215.4 65.3502 214.35C65.4002 212.85 65.4502 211.35 65.5502 209.85L65.3502 210.05L75.8002 210.35C76.3002 210.35 75.6502 209.4 75.6002 209.35C75.3002 208.9 74.8002 208.6 74.2502 208.5L63.8502 208.2C63.7502 208.2 63.7002 208.3 63.7002 208.4C63.6002 209.75 63.5502 211.05 63.5002 212.35C63.3502 214.25 63.3502 216.2 63.4502 218.1C63.5002 219.25 63.9502 220.3 64.7502 221.1C66.3002 222.6 68.7002 223 70.7002 223.35C73.4502 223.85 76.3502 224.25 79.1002 223.75C79.7502 223.65 80.4002 223.45 81.0002 223.25C81.2002 223.2 81.8002 223.15 81.9502 223C82.4502 222.45 80.9002 221.3 80.5002 221.1C79.9002 220.7 79.2502 220.4 78.6002 220.1C76.9502 219.25 75.3002 218.5 73.7002 217.6C73.5002 217.5 73.3002 217.35 73.1502 217.25L72.9502 217.1C73.2502 217.3 72.9002 217.1 72.9002 217.05L72.9502 217.1C72.8502 217 72.7502 216.85 73.0502 217.2C72.9502 217.05 73.2502 217.5 73.2502 217.5C73.3002 217.65 73.3002 217.65 73.3002 217.6C73.4002 217.25 73.4002 216.85 73.5002 216.5C73.6502 216 73.8002 215.5 74.0002 215C74.6002 213.4 75.2502 211.85 76.0002 210.35C76.2502 209.75 74.3002 208.3 74.1002 208.75Z" fill="#000005"/>
<path d="M41.9 138.5C41.9 138.5 45.55 205.35 57.9 213.75C70.25 222.15 88.45 217 82.25 198.85C76.05 180.7 63.65 132.5 63.65 132.5L41.9 138.5Z" fill="white"/>
<path d="M40.95 137.75C41.1 140.25 41.3 142.8 41.45 145.3C41.9 151.35 42.5 157.35 43.15 163.35C44 170.65 45 177.95 46.35 185.2C47.55 191.65 48.95 198.2 51.35 204.35C52.2 206.7 53.35 208.9 54.75 210.95C56.4 213.2 58.6 215 61.15 216.15C67.2 219.1 75.85 220 81.1 214.85C83.6 212.35 84.55 208.85 84.35 205.4C84.15 201.65 82.6 198.1 81.5 194.5C79.1 186.85 76.95 179.2 74.8 171.5C72.6 163.55 70.45 155.6 68.35 147.65C67.15 143.05 65.9 138.4 64.7 133.75C64.65 133.55 64.6 133.3 64.55 133.1C64.4 132.7 64.1 132.35 63.75 132.1C63.6 131.95 63.1 131.5 62.8 131.55L55.45 133.55L43.7 136.8L41 137.55C40.55 137.65 42 139.5 42.6 139.35L49.95 137.35L61.7 134.1L64.4 133.35L62.7 131.85C63.55 135.05 64.35 138.25 65.2 141.45C67.15 148.8 69.1 156.1 71.1 163.4C73.3 171.4 75.55 179.45 77.9 187.4C78.85 190.6 79.85 193.8 80.85 196.95C82.1 200.7 83.1 204.65 81.95 208.6C81 211.65 78.8 214.15 75.85 215.4C72.75 216.8 69.1 217 65.8 216.4C63.95 216.05 62.1 215.5 60.4 214.65C59.55 214.25 58.7 213.8 57.9 213.25L57.45 212.95C57.2 212.8 57.65 213.15 57.4 212.95L57.2 212.75C57 212.55 57.45 212.95 57.15 212.7C57.1 212.65 57 212.55 56.95 212.5C56.9 212.45 57.15 212.75 56.9 212.45L56.7 212.2L56.6 212.1C56.4 211.85 56.7 212.25 56.6 212.1C56.5 211.95 56.3 211.75 56.2 211.55L56 211.25C55.85 211.05 56.05 211.35 55.9 211.05C55.3 210.15 54.8 209.2 54.35 208.25C51.75 202.75 50.35 196.75 49.1 190.85C47.6 183.7 46.5 176.5 45.6 169.3C44.8 162.9 44.15 156.5 43.6 150.1C43.3 146.65 43.05 143.2 42.85 139.7C42.85 139.55 42.85 139.4 42.85 139.2C42.8 138.7 42.25 138.25 41.9 137.95C41.8 137.95 40.95 137.35 40.95 137.75Z" fill="#000005"/>
<path d="M71.0001 133.25C71.0001 133.25 66.7501 103 54.0001 98.7C37.9501 93.3 34.05 144 34.05 144C34.05 144 59.4501 149.75 71.0001 133.25Z" fill="#000005"/>
<path d="M72.1999 132.95C71.9499 131.25 71.6499 129.55 71.2499 127.85C70.4499 123.95 69.3999 120.1 68.1499 116.35C66.7499 112.2 64.9999 108.05 62.5 104.45C60.4 101.4 57.55 98.5 53.8 97.65C51.1 97 48.3 97.95 46.2 99.75C43.8 101.8 42.15 104.65 40.85 107.5C39.3 111 38.05 114.6 37.15 118.3C36.2 122.05 35.4 125.85 34.75 129.65C34.2 132.8 33.75 136 33.4 139.2C33.2 140.85 32.95 142.5 32.9 144.15C32.9 144.2 32.9 144.3 32.9 144.4C32.85 144.75 33.25 144.9 33.55 145C36.75 145.65 40 146 43.25 146C49.8 146.1 56.6 145 62.45 141.95C66.2999 139.95 69.5999 137.05 72.0999 133.55C72.2999 133.25 72.2499 132.85 71.9499 132.65C71.8499 132.55 71.6999 132.55 71.5999 132.5C70.9499 132.45 70.3499 132.75 69.9999 133.25C65.9499 138.95 59.85 142.1 53.2 143.4C48.1 144.35 42.95 144.45 37.8 143.75C36.75 143.6 35.65 143.45 34.6 143.2L35.25 143.8C35.55 139.85 36.05 136.1 36.65 132.3C37.75 125 39.25 117.6 41.85 110.65C42.4 109.1 43.1 107.55 43.85 106.05C44.2 105.35 44.6 104.65 45 104C45.2 103.7 45.4 103.4 45.6 103.1C45.7 102.95 45.8 102.8 45.9 102.7L45.95 102.65C46 102.55 46.1 102.45 46.15 102.4C46.55 101.9 47 101.45 47.45 101L47.6 100.85C47.4 101.05 47.8 100.65 47.6 100.85L47.95 100.55C48.2 100.35 48.45 100.2 48.7 100C48.95 99.8 48.4 100.15 48.65 100.05L48.85 99.95L49.25 99.75C49.35 99.7 49.5 99.65 49.65 99.6C49.9 99.5 49.35 99.7 49.6 99.6C49.7 99.6 49.75 99.55 49.85 99.5C49.95 99.45 50.1 99.45 50.25 99.4L50.45 99.35C50.7 99.3 50.15 99.4 50.4 99.35C50.7 99.3 51 99.3 51.3 99.3H51.5C51.2 99.3 51.45 99.3 51.5 99.3C51.65 99.3 51.8 99.3 51.9 99.35C52.2 99.4 52.55 99.45 52.85 99.55C52.6 99.5 53.05 99.6 53.15 99.65C53.35 99.7 53.5 99.8 53.7 99.85C54.1 100 54.5 100.2 54.9 100.4C56.45 101.3 57.8 102.5 58.95 103.85C61.65 107 63.4499 110.9 64.9499 114.75C67.1999 120.75 68.8499 127 69.7999 133.35L69.8499 133.65C69.9999 134.75 72.3499 133.95 72.1999 132.95Z" fill="#000005"/>
<path d="M38.3 94.45C31.85 83.2 38 76.8 43.15 74.15C48.3 71.5 52.65 72.05 54.6 73.85C56.05 75.2 56.2 86.6 56.2 86.6L50.5 98.65C50.5 98.65 43.25 103.05 38.3 94.45Z" fill="#000005"/>
<path d="M63.4001 89.4C65.0001 84.25 55.1501 75.95 55.1501 75.95C53.1001 76.5 49.1501 76.3 49.1501 76.3C52.9501 81.5 47.0001 86.45 47.0001 86.45C44.1001 84.05 41.0501 86.95 42.7501 89.85C44.4501 92.75 47.5001 91.65 47.5001 91.65C47.5001 91.65 49.7001 99.85 50.5501 100.9C50.5501 100.9 57.1501 101.9 58.0501 96.05C58.0501 96 62.3001 92.9 63.4001 89.4Z" fill="white"/>
<path d="M64.3 90.25C64.75 88.7 64.25 87.05 63.55 85.65C62.65 83.95 61.55 82.35 60.25 80.9C59.05 79.5 57.8 78.2 56.45 76.95C56.05 76.55 55.6 76.2 55.2 75.8C54.85 75.5 54.5 75.05 54 75.1C53.45 75.15 52.9 75.3 52.35 75.35C51.7 75.4 51 75.45 50.3 75.45C49.6 75.45 48.85 75.45 48.15 75.4C48 75.4 48.1 75.5 48.15 75.6C49.65 77.75 49.65 80.3 48.35 82.55C47.75 83.7 46.9 84.7 45.95 85.55L46.5 85.85C45.25 84.85 43.4 84.05 42.05 85.3C40.8 86.4 41.15 88.2 42 89.45C43.35 91.4 45.8 93.35 48.35 92.45L46.5 90.85C46.95 92.45 47.4 94.05 47.9 95.65C48.25 96.75 48.6 97.85 49 98.9C49.15 99.25 49.3 99.65 49.5 99.95C49.9 100.65 50.5 101.25 51.25 101.65C51.65 101.75 52.05 101.8 52.45 101.75C53.3 101.75 54.15 101.65 54.95 101.4C55.95 101.15 56.85 100.6 57.55 99.85C57.95 99.4 58.3 98.9 58.5 98.35C58.6 98.05 58.75 97.75 58.8 97.45C58.8 97.2 58.9 97 58.95 96.8C59.2 96.55 59.5 96.3 59.8 96.1C60.35 95.65 60.85 95.15 61.35 94.65C62.7 93.45 63.7 91.95 64.3 90.25C64.4 90 63.65 89.45 63.5 89.25C63.45 89.2 62.5 88.45 62.45 88.55C61.8 90.35 60.7 91.9 59.35 93.2C58.85 93.7 58.35 94.2 57.8 94.65C57.55 94.85 57.25 95 57.15 95.35C56.95 96.1 56.7 96.85 56.3 97.55C55.95 98.1 55.45 98.6 54.95 98.95C54 99.6 52.9 99.95 51.75 100.05C51.1 100.15 50.4 100.15 49.75 100.05L51.35 101.4C51.5 101.6 51.3 101.35 51.3 101.3C51.2 101.15 51.15 101 51.1 100.8C50.95 100.4 50.8 100 50.65 99.65C50.3 98.65 49.95 97.6 49.65 96.55C49.25 95.2 48.85 93.85 48.5 92.45C48.4 92.05 47.85 91.65 47.6 91.45C47.45 91.3 46.95 90.75 46.7 90.85C46.25 91 45.8 91.05 45.35 91.05C44.95 91.05 44.5 91 44.1 90.85C43.85 90.75 43.25 90.35 43.75 90.8C44.25 91.25 43.9 90.9 43.8 90.75C43.7 90.55 43.6 90.4 43.5 90.2C43.05 89.15 43.25 87.9 44.1 87.1C45.05 86.3 46.45 86.25 47.45 87.05C47.5 87.1 47.9 87.45 48 87.35C49.05 86.45 49.9 85.35 50.55 84.1C51.8 81.85 51.6 79.05 50.05 77V77.2C52.05 77.3 54.2 77.35 56.15 76.85L55.35 76.35L55.6 76.55C55.6 76.55 55.35 76.3 55.5 76.5L55.65 76.65L56.05 77L56.5 77.4C56.35 77.25 56.45 77.35 56.55 77.45L56.85 77.75C57.05 77.95 57.2 78.1 57.4 78.3C57.6 78.5 57.65 78.55 57.9 78.85C59.6 80.65 61.25 82.7 62.2 85C62.75 86.15 62.85 87.45 62.55 88.65C62.45 88.9 63.2 89.45 63.35 89.6C63.3 89.6 64.25 90.35 64.3 90.25Z" fill="#000005"/>
<path d="M50.25 89.85C50.45 90.85 51.05 92.25 52.25 92.2C53.1 92.15 53.9 91.8 54.55 91.2C54.65 91.15 54.75 90.95 54.7 90.85C54.65 90.75 54.45 90.7 54.35 90.7C53.9 90.7 53.45 90.85 53.1 91.15L53 91.25C52.9 91.35 53.15 91.1 53.05 91.25L52.9 91.35C53.15 91.15 53.05 91.25 53 91.3C52.95 91.35 52.8 91.35 53.1 91.25C53.05 91.25 53.05 91.25 53 91.3C53.3 91.15 53.2 91.25 53.15 91.25C53.1 91.25 53 91.25 53.3 91.25H53.2C53.1 91.25 53.45 91.25 53.3 91.25H53.25C53.15 91.25 53.4 91.3 53.35 91.25H53.25L53.1 91.2L53.2 91.25C53 91.15 52.85 91 52.7 90.85L52.75 90.95C52.4 90.45 52.15 89.85 52.05 89.25C52 89.1 51.8 89.1 51.7 89.1C51.25 89.1 50.8 89.25 50.45 89.55C50.35 89.65 50.3 89.75 50.3 89.9L50.25 89.85Z" fill="#000005"/>
<path d="M56.05 82.7C57.55 83 59.05 83.1 60.55 82.95C65.6 82.55 66.6 84.1 65.3 85.45C64 86.8 57.25 87.65 57.25 87.65" fill="white"/>
<path d="M55.45 83.6C57 83.95 58.6 84 60.2 83.85C60.8 83.8 61.35 83.8 61.95 83.8C62.4 83.8 62.8 83.85 63.25 83.9C63.4 83.9 63.55 83.95 63.7 84C63.8 84 63.85 84.05 63.95 84.05C63.75 83.95 63.95 84.05 64 84.05L64.3 84.2C64.35 84.25 64.5 84.35 64.3 84.2L64.45 84.35L64.55 84.45C64.65 84.55 64.5 84.25 64.55 84.4C64.55 84.45 64.6 84.55 64.6 84.6C64.5 84.35 64.55 84.6 64.55 84.7C64.55 84.5 64.6 84.55 64.55 84.65C64.55 84.7 64.5 84.75 64.5 84.8C64.45 84.95 64.65 84.65 64.5 84.75C64.45 84.8 64.45 84.85 64.4 84.9C64.25 85.15 64.55 84.75 64.35 84.95C64.3 85 64.25 85 64.25 85.05C64.25 85.05 64.55 84.85 64.3 85L64.2 85.05C63.95 85.3 64.1 85.1 64.2 85.05C63.95 85.2 63.65 85.3 63.35 85.4L62.9 85.55L62.65 85.65C63 85.55 62.55 85.7 62.5 85.7C61.75 85.9 61.05 86.05 60.3 86.2C59.3 86.4 58.25 86.6 57.25 86.7C56.75 86.75 56.05 87.25 56.05 87.8C56.05 88.35 56.8 88.5 57.25 88.45C58.25 88.3 59.2 88.15 60.15 87.95C61.75 87.7 63.35 87.25 64.85 86.65C65.9 86.15 67.45 84.95 66.9 83.6C66.35 82.1 64.05 82 62.75 81.95C61.3 81.9 59.85 82.1 58.35 82C57.95 82 57.55 81.95 57.15 81.85L56.65 81.75C56 81.65 55.4 81.9 55 82.4C54.75 82.7 54.8 83.1 55.1 83.35C55.2 83.45 55.3 83.5 55.45 83.5V83.6Z" fill="#000005"/>
<path d="M53.0001 82.8499C53.3501 82.6999 53.7501 82.9 53.9001 83.25C53.9001 83.3 53.9001 83.2999 53.9501 83.3499C54.1001 84.0999 53.2001 84.2999 52.8501 83.6999C52.6501 83.4499 52.7001 83.05 52.9501 82.9C52.9501 82.85 53.0001 82.8499 53.0001 82.8499Z" fill="#000005"/>
<path d="M57.3501 80.2C57.7001 80.05 58.1001 80.25 58.2501 80.6C58.2501 80.65 58.2501 80.65 58.3001 80.7C58.4501 81.45 57.5501 81.6501 57.2001 81.0501C57.0001 80.8001 57.0501 80.4 57.3001 80.25C57.3001 80.2 57.3501 80.2 57.3501 80.2Z" fill="#000005"/>
<path d="M41.3501 89.7C41.3501 89.65 41.3501 89.95 41.3501 89.7C41.3501 89.85 41.3501 90.05 41.3501 90.2C41.3501 90.75 41.3501 91.35 41.3001 91.9C41.2001 92.9 40.9501 94.45 40.1501 95.05C39.7501 95.4 39.2001 95.45 38.7001 95.3C38.2501 95.15 37.8501 94.95 37.4501 94.7C37.2501 94.6 37.1001 94.45 36.9501 94.3C37.0001 94.35 36.7001 94 36.8001 94.15C36.9001 94.3 36.5501 93.8 36.7501 94.1C36.5501 93.85 36.8501 94.25 36.7501 94.05C36.7001 94 36.6501 93.75 36.7501 94C36.7501 93.95 36.7501 93.65 36.7501 93.9C36.7501 93.85 36.7501 93.8 36.7501 93.7C36.8001 93.45 36.9001 93.25 37.0001 93.05C37.3001 92.6 37.8001 92.4 38.3501 92.4C38.5001 92.4 38.7001 92.45 38.8001 92.6C38.7001 92.55 38.8501 92.8 38.8001 92.55C38.8001 92.6 39.0501 92.85 38.9001 92.65C38.9501 92.7 39.0001 92.8 39.0001 92.85C38.9501 92.65 39.1001 93.15 39.1001 93.2C39.3501 94.2 39.3501 95.25 39.1501 96.25C38.8001 98.05 37.9501 100.35 36.4001 101.5C36.1501 101.7 35.8501 101.8 35.5501 101.9C35.4501 101.9 35.2001 101.9 35.2501 101.9C35.2001 101.9 35.1001 101.85 35.0501 101.85C34.9501 101.8 35.1001 101.85 35.0501 101.85C35.0501 101.85 34.8001 101.6 34.9501 101.8C34.9001 101.75 34.8501 101.7 34.8001 101.6C34.9001 101.85 34.7501 101.5 34.7501 101.5L34.7001 101.45L34.7501 101.6C34.7501 101.55 34.7001 101.45 34.7001 101.4C34.8001 101.7 34.7501 101.5 34.7001 101.45C34.7001 101.4 34.7001 101.35 34.7001 101.25C34.7501 101.55 34.7001 101.25 34.7001 101.2C34.7001 101.15 34.7001 101.1 34.7001 101.05C34.7001 100.8 34.6501 101.25 34.7001 101C34.7001 100.9 34.7501 100.75 34.8001 100.65C34.8501 100.55 34.9001 100.45 34.9501 100.3C34.9001 100.45 35.0501 100.1 35.1001 100.05C35.3501 99.65 35.7001 99.25 36.1001 99C36.3501 98.85 36.6001 98.7 36.8501 98.6C37.0501 98.5 37.2501 98.45 37.5001 98.4C37.6001 98.4 37.7501 98.35 37.9001 98.35C37.9501 98.35 38.3001 98.4 38.1001 98.35C38.2001 98.35 38.3501 98.4 38.4501 98.45C38.2501 98.4 38.6501 98.5 38.4501 98.45C38.5001 98.45 38.5501 98.5 38.6001 98.55C38.3501 98.35 38.5001 98.5 38.5501 98.55C38.7001 98.7 38.4001 98.3 38.5001 98.5C38.5501 98.6 38.6501 98.8 38.4501 98.45C38.5001 98.55 38.5501 98.75 38.4501 98.4C38.4501 98.45 38.5001 98.55 38.5501 98.6C38.6001 98.85 38.5001 98.35 38.5501 98.65C38.5501 98.75 38.6001 99.2 38.6001 99.05C38.6001 100.2 38.4001 101.3 38.0001 102.4C37.9001 103 38.1001 103.65 38.5501 104.05C38.8501 104.35 39.4501 104.55 39.6001 104C40.2501 101.9 40.8501 99.2 39.4001 97.3C38.5501 96.1 36.9501 95.7 35.6501 96.4C34.4001 96.95 33.4501 98.05 33.0501 99.4C32.6501 101.25 33.8001 104.1 35.9501 104.25C36.9501 104.3 37.8001 103.6 38.4001 102.9C39.2501 101.9 39.9001 100.75 40.3001 99.5C41.2001 96.9 41.4501 93.15 39.3501 91C38.4501 90 36.9001 89.9 35.9001 90.8C35.5501 91.1 35.3001 91.5 35.1501 92C34.3501 94.5 36.8501 97.05 39.1501 97.6C42.9001 98.55 43.2001 93.25 43.0501 90.75C43.0501 90.6 43.0501 90.4 43.0001 90.25C42.9501 89.65 42.5501 89.1 42.0001 88.85C41.4501 88.7 41.3501 89.25 41.3501 89.7Z" fill="#000005"/>
<path d="M86.0501 109.15L84.3501 109.95C84.3501 109.95 83.7001 103.2 82.2501 103.95C80.8001 104.7 81.5001 114.95 81.5001 114.95C81.5001 114.95 68.2001 125.35 66.9501 125.65C66.9501 125.65 56.1501 103.8 48.7001 103.55C42.1501 103.35 41.3501 109.8 44.3001 117.6C47.2501 125.4 58.5001 141.75 66.1501 140.6C75.8501 139.15 84.5001 124.15 87.6001 117.3C90.7001 110.45 89.6501 101.1 88.3501 101" fill="white"/>
<path d="M85.5 108.2L83.8 109L85.55 109.65C85.45 108.5 85.25 107.35 85 106.25C84.7 104.9 84.1 102.45 82.2 102.8C80.65 103.1 80.35 104.9 80.25 106.25C80.1 108 80.05 109.75 80.1 111.45C80.15 112.65 80.15 113.9 80.25 115.15L80.65 114.15C76.65 117.3 72.65 120.4 68.5 123.35C68 123.7 67.55 124.05 67.05 124.35C66.95 124.4 66.6 124.6 67 124.4C66.9 124.45 66.85 124.5 66.75 124.55C66.55 124.65 66.25 124.75 66.7 124.6L68.05 125.1C67.05 123.1 65.95 121.15 64.85 119.2C62.7 115.4 60.25 111.75 57.45 108.35C55.3 105.75 52.3 102.55 48.65 102.45C46.35 102.4 43.9 103.2 42.6 105.25C41.25 107.35 41.25 110.05 41.6 112.45C42.35 117.45 44.75 122.05 47.45 126.25C50.25 130.6 53.5 134.95 57.55 138.25C59.25 139.6 61.1 140.85 63.25 141.45C65.4 142.05 67.55 141.55 69.55 140.75C74.55 138.7 78.45 134.3 81.55 130.05C83.15 127.8 84.65 125.5 86 123.1C87.1 121.15 88.1 119.15 89 117.1C90.15 114.2 90.75 111.15 90.85 108.05C90.95 105.85 90.95 103.35 90.1 101.25C89.85 100.55 89.2 100 88.45 99.95C87.8 99.9 87.2 100.35 87.1 101C87.05 101.7 87.65 102 88.25 102.1C88.25 102.1 87.7 101.95 87.8 102C87.6 101.9 87.6 101.85 87.7 101.95C87.5 101.8 87.6 101.75 87.65 101.9C87.65 101.95 87.7 102 87.75 102.05C87.8 102.1 87.8 102.15 87.8 102.2C87.7 101.95 87.85 102.35 87.8 102.2C87.9 102.45 87.95 102.6 88 102.8C88.2 103.7 88.35 104.65 88.4 105.55C88.55 108.3 88.3 111.05 87.6 113.75C86.95 116 86.05 118.15 84.9 120.2C83.8 122.3 82.6 124.35 81.3 126.3C78.5 130.45 75.25 134.65 71 137.45C70.05 138.05 69.05 138.6 68 139C67.6 139.15 67.15 139.3 66.7 139.4C66.45 139.45 66.15 139.5 65.9 139.55H65.8C66 139.55 65.6 139.55 65.6 139.55C65.4 139.55 65.2 139.55 65 139.55C64.95 139.55 64.6 139.5 64.9 139.55L64.65 139.5C64.2 139.4 63.75 139.3 63.35 139.15C63.15 139.05 63.25 139.1 63.3 139.15L63 139C62.8 138.9 62.55 138.8 62.35 138.7C61.9 138.45 61.45 138.2 61.05 137.95C57.2 135.45 54.05 131.5 51.4 127.75C50 125.75 48.75 123.7 47.55 121.6C46.55 119.8 45.7 117.95 45.05 116C44.25 113.6 43.65 110.95 44 108.4C44.1 107.55 44.45 106.7 44.95 106C45.4 105.45 46 105.05 46.65 104.85C47.1 104.7 47.5 104.65 47.95 104.65C48.2 104.65 48.45 104.65 48.75 104.65C48.85 104.65 49.1 104.7 48.75 104.65L49 104.7C49.15 104.75 49.3 104.75 49.45 104.8L49.7 104.9C50 105 49.45 104.8 49.75 104.9C50.1 105.05 50.4 105.2 50.7 105.4C50.85 105.5 51 105.6 51.15 105.7L51.35 105.85C51.65 106.05 51.2 105.7 51.45 105.9C51.7 106.1 52.15 106.4 52.45 106.7C53.15 107.35 53.8 108 54.45 108.7C57.15 111.65 59.45 115.1 61.55 118.55C63 120.95 64.35 123.35 65.6 125.85L65.8 126.25C66.1 126.7 66.65 126.9 67.15 126.75C68 126.45 68.8 125.95 69.55 125.35C70.7 124.55 71.85 123.7 73 122.85C75.5 121 78 119.05 80.5 117.15C81.1 116.7 81.7 116.25 82.3 115.75C82.65 115.45 82.8 115 82.75 114.55C82.75 114.5 82.75 114.45 82.75 114.35C82.75 114.05 82.75 114.45 82.75 114.3C82.75 114.05 82.7 113.8 82.7 113.5C82.65 111.95 82.6 110.4 82.65 108.85C82.65 108.1 82.7 107.3 82.75 106.55C82.8 106.2 82.8 105.85 82.9 105.55C82.9 105.4 82.95 105.3 83 105.15C82.9 105.4 83.05 105 83 105.15C83 105.1 83.05 105 83.05 104.95C83.05 104.9 83.1 104.85 83.1 104.8C83.2 104.55 83.2 104.8 83.05 104.8L83.1 104.7C83.25 104.55 82.85 104.9 83 104.8C82.7 105 82.35 105.05 82 104.9L81.9 104.85C82 104.95 81.95 104.95 81.9 104.8C82 104.95 82.05 105.05 82.15 105.2C82.2 105.25 82.2 105.3 82.2 105.35C82.3 105.55 82.15 105.2 82.25 105.45C82.35 105.85 82.5 106.2 82.55 106.6C82.85 107.8 83.05 109 83.15 110.25C83.25 111.05 84.35 111.2 84.9 110.9L86.6 110.1C87.15 109.9 87.4 109.25 87.2 108.7C87.2 108.7 87.2 108.65 87.15 108.65C86.8 108.15 86.1 107.95 85.5 108.2Z" fill="#000005"/>
<path d="M160.7 223.1C160.7 223.1 158 226.8 158.85 226.9C159.7 227 181.25 227.9 182.1 226.3C182.95 224.7 184.2 214.85 177.65 210.7C171.1 206.55 168.8 204.8 169.05 200.35C169.3 195.9 166.85 191.1 162.15 190.75C157.45 190.4 153.05 197.9 153.4 199.35C153.75 200.8 157.35 204.5 157.35 204.5C156.2 206.7 156.3 209.35 157.6 211.5C159.8 215.2 161.05 220.5 160.7 223.1Z" fill="#000005"/>
<path d="M163.4 193.25C163.4 193.25 169.75 189.55 170.25 190.1C170.75 190.65 168.85 197.9 167.15 197.7C165.45 197.5 163.4 193.25 163.4 193.25Z" fill="#000005"/>
<path d="M158.55 195.65C158.95 195.85 159.05 196.35 158.85 196.75C158.85 196.8 158.8 196.8 158.8 196.85C158.25 197.55 157.4 196.9 157.7 196.15C157.8 195.8 158.15 195.55 158.5 195.65C158.5 195.6 158.55 195.65 158.55 195.65Z" fill="white"/>
<path d="M178.9 226.25C184.05 227.65 190.15 226.15 193.45 221.75C195.1 219.5 195.95 216.7 195.9 213.9C195.9 212.45 195.6 211 195.1 209.65C194.6 208.2 193.85 206.85 193.3 205.4C193.05 204.75 192.9 204.05 192.8 203.4C192.7 202.8 192.75 202.25 192.95 201.65C193.05 201.35 193.1 201.1 193.25 200.8C193.35 200.6 193.45 200.4 193.6 200.25C193.7 200.15 193.75 200.05 193.85 199.95C193.9 199.9 194.3 199.6 194.05 199.75C194.15 199.7 194.2 199.65 194.3 199.6C194.4 199.55 194.5 199.5 194.55 199.45C194.35 199.55 194.35 199.55 194.55 199.45C195.55 199.15 195.85 198.25 195.1 197.5C194.2 196.65 192.9 196.3 191.7 196.55C189.1 197.3 187.9 199.75 187.95 202.3C188 205.1 189.9 207.45 190.6 210.05C191.35 212.65 191.2 215.45 190.1 217.95C189.65 218.95 189 219.9 188.2 220.65C187.5 221.4 186.65 222.05 185.7 222.5C185.4 222.65 185.1 222.8 184.75 222.95C184.7 222.95 184.4 223.1 184.7 222.95L184.2 223.15C183.85 223.25 183.55 223.35 183.2 223.45L182.85 223.5C182.65 223.55 182.35 223.6 182.7 223.55C182.35 223.6 182 223.65 181.65 223.65H181.3H181C181.3 223.65 181.35 223.65 181.2 223.65C180.9 223.6 180.55 223.6 180.25 223.55C180.15 223.55 180 223.55 179.9 223.5C180.25 223.55 180.3 223.6 180.05 223.5L179.7 223.4C178.9 223.2 177.2 223.05 176.9 224.1C176.6 225.15 178.15 225.95 178.9 226.15V226.25Z" fill="#000005"/>
</svg>
