<svg width="102" height="37" viewBox="0 0 102 37" fill="none" xmlns="http://www.w3.org/2000/svg">
<path d="M31.9606 33.3064C32.0251 33.2992 32.0896 33.292 32.1457 33.2099C37.4704 30.0361 54.5635 24.6382 54.6925 24.6238C55.0066 24.5128 55.1663 24.1916 55.0595 23.8242C54.9527 23.4568 54.6692 23.2608 54.3551 23.3717C53.6625 23.6008 37.0125 28.8734 31.5588 32.0616C31.3176 32.2403 31.1664 32.6365 31.3293 32.9217C31.4921 33.207 31.7671 33.328 31.9606 33.3064Z" fill="black"/>
<path d="M3.27557 34.3974C3.34008 34.3902 3.4691 34.3758 3.52515 34.2937C14.4368 25.6412 26.627 20.7908 34.8916 18.1992C43.849 15.3786 50.2999 14.6585 50.3644 14.6513C50.687 14.6153 50.9112 14.2868 50.8689 13.9122C50.8266 13.5376 50.5347 13.2668 50.2121 13.3028C50.1476 13.31 43.6322 14.0373 34.5458 16.8723C26.2167 19.4711 13.9059 24.4109 2.80921 33.1598C2.56809 33.3385 2.48136 33.7275 2.65268 34.0876C2.87159 34.2908 3.08205 34.419 3.27557 34.3974Z" fill="black"/>
<path d="M99.2485 6.68106C98.8932 8.16165 96.6092 11.0709 91.9353 13.6401C87.2614 16.2094 76.5378 23.6249 75.0542 23.7904C73.5706 23.956 68.8999 27.1316 68.8999 27.1316L64.6901 22.8235L59.2041 27.4552L57.9097 15.9963L48.6981 5.57261C48.6981 5.57261 83.1774 6.6544 85.306 6.41685C87.4347 6.1793 99.4611 5.67143 99.2485 6.68106Z" fill="#CDCFFF"/>
<path d="M68.9741 27.8022C69.1031 27.7878 69.2237 27.6985 69.3442 27.6093C69.5124 27.363 69.5261 26.9065 69.3072 26.7034L59.1367 16.4631C63.635 15.8095 79.065 13.6327 81.7011 13.2627C83.5633 12.9791 84.0169 11.7909 84.2548 11.006C84.5012 10.296 84.5572 10.2139 85.455 10.6446C87.7919 11.673 88.42 11.4512 88.9635 10.4806C89.0196 10.3985 89.0671 10.2415 89.1232 10.1594C89.3558 9.90596 89.3135 9.53152 89.0862 9.25355C88.8588 8.97558 88.5363 9.01157 88.3037 9.26503C88.1916 9.42921 88.0795 9.59338 87.9674 9.75756C87.7993 10.0038 87.7993 10.0038 87.6703 10.0182C87.3478 10.0542 86.7334 9.81943 85.7711 9.39596C83.9756 8.53464 83.4881 9.42322 83.1466 10.4472C82.9002 11.1572 82.6454 11.7923 81.4198 11.9291C78.2677 12.3566 57.8318 15.3196 57.6383 15.3412C57.4448 15.3627 57.2682 15.5341 57.1646 15.7732C57.1255 16.0051 57.1593 16.3046 57.3698 16.4328L68.4972 27.6279C68.6432 27.7633 68.7806 27.8238 68.9741 27.8022Z" fill="black"/>
<path d="M59.2074 28.1335C59.5294 28.0975 59.7532 27.7694 59.711 27.3952L58.4199 15.9458C58.3777 15.5717 58.0865 15.3011 57.7645 15.3371C57.4426 15.3731 57.2188 15.7012 57.261 16.0754L58.552 27.5248C58.6586 27.8918 58.9499 28.1623 59.2074 28.1335Z" fill="black"/>
</svg>
