<svg width="429" height="429" viewBox="0 0 429 429" fill="none" xmlns="http://www.w3.org/2000/svg">
<g clip-path="url(#clip0_36_1363)">
<path d="M180.437 385.928C180.437 385.928 159.76 247.19 232.261 244.787C304.762 242.385 290.347 383.783 290.347 383.783" fill="white"/>
<path d="M182.582 386.014C182.411 384.813 182.239 383.526 182.068 382.325C181.639 378.979 181.295 375.547 181.038 372.2C180.609 367.224 180.266 362.162 180.094 357.1C179.837 351.008 179.751 344.916 179.923 338.738C180.008 332.046 180.437 325.354 181.124 318.661C181.81 311.797 182.84 305.019 184.298 298.327C185.671 291.806 187.645 285.371 190.133 279.193C192.449 273.445 195.538 267.953 199.228 262.977C202.831 258.258 207.207 254.225 212.269 251.137C217.589 247.962 223.509 246.074 229.687 245.388C231.231 245.216 232.775 245.131 234.32 245.131H235.092H235.778C236.293 245.131 235.693 245.131 236.036 245.131C236.379 245.131 236.808 245.131 237.237 245.216C237.409 245.216 237.666 245.216 237.838 245.302H238.181C239.639 245.474 241.184 245.731 242.642 245.989C244.015 246.332 245.474 246.675 246.847 247.19C252.338 249.077 257.4 252.08 261.69 256.027C266.066 260.146 269.755 264.865 272.672 270.098C275.847 275.675 278.421 281.596 280.394 287.687C282.454 294.122 284.17 300.643 285.371 307.336C286.658 314.028 287.516 320.72 288.202 327.499C288.803 333.934 289.146 340.283 289.403 346.718C289.575 352.295 289.575 357.786 289.489 363.363C289.403 367.567 289.232 371.771 288.974 375.89C288.889 378.206 288.717 380.523 288.46 382.84C288.46 383.183 288.374 383.44 288.374 383.698C288.374 383.955 292.578 384.384 292.664 383.783C292.75 382.496 292.921 381.295 293.007 380.008C293.264 376.576 293.436 373.23 293.608 369.798C293.779 364.736 293.865 359.674 293.865 354.611C293.865 348.52 293.693 342.342 293.264 336.25C292.835 329.472 292.235 322.78 291.205 316.087C290.261 309.309 288.889 302.531 287.173 295.838C285.542 289.403 283.312 283.054 280.566 276.962C278.078 271.3 274.817 265.98 270.956 261.175C263.234 251.394 251.651 245.302 239.21 244.616C232.003 243.929 224.71 244.616 217.76 246.589C211.926 248.391 206.521 251.308 201.973 255.341C197.426 259.373 193.651 264.178 190.648 269.498C187.387 275.161 184.813 281.167 182.926 287.43C180.952 293.951 179.408 300.643 178.378 307.421C177.263 314.285 176.576 321.235 176.147 328.099C175.804 334.62 175.633 341.227 175.718 347.747C175.804 353.496 175.976 359.159 176.405 364.907C176.662 369.197 177.005 373.487 177.434 377.777C177.692 380.18 177.949 382.582 178.292 384.985L178.378 385.928C178.378 386.529 182.582 386.272 182.582 386.014Z" fill="#000005"/>
<path d="M201.716 239.983C201.716 239.983 182.668 252.509 175.89 245.474C169.112 238.438 183.269 235.006 183.269 235.006C183.269 235.006 160.875 224.11 180.695 212.355C180.695 212.355 157.786 206.521 166.709 188.674C175.633 170.828 206.349 167.567 206.349 167.567C206.349 167.567 197.941 149.12 220.42 142.771C242.9 136.422 242.299 149.807 242.299 149.807C242.299 149.807 256.628 145.603 259.631 151.866C262.634 158.129 253.367 164.908 253.367 164.908C253.367 164.908 256.971 184.899 237.151 189.875L228.485 220.334C228.485 220.334 238.352 226.169 234.92 237.666C231.488 249.163 205.663 252.338 201.716 239.983Z" fill="#000005"/>
<path d="M200.257 238.953C195.796 241.956 190.905 244.273 185.671 245.731C184.899 245.903 184.127 246.074 183.269 246.16C182.84 246.246 182.411 246.246 182.068 246.246C181.896 246.246 181.639 246.246 181.467 246.246C181.896 246.246 181.295 246.246 181.124 246.246L180.437 246.16C180.008 246.16 180.695 246.246 180.266 246.16L179.751 246.074L179.494 245.989C179.15 245.903 179.751 246.074 179.494 245.989C178.893 245.817 178.292 245.474 177.863 245.045C176.92 244.273 175.976 242.814 176.233 241.441C176.576 240.326 177.263 239.382 178.292 238.781C178.378 238.696 178.807 238.438 179.15 238.267C179.494 238.095 179.923 237.838 180.266 237.666C180.609 237.494 180.952 237.323 181.295 237.237L181.81 237.065C181.467 237.237 181.896 237.065 181.982 236.98C182.668 236.722 183.44 236.465 184.213 236.293C185.671 235.95 185.585 234.663 184.384 234.062L183.784 233.805C183.526 233.719 183.097 233.462 183.526 233.719L182.668 233.204C181.21 232.346 179.837 231.317 178.55 230.201C177.177 229 176.062 227.542 175.204 225.911C174.346 224.281 174.26 222.308 174.86 220.592C176.062 217.417 179.15 215.186 181.982 213.556C183.355 212.784 182.325 211.583 181.21 211.325C180.952 211.24 180.695 211.154 180.437 211.154C180.18 211.154 179.408 210.811 180.094 211.068L178.979 210.639C178.121 210.296 177.177 209.867 176.319 209.438C175.375 209.009 174.431 208.494 173.573 207.893C169.198 205.062 166.023 200.686 166.709 195.023C167.567 188.074 172.801 182.411 178.378 178.636C183.784 175.204 189.79 172.63 196.053 171.085C197.512 170.742 198.884 170.313 200.343 170.056C200.944 169.884 201.544 169.798 202.231 169.712L203.089 169.541L203.432 169.455C204.461 169.283 205.577 169.112 206.606 169.026C207.207 168.94 208.666 168.511 208.237 167.567C205.834 162.334 206.177 155.47 209.953 150.751C214.071 145.603 221.45 143.543 227.713 142.685C229.172 142.514 230.545 142.428 232.003 142.514C232.261 142.514 232.604 142.514 232.861 142.6C233.119 142.685 233.719 142.685 233.548 142.685C233.376 142.685 234.062 142.771 234.148 142.857C234.406 142.943 234.663 143.029 235.006 143.114C235.521 143.286 234.92 143.029 235.349 143.2L235.95 143.458L236.465 143.715C236.036 143.543 236.636 143.801 236.808 143.887C237.151 144.144 237.409 144.316 237.752 144.573C237.409 144.316 237.838 144.659 237.923 144.745L238.352 145.174C238.61 145.431 238.781 145.774 239.039 146.117C239.039 146.203 239.125 146.375 239.039 146.032L239.21 146.289L239.382 146.718C239.639 147.233 239.811 147.833 239.897 148.348C239.897 148.434 239.983 148.606 239.983 148.691C239.983 148.606 240.068 149.035 239.983 148.691C239.983 148.777 239.983 149.035 240.068 149.206C240.068 149.378 240.068 149.549 240.068 149.721C239.983 151.094 242.299 151.351 243.157 151.094C244.358 150.751 245.56 150.493 246.761 150.236C246.503 150.322 247.104 150.15 246.761 150.236L247.104 150.15C247.447 150.064 247.705 150.064 247.962 150.064C248.563 149.978 249.249 149.893 249.85 149.893C250.45 149.893 251.222 149.807 251.566 149.807C251.909 149.807 252.767 149.893 253.367 149.893L253.882 149.978H253.968C254.225 150.064 254.483 150.064 254.74 150.15L255.169 150.236C254.826 150.15 255.169 150.236 255.255 150.236C255.512 150.322 255.856 150.493 256.113 150.579C255.941 150.493 256.456 150.836 256.542 150.922C256.714 151.008 256.799 151.18 256.971 151.351C257.314 151.78 257.572 152.295 257.743 152.81C258.601 155.47 257.143 158.215 255.598 160.189C254.397 161.647 253.024 163.02 251.48 164.135C251.222 164.393 251.051 164.736 251.137 165.079V165.251C251.137 165.594 251.137 164.908 251.137 165.422C251.137 165.937 251.222 166.538 251.308 167.053C251.394 168.94 251.308 170.828 250.965 172.63C250.279 177.863 247.361 182.582 242.986 185.585C241.613 186.529 240.068 187.301 238.524 187.816C237.323 188.245 235.178 188.331 234.749 189.704C234.406 190.905 234.062 192.106 233.719 193.222L229.343 208.666L226.083 219.991C225.997 220.334 226.426 220.849 226.598 220.935C227.198 221.278 227.799 221.707 228.314 222.222C228.4 222.308 228.743 222.565 228.485 222.394L228.914 222.737C229.258 223.08 229.515 223.337 229.772 223.681C230.373 224.367 230.888 225.139 231.403 225.911C233.633 229.687 233.977 235.092 231.832 238.953C230.03 242.042 226.598 244.101 223.423 245.131C221.536 245.817 219.562 246.16 217.589 246.332C216.645 246.418 215.787 246.418 214.843 246.418C214.328 246.418 213.814 246.332 213.299 246.332L212.527 246.246H212.355L212.012 246.16C211.497 246.074 210.896 245.903 210.382 245.817C210.124 245.731 209.953 245.731 209.695 245.645C209.438 245.56 209.953 245.731 209.609 245.645L209.266 245.474C208.408 245.131 207.55 244.702 206.778 244.187C205.234 243.071 204.118 241.527 203.518 239.811C203.003 238.181 198.713 238.352 199.313 240.154C202.402 249.506 215.101 250.193 223.08 248.305C227.284 247.276 231.66 245.302 234.406 241.956C237.666 238.009 238.181 232.089 236.207 227.37C234.835 224.11 232.604 221.364 229.601 219.476L230.116 220.42L237.666 193.736L238.781 189.961L237.666 190.991C243.929 189.361 249.678 185.843 252.767 179.923C254.654 176.062 255.512 171.857 255.341 167.567C255.341 166.624 255.255 165.594 255.083 164.65L254.826 165.594C258.601 162.848 262.977 157.872 261.862 152.81C260.403 146.375 251.566 146.546 246.503 147.319C244.616 147.576 242.728 147.919 240.926 148.52L244.015 149.893C244.015 148.005 243.5 146.203 242.385 144.659C239.725 140.626 234.32 139.597 229.772 139.682C225.654 139.854 221.621 140.54 217.76 141.913C214.243 142.943 210.982 144.659 208.065 146.975C204.376 150.15 202.231 154.783 202.231 159.674C202.231 162.419 202.745 165.165 203.775 167.739L205.405 166.28C202.059 166.709 198.713 167.31 195.452 168.168C188.76 169.712 182.325 172.372 176.491 175.89C170.141 179.837 164.479 185.414 162.591 192.878C161.819 195.881 162.076 199.142 163.363 201.973C164.65 204.547 166.452 206.692 168.769 208.408C172.029 210.896 175.718 212.698 179.665 213.728L178.893 211.497C174.088 214.328 168.425 219.047 170.399 225.311C171.686 229.258 175.289 232.261 178.636 234.491C179.579 235.178 180.609 235.693 181.724 236.207L181.896 233.977C177.177 235.092 168.511 239.039 172.715 245.045C175.204 248.563 179.665 249.421 183.784 248.992C188.074 248.391 192.192 247.018 195.967 245.045C198.37 243.929 200.6 242.642 202.831 241.184C205.319 239.639 201.716 238.009 200.257 238.953Z" fill="#000005"/>
<path d="M282.454 224.539C287.087 203.518 253.024 168.683 253.024 168.683C239.725 178.207 209.609 174.002 209.609 174.002C222.823 184.47 221.278 215.358 221.278 215.358C209.781 205.748 196.739 212.269 203.518 223.852C210.296 235.435 222.479 231.145 222.479 231.145C222.479 231.145 230.716 257.572 234.234 261.776C237.752 265.98 271.814 273.445 268.211 246.418C268.211 246.418 278.421 242.9 282.454 224.539Z" fill="white"/>
<path d="M284.599 224.882C285.542 220.334 284.77 215.615 283.397 211.24C281.681 206.092 279.451 201.201 276.619 196.654C271.557 188.331 265.637 180.437 259.116 173.144C257.743 171.6 256.37 170.056 254.912 168.511C253.796 167.653 252.252 167.482 251.051 168.082C245.474 172.029 238.095 173.144 231.488 173.659C225.397 174.088 219.219 174.002 213.127 173.402L211.583 173.23H211.24H211.411L210.896 173.144L209.867 173.059C209.524 172.973 206.692 173.059 207.808 174.002C213.299 178.464 215.873 185.757 217.331 192.449C218.618 198.627 219.305 204.89 219.305 211.154C219.305 212.441 219.305 213.728 219.219 215.015L223.252 215.272C219.047 211.84 213.728 209.524 208.237 209.867C204.461 210.124 200.6 212.012 199.742 215.959C198.799 220.506 201.887 225.397 205.062 228.228C208.322 231.059 212.527 232.69 216.817 232.775C219.305 232.947 221.793 232.604 224.195 231.832L220.334 230.974C221.879 235.778 223.423 240.583 225.139 245.388C226.426 248.906 227.713 252.424 229.172 255.856C230.03 257.829 230.888 260.403 232.432 261.947C233.805 263.149 235.349 263.921 237.151 264.436C239.725 265.294 242.299 265.98 244.959 266.323C250.622 267.181 257.057 267.095 262.291 264.607C265.122 263.32 267.439 261.089 268.811 258.344C270.613 254.74 270.699 250.622 270.184 246.675L269.841 247.018C271.3 246.418 272.587 245.645 273.702 244.616C276.791 241.956 279.279 238.696 280.995 235.006C282.625 231.832 283.826 228.4 284.599 224.882C284.856 223.766 280.652 222.994 280.394 224.195C279.193 229.601 277.22 234.92 273.874 239.382C272.243 241.699 270.098 243.586 267.782 245.045C267.353 245.302 266.924 245.474 266.495 245.645C266.323 245.731 266.152 245.817 266.152 245.989C266.924 251.995 265.98 258.687 260.575 262.291C258.43 263.663 256.113 264.436 253.625 264.779C253.11 264.865 253.282 264.865 252.938 264.865L251.909 264.95C251.222 265.036 250.536 265.036 249.85 265.036H249.163C248.906 265.036 248.563 265.036 248.305 265.036C247.619 265.036 246.847 264.95 246.16 264.865C246.761 264.95 245.903 264.865 245.731 264.779L244.787 264.607C244.101 264.521 243.5 264.35 242.9 264.264C242.385 264.178 242.728 264.264 242.9 264.264L242.471 264.178L241.613 264.007C241.098 263.835 240.583 263.749 239.983 263.578L239.639 263.492C239.725 263.492 240.154 263.663 239.639 263.492L238.953 263.234C238.524 263.063 238.095 262.891 237.666 262.72C237.237 262.548 237.923 262.891 237.494 262.634L237.065 262.376C236.894 262.291 236.808 262.205 236.636 262.119C236.465 262.033 236.293 261.862 236.722 262.119L236.551 261.947C236.036 261.518 235.693 260.918 235.349 260.317C234.749 259.202 234.234 258.086 233.719 256.971C232.346 253.711 231.059 250.45 229.858 247.104C227.971 241.784 226.169 236.465 224.539 231.145C224.367 230.63 223.252 230.373 222.908 230.287C222.222 230.116 221.45 230.116 220.763 230.373C220.42 230.459 221.192 230.287 220.763 230.373C220.334 230.459 220.163 230.545 219.905 230.63C219.648 230.716 219.133 230.802 218.704 230.888C218.533 230.888 218.447 230.974 218.275 230.974C217.932 230.974 217.589 231.059 217.331 231.059C217.246 231.059 216.388 231.059 216.817 231.059C216.473 231.059 216.13 231.059 215.787 231.059H215.272C215.701 231.059 215.272 231.059 215.186 231.059L214.672 230.974L214.243 230.888C212.784 230.545 211.411 229.944 210.124 229.086C207.035 226.855 204.204 222.823 203.947 218.876C203.689 215.873 205.491 213.127 208.322 212.183C212.269 210.896 216.388 213.127 219.476 215.701C220.163 216.216 220.935 216.473 221.793 216.473C222.136 216.473 223.423 216.559 223.509 215.959C223.681 212.183 223.595 208.408 223.252 204.633C222.651 197.512 221.45 190.133 218.533 183.526C216.988 179.923 214.672 176.662 211.669 174.088L209.609 175.032C213.47 175.547 217.417 175.804 221.278 175.976C228.829 176.233 236.551 175.976 243.929 174.174C247.876 173.316 251.737 171.686 255.083 169.455L251.222 169.026C255.169 173.144 258.859 177.434 262.291 181.896C268.811 190.219 275.075 199.228 278.593 209.266C280.309 214.071 281.51 219.391 280.394 224.539C280.137 225.311 284.341 226.083 284.599 224.882Z" fill="#000005"/>
<path d="M242.042 192.449C242.042 192.449 242.986 194.938 245.216 193.822C247.447 192.707 246.16 189.875 243.929 190.219C242.9 190.219 242.042 191.077 242.042 192.192C242.042 192.192 242.042 192.364 242.042 192.449Z" fill="#000005"/>
<path d="M254.654 185.414C254.654 185.414 255.598 187.902 257.829 186.787C260.06 185.671 258.773 182.84 256.542 183.183C255.512 183.183 254.654 184.041 254.654 185.156C254.654 185.242 254.654 185.328 254.654 185.414Z" fill="#000005"/>
<path d="M265.723 216.988C265.723 216.988 296.954 209.609 296.267 192.192C295.581 174.775 271.385 175.804 259.802 195.195" fill="white"/>
<path d="M264.007 218.189C267.524 217.331 270.956 216.216 274.217 214.843C280.823 212.098 287.43 208.494 292.492 203.346C297.125 198.713 299.528 192.02 296.782 185.671C294.208 179.579 287.344 177.778 281.338 178.893C276.705 179.751 272.415 182.068 268.64 184.727C264.35 187.73 260.66 191.677 257.915 196.225C257.743 196.482 259.288 195.71 259.373 195.71C260.146 195.281 260.918 194.766 261.433 194.08C265.294 187.645 270.442 182.84 277.82 181.381C283.312 180.352 289.575 181.639 292.578 186.872C295.667 192.192 294.466 198.799 290.776 203.518C289.832 204.633 288.889 205.663 287.773 206.606C287.344 206.95 286.915 207.293 286.572 207.55L286.057 207.893C286.4 207.636 285.886 208.065 285.8 208.065L285.457 208.322H285.371L285.028 208.58C282.711 209.953 280.309 211.24 277.735 212.269C274.303 213.728 270.871 214.929 267.267 215.787C266.409 216.044 265.637 216.559 264.95 217.16C264.607 217.417 264.264 217.675 263.921 218.018C264.092 217.932 263.835 218.275 264.007 218.189Z" fill="#000005"/>
<path d="M271.557 223.08C271.557 222.651 271.557 222.222 271.643 221.793L271.557 222.222C271.643 221.707 271.9 221.278 272.072 220.849L271.814 221.192C271.986 220.849 272.243 220.506 272.501 220.249L272.158 220.592C272.329 220.334 272.587 220.163 272.844 219.991L272.415 220.334C272.501 220.249 272.672 220.163 272.844 220.077C273.273 219.82 273.616 219.476 273.788 219.047C273.959 218.704 273.874 218.275 273.616 217.932C272.844 217.246 271.557 217.417 270.785 217.932C268.64 219.133 267.267 221.364 267.267 223.852C267.267 224.882 268.468 225.139 269.24 224.968C269.755 224.882 270.356 224.624 270.785 224.281C271.3 223.938 271.557 223.595 271.557 223.08Z" fill="#000005"/>
<path d="M202.145 258.859C205.577 262.462 209.266 265.808 213.299 268.726C217.503 271.643 222.308 273.702 227.37 274.56C232.432 275.332 237.58 275.761 242.728 275.847C247.619 276.104 252.509 275.847 257.314 275.246C262.634 274.56 267.696 272.758 272.158 269.755C272.844 269.24 273.016 268.211 272.501 267.524C272.415 267.439 272.329 267.353 272.243 267.267C271.385 266.495 270.184 266.409 269.24 267.095C261.947 272.072 252.767 272.501 244.187 272.243C234.92 272.072 225.139 271.9 217.074 266.838C212.612 264.007 208.923 260.231 205.234 256.542C203.689 254.826 200.257 256.885 202.145 258.859Z" fill="#000005"/>
<path d="M186.358 292.75C198.541 298.841 211.669 303.217 225.311 304.504C238.095 305.877 250.965 304.247 262.977 299.699C269.584 297.211 275.761 293.693 281.338 289.318C281.338 289.318 278.507 286.229 277.992 286.572C268.125 294.208 256.542 299.27 244.187 301.158C231.145 303.303 217.76 302.102 205.148 298.584C197.769 296.525 190.562 293.693 183.698 290.176C182.926 289.832 184.041 290.862 184.127 290.948C184.813 291.72 185.585 292.321 186.358 292.75Z" fill="#000005"/>
<path d="M182.926 354.611C198.284 355.555 213.642 356.327 228.914 354.611C236.379 353.753 243.844 352.123 250.965 349.721C258.086 347.233 264.779 343.886 271.042 339.682C278.078 334.963 284.684 329.644 290.862 323.809C292.492 322.265 288.631 320.72 287.43 321.836C276.619 331.703 264.95 340.969 251.137 346.203C237.323 351.437 222.308 352.81 207.636 352.81C199.142 352.81 190.733 352.295 182.239 351.78C181.467 351.78 180.352 352.209 180.523 353.153C180.695 354.097 182.153 354.611 182.926 354.611Z" fill="#000005"/>
<path d="M178.55 380.008C195.538 382.754 212.698 384.041 229.858 383.783C238.181 383.612 246.675 383.44 254.826 381.638C262.119 379.922 268.983 376.748 274.989 372.372C281.767 367.567 287.773 361.819 293.693 356.07C294.122 355.641 294.208 354.955 293.865 354.526C293.693 354.354 293.522 354.268 293.35 354.182C292.321 353.839 291.205 354.097 290.347 354.869C280.652 364.393 270.098 374.689 256.628 378.464C248.992 380.609 240.926 380.78 233.033 381.038C224.71 381.295 216.388 381.124 208.065 380.609C198.713 380.008 189.446 378.979 180.266 377.434C179.236 377.263 178.121 377.692 177.52 378.55C176.92 379.236 177.778 379.922 178.55 380.008Z" fill="#000005"/>
<path d="M225.139 315.058L249.163 262.977C242.213 253.11 231.231 234.663 238.867 236.379C246.503 238.095 256.199 249.764 256.199 249.764C273.187 250.536 286.057 228.743 288.631 227.799C296.353 224.968 292.406 238.696 292.406 238.696C301.415 240.24 294.294 253.796 294.294 253.796C306.22 253.968 286.229 288.803 271.9 287.087C271.9 287.087 266.581 376.576 227.456 384.727C172.115 396.224 181.295 325.268 181.295 325.268L225.139 315.058Z" fill="white"/>
<path d="M227.027 314.629L237.752 291.463L250.708 263.406C250.879 263.149 250.965 262.891 251.051 262.634C251.222 262.291 251.051 261.862 250.793 261.604C250.193 260.746 249.592 259.802 248.992 258.944C246.589 255.255 244.273 251.566 242.128 247.619C240.583 244.787 238.781 241.613 238.267 238.352C238.181 237.923 238.181 237.409 238.267 236.98C238.267 237.065 238.267 236.636 238.352 236.636C238.267 236.636 238.181 236.894 238.095 236.98C237.666 237.323 237.237 237.58 236.722 237.752C236.293 237.752 237.065 237.666 236.722 237.752C237.151 237.752 236.379 237.666 236.808 237.752C237.065 237.752 237.409 237.838 237.666 237.923C238.524 238.181 239.382 238.524 240.24 238.953C243.844 240.926 247.19 243.5 250.021 246.503C251.051 247.533 252.166 248.648 253.11 249.764C253.539 250.193 254.054 251.051 254.654 251.222C255.598 251.394 256.628 251.394 257.657 251.222C258.773 251.137 259.802 250.965 260.918 250.708C263.063 250.193 265.208 249.421 267.181 248.477C270.871 246.675 274.217 244.273 277.306 241.527C279.965 239.125 282.454 236.465 284.856 233.719L287.516 230.545C287.859 230.116 288.202 229.687 288.545 229.343L288.717 229.086C288.46 229.343 288.974 228.743 288.717 229.086L289.232 228.657C289.403 228.485 289.747 228.228 289.146 228.657C289.661 228.314 288.46 229 288.545 229C288.889 228.829 289.318 228.743 289.747 228.914C290.519 229.258 291.119 230.03 291.291 230.888C291.892 233.119 291.377 235.693 290.862 237.923C290.776 238.267 290.69 238.696 290.605 239.039C290.605 239.21 290.347 239.897 290.519 239.21C290.433 239.639 290.433 239.983 290.948 240.068C297.64 241.355 294.466 250.364 292.321 254.311C291.977 254.998 292.664 255.169 293.179 255.169C292.835 255.169 293.522 255.255 293.693 255.255C293.865 255.255 294.037 255.341 294.122 255.341C294.466 255.512 294.723 255.684 294.98 255.941C295.495 256.628 295.838 257.486 295.838 258.344C296.01 261.004 294.98 263.663 293.951 266.066C291.72 271.042 288.631 275.504 284.856 279.451C284.17 280.137 283.569 280.738 282.883 281.338C282.539 281.596 282.282 281.853 281.939 282.196C281.424 282.625 281.596 282.539 281.081 282.883C280.566 283.226 280.309 283.483 279.88 283.741L279.279 284.084C278.936 284.255 279.451 283.998 279.022 284.255C278.593 284.513 278.249 284.684 277.82 284.942L277.563 285.028C277.306 285.199 277.906 284.856 277.563 285.028L276.962 285.285L276.276 285.542C275.933 285.628 276.533 285.542 276.019 285.628C275.504 285.714 275.246 285.8 274.817 285.886C275.161 285.8 274.646 285.886 274.56 285.886H274.045C273.702 285.886 273.359 285.886 273.016 285.886C271.986 285.8 269.755 286.658 269.669 287.945C269.498 290.69 269.24 293.436 268.897 296.096C268.125 302.874 267.181 309.566 265.98 316.259C264.436 324.839 262.376 333.333 259.802 341.656C257.143 350.064 253.796 358.387 249.163 365.937C248.134 367.653 247.018 369.283 245.817 370.828C245.216 371.6 244.616 372.372 244.015 373.058C243.415 373.745 242.728 374.517 242.213 375.032C241.527 375.718 240.841 376.405 240.154 377.005C239.811 377.348 239.468 377.606 239.125 377.863L238.696 378.206L238.181 378.55C237.409 379.15 236.636 379.665 235.864 380.18L235.521 380.351C235.778 380.18 235.178 380.523 235.092 380.609C234.663 380.866 234.32 381.038 233.891 381.295C233.462 381.553 233.119 381.724 232.69 381.896C233.204 381.638 232.518 381.982 232.432 381.982L231.746 382.239C231.317 382.411 230.974 382.582 230.545 382.668C230.459 382.668 229.772 382.925 230.201 382.754L229.515 382.925C227.198 383.526 224.882 383.955 222.479 384.212C218.018 384.813 213.556 384.641 209.095 383.698C202.145 382.153 196.053 378.121 191.935 372.372C187.902 366.881 185.585 360.274 184.213 353.668C183.011 347.662 182.497 341.484 182.497 335.306C182.497 331.789 182.668 328.271 183.011 324.839C183.011 324.667 183.011 324.496 183.097 324.324L180.609 326.297L195.452 322.865L219.047 317.374L224.453 316.087C225.482 316.087 226.684 315.487 227.027 314.629C227.37 313.685 226.34 313.685 225.74 313.771L210.896 317.203L187.301 322.694L181.896 323.981C181.038 324.152 179.494 324.925 179.408 325.954C179.065 328.528 178.893 331.102 178.893 333.676C178.721 339.596 179.065 345.431 179.837 351.265C180.866 358.129 182.754 364.993 186.186 371.085C189.618 377.348 195.023 382.239 201.63 384.899C205.663 386.443 209.953 387.215 214.243 387.215C219.219 387.301 224.195 386.701 228.914 385.414C236.98 383.097 243.586 377.777 248.734 371.342C254.225 364.393 258.172 356.327 261.261 348.091C264.436 339.511 266.924 330.673 268.811 321.75C270.442 314.285 271.643 306.735 272.587 299.099C273.101 295.066 273.53 291.034 273.788 287.001C273.788 286.829 273.788 286.658 273.788 286.486L270.442 288.545C274.303 288.974 277.992 287.43 281.167 285.457C284.599 283.14 287.687 280.394 290.347 277.134C293.007 273.959 295.324 270.442 297.125 266.752C298.498 263.921 299.785 260.746 299.871 257.572C299.957 256.37 299.614 255.169 298.927 254.225C297.983 253.196 296.696 252.681 295.324 252.767L296.182 253.625C298.756 248.734 301.673 239.125 293.865 237.666L294.294 238.524C295.066 236.122 295.409 233.548 295.324 231.059C295.238 229.601 294.98 227.885 293.779 226.941C292.235 225.74 289.661 226.426 288.116 227.198C287.001 227.885 285.971 228.743 285.113 229.772C283.998 231.059 282.968 232.346 281.853 233.633C278.936 237.151 275.675 240.326 272.158 243.243C267.782 246.589 262.977 248.992 257.228 248.734L258.086 249.077C256.285 247.018 254.397 244.959 252.424 243.071C249.163 239.983 245.474 236.894 241.098 235.521C238.181 234.663 234.062 236.122 234.406 239.725C234.749 243.415 236.894 247.104 238.61 250.279C241.27 255.083 244.101 259.717 247.276 264.178V263.578L239.125 281.252L226.255 309.223L223.252 315.658C222.823 316.516 224.024 316.602 224.539 316.43C225.568 316.087 226.512 315.487 227.027 314.629Z" fill="#000005"/>
<path d="M277.134 261.261C277.134 261.261 290.519 248.134 292.406 238.781L277.134 261.261Z" fill="white"/>
<path d="M278.936 262.462C283.912 257.743 288.202 252.338 291.72 246.418C293.007 244.358 293.865 242.128 294.466 239.725C294.809 238.267 290.862 236.722 290.605 237.838C289.747 242.128 287.173 245.989 284.684 249.421C282.368 252.595 279.88 255.598 277.22 258.43C276.705 259.03 276.104 259.631 275.504 260.146C274.388 261.175 277.992 263.32 278.936 262.462Z" fill="#000005"/>
<path d="M294.294 253.882C294.294 253.882 289.918 263.149 285.457 267.61L294.294 253.882Z" fill="white"/>
<path d="M292.406 254.74C291.548 256.456 290.69 258.172 289.661 259.888C288.031 262.977 286.057 265.808 283.741 268.382C283.14 268.983 284.513 268.554 284.684 268.468C285.628 268.125 286.486 267.61 287.258 267.01C289.661 264.35 291.72 261.518 293.436 258.344C294.38 256.628 295.409 254.912 296.267 253.11C296.439 252.681 294.809 253.367 294.723 253.367C294.208 253.625 293.779 253.882 293.264 254.14C293.007 254.225 292.578 254.483 292.406 254.74Z" fill="#000005"/>
<path d="M222.651 314.886C218.189 323.294 213.985 331.874 209.953 340.54C209.352 341.913 213.385 343.2 214.071 341.741C218.018 333.076 222.222 324.496 226.769 316.087C227.456 314.714 223.509 313.342 222.651 314.886Z" fill="#000005"/>
<path d="M108.537 99.1848C108.709 98.67 108.88 98.241 109.052 97.7262C109.138 97.4688 109.309 97.1256 109.395 96.8682C109.309 97.0398 109.052 97.5546 109.395 96.954C109.91 95.9244 110.51 94.9806 111.197 94.1226L111.54 93.6078C112.226 92.8356 110.939 94.2084 111.712 93.4362C112.055 93.093 112.398 92.7498 112.655 92.4066C112.913 92.0634 113.428 91.7202 113.857 91.377C114.028 91.2054 114.286 91.0338 114.457 90.8622C114.629 90.6906 115.315 90.09 114.629 90.7764C115.487 90.1758 116.345 89.661 117.289 89.3178L117.975 89.0604C117.031 89.4036 118.576 88.803 117.975 89.0604C118.576 88.8888 119.176 88.7172 119.777 88.5456L120.377 88.374C120.377 88.374 121.493 88.2024 120.806 88.2882C120.12 88.374 121.235 88.2882 121.235 88.2882H121.922H122.265C122.78 88.2882 122.694 88.2882 122.179 88.2882C122.437 88.2882 122.608 88.374 122.866 88.4598C123.123 88.5456 123.981 88.8888 123.123 88.5456C123.466 88.7172 123.724 88.803 124.067 88.9746C123.38 88.5456 123.981 88.8888 124.153 89.0604C124.324 89.232 124.753 89.7468 124.238 89.0604C124.582 89.4894 124.839 89.9184 125.096 90.4332C125.182 90.6048 125.44 91.0338 125.096 90.4332C125.182 90.6906 125.354 91.0338 125.44 91.377C125.611 91.9776 125.783 92.4924 125.954 93.093C126.04 93.6078 126.212 94.1226 126.298 94.6374C126.469 95.8386 126.212 93.951 126.383 95.1522L126.469 95.9244C126.555 97.2972 126.641 98.67 126.555 100.043C126.555 100.643 126.469 101.33 126.383 101.93C126.383 102.188 126.298 102.445 126.298 102.703C126.383 101.93 126.212 103.132 126.212 103.217C125.954 104.419 125.697 105.62 125.268 106.821C125.096 107.422 124.839 108.022 124.667 108.537C124.496 108.88 124.324 109.223 124.238 109.567C124.238 109.652 123.895 110.253 124.238 109.652C123.638 110.854 122.951 112.055 122.351 113.256C120.892 116.173 119.948 119.176 120.806 122.437C121.579 125.525 124.067 127.928 127.156 128.614C129.129 129.043 131.875 128.185 132.389 126.04C132.904 123.981 131.617 121.922 129.558 121.407C129.472 121.407 129.472 121.407 129.386 121.407C128.443 121.235 130.244 121.836 129.386 121.407C128.528 120.978 129.987 121.75 129.472 121.493C128.786 121.064 129.558 121.579 129.558 121.579C129.386 121.407 129.215 121.15 129.129 120.892C129.215 121.493 129.301 121.321 129.215 120.978C129.215 120.806 128.872 120.292 128.957 120.206L129.043 120.635C129.043 120.463 129.043 120.377 129.043 120.206C129.043 119.863 129.043 119.519 129.043 119.262C129.043 120.034 129.043 119.348 129.129 119.09C129.215 118.833 129.301 118.49 129.386 118.232C129.472 117.975 129.644 117.546 129.815 117.203C130.073 116.516 129.901 116.945 129.815 117.117C130.416 115.83 131.188 114.629 131.789 113.342C134.449 108.108 135.65 102.188 135.221 96.3534C134.792 90.7764 133.076 84.3414 127.327 82.0248C122.008 79.8798 115.658 81.2526 110.939 84.1698C105.963 87.087 102.188 91.806 100.3 97.2972C98.7558 101.93 107.078 103.646 108.537 99.1848Z" fill="#0C0077"/>
<path d="M134.878 129.472H132.99C132.561 129.386 132.046 129.558 131.617 129.73C131.188 129.815 130.845 130.073 130.588 130.502C130.33 130.845 130.159 131.274 130.073 131.703C129.987 132.132 129.987 132.647 130.159 133.076L130.502 134.02C130.845 134.706 131.36 135.307 131.96 135.736L132.904 136.336C133.505 136.679 134.191 136.851 134.878 136.851H136.851C137.28 136.937 137.795 136.765 138.224 136.594C138.653 136.508 138.996 136.25 139.253 135.821C139.511 135.478 139.682 135.049 139.768 134.62C139.854 134.191 139.854 133.676 139.682 133.247L139.339 132.304C138.996 131.617 138.481 131.017 137.881 130.588L136.937 129.987C136.336 129.644 135.65 129.472 134.878 129.472Z" fill="#0C0077"/>
<path d="M213.299 47.2758L213.814 46.8468C213.213 47.3616 213.814 46.8468 213.985 46.761C214.157 46.6752 214.757 46.332 214.243 46.5894C213.728 46.8468 214.672 46.332 214.672 46.332C213.556 46.761 215.53 45.9888 214.586 46.332L215.272 46.0746C215.272 46.0746 216.302 45.7314 215.787 45.903C217.331 45.474 219.219 45.045 220.763 46.0746C222.308 47.1042 222.908 49.5066 223.509 51.2226C224.195 53.196 224.71 55.2552 224.968 57.3144C225.568 61.347 224.624 65.5512 222.308 68.9832C219.991 72.2436 216.559 74.7318 214.328 78.078C212.098 81.4242 210.382 86.5722 213.041 90.2616C213.814 91.2912 216.645 89.5752 217.331 89.1462C217.846 88.8888 221.107 86.9154 220.42 85.9716C217.932 82.4538 219.391 77.9064 221.707 74.7318C224.367 71.214 228.142 68.5542 230.287 64.5216C232.432 60.489 232.775 55.9416 232.003 51.3942C231.574 49.0776 230.888 46.8468 229.944 44.7018C229.086 42.7284 227.885 41.0982 225.654 40.755C222.908 40.326 219.991 41.184 217.503 42.2136C214.157 43.5006 211.068 45.3882 208.322 47.619C207.808 48.048 206.006 49.9356 207.808 49.764C209.609 49.5924 211.926 48.477 213.299 47.2758Z" fill="#0C0077"/>
<path d="M215.101 106.392C215.444 106.478 215.787 106.649 216.13 106.735H216.216C216.645 106.735 216.988 106.735 217.417 106.735C217.503 106.735 217.589 106.735 217.675 106.735C218.018 106.649 218.447 106.564 218.79 106.392C218.876 106.392 218.962 106.306 218.962 106.306C219.219 106.135 219.562 105.877 219.82 105.706L219.905 105.62C219.991 105.534 219.991 105.534 220.077 105.448C220.334 105.191 220.592 104.848 220.763 104.504C221.021 104.075 221.192 103.646 221.278 103.132C221.364 102.96 221.364 102.788 221.364 102.617C221.45 102.102 221.536 101.587 221.45 101.158C221.45 100.815 221.364 100.386 221.278 99.957V99.8712C221.192 99.4422 221.021 99.0132 220.849 98.5842L220.763 98.4984V98.4126C220.592 98.0694 220.334 97.7262 220.163 97.383L220.077 97.2972V97.2114C219.82 96.954 219.562 96.6108 219.305 96.4392C218.876 96.096 218.447 95.8386 217.932 95.667C217.503 95.4096 216.988 95.3238 216.559 95.4096C216.044 95.3238 215.615 95.4096 215.186 95.667C214.757 95.8386 214.414 96.1818 214.157 96.6108C213.814 96.954 213.642 97.383 213.556 97.8978L213.47 98.9274C213.47 99.6996 213.642 100.386 213.985 101.072L214.586 102.016C215.015 102.531 215.615 103.046 216.216 103.303C216.302 103.303 216.388 103.389 216.473 103.389L215.615 102.874C215.701 102.96 215.787 102.96 215.787 103.046L215.015 102.274C215.101 102.359 215.101 102.359 215.186 102.445L214.586 101.501C214.672 101.587 214.672 101.673 214.672 101.759L214.243 100.643C214.243 100.729 214.328 100.901 214.328 100.987L214.243 99.8712C214.243 100.043 214.243 100.129 214.243 100.3L214.328 99.2706C214.328 99.4422 214.243 99.6996 214.157 99.8712L214.5 98.9274C214.414 99.099 214.328 99.2706 214.243 99.4422L214.843 98.67C214.757 98.8416 214.586 98.9274 214.5 99.0132L215.272 98.4984C215.186 98.5842 215.015 98.5842 214.929 98.67L215.873 98.4126C215.787 98.4126 215.615 98.4984 215.53 98.4984H216.473C216.388 98.4984 216.216 98.4984 216.13 98.4126L217.074 98.67H216.988C216.559 98.4126 216.044 98.3268 215.615 98.4126C215.101 98.3268 214.672 98.4126 214.243 98.67C213.814 98.8416 213.47 99.1848 213.213 99.6138C212.87 99.957 212.698 100.472 212.612 100.901L212.527 101.93C212.527 102.703 212.698 103.389 213.041 104.075L213.642 105.019C214.071 105.62 214.672 106.049 215.272 106.306L215.101 106.392Z" fill="#0C0077"/>
<path d="M311.797 63.5778C312.055 63.492 312.398 63.3204 312.655 63.3204C312.741 63.3204 313.685 63.1488 312.998 63.2346C313.513 63.2346 314.028 63.2346 314.543 63.3204C313.771 63.2346 314.714 63.4062 314.886 63.4062C315.229 63.492 315.487 63.5778 315.744 63.7494C314.629 63.3204 317.374 64.6932 316.173 64.0068C316.43 64.1784 316.688 64.4358 316.859 64.6074C316.945 64.6932 317.546 65.4654 317.117 64.8648L317.374 65.208C317.46 65.3796 318.232 66.3234 317.546 65.3796C317.889 65.8944 318.146 66.4092 318.318 66.924C318.49 67.2672 318.575 67.6104 318.747 67.9536C318.404 67.0098 318.919 68.4684 318.919 68.64C319.605 71.0424 320.206 73.5306 320.549 76.0188C320.635 76.362 320.635 76.7052 320.72 76.9626C320.72 77.0484 320.892 78.1638 320.806 77.3058C320.892 77.8206 320.892 78.4212 320.978 78.936C321.064 80.223 321.064 81.51 321.064 82.797C321.064 83.8266 321.149 82.1106 321.064 83.1402C321.064 83.3976 320.978 83.655 320.978 83.9124C320.892 84.4272 320.72 85.0278 320.549 85.5426C320.463 85.8 320.377 86.1432 320.206 86.4006C320.377 85.8858 320.206 86.4006 320.206 86.4864C319.862 87.087 319.519 87.6876 319.09 88.2882C317.717 89.9184 315.916 91.1196 313.856 91.806C308.365 93.8652 302.531 94.8948 297.125 97.1256C294.637 97.9836 292.321 99.4422 290.433 101.244C288.116 103.475 287.173 106.735 287.773 109.824C288.202 111.969 289.918 113.599 292.149 113.942C294.38 114.028 294.809 111.969 294.551 110.253C294.723 111.197 294.637 110.339 294.551 110.167C294.466 109.395 294.38 110.768 294.551 110.081C294.637 109.824 294.723 109.567 294.723 109.309C294.466 110.081 294.723 109.309 294.809 109.138C295.066 108.709 295.409 108.28 295.753 107.851C295.238 108.365 295.924 107.679 296.01 107.679C296.267 107.422 296.525 107.25 296.782 106.993C297.726 106.306 298.67 105.706 299.699 105.191C299.099 105.448 300.043 105.019 300.043 105.019L300.901 104.676C301.587 104.419 302.188 104.161 302.874 103.99C306.134 102.874 309.395 101.93 312.741 100.901C315.572 100.214 318.318 99.1848 320.892 97.812C326.126 94.8948 328.099 89.3178 328.099 83.655C328.013 80.8236 327.67 77.9922 327.155 75.2466C326.641 72.2436 325.868 69.3264 324.839 66.495C323.552 62.8914 321.149 59.8026 317.889 57.6576C315.143 55.8558 311.368 54.912 308.194 56.199C306.306 56.9712 306.134 59.1162 306.992 60.8322C307.765 62.0334 309.91 64.35 311.797 63.5778Z" fill="#0C0077"/>
<path d="M281.596 124.324C283.483 124.324 285.972 123.123 286.744 121.321C287.516 119.519 285.542 118.661 284.084 118.661C282.196 118.661 279.708 119.863 278.936 121.579C278.164 123.295 280.137 124.324 281.596 124.324Z" fill="#0C0077"/>
</g>
<defs>
<clipPath id="clip0_36_1363">
<rect width="429" height="429" fill="white"/>
</clipPath>
</defs>
</svg>
