<svg width="14" height="14" viewBox="0 0 14 14" fill="none" xmlns="http://www.w3.org/2000/svg">
<g clip-path="url(#clip0_740_529)">
<path fill-rule="evenodd" clip-rule="evenodd" d="M1.424 0.27C1.49436 0.185533 1.58242 0.117564 1.68196 0.0709057C1.78149 0.0242477 1.89007 4.12232e-05 2 3.06087e-09H7C7.10985 -9.92033e-06 7.21835 0.0241091 7.31785 0.0706522C7.41735 0.117195 7.50541 0.185026 7.57581 0.269349C7.6462 0.353673 7.69722 0.45243 7.72524 0.558641C7.75327 0.664851 7.75763 0.775921 7.738 0.884L7.714 1.015C8.07112 1.06648 8.39771 1.24495 8.63391 1.5177C8.87011 1.79045 9.00008 2.13919 9 2.5V3.25H7.25C6.45435 3.25 5.69129 3.56607 5.12868 4.12868C4.56607 4.69129 4.25 5.45435 4.25 6.25V11H1.5C1.10218 11 0.720644 10.842 0.43934 10.5607C0.158035 10.2794 3.94398e-08 9.89782 3.94398e-08 9.5V2.5C-8.26588e-05 2.13919 0.12989 1.79045 0.366089 1.5177C0.602287 1.24495 0.928884 1.06648 1.286 1.015L1.262 0.885C1.24214 0.776726 1.24636 0.665408 1.27436 0.558948C1.30236 0.452488 1.35345 0.353497 1.424 0.269M2.9 1.5L3.015 2.134C3.04639 2.30685 3.13746 2.46321 3.27233 2.57578C3.40721 2.68836 3.57732 2.75002 3.753 2.75H5.249C5.42468 2.75002 5.59479 2.68836 5.72967 2.57578C5.86454 2.46321 5.95561 2.30685 5.987 2.134L6.102 1.5H2.9Z" fill="white"/>
<path fill-rule="evenodd" clip-rule="evenodd" d="M7.25 4.5C6.78587 4.5 6.34075 4.68437 6.01256 5.01256C5.68437 5.34075 5.5 5.78587 5.5 6.25V12.25C5.5 13.217 6.284 14 7.25 14H12.25C12.7141 14 13.1592 13.8156 13.4874 13.4874C13.8156 13.1592 14 12.7141 14 12.25V6.25C14 5.78587 13.8156 5.34075 13.4874 5.01256C13.1592 4.68437 12.7141 4.5 12.25 4.5H7.25Z" fill="#8FBFFA"/>
<path d="M8.5 9.875C8.33424 9.875 8.17527 9.94085 8.05806 10.0581C7.94085 10.1753 7.875 10.3342 7.875 10.5C7.875 10.6658 7.94085 10.8247 8.05806 10.9419C8.17527 11.0592 8.33424 11.125 8.5 11.125H11C11.1658 11.125 11.3247 11.0592 11.4419 10.9419C11.5592 10.8247 11.625 10.6658 11.625 10.5C11.625 10.3342 11.5592 10.1753 11.4419 10.0581C11.3247 9.94085 11.1658 9.875 11 9.875H8.5ZM7.875 8C7.875 7.655 8.155 7.375 8.5 7.375H11C11.1658 7.375 11.3247 7.44085 11.4419 7.55806C11.5592 7.67527 11.625 7.83424 11.625 8C11.625 8.16576 11.5592 8.32473 11.4419 8.44194C11.3247 8.55915 11.1658 8.625 11 8.625H8.5C8.33424 8.625 8.17527 8.55915 8.05806 8.44194C7.94085 8.32473 7.875 8.16576 7.875 8Z" fill="white"/>
</g>
<defs>
<clipPath id="clip0_740_529">
<rect width="14" height="14" fill="white"/>
</clipPath>
</defs>
</svg>
