<svg width="14" height="13" viewBox="0 0 14 13" fill="none" xmlns="http://www.w3.org/2000/svg">
<path d="M6.568 0C6.83322 0 7.08757 0.105357 7.27511 0.292893C7.46264 0.48043 7.568 0.734784 7.568 1V6.5C7.568 6.76522 7.46264 7.01957 7.27511 7.20711C7.08757 7.39464 6.83322 7.5 6.568 7.5H1C0.734784 7.5 0.48043 7.39464 0.292893 7.20711C0.105357 7.01957 0 6.76522 0 6.5V1C0 0.734784 0.105357 0.48043 0.292893 0.292893C0.48043 0.105357 0.734784 0 1 0H6.568Z" fill="white"/>
<path fill-rule="evenodd" clip-rule="evenodd" d="M13.0684 0.5C13.0684 0.367392 13.0157 0.240215 12.9219 0.146447C12.8281 0.0526784 12.701 0 12.5684 0H9.56836C9.43575 0 9.30857 0.0526784 9.21481 0.146447C9.12104 0.240215 9.06836 0.367392 9.06836 0.5V2.75C9.06836 2.88261 9.12104 3.00979 9.21481 3.10355C9.30857 3.19732 9.43575 3.25 9.56836 3.25H12.5684C12.701 3.25 12.8281 3.19732 12.9219 3.10355C13.0157 3.00979 13.0684 2.88261 13.0684 2.75V0.5ZM12.5684 4.25C12.701 4.25 12.8281 4.30268 12.9219 4.39645C13.0157 4.49021 13.0684 4.61739 13.0684 4.75V7C13.0684 7.13261 13.0157 7.25979 12.9219 7.35355C12.8281 7.44732 12.701 7.5 12.5684 7.5H9.56836C9.43575 7.5 9.30857 7.44732 9.21481 7.35355C9.12104 7.25979 9.06836 7.13261 9.06836 7V4.75C9.06836 4.61739 9.12104 4.49021 9.21481 4.39645C9.30857 4.30268 9.43575 4.25 9.56836 4.25H12.5684ZM12.0684 9C12.3336 9 12.5879 9.10536 12.7755 9.29289C12.963 9.48043 13.0684 9.73478 13.0684 10V12C13.0684 12.2652 12.963 12.5196 12.7755 12.7071C12.5879 12.8946 12.3336 13 12.0684 13H1.06836C0.803143 13 0.548789 12.8946 0.361253 12.7071C0.173716 12.5196 0.0683594 12.2652 0.0683594 12V10C0.0683594 9.73478 0.173716 9.48043 0.361253 9.29289C0.548789 9.10536 0.803143 9 1.06836 9H12.0684Z" fill="#8FBFFA"/>
</svg>
