<svg width="14" height="14" viewBox="0 0 14 14" fill="none" xmlns="http://www.w3.org/2000/svg">
<g clip-path="url(#clip0_796_1837)">
<path d="M7 2C5.456 2 4.056 2.682 2.933 3.491C1.805 4.303 0.913 5.275 0.373 5.928L0.368 5.933C0.127 6.233 0 6.614 0 7C0 7.386 0.127 7.766 0.368 8.067L0.373 8.072C0.913 8.725 1.805 9.697 2.933 10.509C4.056 11.32 5.456 12 7 12C8.544 12 9.944 11.318 11.067 10.51C12.195 9.697 13.087 8.725 13.627 8.072L13.632 8.067C13.873 7.767 14 7.387 14 7C14.0024 6.6128 13.8726 6.23638 13.632 5.933L13.627 5.928C13.087 5.275 12.195 4.303 11.067 3.491C9.944 2.681 8.544 2 7 2Z" fill="#8FBFFA"/>
<path d="M4.75 7C4.75 7.29547 4.8082 7.58806 4.92127 7.86104C5.03434 8.13402 5.20008 8.38206 5.40901 8.59099C5.61794 8.79992 5.86598 8.96566 6.13896 9.07873C6.41194 9.1918 6.70453 9.25 7 9.25C7.29547 9.25 7.58806 9.1918 7.86104 9.07873C8.13402 8.96566 8.38206 8.79992 8.59099 8.59099C8.79992 8.38206 8.96566 8.13402 9.07873 7.86104C9.1918 7.58806 9.25 7.29547 9.25 7C9.25 6.70453 9.1918 6.41194 9.07873 6.13896C8.96566 5.86598 8.79992 5.61794 8.59099 5.40901C8.38206 5.20008 8.13402 5.03434 7.86104 4.92127C7.58806 4.8082 7.29547 4.75 7 4.75C6.70453 4.75 6.41194 4.8082 6.13896 4.92127C5.86598 5.03434 5.61794 5.20008 5.40901 5.40901C5.20008 5.61794 5.03434 5.86598 4.92127 6.13896C4.8082 6.41194 4.75 6.70453 4.75 7Z" fill="white"/>
</g>
<defs>
<clipPath id="clip0_796_1837">
<rect width="14" height="14" fill="white"/>
</clipPath>
</defs>
</svg>
