<svg width="14" height="14" viewBox="0 0 14 14" fill="none" xmlns="http://www.w3.org/2000/svg">
<g clip-path="url(#clip0_796_1742)">
<path fill-rule="evenodd" clip-rule="evenodd" d="M1.74797 0.99707C1.29577 0.99707 0.862101 1.1767 0.542352 1.49645C0.222602 1.8162 0.0429688 2.24988 0.0429688 2.70207V3.65707C0.0429688 3.85598 0.121986 4.04675 0.262639 4.1874C0.403291 4.32805 0.594056 4.40707 0.792969 4.40707C0.991881 4.40707 1.18265 4.32805 1.3233 4.1874C1.46395 4.04675 1.54297 3.85598 1.54297 3.65707V2.70207C1.54297 2.6477 1.56457 2.59556 1.60301 2.55711C1.64146 2.51867 1.6936 2.49707 1.74797 2.49707H2.70297C2.90188 2.49707 3.09265 2.41805 3.2333 2.2774C3.37395 2.13675 3.45297 1.94598 3.45297 1.74707C3.45297 1.54816 3.37395 1.35739 3.2333 1.21674C3.09265 1.07609 2.90188 0.99707 2.70297 0.99707H1.74797ZM11.298 0.99707C11.0991 0.99707 10.9083 1.07609 10.7676 1.21674C10.627 1.35739 10.548 1.54816 10.548 1.74707C10.548 1.94598 10.627 2.13675 10.7676 2.2774C10.9083 2.41805 11.0991 2.49707 11.298 2.49707H12.254C12.3083 2.49707 12.3605 2.51867 12.3989 2.55711C12.4374 2.59556 12.459 2.6477 12.459 2.70207V3.65707C12.459 3.85598 12.538 4.04675 12.6786 4.1874C12.8193 4.32805 13.0101 4.40707 13.209 4.40707C13.4079 4.40707 13.5986 4.32805 13.7393 4.1874C13.88 4.04675 13.959 3.85598 13.959 3.65707V2.70207C13.959 2.24988 13.7793 1.8162 13.4596 1.49645C13.1398 1.1767 12.7062 0.99707 12.254 0.99707H11.298ZM13.208 9.59307C13.4069 9.59307 13.5976 9.67209 13.7383 9.81274C13.879 9.95339 13.958 10.1442 13.958 10.3431V11.2981C13.958 11.7501 13.7785 12.1836 13.4589 12.5033C13.1394 12.8231 12.706 13.0028 12.254 13.0031H11.299C11.1001 13.0031 10.9093 12.9241 10.7686 12.7834C10.628 12.6427 10.549 12.452 10.549 12.2531C10.549 12.0542 10.628 11.8634 10.7686 11.7227C10.9093 11.5821 11.1001 11.5031 11.299 11.5031H12.254C12.3083 11.5031 12.3605 11.4815 12.3989 11.443C12.4374 11.4046 12.459 11.3524 12.459 11.2981V10.3431C12.459 10.1442 12.538 9.95339 12.6786 9.81274C12.8193 9.67209 13.0101 9.59307 13.209 9.59307H13.208ZM1.54297 10.3431C1.54297 10.1442 1.46395 9.95339 1.3233 9.81274C1.18265 9.67209 0.991881 9.59307 0.792969 9.59307C0.594056 9.59307 0.403291 9.67209 0.262639 9.81274C0.121986 9.95339 0.0429688 10.1442 0.0429688 10.3431V11.2981C0.0429688 11.7503 0.222602 12.1839 0.542352 12.5037C0.862101 12.8234 1.29577 13.0031 1.74797 13.0031H2.70297C2.90188 13.0031 3.09265 12.9241 3.2333 12.7834C3.37395 12.6427 3.45297 12.452 3.45297 12.2531C3.45297 12.0542 3.37395 11.8634 3.2333 11.7227C3.09265 11.5821 2.90188 11.5031 2.70297 11.5031H1.74797C1.6936 11.5031 1.64146 11.4815 1.60301 11.443C1.56457 11.4046 1.54297 11.3524 1.54297 11.2981V10.3431Z" fill="#8FBFFA"/>
<path fill-rule="evenodd" clip-rule="evenodd" d="M7 2C6.73478 2 6.48043 2.10536 6.29289 2.29289C6.10536 2.48043 6 2.73478 6 3C6 3.26522 6.10536 3.51957 6.29289 3.70711C6.48043 3.89464 6.73478 4 7 4C7.26522 4 7.51957 3.89464 7.70711 3.70711C7.89464 3.51957 8 3.26522 8 3C8 2.73478 7.89464 2.48043 7.70711 2.29289C7.51957 2.10536 7.26522 2 7 2ZM2 7C2 6.73478 2.10536 6.48043 2.29289 6.29289C2.48043 6.10536 2.73478 6 3 6C3.26522 6 3.51957 6.10536 3.70711 6.29289C3.89464 6.48043 4 6.73478 4 7C4 7.26522 3.89464 7.51957 3.70711 7.70711C3.51957 7.89464 3.26522 8 3 8C2.73478 8 2.48043 7.89464 2.29289 7.70711C2.10536 7.51957 2 7.26522 2 7ZM6 7C6 6.73478 6.10536 6.48043 6.29289 6.29289C6.48043 6.10536 6.73478 6 7 6C7.26522 6 7.51957 6.10536 7.70711 6.29289C7.89464 6.48043 8 6.73478 8 7C8 7.26522 7.89464 7.51957 7.70711 7.70711C7.51957 7.89464 7.26522 8 7 8C6.73478 8 6.48043 7.89464 6.29289 7.70711C6.10536 7.51957 6 7.26522 6 7ZM11 6C10.7348 6 10.4804 6.10536 10.2929 6.29289C10.1054 6.48043 10 6.73478 10 7C10 7.26522 10.1054 7.51957 10.2929 7.70711C10.4804 7.89464 10.7348 8 11 8C11.2652 8 11.5196 7.89464 11.7071 7.70711C11.8946 7.51957 12 7.26522 12 7C12 6.73478 11.8946 6.48043 11.7071 6.29289C11.5196 6.10536 11.2652 6 11 6ZM6 11C6 10.7348 6.10536 10.4804 6.29289 10.2929C6.48043 10.1054 6.73478 10 7 10C7.26522 10 7.51957 10.1054 7.70711 10.2929C7.89464 10.4804 8 10.7348 8 11C8 11.2652 7.89464 11.5196 7.70711 11.7071C7.51957 11.8946 7.26522 12 7 12C6.73478 12 6.48043 11.8946 6.29289 11.7071C6.10536 11.5196 6 11.2652 6 11Z" fill="white"/>
</g>
<defs>
<clipPath id="clip0_796_1742">
<rect width="14" height="14" fill="white"/>
</clipPath>
</defs>
</svg>
