<svg width="14" height="14" viewBox="0 0 14 14" fill="none" xmlns="http://www.w3.org/2000/svg">
<g clip-path="url(#clip0_796_1719)">
<path d="M2.5 7.97493e-07C2.10218 7.97493e-07 1.72064 0.158036 1.43934 0.439341C1.15804 0.720645 1 1.10218 1 1.5V12.5C1 12.8978 1.15804 13.2794 1.43934 13.5607C1.72064 13.842 2.10218 14 2.5 14H11.5C11.8978 14 12.2794 13.842 12.5607 13.5607C12.842 13.2794 13 12.8978 13 12.5V4.5C13.0001 4.4343 12.9873 4.36921 12.9622 4.30847C12.9372 4.24773 12.9004 4.19252 12.854 4.146L8.854 0.146001C8.80748 0.099599 8.75227 0.0628209 8.69153 0.0377692C8.63079 0.0127175 8.5657 -0.00011655 8.5 7.97493e-07H2.5Z" fill="#8FBFFA"/>
<path fill-rule="evenodd" clip-rule="evenodd" d="M7.28926 10.838L7.18626 10.942C7.12822 11.0001 7.05931 11.0461 6.98347 11.0775C6.90763 11.1089 6.82635 11.1251 6.74426 11.1251C6.66217 11.1251 6.58088 11.1089 6.50504 11.0775C6.4292 11.0461 6.3603 11.0001 6.30226 10.942L6.19826 10.838C6.08167 10.762 5.98221 10.6626 5.90626 10.546L4.05226 8.692C3.96483 8.60459 3.90528 8.49322 3.88116 8.37196C3.85703 8.25071 3.86941 8.12503 3.91672 8.01081C3.96404 7.89659 4.04416 7.79897 4.14696 7.73029C4.24977 7.66162 4.37063 7.62498 4.49426 7.625H5.74426V4C5.74426 3.73478 5.84961 3.48043 6.03715 3.29289C6.22469 3.10536 6.47904 3 6.74426 3C7.00947 3 7.26383 3.10536 7.45136 3.29289C7.6389 3.48043 7.74426 3.73478 7.74426 4V7.625H8.99426C9.11789 7.62498 9.23875 7.66162 9.34155 7.73029C9.44435 7.79897 9.52448 7.89659 9.57179 8.01081C9.61911 8.12503 9.63148 8.25071 9.60736 8.37196C9.58323 8.49322 9.52369 8.60459 9.43626 8.692L7.58226 10.546C7.5063 10.6626 7.40585 10.762 7.28926 10.838Z" fill="white"/>
</g>
<defs>
<clipPath id="clip0_796_1719">
<rect width="14" height="14" fill="white"/>
</clipPath>
</defs>
</svg>
