<svg width="14" height="14" viewBox="0 0 14 14" fill="none" xmlns="http://www.w3.org/2000/svg">
<g clip-path="url(#clip0_740_487)">
<path fill-rule="evenodd" clip-rule="evenodd" d="M2.49954 0C2.10171 0 1.72018 0.158035 1.43888 0.43934C1.15757 0.720644 0.999536 1.10218 0.999536 1.5V10.419L0.0255361 13.342C-0.00270066 13.4269 -0.00762328 13.5179 0.011282 13.6054C0.0301873 13.6928 0.0722274 13.7736 0.133014 13.8393C0.193801 13.905 0.271106 13.9532 0.356861 13.9788C0.442615 14.0044 0.533675 14.0066 0.620536 13.985L4.56054 13H12.4995C12.8974 13 13.2789 12.842 13.5602 12.5607C13.8415 12.2794 13.9995 11.8978 13.9995 11.5V1.5C13.9995 1.10218 13.8415 0.720644 13.5602 0.43934C13.2789 0.158035 12.8974 0 12.4995 0L2.49954 0Z" fill="#8FBFFA"/>
<path fill-rule="evenodd" clip-rule="evenodd" d="M4.5 4.22021C4.33424 4.22021 4.17527 4.28606 4.05806 4.40327C3.94085 4.52048 3.875 4.67945 3.875 4.84521C3.875 5.01098 3.94085 5.16995 4.05806 5.28716C4.17527 5.40437 4.33424 5.47021 4.5 5.47021H10.5C10.6658 5.47021 10.8247 5.40437 10.9419 5.28716C11.0592 5.16995 11.125 5.01098 11.125 4.84521C11.125 4.67945 11.0592 4.52048 10.9419 4.40327C10.8247 4.28606 10.6658 4.22021 10.5 4.22021H4.5ZM4.5 7.53022C4.33424 7.53022 4.17527 7.59606 4.05806 7.71327C3.94085 7.83048 3.875 7.98945 3.875 8.15521C3.875 8.32098 3.94085 8.47995 4.05806 8.59716C4.17527 8.71437 4.33424 8.78021 4.5 8.78021H8.5C8.66576 8.78021 8.82473 8.71437 8.94194 8.59716C9.05915 8.47995 9.125 8.32098 9.125 8.15521C9.125 7.98945 9.05915 7.83048 8.94194 7.71327C8.82473 7.59606 8.66576 7.53022 8.5 7.53022H4.5Z" fill="white"/>
</g>
<defs>
<clipPath id="clip0_740_487">
<rect width="14" height="14" fill="white"/>
</clipPath>
</defs>
</svg>
