<svg width="22" height="22" viewBox="0 0 22 22" fill="none" xmlns="http://www.w3.org/2000/svg">
<g clip-path="url(#clip0_740_397)">
<rect x="10" y="1" width="2" height="3" rx="1" fill="white"/>
<rect x="19" y="10" width="2" height="3" rx="1" fill="white"/>
<rect x="10" y="18" width="2" height="3" rx="1" fill="white"/>
<rect x="2" y="10" width="2" height="3" rx="1" fill="white"/>
<rect x="9" y="8" width="4" height="3" rx="1" fill="white"/>
<rect x="9" y="12" width="5" height="3" rx="1" fill="white"/>
<path d="M13.2739 2.20669C13.1674 1.74732 12.9021 1.34032 12.5248 1.0575C12.1475 0.774687 11.6824 0.634232 11.2116 0.660924C10.7409 0.687617 10.2946 0.87974 9.95171 1.20339C9.60878 1.52705 9.3912 1.96142 9.33735 2.42988C9.2835 2.89833 9.39685 3.37075 9.65739 3.76377C9.91794 4.15679 10.3089 4.44515 10.7614 4.57797C11.2138 4.71078 11.6986 4.67952 12.1303 4.48969C12.5619 4.29986 12.9126 3.96367 13.1206 3.54044C14.3862 3.82865 15.5627 4.42041 16.5487 5.26469C17.5347 6.10896 18.3005 7.18041 18.7801 8.38662L20.0004 7.90675C19.4355 6.47606 18.5259 5.2071 17.3524 4.21267C16.1789 3.21825 14.7779 2.52917 13.2739 2.20669ZM11.3337 3.33281C11.2444 3.33568 11.1554 3.32056 11.072 3.28836C10.9887 3.25615 10.9126 3.20752 10.8484 3.14534C10.7842 3.08317 10.7331 3.00872 10.6983 2.92642C10.6634 2.84412 10.6455 2.75566 10.6455 2.66628C10.6455 2.5769 10.6634 2.48844 10.6983 2.40614C10.7331 2.32384 10.7842 2.2494 10.8484 2.18722C10.9126 2.12504 10.9887 2.07641 11.072 2.0442C11.1554 2.012 11.2444 1.99688 11.3337 1.99975C11.5106 1.99975 11.6802 2.07001 11.8053 2.19507C11.9304 2.32014 12.0006 2.48976 12.0006 2.66662C12.0006 2.84349 11.9304 3.01311 11.8053 3.13818C11.6802 3.26324 11.5106 3.33281 11.3337 3.33281ZM8.40018 3.88694L7.90724 2.66731C6.47655 3.2322 5.20759 4.14182 4.21316 5.31532C3.21874 6.48881 2.52966 7.88982 2.20718 9.39381C1.74781 9.50026 1.34081 9.76555 1.05799 10.1429C0.775175 10.5202 0.634721 10.9853 0.661413 11.456C0.688105 11.9268 0.880228 12.373 1.20388 12.716C1.52753 13.0589 1.96191 13.2765 2.43037 13.3303C2.89882 13.3842 3.37124 13.2708 3.76426 13.0103C4.15728 12.7497 4.44564 12.3587 4.57845 11.9063C4.71127 11.4538 4.68001 10.969 4.49018 10.5374C4.30035 10.1057 3.96416 9.75503 3.54093 9.54712C3.83032 8.27997 4.42401 7.10238 5.27066 6.11618C6.11732 5.12998 7.19145 4.36484 8.40018 3.88694ZM2.66643 12.0008C2.57885 12.0008 2.49213 11.9836 2.41122 11.9501C2.33031 11.9165 2.2568 11.8674 2.19487 11.8055C2.13295 11.7436 2.08383 11.67 2.05031 11.5891C2.0168 11.5082 1.99955 11.4215 1.99955 11.3339C1.99955 11.2464 2.0168 11.1596 2.05031 11.0787C2.08383 10.9978 2.13295 10.9243 2.19487 10.8624C2.2568 10.8005 2.33031 10.7513 2.41122 10.7178C2.49213 10.6843 2.57885 10.6671 2.66643 10.6671C2.84329 10.6671 3.01291 10.7373 3.13798 10.8624C3.26304 10.9874 3.3333 11.1571 3.3333 11.3339C3.3333 11.5108 3.26304 11.6804 3.13798 11.8055C3.01291 11.9306 2.84329 12.0008 2.66643 12.0008ZM11.3337 18.0006C10.9618 18.0018 10.5976 18.1067 10.282 18.3034C9.96634 18.5002 9.7118 18.781 9.54692 19.1144C8.28108 18.8262 7.10434 18.2344 6.11824 17.39C5.13214 16.5456 4.36628 15.4739 3.88674 14.2675L2.66711 14.7604C3.23384 16.1935 4.14651 17.4641 5.32368 18.4587C6.50086 19.4533 7.90594 20.141 9.41355 20.4605C9.50015 20.8275 9.68873 21.1626 9.95753 21.4271C10.2263 21.6916 10.5644 21.8747 10.9328 21.9554C11.3012 22.0361 11.6849 22.011 12.0396 21.883C12.3944 21.755 12.7057 21.5294 12.9377 21.2321C13.1698 20.9348 13.3131 20.578 13.3511 20.2029C13.3892 19.8277 13.3204 19.4494 13.1527 19.1116C12.9851 18.7738 12.7253 18.4903 12.4035 18.2937C12.0817 18.0971 11.7108 17.9955 11.3337 18.0006ZM11.3337 20.6674C11.1569 20.6674 10.9872 20.5972 10.8622 20.4721C10.7371 20.347 10.6669 20.1774 10.6669 20.0006C10.6669 19.8237 10.7371 19.6541 10.8622 19.529C10.9872 19.4039 11.1569 19.3337 11.3337 19.3337C11.5106 19.3337 11.6802 19.4039 11.8053 19.529C11.9304 19.6541 12.0006 19.8237 12.0006 20.0006C12.0006 20.1774 11.9304 20.347 11.8053 20.4721C11.6802 20.5972 11.5106 20.6674 11.3337 20.6674ZM22.0003 11.3332C22.0015 10.9763 21.9072 10.6255 21.7272 10.3173C21.5471 10.0091 21.2879 9.75463 20.9763 9.58037C20.6648 9.40611 20.3123 9.31839 19.9554 9.32628C19.5985 9.33418 19.2503 9.43742 18.9468 9.62529C18.6432 9.81316 18.3955 10.0788 18.2293 10.3947C18.063 10.7106 17.9843 11.0652 18.0013 11.4218C18.0183 11.7783 18.1304 12.1238 18.326 12.4225C18.5216 12.7211 18.7935 12.9619 19.1135 13.1201C18.8252 14.3858 18.2333 15.5624 17.3889 16.5484C16.5445 17.5343 15.473 18.3001 14.2666 18.7796L14.7602 19.9999C16.1933 19.4331 17.4639 18.5205 18.4585 17.3433C19.4531 16.1661 20.1408 14.761 20.4603 13.2534C20.8943 13.1508 21.2815 12.9061 21.5606 12.5582C21.8396 12.2103 21.9943 11.7792 22.0003 11.3332ZM19.9997 12.0001C19.8228 12.0001 19.6532 11.9299 19.5281 11.8048C19.4031 11.6797 19.3328 11.5101 19.3328 11.3332C19.3328 11.1564 19.4031 10.9868 19.5281 10.8617C19.6532 10.7366 19.8228 10.6664 19.9997 10.6664C20.1765 10.6664 20.3462 10.7366 20.4712 10.8617C20.5963 10.9868 20.6665 11.1564 20.6665 11.3332C20.6665 11.5101 20.5963 11.6797 20.4712 11.8048C20.3462 11.9299 20.1765 12.0001 19.9997 12.0001Z" fill="#8FBFFA"/>
<path d="M13.1934 11.2404C13.5727 10.87 13.833 10.395 13.9411 9.87596C14.0491 9.35694 14.0001 8.81748 13.8001 8.32649C13.6001 7.83549 13.2584 7.41524 12.8184 7.11939C12.3785 6.82354 11.8604 6.66553 11.3302 6.66553C10.8001 6.66553 10.282 6.82354 9.84205 7.11939C9.40213 7.41524 9.06036 7.83549 8.8604 8.32649C8.66044 8.81748 8.61136 9.35694 8.71943 9.87596C8.8275 10.395 9.08781 10.87 9.46713 11.2404C9.01573 11.5455 8.64597 11.9566 8.39021 12.4377C8.13445 12.9187 8.00047 13.4552 8 14V15.3331H14.6667V13.9993C14.6655 13.4539 14.5306 12.9171 14.2737 12.436C14.0169 11.9549 13.6459 11.5448 13.1934 11.2404ZM9.99994 9.33258C9.99994 9.15743 10.0344 8.98399 10.1015 8.82217C10.1685 8.66035 10.2667 8.51332 10.3906 8.38947C10.5144 8.26562 10.6615 8.16738 10.8233 8.10035C10.9851 8.03333 11.1585 7.99883 11.3337 7.99883C11.5088 7.99883 11.6823 8.03333 11.8441 8.10035C12.0059 8.16738 12.1529 8.26562 12.2768 8.38947C12.4006 8.51332 12.4989 8.66035 12.5659 8.82217C12.6329 8.98399 12.6674 9.15743 12.6674 9.33258C12.6674 9.68631 12.5269 10.0256 12.2768 10.2757C12.0267 10.5258 11.6874 10.6663 11.3337 10.6663C10.98 10.6663 10.6407 10.5258 10.3906 10.2757C10.1405 10.0256 9.99994 9.68631 9.99994 9.33258ZM9.33306 13.9993C9.32813 13.7335 9.37623 13.4694 9.47454 13.2224C9.57285 12.9754 9.71941 12.7505 9.90564 12.5608C10.0919 12.371 10.314 12.2203 10.5592 12.1175C10.8043 12.0146 11.0675 11.9616 11.3333 11.9616C11.5992 11.9616 11.8624 12.0146 12.1075 12.1175C12.3526 12.2203 12.5748 12.371 12.7611 12.5608C12.9473 12.7505 13.0938 12.9754 13.1921 13.2224C13.2905 13.4694 13.3386 13.7335 13.3336 13.9993H9.33306Z" fill="#8FBFFA"/>
</g>
<defs>
<clipPath id="clip0_740_397">
<rect width="22" height="22" fill="white"/>
</clipPath>
</defs>
</svg>
