<svg width="14" height="14" viewBox="0 0 14 14" fill="none" xmlns="http://www.w3.org/2000/svg">
<g clip-path="url(#clip0_740_539)">
<path d="M2.5 7.97493e-07C2.10218 7.97493e-07 1.72064 0.158036 1.43934 0.439341C1.15804 0.720645 1 1.10218 1 1.5V12.5C1 12.8978 1.15804 13.2794 1.43934 13.5607C1.72064 13.842 2.10218 14 2.5 14H11.5C11.8978 14 12.2794 13.842 12.5607 13.5607C12.842 13.2794 13 12.8978 13 12.5V4.5C13.0001 4.4343 12.9873 4.36921 12.9622 4.30847C12.9372 4.24773 12.9004 4.19252 12.854 4.146L8.854 0.146001C8.80748 0.099599 8.75227 0.0628209 8.69153 0.0377692C8.63079 0.0127175 8.5657 -0.00011655 8.5 7.97493e-07H2.5Z" fill="#8FBFFA"/>
<path fill-rule="evenodd" clip-rule="evenodd" d="M6.02934 7.02985C6.16182 6.88767 6.23394 6.69963 6.23052 6.50532C6.22709 6.31102 6.14838 6.12564 6.01096 5.98822C5.87355 5.85081 5.68816 5.7721 5.49386 5.76867C5.29956 5.76524 5.11151 5.83737 4.96934 5.96985L2.96934 7.96985C2.82889 8.11047 2.75 8.3011 2.75 8.49985C2.75 8.6986 2.82889 8.88922 2.96934 9.02985L4.96934 11.0298C5.038 11.1035 5.1208 11.1626 5.2128 11.2036C5.3048 11.2446 5.40411 11.2667 5.50482 11.2684C5.60552 11.2702 5.70555 11.2517 5.79894 11.214C5.89233 11.1762 5.97716 11.1201 6.04838 11.0489C6.1196 10.9777 6.17574 10.8928 6.21346 10.7994C6.25118 10.7061 6.26971 10.606 6.26793 10.5053C6.26615 10.4046 6.24411 10.3053 6.20312 10.2133C6.16213 10.1213 6.10303 10.0385 6.02934 9.96985L4.55934 8.49985L6.02934 7.02985ZM9.02934 5.96985C8.88717 5.83737 8.69912 5.76524 8.50482 5.76867C8.31052 5.7721 8.12513 5.85081 7.98772 5.98822C7.85031 6.12564 7.77159 6.31102 7.76817 6.50532C7.76474 6.69963 7.83686 6.88767 7.96934 7.02985L9.43934 8.49985L7.96934 9.96985C7.89565 10.0385 7.83655 10.1213 7.79556 10.2133C7.75457 10.3053 7.73253 10.4046 7.73075 10.5053C7.72897 10.606 7.7475 10.7061 7.78522 10.7994C7.82294 10.8928 7.87908 10.9777 7.9503 11.0489C8.02152 11.1201 8.10635 11.1762 8.19974 11.214C8.29313 11.2517 8.39316 11.2702 8.49386 11.2684C8.59456 11.2667 8.69388 11.2446 8.78588 11.2036C8.87788 11.1626 8.96068 11.1035 9.02934 11.0298L11.0293 9.02985C11.1698 8.88922 11.2487 8.6986 11.2487 8.49985C11.2487 8.3011 11.1698 8.11047 11.0293 7.96985L9.02934 5.96985Z" fill="white"/>
</g>
<defs>
<clipPath id="clip0_740_539">
<rect width="14" height="14" fill="white"/>
</clipPath>
</defs>
</svg>
