<svg width="14" height="14" viewBox="0 0 14 14" fill="none" xmlns="http://www.w3.org/2000/svg">
<g clip-path="url(#clip0_796_1825)">
<path d="M0 7C0 8.85652 0.737498 10.637 2.05025 11.9497C3.36301 13.2625 5.14348 14 7 14C8.85652 14 10.637 13.2625 11.9497 11.9497C13.2625 10.637 14 8.85652 14 7C14 5.14348 13.2625 3.36301 11.9497 2.05025C10.637 0.737498 8.85652 0 7 0C5.14348 0 3.36301 0.737498 2.05025 2.05025C0.737498 3.36301 0 5.14348 0 7Z" fill="#8FBFFA"/>
<path d="M7.35488 2.89689L10.1469 5.68989C10.2166 5.75982 10.264 5.84881 10.2832 5.94565C10.3024 6.0425 10.2925 6.14286 10.2548 6.23409C10.217 6.32531 10.1531 6.40332 10.0711 6.45828C9.98906 6.51323 9.89261 6.54268 9.79388 6.54289H8.00088V10.2499C8.00088 10.5151 7.89552 10.7695 7.70799 10.957C7.52045 11.1445 7.2661 11.2499 7.00088 11.2499C6.73566 11.2499 6.48131 11.1445 6.29377 10.957C6.10624 10.7695 6.00088 10.5151 6.00088 10.2499V6.54289H4.20788C4.10915 6.54268 4.01269 6.51323 3.93067 6.45828C3.84865 6.40332 3.78474 6.32531 3.74698 6.23409C3.70923 6.14286 3.69933 6.0425 3.71853 5.94565C3.73773 5.84881 3.78518 5.75982 3.85488 5.68989L6.64688 2.89689C6.69333 2.85033 6.7485 2.81339 6.80925 2.78818C6.86999 2.76297 6.93511 2.75 7.00088 2.75C7.06665 2.75 7.13177 2.76297 7.19251 2.78818C7.25326 2.81339 7.30843 2.85033 7.35488 2.89689Z" fill="white"/>
</g>
<defs>
<clipPath id="clip0_796_1825">
<rect width="14" height="14" fill="white"/>
</clipPath>
</defs>
</svg>
