<svg width="14" height="14" viewBox="0 0 14 14" fill="none" xmlns="http://www.w3.org/2000/svg">
<g clip-path="url(#clip0_796_1746)">
<path d="M6.127 0.804963C5.85603 0.599172 5.52315 0.49162 5.183 0.499963H1.5C1.10218 0.499963 0.720644 0.657998 0.43934 0.939303C0.158035 1.22061 0 1.60214 0 1.99996L0 12C0 12.3978 0.158035 12.7793 0.43934 13.0606C0.720644 13.3419 1.10218 13.5 1.5 13.5H12.5C12.8978 13.5 13.2794 13.3419 13.5607 13.0606C13.842 12.7793 14 12.3978 14 12V3.99996C14 3.60214 13.842 3.22061 13.5607 2.9393C13.2794 2.658 12.8978 2.49996 12.5 2.49996H6.89L6.675 1.63996C6.59308 1.3072 6.39969 1.01253 6.127 0.804963Z" fill="#8FBFFA"/>
<path fill-rule="evenodd" clip-rule="evenodd" d="M9.45095 5.4C9.52975 5.4591 9.59613 5.53313 9.64631 5.61788C9.69649 5.70263 9.72949 5.79643 9.74342 5.89393C9.75735 5.99144 9.75193 6.09073 9.72749 6.18614C9.70305 6.28155 9.66005 6.37121 9.60095 6.45L6.60095 10.45C6.48592 10.6034 6.31653 10.7068 6.12758 10.7392C5.93863 10.7716 5.74446 10.7303 5.58495 10.624L4.08495 9.624C3.92185 9.51266 3.80925 9.34148 3.77158 9.14762C3.73392 8.95376 3.77423 8.75287 3.88378 8.58855C3.99332 8.42423 4.16325 8.30975 4.35669 8.26996C4.55012 8.23016 4.75144 8.26827 4.91695 8.376L5.82695 8.982L8.40095 5.55C8.46005 5.47121 8.53408 5.40483 8.61883 5.35464C8.70358 5.30446 8.79739 5.27147 8.89489 5.25754C8.99239 5.24361 9.09168 5.24902 9.18709 5.27346C9.2825 5.29791 9.37216 5.34091 9.45095 5.4Z" fill="white"/>
</g>
<defs>
<clipPath id="clip0_796_1746">
<rect width="14" height="14" fill="white"/>
</clipPath>
</defs>
</svg>
