<svg width="14" height="14" viewBox="0 0 14 14" fill="none" xmlns="http://www.w3.org/2000/svg">
<path d="M4 1.5C4 1.10218 4.15804 0.720644 4.43934 0.43934C4.72064 0.158035 5.10218 0 5.5 0L11 0C11.3978 0 11.7794 0.158035 12.0607 0.43934C12.342 0.720644 12.5 1.10218 12.5 1.5V10C12.5 10.3978 12.342 10.7794 12.0607 11.0607C11.7794 11.342 11.3978 11.5 11 11.5H5.5C5.10218 11.5 4.72064 11.342 4.43934 11.0607C4.15804 10.7794 4 10.3978 4 10V1.5Z" fill="white"/>
<path d="M1.5 4C1.5 3.60218 1.65804 3.22064 1.93934 2.93934C2.22064 2.65804 2.60218 2.5 3 2.5H8.5C8.89782 2.5 9.27936 2.65804 9.56066 2.93934C9.84196 3.22064 10 3.60218 10 4V12.5C10 12.8978 9.84196 13.2794 9.56066 13.5607C9.27936 13.842 8.89782 14 8.5 14H3C2.60218 14 2.22064 13.842 1.93934 13.5607C1.65804 13.2794 1.5 12.8978 1.5 12.5V4Z" fill="#8FBFFA"/>
<path fill-rule="evenodd" clip-rule="evenodd" d="M3.12405 5C3.12405 4.655 3.40405 4.375 3.74905 4.375H7.74905C7.91481 4.375 8.07378 4.44085 8.19099 4.55806C8.3082 4.67527 8.37405 4.83424 8.37405 5C8.37405 5.16576 8.3082 5.32473 8.19099 5.44194C8.07378 5.55915 7.91481 5.625 7.74905 5.625H3.74905C3.58329 5.625 3.42432 5.55915 3.30711 5.44194C3.18989 5.32473 3.12405 5.16576 3.12405 5ZM3.12405 7.5C3.12405 7.155 3.40405 6.875 3.74905 6.875H7.74905C7.91481 6.875 8.07378 6.94085 8.19099 7.05806C8.3082 7.17527 8.37405 7.33424 8.37405 7.5C8.37405 7.66576 8.3082 7.82473 8.19099 7.94194C8.07378 8.05915 7.91481 8.125 7.74905 8.125H3.74905C3.58329 8.125 3.42432 8.05915 3.30711 7.94194C3.18989 7.82473 3.12405 7.66576 3.12405 7.5ZM3.74805 9.375C3.58229 9.375 3.42332 9.44085 3.30611 9.55806C3.18889 9.67527 3.12305 9.83424 3.12305 10C3.12305 10.1658 3.18889 10.3247 3.30611 10.4419C3.42332 10.5592 3.58229 10.625 3.74805 10.625H5.74805C5.91381 10.625 6.07278 10.5592 6.18999 10.4419C6.3072 10.3247 6.37305 10.1658 6.37305 10C6.37305 9.83424 6.3072 9.67527 6.18999 9.55806C6.07278 9.44085 5.91381 9.375 5.74805 9.375H3.74805Z" fill="white"/>
</svg>
