<svg width="12" height="14" viewBox="0 0 12 14" fill="none" xmlns="http://www.w3.org/2000/svg">
<path d="M0 2.5C0 2.10218 0.158035 1.72064 0.43934 1.43934C0.720644 1.15804 1.10218 1 1.5 1H10C10.3978 1 10.7794 1.15804 11.0607 1.43934C11.342 1.72064 11.5 2.10218 11.5 2.5V12.5C11.5 12.8978 11.342 13.2794 11.0607 13.5607C10.7794 13.842 10.3978 14 10 14H1.5C1.10218 14 0.720644 13.842 0.43934 13.5607C0.158035 13.2794 0 12.8978 0 12.5V2.5Z" fill="#8FBFFA"/>
<path fill-rule="evenodd" clip-rule="evenodd" d="M4.25095 0C3.98574 0 3.73138 0.105357 3.54385 0.292893C3.35631 0.48043 3.25095 0.734784 3.25095 1V1.5C3.25095 1.76522 3.35631 2.01957 3.54385 2.20711C3.73138 2.39464 3.98574 2.5 4.25095 2.5H7.25095C7.51617 2.5 7.77052 2.39464 7.95806 2.20711C8.1456 2.01957 8.25095 1.76522 8.25095 1.5V1C8.25095 0.734784 8.1456 0.48043 7.95806 0.292893C7.77052 0.105357 7.51617 0 7.25095 0L4.25095 0ZM8.85095 6.95C8.9703 6.79087 9.02155 6.59085 8.99342 6.39393C8.96529 6.19702 8.86008 6.01935 8.70095 5.9C8.54182 5.78065 8.3418 5.72941 8.14489 5.75754C7.94798 5.78567 7.7703 5.89087 7.65095 6.05L5.07695 9.482L4.16695 8.876C4.00144 8.76827 3.80012 8.73016 3.60669 8.76996C3.41325 8.80975 3.24332 8.92423 3.13378 9.08855C3.02423 9.25286 2.98392 9.45376 3.02158 9.64762C3.05925 9.84148 3.17185 10.0127 3.33495 10.124L4.83495 11.124C4.99446 11.2303 5.18863 11.2716 5.37758 11.2392C5.56653 11.2068 5.73592 11.1034 5.85095 10.95L8.85095 6.95Z" fill="white"/>
</svg>
