<svg width="14" height="14" viewBox="0 0 14 14" fill="none" xmlns="http://www.w3.org/2000/svg">
<path d="M0 3C0 2.73478 0.105357 2.48043 0.292893 2.29289C0.48043 2.10536 0.734784 2 1 2H13C13.2652 2 13.5196 2.10536 13.7071 2.29289C13.8946 2.48043 14 2.73478 14 3V11C14 11.2652 13.8946 11.5196 13.7071 11.7071C13.5196 11.8946 13.2652 12 13 12H1C0.734784 12 0.48043 11.8946 0.292893 11.7071C0.105357 11.5196 0 11.2652 0 11V3Z" fill="#8FBFFA"/>
<path fill-rule="evenodd" clip-rule="evenodd" d="M4.49932 7C4.6963 7 4.89136 6.9612 5.07335 6.88582C5.25533 6.81044 5.42069 6.69995 5.55998 6.56066C5.69927 6.42137 5.80976 6.25601 5.88514 6.07403C5.96052 5.89204 5.99932 5.69698 5.99932 5.5C5.99932 5.30302 5.96052 5.10796 5.88514 4.92597C5.80976 4.74399 5.69927 4.57863 5.55998 4.43934C5.42069 4.30005 5.25533 4.18956 5.07335 4.11418C4.89136 4.0388 4.6963 4 4.49932 4C4.1015 4 3.71996 4.15804 3.43866 4.43934C3.15736 4.72064 2.99932 5.10218 2.99932 5.5C2.99932 5.89782 3.15736 6.27936 3.43866 6.56066C3.71996 6.84196 4.1015 7 4.49932 7ZM1.54632 9.302C1.92111 8.89178 2.37726 8.56414 2.88568 8.33997C3.39411 8.1158 3.94367 8.00001 4.49932 8C5.05497 8.00001 5.60453 8.1158 6.11296 8.33997C6.62139 8.56414 7.07753 8.89178 7.45232 9.302C7.71232 9.586 7.48232 10 7.09732 10H1.90132C1.51632 10 1.28632 9.586 1.54632 9.302ZM8.87432 5.5C8.87432 5.155 9.15432 4.875 9.49932 4.875H11.4993C11.6651 4.875 11.8241 4.94085 11.9413 5.05806C12.0585 5.17527 12.1243 5.33424 12.1243 5.5C12.1243 5.66576 12.0585 5.82473 11.9413 5.94194C11.8241 6.05915 11.6651 6.125 11.4993 6.125H9.49932C9.33356 6.125 9.17459 6.05915 9.05738 5.94194C8.94017 5.82473 8.87432 5.66576 8.87432 5.5ZM9.49932 7.875C9.33356 7.875 9.17459 7.94085 9.05738 8.05806C8.94017 8.17527 8.87432 8.33424 8.87432 8.5C8.87432 8.66576 8.94017 8.82473 9.05738 8.94194C9.17459 9.05915 9.33356 9.125 9.49932 9.125H11.4993C11.6651 9.125 11.8241 9.05915 11.9413 8.94194C12.0585 8.82473 12.1243 8.66576 12.1243 8.5C12.1243 8.33424 12.0585 8.17527 11.9413 8.05806C11.8241 7.94085 11.6651 7.875 11.4993 7.875H9.49932Z" fill="white"/>
</svg>
