<svg width="14" height="14" viewBox="0 0 14 14" fill="none" xmlns="http://www.w3.org/2000/svg">
<g clip-path="url(#clip0_796_1715)">
<path fill-rule="evenodd" clip-rule="evenodd" d="M5.635 10.5772C5.66961 10.4802 5.73333 10.3962 5.81745 10.3368C5.90158 10.2774 6.002 10.2454 6.105 10.2452H7.895C7.998 10.2454 8.09842 10.2774 8.18255 10.3368C8.26667 10.3962 8.33039 10.4802 8.365 10.5772L9.052 12.4952H10C10.1989 12.4952 10.3897 12.5742 10.5303 12.7149C10.671 12.8555 10.75 13.0463 10.75 13.2452C10.75 13.4441 10.671 13.6349 10.5303 13.7755C10.3897 13.9162 10.1989 13.9952 10 13.9952H4C3.80109 13.9952 3.61032 13.9162 3.46967 13.7755C3.32902 13.6349 3.25 13.4441 3.25 13.2452C3.25 13.0463 3.32902 12.8555 3.46967 12.7149C3.61032 12.5742 3.80109 12.4952 4 12.4952H4.948L5.635 10.5772ZM13.748 0.190205C13.8965 0.32223 13.9866 0.507803 13.9984 0.706171C14.0102 0.904539 13.9428 1.09949 13.811 1.24821L9.811 5.74821C9.68603 5.88898 9.5127 5.97761 9.32541 5.99651C9.13812 6.0154 8.95057 5.96318 8.8 5.8502L6.8 4.3502C6.64087 4.23086 6.53567 4.05318 6.50754 3.85627C6.47941 3.65936 6.53065 3.45933 6.65 3.3002C6.76935 3.14108 6.94702 3.03587 7.14393 3.00774C7.34085 2.97961 7.54087 3.03086 7.7 3.15021L9.148 4.23621L12.69 0.252205C12.822 0.103683 13.0076 0.0136277 13.206 0.00181561C13.4043 -0.0099965 13.5993 0.0573999 13.748 0.189205V0.190205Z" fill="white"/>
<path fill-rule="evenodd" clip-rule="evenodd" d="M10.796 0.5H1.456C0.653 0.5 0 1.152 0 1.957V9.543C0 10.348 0.652 11 1.457 11H12.543C13.348 11 14 10.348 14 9.543V2.917L10.745 6.579C10.4117 6.95397 9.94956 7.18996 9.45036 7.24015C8.95116 7.29035 8.45133 7.15109 8.05 6.85L6.05 5.35C5.62565 5.03174 5.34512 4.55794 5.2701 4.03284C5.19509 3.50774 5.33174 2.97435 5.65 2.55C5.96826 2.12565 6.44206 1.84512 6.96716 1.7701C7.49226 1.69509 8.02565 1.83174 8.45 2.15L8.978 2.546L10.796 0.5Z" fill="#8FBFFA"/>
</g>
<defs>
<clipPath id="clip0_796_1715">
<rect width="14" height="14" fill="white"/>
</clipPath>
</defs>
</svg>
