<svg width="14" height="13" viewBox="0 0 14 13" fill="none" xmlns="http://www.w3.org/2000/svg">
<path fill-rule="evenodd" clip-rule="evenodd" d="M3.793 1.33943C3.87028 1.27837 3.93478 1.20268 3.98281 1.11669C4.03085 1.03069 4.06147 0.936085 4.07294 0.838258C4.0844 0.740432 4.07649 0.641304 4.04965 0.546536C4.02281 0.451767 3.97756 0.363213 3.9165 0.285931C3.85544 0.208648 3.77975 0.144149 3.69376 0.0961174C3.60776 0.0480857 3.51315 0.0174617 3.41533 0.00599362C3.3175 -0.00547441 3.21837 0.00243816 3.12361 0.0292797C3.02884 0.0561212 2.94028 0.101366 2.863 0.162431C1.9871 0.862285 1.28168 1.75202 0.8 2.76443C0.297252 3.81615 0.024523 4.96298 0 6.12843C0.0309523 7.28089 0.304571 8.41387 0.803 9.45343C1.28739 10.4664 1.99595 11.3559 2.875 12.0544C3.03163 12.1755 3.22975 12.2297 3.42619 12.2053C3.62262 12.1808 3.80143 12.0797 3.92364 11.924C4.04584 11.7683 4.10152 11.5706 4.07855 11.374C4.05558 11.1773 3.95581 10.9978 3.801 10.8744C3.10168 10.3172 2.53815 9.60838 2.153 8.80143C1.74992 7.95877 1.52749 7.04113 1.5 6.10743C1.53 5.16243 1.754 4.24143 2.151 3.41543C2.53404 2.608 3.0955 1.89814 3.793 1.33943ZM5.887 3.39343C5.96842 3.33795 6.03811 3.26697 6.0921 3.18455C6.14609 3.10213 6.18332 3.00989 6.20166 2.91308C6.22 2.81628 6.21909 2.71681 6.19899 2.62036C6.17889 2.5239 6.13998 2.43235 6.0845 2.35093C6.02902 2.26951 5.95804 2.19982 5.87562 2.14583C5.7932 2.09184 5.70096 2.05461 5.60415 2.03627C5.50735 2.01793 5.40788 2.01884 5.31142 2.03894C5.21497 2.05904 5.12342 2.09795 5.042 2.15343C4.39275 2.59435 3.85519 3.18052 3.472 3.86543C3.0837 4.5611 2.87089 5.34096 2.852 6.13743C2.87952 6.91552 3.09206 7.67585 3.472 8.35543C3.853 9.03643 4.392 9.62043 5.044 10.0624C5.20873 10.172 5.41007 10.212 5.60418 10.1738C5.79829 10.1356 5.96944 10.0223 6.08037 9.85845C6.19129 9.69464 6.233 9.49364 6.1964 9.29922C6.15981 9.1048 6.04789 8.93271 5.885 8.82043C5.42887 8.51236 5.05086 8.10216 4.781 7.62243C4.52217 7.15945 4.37526 6.64234 4.352 6.11243C4.37464 5.5804 4.52192 5.06112 4.782 4.59643C5.05182 4.11499 5.43016 3.70309 5.887 3.39343ZM7.876 2.35143C7.98792 2.187 8.16058 2.07376 8.35599 2.03663C8.5514 1.9995 8.75356 2.04151 8.918 2.15343C9.56725 2.59435 10.1048 3.18052 10.488 3.86543C10.8763 4.5611 11.0891 5.34096 11.108 6.13743C11.0805 6.91552 10.8679 7.67585 10.488 8.35543C10.1051 9.03984 9.56662 9.62458 8.916 10.0624C8.75127 10.172 8.54993 10.212 8.35582 10.1738C8.16171 10.1356 7.99056 10.0223 7.87963 9.85845C7.76871 9.69464 7.727 9.49364 7.7636 9.29922C7.80019 9.1048 7.91211 8.93271 8.075 8.82043C8.53113 8.51236 8.90914 8.10216 9.179 7.62243C9.43783 7.15945 9.58474 6.64234 9.608 6.11243C9.58536 5.5804 9.43808 5.06112 9.178 4.59643C8.90819 4.11499 8.52984 3.70309 8.073 3.39343C7.90873 3.28135 7.7957 3.10862 7.75875 2.91322C7.72181 2.71782 7.76398 2.51574 7.876 2.35143ZM11.096 0.161431C11.0187 0.100366 10.93 0.0551341 10.8352 0.0283178C10.7404 0.00150139 10.6412 -0.00637444 10.5433 0.00514003C10.3457 0.0283945 10.1653 0.129218 10.042 0.285431C9.91867 0.441643 9.86245 0.640449 9.88571 0.838112C9.90896 1.03578 10.0098 1.2161 10.166 1.33943C10.8639 1.89803 11.4257 2.6079 11.809 3.41543C12.2108 4.25771 12.4322 5.17462 12.459 6.10743C12.4318 7.04106 12.2097 7.95869 11.807 8.80143C11.4218 9.60838 10.8583 10.3172 10.159 10.8744C10.0042 10.9978 9.90442 11.1773 9.88145 11.374C9.85847 11.5706 9.91416 11.7683 10.0364 11.924C10.1586 12.0797 10.3374 12.1808 10.5338 12.2053C10.7302 12.2297 10.9284 12.1755 11.085 12.0544C11.9639 11.3561 12.6725 10.467 13.157 9.45443C13.6613 8.40172 13.9351 7.25345 13.96 6.08643C13.9296 4.93521 13.657 3.8033 13.16 2.76443C12.6783 1.75202 11.9729 0.862285 11.097 0.162431L11.096 0.161431Z" fill="#8FBFFA"/>
<path fill-rule="evenodd" clip-rule="evenodd" d="M6.98047 4.85742C6.64895 4.85742 6.33101 4.98912 6.09659 5.22354C5.86216 5.45796 5.73047 5.7759 5.73047 6.10742C5.73047 6.43894 5.86216 6.75688 6.09659 6.99131C6.33101 7.22573 6.64895 7.35742 6.98047 7.35742C7.31199 7.35742 7.62993 7.22573 7.86435 6.99131C8.09877 6.75688 8.23047 6.43894 8.23047 6.10742C8.23047 5.7759 8.09877 5.45796 7.86435 5.22354C7.62993 4.98912 7.31199 4.85742 6.98047 4.85742Z" fill="white"/>
</svg>
