<svg width="14" height="14" viewBox="0 0 14 14" fill="none" xmlns="http://www.w3.org/2000/svg">
<g clip-path="url(#clip0_796_1789)">
<path fill-rule="evenodd" clip-rule="evenodd" d="M6.6 0C6.02017 0.49282 5.5544 1.1058 5.23496 1.79648C4.91552 2.48716 4.75005 3.23903 4.75 4V4.007C4.753 4.527 4.83 5.041 4.98 5.537L4.488 6.688C4.38755 6.92274 4.35086 7.17985 4.38165 7.43332C4.41244 7.68679 4.50962 7.92763 4.66336 8.1315C4.81709 8.33536 5.02193 8.49502 5.25717 8.59432C5.4924 8.69361 5.74968 8.72904 6.003 8.697L7.343 8.527C8.14856 9.00011 9.06578 9.24969 10 9.25V12.25C10 12.7141 9.81563 13.1592 9.48744 13.4874C9.15925 13.8156 8.71413 14 8.25 14H1.75C1.54064 13.9957 1.33492 13.9444 1.148 13.85C0.978 13.77 0.806 13.66 0.65 13.528C0.361 13.282 0 12.842 0 12.25V1.75C0 0.784 0.784 0 1.75 0H6.6Z" fill="#8FBFFA"/>
<path fill-rule="evenodd" clip-rule="evenodd" d="M3.75 10.5C3.75 10.3011 3.82902 10.1103 3.96967 9.96967C4.11032 9.82902 4.30109 9.75 4.5 9.75H5.5C5.69891 9.75 5.88968 9.82902 6.03033 9.96967C6.17098 10.1103 6.25 10.3011 6.25 10.5C6.25 10.6989 6.17098 10.8897 6.03033 11.0303C5.88968 11.171 5.69891 11.25 5.5 11.25H4.5C4.30109 11.25 4.11032 11.171 3.96967 11.0303C3.82902 10.8897 3.75 10.6989 3.75 10.5Z" fill="white"/>
<path d="M9.99979 0C8.93892 0 7.9215 0.421427 7.17136 1.17157C6.42121 1.92172 5.99979 2.93913 5.99979 4C6.00343 4.54239 6.1121 5.07894 6.31979 5.58L5.63679 7.18C5.62313 7.21241 5.61826 7.24786 5.62267 7.28276C5.62709 7.31765 5.64063 7.35077 5.66193 7.37876C5.68323 7.40675 5.71153 7.42864 5.74399 7.4422C5.77644 7.45576 5.8119 7.46052 5.84679 7.456L7.63979 7.23C8.14985 7.60259 8.7409 7.84909 9.36455 7.94932C9.9882 8.04955 10.6267 8.00066 11.2278 7.80665C11.829 7.61264 12.3756 7.27902 12.823 6.83312C13.2704 6.38721 13.6058 5.84169 13.8018 5.24122C13.9978 4.64074 14.0488 4.00239 13.9507 3.37841C13.8525 2.75443 13.608 2.16256 13.2371 1.65127C12.8662 1.13997 12.3795 0.723781 11.8168 0.436769C11.2541 0.149758 10.6314 8.36577e-05 9.99979 0Z" fill="white"/>
<path fill-rule="evenodd" clip-rule="evenodd" d="M10.5 2C10.5 1.86739 10.4473 1.74021 10.3536 1.64645C10.2598 1.55268 10.1326 1.5 10 1.5C9.86739 1.5 9.74021 1.55268 9.64645 1.64645C9.55268 1.74021 9.5 1.86739 9.5 2V3.5C9.5 3.63261 9.55268 3.75979 9.64645 3.85355C9.74021 3.94732 9.86739 4 10 4C10.1326 4 10.2598 3.94732 10.3536 3.85355C10.4473 3.75979 10.5 3.63261 10.5 3.5V2ZM10.75 5.5C10.75 5.30109 10.671 5.11032 10.5303 4.96967C10.3897 4.82902 10.1989 4.75 10 4.75C9.80109 4.75 9.61032 4.82902 9.46967 4.96967C9.32902 5.11032 9.25 5.30109 9.25 5.5C9.25 5.69891 9.32902 5.88968 9.46967 6.03033C9.61032 6.17098 9.80109 6.25 10 6.25C10.1989 6.25 10.3897 6.17098 10.5303 6.03033C10.671 5.88968 10.75 5.69891 10.75 5.5Z" fill="#8FBFFA"/>
</g>
<defs>
<clipPath id="clip0_796_1789">
<rect width="14" height="14" fill="white"/>
</clipPath>
</defs>
</svg>
