<svg width="14" height="14" viewBox="0 0 14 14" fill="none" xmlns="http://www.w3.org/2000/svg">
<path d="M0 7.5C0 7.10218 0.158035 6.72064 0.43934 6.43934C0.720644 6.15804 1.10218 6 1.5 6H7.5C7.89782 6 8.27936 6.15804 8.56066 6.43934C8.84196 6.72064 9 7.10218 9 7.5V11.5C9 11.8978 8.84196 12.2794 8.56066 12.5607C8.27936 12.842 7.89782 13 7.5 13H1.5C1.10218 13 0.720644 12.842 0.43934 12.5607C0.158035 12.2794 0 11.8978 0 11.5L0 7.5Z" fill="#8FBFFA"/>
<path d="M2.5 5C2.5 4.60218 2.65804 4.22064 2.93934 3.93934C3.22064 3.65804 3.60218 3.5 4 3.5H10C10.3978 3.5 10.7794 3.65804 11.0607 3.93934C11.342 4.22064 11.5 4.60218 11.5 5V9C11.5 9.39782 11.342 9.77936 11.0607 10.0607C10.7794 10.342 10.3978 10.5 10 10.5H4C3.60218 10.5 3.22064 10.342 2.93934 10.0607C2.65804 9.77936 2.5 9.39782 2.5 9V5Z" fill="white"/>
<path d="M5 2.5C5 2.10218 5.15804 1.72064 5.43934 1.43934C5.72064 1.15804 6.10218 1 6.5 1H12.5C12.8978 1 13.2794 1.15804 13.5607 1.43934C13.842 1.72064 14 2.10218 14 2.5V6.5C14 6.89782 13.842 7.27936 13.5607 7.56066C13.2794 7.84196 12.8978 8 12.5 8H6.5C6.10218 8 5.72064 7.84196 5.43934 7.56066C5.15804 7.27936 5 6.89782 5 6.5V2.5Z" fill="#8FBFFA"/>
</svg>
