<svg width="16" height="16" viewBox="0 0 16 16" fill="none" xmlns="http://www.w3.org/2000/svg">
<path d="M13 7.99979C12.6441 8.00161 12.2952 8.09937 11.99 8.28279L10.5605 6.85329L11.707 5.70679C11.8945 5.51926 11.9998 5.26495 11.9998 4.99979C11.9998 4.73462 11.8945 4.48031 11.707 4.29279L8.70705 1.29279C8.51952 1.10532 8.26521 1 8.00005 1C7.73489 1 7.48058 1.10532 7.29305 1.29279L4.29305 4.29279C4.10558 4.48031 4.00026 4.73462 4.00026 4.99979C4.00026 5.26495 4.10558 5.51926 4.29305 5.70679L5.43955 6.85329L4.01005 8.28279C3.58649 8.03148 3.08575 7.94344 2.60187 8.0352C2.11799 8.12697 1.68426 8.39223 1.38212 8.78117C1.07998 9.17011 0.930229 9.65597 0.960977 10.1475C0.991726 10.6391 1.20086 11.1025 1.54912 11.4507C1.89737 11.799 2.36078 12.0081 2.85232 12.0389C3.34387 12.0696 3.82973 11.9199 4.21867 11.6177C4.60761 11.3156 4.87287 10.8818 4.96463 10.398C5.0564 9.91408 4.96836 9.41335 4.71705 8.98979L6.14655 7.56029L7.29305 8.70679C7.35505 8.76719 7.42463 8.8193 7.50005 8.86179V10.9998H6.00005V14.9998H10V10.9998H8.50005V8.86129C8.57544 8.81895 8.64502 8.76702 8.70705 8.70679L9.85355 7.56029L11.283 8.98979C11.0616 9.36963 10.9719 9.812 11.0279 10.2481C11.0838 10.6842 11.2823 11.0896 11.5925 11.4012C11.9026 11.7129 12.307 11.9133 12.7429 11.9713C13.1787 12.0294 13.6215 11.9418 14.0024 11.7221C14.3833 11.5025 14.6809 11.1632 14.8491 10.7569C15.0172 10.3507 15.0464 9.90023 14.932 9.47567C14.8177 9.05112 14.5663 8.67624 14.2169 8.40933C13.8675 8.14242 13.4397 7.99844 13 7.99979ZM4.00005 9.99979C4.00005 10.1976 3.9414 10.3909 3.83152 10.5554C3.72164 10.7198 3.56546 10.848 3.38273 10.9237C3.20001 10.9994 2.99894 11.0192 2.80496 10.9806C2.61098 10.942 2.4328 10.8467 2.29294 10.7069C2.15309 10.567 2.05785 10.3889 2.01926 10.1949C1.98068 10.0009 2.00048 9.79983 2.07617 9.6171C2.15186 9.43438 2.28003 9.2782 2.44448 9.16832C2.60893 9.05844 2.80227 8.99979 3.00005 8.99979C3.26527 8.99979 3.51962 9.10514 3.70716 9.29268C3.89469 9.48022 4.00005 9.73457 4.00005 9.99979ZM9.00005 11.9998V13.9998H7.00005V11.9998H9.00005ZM8.00005 7.99979L5.00005 4.99979L8.00005 1.99979L11 4.99979L8.00005 7.99979ZM13 10.9998C12.8023 10.9998 12.6089 10.9411 12.4445 10.8313C12.28 10.7214 12.1519 10.5652 12.0762 10.3825C12.0005 10.1997 11.9807 9.99868 12.0193 9.8047C12.0578 9.61071 12.1531 9.43253 12.2929 9.29268C12.4328 9.15283 12.611 9.05759 12.805 9.019C12.9989 8.98042 13.2 9.00022 13.3827 9.07591C13.5655 9.15159 13.7216 9.27977 13.8315 9.44422C13.9414 9.60866 14 9.802 14 9.99979C14 10.265 13.8947 10.5194 13.7072 10.7069C13.5196 10.8944 13.2653 10.9998 13 10.9998Z" fill="#8FBFFA"/>
<rect x="8" y="2" width="4.2429" height="4.24238" transform="rotate(45 8 2)" fill="white"/>
<rect x="9" y="12" width="2" height="2" transform="rotate(90 9 12)" fill="white"/>
<rect x="4" y="9" width="2" height="2" rx="1" transform="rotate(90 4 9)" fill="white"/>
<rect x="14" y="9" width="2" height="2" rx="1" transform="rotate(90 14 9)" fill="white"/>
</svg>
