<svg width="14" height="14" viewBox="0 0 14 14" fill="none" xmlns="http://www.w3.org/2000/svg">
<g clip-path="url(#clip0_796_1815)">
<path fill-rule="evenodd" clip-rule="evenodd" d="M1.5 0C0.68 0 0 0.678 0 1.5V4.353C0 8.489 2.51 12.359 6.411 13.881C6.578 13.946 6.776 13.999 6.993 14.001C7.19751 13.9995 7.39983 13.9587 7.589 13.881C11.49 12.359 14 8.489 14 4.353V1.5C14 0.68 13.32 0 12.5 0H1.5Z" fill="#8FBFFA"/>
<path fill-rule="evenodd" clip-rule="evenodd" d="M10.498 3.44022C10.6465 3.57225 10.7366 3.75782 10.7484 3.95619C10.7602 4.15456 10.6928 4.3495 10.561 4.49822L6.561 8.99822C6.43603 9.13899 6.2627 9.22763 6.07541 9.24652C5.88812 9.26542 5.70057 9.2132 5.55 9.10022L3.55 7.60022C3.39087 7.48087 3.28567 7.3032 3.25754 7.10629C3.22941 6.90937 3.28066 6.70935 3.4 6.55022C3.51935 6.39109 3.69702 6.28589 3.89394 6.25776C4.09085 6.22963 4.29087 6.28087 4.45 6.40022L5.898 7.48622L9.439 3.50222C9.5044 3.42839 9.58373 3.36817 9.67243 3.32504C9.76113 3.2819 9.85747 3.25668 9.95593 3.25083C10.0544 3.24498 10.153 3.25861 10.2462 3.29093C10.3394 3.32326 10.4253 3.37365 10.499 3.43922L10.498 3.44022Z" fill="white"/>
</g>
<defs>
<clipPath id="clip0_796_1815">
<rect width="14" height="14" fill="white"/>
</clipPath>
</defs>
</svg>
