<svg width="14" height="14" viewBox="0 0 14 14" fill="none" xmlns="http://www.w3.org/2000/svg">
<g clip-path="url(#clip0_796_1756)">
<path fill-rule="evenodd" clip-rule="evenodd" d="M1.86713 0.0942383C0.923125 0.0942383 0.203125 0.879238 0.203125 1.79024V12.2082C0.203125 13.1202 0.923125 13.9052 1.86713 13.9052H10.0921C11.0361 13.9052 11.7561 13.1202 11.7561 12.2082V1.84424C11.7561 1.38011 11.5718 0.93499 11.2436 0.606801C10.9154 0.278613 10.4703 0.0942383 10.0061 0.0942383H1.86713Z" fill="#8FBFFA"/>
<path fill-rule="evenodd" clip-rule="evenodd" d="M0.953125 10.2503H0.203125V12.2103C0.203125 13.1213 0.923125 13.9063 1.86713 13.9063H10.0921C11.0361 13.9063 11.7561 13.1213 11.7561 12.2093V10.2503H0.953125ZM2.82812 3.00732C2.66236 3.00732 2.50339 3.07317 2.38618 3.19038C2.26897 3.30759 2.20312 3.46656 2.20312 3.63232C2.20312 3.79808 2.26897 3.95706 2.38618 4.07427C2.50339 4.19148 2.66236 4.25732 2.82812 4.25732H5.32312C5.48889 4.25732 5.64786 4.19148 5.76507 4.07427C5.88228 3.95706 5.94812 3.79808 5.94812 3.63232C5.94812 3.46656 5.88228 3.30759 5.76507 3.19038C5.64786 3.07317 5.48889 3.00732 5.32312 3.00732H2.82812ZM2.82812 5.87532C2.66236 5.87532 2.50339 5.94117 2.38618 6.05838C2.26897 6.17559 2.20312 6.33456 2.20312 6.50032C2.20312 6.66608 2.26897 6.82506 2.38618 6.94227C2.50339 7.05948 2.66236 7.12532 2.82812 7.12532H4.07613C4.24189 7.12532 4.40086 7.05948 4.51807 6.94227C4.63528 6.82506 4.70113 6.66608 4.70113 6.50032C4.70113 6.33456 4.63528 6.17559 4.51807 6.05838C4.40086 5.94117 4.24189 5.87532 4.07613 5.87532H2.82812Z" fill="white"/>
<path d="M9.40298 7.39429C9.33077 7.46713 9.23791 7.51601 9.13698 7.53429L6.98898 7.92029C6.91022 7.93447 6.82921 7.92953 6.75275 7.9059C6.6763 7.88227 6.60663 7.84064 6.5496 7.78449C6.49258 7.72835 6.44986 7.65934 6.42504 7.58326C6.40023 7.50718 6.39403 7.42626 6.40698 7.34729L6.76598 5.16529C6.78288 5.06186 6.83186 4.96637 6.90598 4.89229L11.022 0.796287C11.1149 0.702558 11.2255 0.628164 11.3474 0.577395C11.4693 0.526627 11.6 0.500488 11.732 0.500488C11.864 0.500488 11.9947 0.526627 12.1166 0.577395C12.2384 0.628164 12.349 0.702558 12.442 0.796287L13.502 1.85629C13.5957 1.94925 13.6701 2.05985 13.7209 2.18171C13.7716 2.30357 13.7978 2.43427 13.7978 2.56629C13.7978 2.6983 13.7716 2.829 13.7209 2.95086C13.6701 3.07272 13.5957 3.18332 13.502 3.27629L9.40298 7.39429Z" fill="white"/>
</g>
<defs>
<clipPath id="clip0_796_1756">
<rect width="14" height="14" fill="white"/>
</clipPath>
</defs>
</svg>
