<svg width="14" height="14" viewBox="0 0 14 14" fill="none" xmlns="http://www.w3.org/2000/svg">
<g clip-path="url(#clip0_868_1647)">
<path fill-rule="evenodd" clip-rule="evenodd" d="M6.17703 2.79601C4.97091 2.74521 3.76285 2.76491 2.55903 2.85501C1.60003 2.92501 0.857031 3.70801 0.775031 4.66501C0.678031 5.80301 0.582031 6.97801 0.582031 8.18001C0.582031 9.38201 0.678031 10.557 0.775031 11.693C0.857031 12.651 1.60003 13.433 2.55903 13.504C4.13503 13.62 5.62503 13.62 7.20103 13.504C8.15903 13.434 8.90203 12.651 8.98503 11.694C9.08003 10.584 9.17303 9.43901 9.17803 8.26701C8.93142 8.17165 8.70616 8.02834 8.51528 7.84536C8.32441 7.66239 8.17172 7.44338 8.06603 7.20101H7.00003C6.66741 7.20085 6.34172 7.10591 6.06113 6.92729C5.78053 6.74868 5.55665 6.4938 5.41571 6.19251C5.27477 5.89122 5.22262 5.55601 5.26536 5.22615C5.3081 4.89628 5.44396 4.58543 5.65703 4.33001L5.70503 4.27301C6.00703 3.91201 6.17203 3.45701 6.17203 2.98601C6.17203 2.92334 6.1737 2.86001 6.17703 2.79601Z" fill="#8FBFFA"/>
<path fill-rule="evenodd" clip-rule="evenodd" d="M3.51367 11.0199C3.51367 10.821 3.59269 10.6302 3.73334 10.4896C3.87399 10.3489 4.06476 10.2699 4.26367 10.2699H5.49567C5.69458 10.2699 5.88535 10.3489 6.026 10.4896C6.16665 10.6302 6.24567 10.821 6.24567 11.0199C6.24567 11.2188 6.16665 11.4096 6.026 11.5502C5.88535 11.6909 5.69458 11.7699 5.49567 11.7699H4.26367C4.06476 11.7699 3.87399 11.6909 3.73334 11.5502C3.59269 11.4096 3.51367 11.2188 3.51367 11.0199ZM8.17667 1.1619C8.53721 0.801325 8.99658 0.555769 9.49669 0.456284C9.99679 0.356798 10.5152 0.407851 10.9863 0.602987C11.4573 0.798123 11.86 1.12858 12.1433 1.55255C12.4265 1.97653 12.5777 2.47499 12.5777 2.9849C12.5777 3.7479 12.8457 4.4869 13.3347 5.0729L13.3837 5.1309C13.4445 5.2039 13.4832 5.29271 13.4954 5.38694C13.5075 5.48117 13.4926 5.5769 13.4523 5.66294C13.412 5.74898 13.348 5.82176 13.2679 5.87276C13.1877 5.92376 13.0947 5.95086 12.9997 5.9509H10.6497V6.4009C10.6497 6.59981 10.5707 6.79057 10.43 6.93123C10.2893 7.07188 10.0986 7.1509 9.89967 7.1509C9.70076 7.1509 9.50999 7.07188 9.36934 6.93123C9.22869 6.79057 9.14967 6.59981 9.14967 6.4009V5.9509H6.99967C6.90466 5.95086 6.81163 5.92376 6.73147 5.87276C6.65131 5.82176 6.58734 5.74898 6.54705 5.66294C6.50676 5.5769 6.49181 5.48117 6.50397 5.38694C6.51612 5.29271 6.55487 5.2039 6.61567 5.1309L6.66467 5.0729C7.15362 4.48696 7.42151 3.74805 7.42167 2.9849C7.42167 2.3019 7.69367 1.6449 8.17667 1.1619Z" fill="white"/>
</g>
<defs>
<clipPath id="clip0_868_1647">
<rect width="14" height="14" fill="white"/>
</clipPath>
</defs>
</svg>
