<svg width="14" height="14" viewBox="0 0 14 14" fill="none" xmlns="http://www.w3.org/2000/svg">
<g clip-path="url(#clip0_796_1738)">
<path fill-rule="evenodd" clip-rule="evenodd" d="M1.573 1.573C1.59626 1.5498 1.62386 1.53141 1.65423 1.51888C1.68461 1.50636 1.71715 1.49994 1.75 1.5H3.25C3.44891 1.5 3.63968 1.42098 3.78033 1.28033C3.92098 1.13968 4 0.948912 4 0.75C4 0.551088 3.92098 0.360322 3.78033 0.21967C3.63968 0.0790176 3.44891 0 3.25 0L1.75 0C1.28587 0 0.840752 0.184374 0.512563 0.512563C0.184374 0.840752 0 1.28587 0 1.75L0 3.25C0 3.44891 0.0790176 3.63968 0.21967 3.78033C0.360322 3.92098 0.551088 4 0.75 4C0.948912 4 1.13968 3.92098 1.28033 3.78033C1.42098 3.63968 1.5 3.44891 1.5 3.25V1.75C1.49994 1.71715 1.50636 1.68461 1.51888 1.65423C1.53141 1.62386 1.5498 1.59626 1.573 1.573ZM14 10.75C14 10.5511 13.921 10.3603 13.7803 10.2197C13.6397 10.079 13.4489 10 13.25 10C13.0511 10 12.8603 10.079 12.7197 10.2197C12.579 10.3603 12.5 10.5511 12.5 10.75V12.25C12.5 12.3163 12.4737 12.3799 12.4268 12.4268C12.3799 12.4737 12.3163 12.5 12.25 12.5H10.75C10.5511 12.5 10.3603 12.579 10.2197 12.7197C10.079 12.8603 10 13.0511 10 13.25C10 13.4489 10.079 13.6397 10.2197 13.7803C10.3603 13.921 10.5511 14 10.75 14H12.25C12.7141 14 13.1592 13.8156 13.4874 13.4874C13.8156 13.1592 14 12.7141 14 12.25V10.75ZM0.75 10C0.948912 10 1.13968 10.079 1.28033 10.2197C1.42098 10.3603 1.5 10.5511 1.5 10.75V12.25C1.5 12.3163 1.52634 12.3799 1.57322 12.4268C1.62011 12.4737 1.6837 12.5 1.75 12.5H3.25C3.44891 12.5 3.63968 12.579 3.78033 12.7197C3.92098 12.8603 4 13.0511 4 13.25C4 13.4489 3.92098 13.6397 3.78033 13.7803C3.63968 13.921 3.44891 14 3.25 14H1.75C1.28587 14 0.840752 13.8156 0.512563 13.4874C0.184374 13.1592 0 12.7141 0 12.25L0 10.75C0 10.5511 0.0790176 10.3603 0.21967 10.2197C0.360322 10.079 0.551088 10 0.75 10ZM10.75 0C10.5511 0 10.3603 0.0790176 10.2197 0.21967C10.079 0.360322 10 0.551088 10 0.75C10 0.948912 10.079 1.13968 10.2197 1.28033C10.3603 1.42098 10.5511 1.5 10.75 1.5H12.25C12.3163 1.5 12.3799 1.52634 12.4268 1.57322C12.4737 1.62011 12.5 1.6837 12.5 1.75V3.25C12.5 3.44891 12.579 3.63968 12.7197 3.78033C12.8603 3.92098 13.0511 4 13.25 4C13.4489 4 13.6397 3.92098 13.7803 3.78033C13.921 3.63968 14 3.44891 14 3.25V1.75C14 1.28587 13.8156 0.840752 13.4874 0.512563C13.1592 0.184374 12.7141 0 12.25 0H10.75Z" fill="#8FBFFA"/>
<path fill-rule="evenodd" clip-rule="evenodd" d="M5 4.5C5 4.76522 4.89464 5.01957 4.70711 5.20711C4.51957 5.39464 4.26522 5.5 4 5.5C3.73478 5.5 3.48043 5.39464 3.29289 5.20711C3.10536 5.01957 3 4.76522 3 4.5C3 4.23478 3.10536 3.98043 3.29289 3.79289C3.48043 3.60536 3.73478 3.5 4 3.5C4.26522 3.5 4.51957 3.60536 4.70711 3.79289C4.89464 3.98043 5 4.23478 5 4.5ZM7.75 4.5C7.75 4.30109 7.67098 4.11032 7.53033 3.96967C7.38968 3.82902 7.19891 3.75 7 3.75C6.80109 3.75 6.61032 3.82902 6.46967 3.96967C6.32902 4.11032 6.25 4.30109 6.25 4.5V7.25H5.5C5.30109 7.25 5.11032 7.32902 4.96967 7.46967C4.82902 7.61032 4.75 7.80109 4.75 8C4.75 8.19891 4.82902 8.38968 4.96967 8.53033C5.11032 8.67098 5.30109 8.75 5.5 8.75H7C7.19891 8.75 7.38968 8.67098 7.53033 8.53033C7.67098 8.38968 7.75 8.19891 7.75 8V4.5ZM5.017 9.456C4.87272 9.31888 4.67988 9.2447 4.48091 9.24976C4.28193 9.25482 4.09312 9.33872 3.956 9.483C3.81888 9.62728 3.7447 9.82012 3.74976 10.0191C3.75482 10.2181 3.83872 10.4069 3.983 10.544C4.79705 11.3175 5.87708 11.7488 7 11.7488C8.12292 11.7488 9.20295 11.3175 10.017 10.544C10.1613 10.4069 10.2452 10.2181 10.2502 10.0191C10.2553 9.82012 10.1811 9.62728 10.044 9.483C9.90688 9.33872 9.71807 9.25482 9.51909 9.24976C9.32012 9.2447 9.12728 9.31888 8.983 9.456C8.44781 9.96413 7.73799 10.2474 7 10.2474C6.26201 10.2474 5.55219 9.96413 5.017 9.456ZM10 5.5C10.2652 5.5 10.5196 5.39464 10.7071 5.20711C10.8946 5.01957 11 4.76522 11 4.5C11 4.23478 10.8946 3.98043 10.7071 3.79289C10.5196 3.60536 10.2652 3.5 10 3.5C9.73478 3.5 9.48043 3.60536 9.29289 3.79289C9.10536 3.98043 9 4.23478 9 4.5C9 4.76522 9.10536 5.01957 9.29289 5.20711C9.48043 5.39464 9.73478 5.5 10 5.5Z" fill="white"/>
</g>
<defs>
<clipPath id="clip0_796_1738">
<rect width="14" height="14" fill="white"/>
</clipPath>
</defs>
</svg>
