<svg width="14" height="14" viewBox="0 0 14 14" fill="none" xmlns="http://www.w3.org/2000/svg">
<g clip-path="url(#clip0_796_1727)">
<path fill-rule="evenodd" clip-rule="evenodd" d="M7 2.75C7.19891 2.75 7.38968 2.82902 7.53033 2.96967C7.67098 3.11032 7.75 3.30109 7.75 3.5V7.075L9.886 8.357C9.97148 8.40717 10.0462 8.47379 10.1057 8.553C10.1653 8.63221 10.2086 8.72244 10.2331 8.81849C10.2576 8.91453 10.2628 9.01447 10.2484 9.11254C10.2341 9.21061 10.2004 9.30486 10.1494 9.38984C10.0984 9.47482 10.031 9.54884 9.95123 9.60763C9.87143 9.66642 9.78077 9.70881 9.68449 9.73236C9.58821 9.7559 9.48822 9.76012 9.3903 9.74478C9.29238 9.72945 9.19847 9.69485 9.114 9.643L6.614 8.143C6.50298 8.07636 6.41111 7.98211 6.34732 7.86943C6.28354 7.75676 6.25001 7.62948 6.25 7.5V3.5C6.25 3.30109 6.32902 3.11032 6.46967 2.96967C6.61032 2.82902 6.80109 2.75 7 2.75Z" fill="white"/>
<path fill-rule="evenodd" clip-rule="evenodd" d="M1.50054 7.00017C1.50035 5.85695 1.8564 4.74207 2.51919 3.81058C3.18199 2.87909 4.11857 2.17728 5.19871 1.80275C6.27885 1.42822 7.44885 1.39959 8.54602 1.72083C9.64318 2.04207 10.613 2.69722 11.3205 3.59517L10.3545 4.56017C10.2845 4.63004 10.2368 4.71912 10.2174 4.81614C10.198 4.91315 10.2078 5.01374 10.2456 5.10518C10.2834 5.19661 10.3474 5.27477 10.4297 5.32978C10.5119 5.38478 10.6086 5.41415 10.7075 5.41417H13.5005C13.6332 5.41417 13.7603 5.3615 13.8541 5.26773C13.9479 5.17396 14.0005 5.04678 14.0005 4.91417V2.12017C14.0007 2.02115 13.9715 1.92431 13.9166 1.84192C13.8616 1.75953 13.7835 1.69531 13.692 1.65739C13.6005 1.61947 13.4999 1.60957 13.4028 1.62894C13.3056 1.6483 13.2165 1.69607 13.1465 1.76617L12.3865 2.52717C11.3786 1.31383 9.99049 0.476454 8.44711 0.150808C6.90373 -0.174838 5.2956 0.030331 3.88342 0.733055C2.47124 1.43578 1.33779 2.59486 0.666828 4.02241C-0.0041374 5.44995 -0.17329 7.06227 0.186793 8.59798C0.546875 10.1337 1.41508 11.5028 2.65067 12.4833C3.88626 13.4638 5.41679 13.9982 6.99415 14C8.57151 14.0018 10.1032 13.4707 11.341 12.493C12.5788 11.5152 13.45 10.1481 13.8135 8.61317C13.858 8.42 13.8241 8.21709 13.7194 8.0488C13.6147 7.88051 13.4476 7.76052 13.2546 7.71506C13.0617 7.6696 12.8586 7.70237 12.6898 7.8062C12.5209 7.91003 12.4 8.07648 12.3535 8.26917C12.0437 9.58222 11.2621 10.7356 10.1574 11.5099C9.0526 12.2843 7.70177 12.6256 6.3618 12.4689C5.02182 12.3122 3.78617 11.6685 2.88986 10.6602C1.99354 9.65186 1.49909 8.34928 1.50054 7.00017Z" fill="#8FBFFA"/>
</g>
<defs>
<clipPath id="clip0_796_1727">
<rect width="14" height="14" fill="white"/>
</clipPath>
</defs>
</svg>
