<svg width="14" height="13" viewBox="0 0 14 13" fill="none" xmlns="http://www.w3.org/2000/svg">
<path d="M0 1C0 0.734784 0.105357 0.48043 0.292893 0.292893C0.48043 0.105357 0.734784 0 1 0H9.71C9.97522 0 10.2296 0.105357 10.4171 0.292893C10.6046 0.48043 10.71 0.734784 10.71 1V7.788C10.71 8.05322 10.6046 8.30757 10.4171 8.49511C10.2296 8.68264 9.97522 8.788 9.71 8.788H1C0.734784 8.788 0.48043 8.68264 0.292893 8.49511C0.105357 8.30757 0 8.05322 0 7.788V1Z" fill="#8FBFFA"/>
<path d="M3.22656 4.36377C3.22656 4.09855 3.33192 3.8442 3.51946 3.65666C3.70699 3.46913 3.96135 3.36377 4.22656 3.36377H12.9366C13.2018 3.36377 13.4561 3.46913 13.6437 3.65666C13.8312 3.8442 13.9366 4.09855 13.9366 4.36377V11.1518C13.9366 11.417 13.8312 11.6713 13.6437 11.8589C13.4561 12.0464 13.2018 12.1518 12.9366 12.1518H4.22656C3.96135 12.1518 3.70699 12.0464 3.51946 11.8589C3.33192 11.6713 3.22656 11.417 3.22656 11.1518V4.36377Z" fill="white"/>
<path d="M6.90039 5.95603C6.90057 5.86687 6.92459 5.77937 6.96996 5.70261C7.01533 5.62585 7.08041 5.56262 7.15844 5.51947C7.23648 5.47632 7.32463 5.45483 7.41376 5.45721C7.5029 5.4596 7.58978 5.48577 7.66539 5.53303L10.5474 7.33403C10.6193 7.37898 10.6786 7.44148 10.7197 7.51565C10.7608 7.58982 10.7824 7.67323 10.7824 7.75803C10.7824 7.84284 10.7608 7.92625 10.7197 8.00042C10.6786 8.07459 10.6193 8.13709 10.5474 8.18203L7.66539 9.98303C7.5897 10.0303 7.50274 10.0565 7.41351 10.0589C7.32429 10.0612 7.23607 10.0396 7.15801 9.99636C7.07994 9.95309 7.01488 9.88971 6.96958 9.81281C6.92428 9.73591 6.90039 9.64829 6.90039 9.55903V5.95603Z" fill="#8FBFFA"/>
</svg>
