<svg width="13" height="19" viewBox="0 0 13 19" fill="none" xmlns="http://www.w3.org/2000/svg">
<circle cx="6.5" cy="6.5" r="5.5" fill="white"/>
<path d="M4 12H9V17L6.5 16L4 17V12Z" fill="white"/>
<path d="M9.04456 17.5274L8.69172 18.0567C8.78752 18.1206 8.89885 18.1572 9.01385 18.1628C9.12886 18.1683 9.24321 18.1426 9.34472 18.0883C9.44623 18.0339 9.5311 17.9531 9.59027 17.8543C9.64944 17.7555 9.6807 17.6426 9.6807 17.5274H9.04456ZM6.5 15.8311L6.85285 15.3018C6.74835 15.2321 6.62558 15.195 6.5 15.195C6.37442 15.195 6.25165 15.2321 6.14715 15.3018L6.5 15.8311ZM3.95544 17.5274H3.3193C3.31931 17.6426 3.35056 17.7555 3.40973 17.8543C3.4689 17.9531 3.55377 18.0339 3.65528 18.0883C3.75679 18.1426 3.87114 18.1683 3.98615 18.1628C4.10115 18.1572 4.21248 18.1206 4.30828 18.0567L3.95544 17.5274ZM9.39741 16.9982L6.85285 15.3018L6.14715 16.3603L8.69172 18.0567L9.39741 16.9982ZM6.14715 15.3018L3.60259 16.9982L4.30828 18.0567L6.85285 16.3603L6.14715 15.3018ZM7.30747 1.64597L7.3431 1.68838L8.31258 0.863943L8.2761 0.821533L7.30747 1.64597ZM9.30665 2.50179L9.36178 2.4967L9.26 1.22866L9.20487 1.23375L9.30665 2.50179ZM10.5043 3.63836L10.4992 3.69434L11.7672 3.79613L11.7723 3.74099L10.5043 3.63836ZM11.3126 5.65705L11.355 5.69352L12.1795 4.72489L12.1371 4.68842L11.3126 5.65705ZM11.355 7.30847L11.3126 7.3441L12.1371 8.31357L12.1795 8.2771L11.355 7.30847ZM10.4992 9.30765L10.5043 9.36278L11.7723 9.261L11.7672 9.20587L10.4992 9.30765ZM9.36263 10.5053L9.30665 10.5002L9.20487 11.7682L9.26 11.7733L9.36263 10.5053ZM7.34395 11.3136L7.30747 11.356L8.2761 12.1805L8.31258 12.1381L7.34395 11.3136ZM5.69253 11.356L5.65605 11.3136L4.68742 12.1381L4.7239 12.1805L5.69253 11.356ZM3.69335 10.5002L3.63822 10.5044L3.74 11.7733L3.79513 11.7691L3.69335 10.5002ZM2.49571 9.36363L2.5008 9.30765L1.23276 9.20587L1.22767 9.261L2.49571 9.36363ZM1.68738 7.34494L1.64497 7.30847L0.820536 8.2771L0.862946 8.31357L1.68738 7.34494ZM1.64497 5.69352L1.68738 5.65705L0.862946 4.68842L0.820536 4.72489L1.64497 5.69352ZM2.5008 3.69434L2.49571 3.63921L1.22767 3.74099L1.23276 3.79613L2.5008 3.69434ZM3.63737 2.4967L3.69335 2.50179L3.79513 1.23375L3.74 1.22866L3.63737 2.4967ZM5.65605 1.68838L5.69253 1.64597L4.7239 0.821533L4.68742 0.863943L5.65605 1.68838ZM3.69335 2.50179C4.06174 2.53133 4.43188 2.47291 4.77327 2.33134C5.11466 2.18977 5.41752 1.96911 5.6569 1.68753L4.68742 0.863943C4.57861 0.991843 4.44097 1.09207 4.28584 1.15636C4.1307 1.22065 3.96252 1.24718 3.79513 1.23375L3.69335 2.50179ZM2.49571 3.63921C2.48354 3.48616 2.50475 3.33144 2.55789 3.18739C2.61103 3.04334 2.69482 2.91255 2.80346 2.80407C2.91211 2.69558 3.04302 2.61199 3.18715 2.55907C3.33128 2.50614 3.48518 2.48515 3.63822 2.49755L3.74 1.22951C3.40319 1.20237 3.0645 1.24873 2.74737 1.36539C2.43024 1.48205 2.14224 1.66622 1.90331 1.90515C1.66437 2.14409 1.4802 2.43208 1.36355 2.74921C1.24689 3.06634 1.20053 3.40503 1.22767 3.74184L2.49571 3.63921ZM1.68738 5.65705C1.96869 5.41767 2.18911 5.11491 2.33053 4.77369C2.47194 4.43246 2.5303 4.06253 2.5008 3.69434L1.23276 3.79613C1.2599 4.1354 1.12249 4.46789 0.862946 4.68842L1.68738 5.65705ZM1.64497 7.30847C1.528 7.20894 1.43405 7.08518 1.36962 6.94576C1.30519 6.80634 1.27182 6.65459 1.27182 6.501C1.27182 6.34741 1.30519 6.19565 1.36962 6.05623C1.43405 5.91681 1.528 5.79306 1.64497 5.69352L0.820536 4.72489C0.563313 4.94386 0.356721 5.21609 0.215047 5.52276C0.0733741 5.82942 0 6.16319 0 6.501C0 6.8388 0.0733741 7.17258 0.215047 7.47924C0.356721 7.7859 0.563313 8.05813 0.820536 8.2771L1.64497 7.30847ZM2.5008 9.30765C2.53034 8.93925 2.47192 8.56911 2.33035 8.22772C2.18878 7.88634 1.96811 7.58347 1.68654 7.3441L0.862946 8.31357C1.12249 8.5341 1.2599 8.86659 1.23276 9.20587L2.5008 9.30765ZM3.63737 10.5053C3.48425 10.5176 3.33028 10.4965 3.18613 10.4434C3.04197 10.3903 2.91108 10.3065 2.8025 10.1979C2.69392 10.0892 2.61024 9.95826 2.55727 9.81407C2.5043 9.66987 2.48329 9.51589 2.49571 9.36278L1.22767 9.261C1.20053 9.59781 1.24689 9.9365 1.36355 10.2536C1.4802 10.5708 1.66437 10.8588 1.90331 11.0977C2.14224 11.3366 2.43024 11.5208 2.74737 11.6375C3.0645 11.7541 3.40319 11.8005 3.74 11.7733L3.63737 10.5053ZM7.30747 11.356C7.20794 11.473 7.08418 11.5669 6.94476 11.6314C6.80534 11.6958 6.65359 11.7292 6.5 11.7292C6.34641 11.7292 6.19466 11.6958 6.05524 11.6314C5.91582 11.5669 5.79206 11.473 5.69253 11.356L4.7239 12.1805C4.94287 12.4377 5.2151 12.6443 5.52176 12.786C5.82842 12.9276 6.16219 13.001 6.5 13.001C6.83781 13.001 7.17158 12.9276 7.47824 12.786C7.7849 12.6443 8.05713 12.4377 8.2761 12.1805L7.30747 11.356ZM10.5043 9.36278C10.5166 9.5159 10.4955 9.66987 10.4424 9.81402C10.3893 9.95817 10.3055 10.0891 10.1969 10.1977C10.0882 10.3062 9.95726 10.3899 9.81307 10.4429C9.66888 10.4959 9.5149 10.5169 9.36178 10.5044L9.26 11.7733C9.59682 11.8005 9.9355 11.7541 10.2526 11.6375C10.5698 11.5208 10.8578 11.3366 11.0967 11.0977C11.3356 10.8588 11.5198 10.5708 11.6365 10.2536C11.7531 9.9365 11.7995 9.59781 11.7723 9.261L10.5043 9.36278ZM11.3126 7.3441C11.0312 7.58356 10.8107 7.88646 10.6693 8.22784C10.5279 8.56923 10.4696 8.93932 10.4992 9.30765L11.7672 9.20587C11.7401 8.86659 11.8775 8.5341 12.1371 8.31357L11.3126 7.3441ZM11.355 5.69352C11.472 5.79306 11.5659 5.91681 11.6304 6.05623C11.6948 6.19565 11.7282 6.34741 11.7282 6.501C11.7282 6.65459 11.6948 6.80634 11.6304 6.94576C11.5659 7.08518 11.472 7.20894 11.355 7.30847L12.1795 8.2771C12.4367 8.05813 12.6433 7.7859 12.785 7.47924C12.9266 7.17258 13 6.8388 13 6.501C13 6.16319 12.9266 5.82942 12.785 5.52276C12.6433 5.21609 12.4367 4.94386 12.1795 4.72489L11.355 5.69352ZM10.4992 3.69434C10.4697 4.06274 10.5281 4.43288 10.6697 4.77427C10.8112 5.11566 11.0319 5.41852 11.3135 5.6579L12.1371 4.68842C12.0092 4.5796 11.9089 4.44196 11.8446 4.28683C11.7803 4.1317 11.7538 3.96352 11.7672 3.79613L10.4992 3.69434ZM9.36263 2.4967C9.51575 2.4844 9.66972 2.50552 9.81387 2.5586C9.95803 2.61168 10.0889 2.69545 10.1975 2.80411C10.3061 2.91278 10.3898 3.04374 10.4427 3.18793C10.4957 3.33212 10.5167 3.48525 10.5043 3.63836L11.7723 3.74099C11.7995 3.40418 11.7531 3.06549 11.6365 2.74836C11.5198 2.43124 11.3356 2.14324 11.0967 1.9043C10.8578 1.66537 10.5698 1.4812 10.2526 1.36454C9.9355 1.24788 9.59682 1.20152 9.26 1.22866L9.36263 2.4967ZM7.3431 1.68838C7.58248 1.96968 7.88609 2.19011 8.22731 2.33153C8.56854 2.47294 8.93847 2.5313 9.30665 2.50179L9.20487 1.23375C9.03748 1.24718 8.8693 1.22065 8.71417 1.15636C8.55903 1.09207 8.42139 0.991843 8.31258 0.863943L7.3431 1.68838ZM8.27695 0.821533C8.05798 0.564019 7.78566 0.357174 7.47884 0.215322C7.17201 0.0734697 6.83803 0 6.5 0C6.16197 0 5.82799 0.0734697 5.52116 0.215322C5.21434 0.357174 4.94202 0.564019 4.72305 0.821533L5.69253 1.64597C5.79206 1.529 5.91582 1.43505 6.05524 1.37062C6.19466 1.30619 6.34641 1.27282 6.5 1.27282C6.65359 1.27282 6.80534 1.30619 6.94476 1.37062C7.08418 1.43505 7.20794 1.529 7.30747 1.64597L8.27695 0.821533ZM5.65605 11.3136C5.44841 11.0696 5.19274 10.871 4.90496 10.7302C4.61719 10.5894 4.30349 10.5094 3.98343 10.4951L3.92745 11.7665C4.21922 11.7793 4.49573 11.9124 4.68742 12.1381L5.65605 11.3136ZM3.98343 10.4951C3.88672 10.4913 3.78987 10.493 3.69335 10.5002L3.79513 11.7682C3.83924 11.7648 3.88334 11.7643 3.92745 11.7665L3.98343 10.4951ZM4.59158 17.5274V11.1304H3.3193V17.5274H4.59158ZM9.3075 10.5002C9.2107 10.493 9.11357 10.4913 9.01657 10.4951L9.07255 11.7665C9.11666 11.7643 9.16076 11.7648 9.20487 11.7682L9.3075 10.5002ZM9.01657 10.4951C8.69636 10.5092 8.3825 10.5892 8.09457 10.73C7.80665 10.8709 7.55168 11.0695 7.34395 11.3136L8.31258 12.1381C8.40697 12.0273 8.52316 11.9371 8.65391 11.8732C8.78466 11.8093 8.92716 11.773 9.07255 11.7665L9.01657 10.4951ZM8.40842 11.1313V17.5274H9.6807V11.1304L8.40842 11.1313Z" fill="#8FBFFA"/>
<path d="M8.19744 5.65283L5.65288 8.19739L4.80469 7.34921" stroke="#4147D5" stroke-width="1.5" stroke-linecap="round" stroke-linejoin="round"/>
</svg>
