<svg width="294" height="6" viewBox="0 0 294 6" fill="none" xmlns="http://www.w3.org/2000/svg">
<path d="M0.333333 3C0.333333 4.47276 1.52724 5.66667 3 5.66667C4.47276 5.66667 5.66667 4.47276 5.66667 3C5.66667 1.52724 4.47276 0.333333 3 0.333333C1.52724 0.333333 0.333333 1.52724 0.333333 3ZM288.333 3C288.333 4.47276 289.527 5.66667 291 5.66667C292.473 5.66667 293.667 4.47276 293.667 3C293.667 1.52724 292.473 0.333333 291 0.333333C289.527 0.333333 288.333 1.52724 288.333 3ZM3 3V3.5H7V3V2.5H3V3ZM15 3V3.5H23V3V2.5H15V3ZM31 3V3.5H39V3V2.5H31V3ZM47 3V3.5H55V3V2.5H47V3ZM63 3V3.5H71V3V2.5H63V3ZM79 3V3.5H87V3V2.5H79V3ZM95 3V3.5H103V3V2.5H95V3ZM111 3V3.5H119V3V2.5H111V3ZM127 3V3.5H135V3V2.5H127V3ZM143 3V3.5H151V3V2.5H143V3ZM159 3V3.5H167V3V2.5H159V3ZM175 3V3.5H183V3V2.5H175V3ZM191 3V3.5H199V3V2.5H191V3ZM207 3V3.5H215V3V2.5H207V3ZM223 3V3.5H231V3V2.5H223V3ZM239 3V3.5H247V3V2.5H239V3ZM255 3V3.5H263V3V2.5H255V3ZM271 3V3.5H279V3V2.5H271V3ZM287 3V3.5H291V3V2.5H287V3Z" fill="#615959"/>
</svg>
