<svg width="15" height="14" viewBox="0 0 15 14" fill="none" xmlns="http://www.w3.org/2000/svg">
<path fill-rule="evenodd" clip-rule="evenodd" d="M1 12.5V1.5C1 1.23478 1.10536 0.98043 1.29289 0.792893C1.48043 0.605357 1.73478 0.5 2 0.5H13C13.2652 0.5 13.5196 0.605357 13.7071 0.792893C13.8946 0.98043 14 1.23478 14 1.5V12.5C14 12.7652 13.8946 13.0196 13.7071 13.2071C13.5196 13.3946 13.2652 13.5 13 13.5H2C1.73478 13.5 1.48043 13.3946 1.29289 13.2071C1.10536 13.0196 1 12.7652 1 12.5ZM5 6C5.39782 6 5.77936 5.84196 6.06066 5.56066C6.34196 5.27936 6.5 4.89782 6.5 4.5C6.5 4.10218 6.34196 3.72064 6.06066 3.43934C5.77936 3.15804 5.39782 3 5 3C4.60218 3 4.22064 3.15804 3.93934 3.43934C3.65804 3.72064 3.5 4.10218 3.5 4.5C3.5 4.89782 3.65804 5.27936 3.93934 5.56066C4.22064 5.84196 4.60218 6 5 6ZM10 9C10.3978 9 10.7794 8.84196 11.0607 8.56066C11.342 8.27936 11.5 7.89782 11.5 7.5C11.5 7.10218 11.342 6.72064 11.0607 6.43934C10.7794 6.15804 10.3978 6 10 6C9.60218 6 9.22064 6.15804 8.93934 6.43934C8.65804 6.72064 8.5 7.10218 8.5 7.5C8.5 7.89782 8.65804 8.27936 8.93934 8.56066C9.22064 8.84196 9.60218 9 10 9Z" fill="#D7E0FF"/>
<path d="M5 11V6M10 3V6M10 9V11M1 1.5V12.5C1 12.7652 1.10536 13.0196 1.29289 13.2071C1.48043 13.3946 1.73478 13.5 2 13.5H13C13.2652 13.5 13.5196 13.3946 13.7071 13.2071C13.8946 13.0196 14 12.7652 14 12.5V1.5C14 1.23478 13.8946 0.98043 13.7071 0.792893C13.5196 0.605357 13.2652 0.5 13 0.5H2C1.73478 0.5 1.48043 0.605357 1.29289 0.792893C1.10536 0.98043 1 1.23478 1 1.5Z" stroke="#4147D5" stroke-linecap="round" stroke-linejoin="round"/>
<path d="M5 6C5.39782 6 5.77936 5.84196 6.06066 5.56066C6.34196 5.27936 6.5 4.89782 6.5 4.5C6.5 4.10218 6.34196 3.72064 6.06066 3.43934C5.77936 3.15804 5.39782 3 5 3C4.60218 3 4.22064 3.15804 3.93934 3.43934C3.65804 3.72064 3.5 4.10218 3.5 4.5C3.5 4.89782 3.65804 5.27936 3.93934 5.56066C4.22064 5.84196 4.60218 6 5 6ZM10 9C10.3978 9 10.7794 8.84196 11.0607 8.56066C11.342 8.27936 11.5 7.89782 11.5 7.5C11.5 7.10218 11.342 6.72064 11.0607 6.43934C10.7794 6.15804 10.3978 6 10 6C9.60218 6 9.22064 6.15804 8.93934 6.43934C8.65804 6.72064 8.5 7.10218 8.5 7.5C8.5 7.89782 8.65804 8.27936 8.93934 8.56066C9.22064 8.84196 9.60218 9 10 9Z" fill="white"/>
<path d="M5 6C5.39782 6 5.77936 5.84196 6.06066 5.56066C6.34196 5.27936 6.5 4.89782 6.5 4.5C6.5 4.10218 6.34196 3.72064 6.06066 3.43934C5.77936 3.15804 5.39782 3 5 3C4.60218 3 4.22064 3.15804 3.93934 3.43934C3.65804 3.72064 3.5 4.10218 3.5 4.5C3.5 4.89782 3.65804 5.27936 3.93934 5.56066C4.22064 5.84196 4.60218 6 5 6ZM10 9C10.3978 9 10.7794 8.84196 11.0607 8.56066C11.342 8.27936 11.5 7.89782 11.5 7.5C11.5 7.10218 11.342 6.72064 11.0607 6.43934C10.7794 6.15804 10.3978 6 10 6C9.60218 6 9.22064 6.15804 8.93934 6.43934C8.65804 6.72064 8.5 7.10218 8.5 7.5C8.5 7.89782 8.65804 8.27936 8.93934 8.56066C9.22064 8.84196 9.60218 9 10 9Z" stroke="#4147D5" stroke-linecap="round" stroke-linejoin="round"/>
</svg>
