<svg width="15" height="14" viewBox="0 0 15 14" fill="none" xmlns="http://www.w3.org/2000/svg">
<g clip-path="url(#clip0_740_634)">
<path d="M0.5 1.5C0.5 1.10218 0.658035 0.720644 0.93934 0.43934C1.22064 0.158035 1.60218 0 2 0L13 0C13.3978 0 13.7794 0.158035 14.0607 0.43934C14.342 0.720644 14.5 1.10218 14.5 1.5V12.5C14.5 12.8978 14.342 13.2794 14.0607 13.5607C13.7794 13.842 13.3978 14 13 14H2C1.60218 14 1.22064 13.842 0.93934 13.5607C0.658035 13.2794 0.5 12.8978 0.5 12.5L0.5 1.5Z" fill="white"/>
<path fill-rule="evenodd" clip-rule="evenodd" d="M4.375 11V5.885C3.99297 5.73893 3.67418 5.46366 3.47398 5.107C3.27378 4.75035 3.20483 4.33483 3.2791 3.93263C3.35337 3.53043 3.56617 3.16694 3.88054 2.90531C4.19492 2.64367 4.591 2.50041 5 2.50041C5.40901 2.50041 5.80509 2.64367 6.11946 2.90531C6.43384 3.16694 6.64664 3.53043 6.72091 3.93263C6.79518 4.33483 6.72623 4.75035 6.52603 5.107C6.32583 5.46366 6.00703 5.73893 5.625 5.885V11C5.625 11.1658 5.55916 11.3247 5.44194 11.4419C5.32473 11.5592 5.16576 11.625 5 11.625C4.83424 11.625 4.67527 11.5592 4.55806 11.4419C4.44085 11.3247 4.375 11.1658 4.375 11ZM10.625 9.385C10.9562 9.25861 11.2412 9.0346 11.4423 8.74263C11.6434 8.45067 11.7511 8.10451 11.7511 7.75C11.7511 7.39549 11.6434 7.04933 11.4423 6.75737C11.2412 6.4654 10.9562 6.24139 10.625 6.115V3C10.625 2.83424 10.5592 2.67527 10.4419 2.55806C10.3247 2.44085 10.1658 2.375 10 2.375C9.83424 2.375 9.67527 2.44085 9.55806 2.55806C9.44085 2.67527 9.375 2.83424 9.375 3V6.115C9.04379 6.24139 8.75877 6.4654 8.55768 6.75737C8.35659 7.04933 8.24892 7.39549 8.24892 7.75C8.24892 8.10451 8.35659 8.45067 8.55768 8.74263C8.75877 9.0346 9.04379 9.25861 9.375 9.385V11C9.375 11.0821 9.39117 11.1633 9.42258 11.2392C9.45399 11.315 9.50002 11.3839 9.55806 11.4419C9.6161 11.5 9.685 11.546 9.76083 11.5774C9.83666 11.6088 9.91793 11.625 10 11.625C10.0821 11.625 10.1634 11.6088 10.2392 11.5774C10.315 11.546 10.3839 11.5 10.4419 11.4419C10.5 11.3839 10.546 11.315 10.5774 11.2392C10.6088 11.1633 10.625 11.0821 10.625 11V9.385Z" fill="#8FBFFA"/>
</g>
<defs>
<clipPath id="clip0_740_634">
<rect width="14" height="14" fill="white" transform="translate(0.5)"/>
</clipPath>
</defs>
</svg>
