<svg width="128" height="127" viewBox="0 0 128 127" fill="none" xmlns="http://www.w3.org/2000/svg">
<path d="M87.6279 127C85.206 127 83.1977 124.992 83.1977 122.57V114.914C78.9092 115.133 74.03 115.174 68.4302 115.186V122.57C68.4302 124.992 66.4219 127 64 127C61.5781 127 59.5698 124.992 59.5698 122.57V115.186C54.6458 115.209 49.722 115.119 44.8023 114.914V122.57C44.8023 124.992 42.794 127 40.3721 127C37.9502 127 35.9419 124.992 35.9419 122.57V114.064C29.3438 113.012 24.5119 110.963 20.5247 106.975C16.5374 102.988 14.4877 98.1621 13.4304 91.5581H4.93023C2.50837 91.5581 0.5 89.5498 0.5 87.1279C0.5 84.706 2.50837 82.6977 4.93023 82.6977H12.5798C12.3772 77.7779 12.2886 72.8541 12.314 67.9302H4.93023C2.50837 67.9302 0.5 65.9219 0.5 63.5C0.5 61.0781 2.50837 59.0698 4.93023 59.0698H12.314C12.3258 53.464 12.373 48.5908 12.5798 44.3023H4.93023C2.50837 44.3023 0.5 42.294 0.5 39.8721C0.5 37.4502 2.50837 35.4419 4.93023 35.4419H13.4304C14.4877 28.8379 16.5374 24.0119 20.5247 20.0247C24.5119 16.0374 29.3438 13.9877 35.9419 12.9363V4.43023C35.9419 2.00837 37.9502 0 40.3721 0C42.794 0 44.8023 2.00837 44.8023 4.43023V12.0857C49.722 11.8811 54.6458 11.7905 59.5698 11.814V4.43023C59.5698 2.00837 61.5781 0 64 0C66.4219 0 68.4302 2.00837 68.4302 4.43023V11.814C74.03 11.8258 78.9092 11.873 83.1977 12.0857V4.43023C83.1977 2.00837 85.206 0 87.6279 0C90.0498 0 92.0581 2.00837 92.0581 4.43023V12.9363C98.6562 13.9877 103.488 16.0374 107.475 20.0247C111.463 24.0119 113.518 28.8379 114.57 35.4419H123.07C125.492 35.4419 127.5 37.4502 127.5 39.8721C127.5 42.294 125.492 44.3023 123.07 44.3023H115.42C115.633 48.5908 115.674 53.464 115.686 59.0698H123.07C125.492 59.0698 127.5 61.0781 127.5 63.5C127.5 65.9219 125.492 67.9302 123.07 67.9302H115.686C115.711 72.8541 115.623 77.7779 115.42 82.6977H123.07C125.492 82.6977 127.5 84.706 127.5 87.1279C127.5 89.5498 125.492 91.5581 123.07 91.5581H114.57C113.518 98.1621 111.463 102.988 107.475 106.975C103.488 110.963 98.6562 113.012 92.0581 114.064V122.57C92.0581 124.992 90.0498 127 87.6279 127ZM64 106.326C85.0288 106.326 95.6023 106.326 101.214 100.714C106.826 95.1023 106.826 84.5288 106.826 63.5C106.826 42.4712 106.826 31.8977 101.214 26.286C95.6023 20.6744 85.0288 20.6744 64 20.6744C42.9712 20.6744 32.3977 20.6744 26.786 26.286C21.1744 31.8977 21.1744 42.4712 21.1744 63.5C21.1744 84.5288 21.1744 95.1023 26.786 100.714C32.3977 106.326 42.9712 106.326 64 106.326ZM56.8053 89.4907C57.9276 92.5623 60.763 94.5116 64.0118 94.5116C67.2607 94.5116 70.096 92.5623 71.2183 89.4907L75.9439 76.7316C76.1211 76.1409 76.5937 75.7274 77.1844 75.4912L89.9434 70.7656C93.0151 69.6432 94.9644 66.8079 94.9644 63.5591C94.9644 60.3102 93.0151 57.4749 89.9434 56.3526L77.1844 51.627C76.8972 51.5275 76.6364 51.3642 76.4215 51.1493C76.2067 50.9345 76.0434 50.6736 75.9439 50.3865L71.2183 37.6274C70.096 34.5558 67.2607 32.6065 64.0118 32.6065C60.763 32.6065 57.9276 34.5558 56.8053 37.6274L52.0797 50.3865C51.9025 50.9772 51.43 51.3907 50.8393 51.627L38.0802 56.3526C35.0086 57.4749 33.0593 60.3102 33.0593 63.5591C33.0593 66.8079 35.0086 69.6432 38.0802 70.7656L50.8393 75.4912C51.43 75.6684 51.8434 76.1409 52.0797 76.7316L56.8053 89.4907ZM53.9109 67.1623L44.0462 63.5L53.9109 59.8377C56.9234 58.7153 59.2862 56.3526 60.4086 53.34L64.0709 43.4753L67.7332 53.34C68.8555 56.3526 71.2183 58.7153 74.2309 59.8377L84.0955 63.5L74.2309 67.1623C71.2183 68.2847 68.8555 70.6474 67.7332 73.66L64.0709 83.5247L60.4086 73.66C59.2862 70.6474 56.9234 68.2847 53.9109 67.1623Z" fill="#CDCFFF"/>
</svg>
