<svg width="22" height="22" viewBox="0 0 22 22" fill="none" xmlns="http://www.w3.org/2000/svg">
<rect x="8" y="2" width="6" height="9" fill="#D7E0FF"/>
<path d="M22 17.875V16.5H20.5556C20.4664 16.0698 20.2955 15.6607 20.0523 15.2948L21.0767 14.2704L20.1046 13.2983L19.0802 14.3227C18.7143 14.0795 18.3052 13.9086 17.875 13.8194V12.375H16.5V13.8194C16.0698 13.9086 15.6607 14.0795 15.2948 14.3227L14.2704 13.2983L13.2983 14.2704L14.3227 15.2948C14.0795 15.6607 13.9086 16.0698 13.8194 16.5H12.375V17.875H13.8194C13.9088 18.3129 14.0834 18.7199 14.3227 19.0802L13.2983 20.1046L14.2704 21.0767L15.2948 20.0523C15.6607 20.2955 16.0698 20.4664 16.5 20.5556V22H17.875V20.5556C18.3052 20.4664 18.7143 20.2955 19.0802 20.0523L20.1046 21.0767L21.0767 20.1046L20.0523 19.0802C20.2955 18.7143 20.4664 18.3052 20.5556 17.875H22ZM17.1875 19.25C16.0504 19.25 15.125 18.3246 15.125 17.1875C15.125 16.0504 16.0504 15.125 17.1875 15.125C18.3246 15.125 19.25 16.0504 19.25 17.1875C19.25 18.3246 18.3246 19.25 17.1875 19.25ZM13.75 11.6875H8.25C7.88533 11.6875 7.53559 11.5426 7.27773 11.2848C7.01987 11.0269 6.875 10.6772 6.875 10.3125V2.75C6.875 2.38533 7.01987 2.03559 7.27773 1.77773C7.53559 1.51987 7.88533 1.375 8.25 1.375H13.75C14.1147 1.375 14.4644 1.51987 14.7223 1.77773C14.9801 2.03559 15.125 2.38533 15.125 2.75V10.3125C15.125 10.6772 14.9801 11.0269 14.7223 11.2848C14.4644 11.5426 14.1147 11.6875 13.75 11.6875ZM8.25 10.3125H13.75V2.75H8.25V10.3125Z" fill="#4147D5"/>
<path d="M11.6875 14.4375H5.5C5.13533 14.4375 4.78559 14.2926 4.52773 14.0348C4.26987 13.7769 4.125 13.4272 4.125 13.0625V4.8125H5.5V13.0625H11.6875V14.4375Z" fill="#4147D5"/>
<path d="M8.9375 17.1875H2.75C1.99169 17.1875 1.375 16.5708 1.375 15.8125V7.5625H2.75V15.8125H8.9375V17.1875Z" fill="#4147D5"/>
</svg>
